<svg xmlns="http://www.w3.org/2000/svg" viewBox="0 0 20 20" fill="currentColor" aria-hidden="true" data-slot="icon">
  <path d="M10.038 4.033 8.441 5.64H5.675v2.717L4 10.005l1.675 1.649v2.695H8.36l1.643 1.618 1.643-1.618h2.714v-2.687L16 10.012l-1.616-1.625V5.66h-2.729l-1.617-1.627Zm0 .374 1.245 1.253h-.845v3.22l-.4.403-.405-.407V5.64h-.82l1.225-1.233Zm-4.1 1.496H8.18l-.938.943 2.127 2.14v.326H8.97l-2.133-2.1-.899.884V5.903Zm2.614 0h.817V8.61L7.614 6.845l.938-.942Zm2.15.021h.844l.915.921-1.758 1.77v-2.69Zm1.216 0h2.202v2.197l-.915-.92-2.12 2.133h-.383v-.345l2.131-2.144-.915-.92Zm1.287 1.65.915.922v.838h-2.663l1.748-1.76Zm-6.367.007 1.757 1.73H5.938v-.844l.9-.886ZM5.674 8.727v.848h3.189l.435.43-.391.384H5.675v.893l-1.298-1.277 1.297-1.278Zm8.71.034 1.244 1.251-1.267 1.275v-.898h-3.205l-.375-.377.413-.415h3.19v-.836Zm-4.751.489.405.407.093-.094.307-.309v.343h.384l-.412.415.374.377h-.359v.404l-.421-.415-.37.365v-.353h-.35l.39-.385-.094-.093-.341-.336h.394V9.25Zm-3.695 1.403h2.701l-1.801 1.775-.9-.886v-.889Zm3.077 0h.354v.35l-2.202 2.17.926.911H5.938v-2.17l.899.884 2.178-2.145Zm1.674 0h.357l2.159 2.172.093-.094.8-.805v2.158h-2.184l.927-.912-.094-.093-2.058-2.027v-.399Zm.73 0h2.678v.9l-.892.897-1.786-1.797Zm-1.415.096.421.414v3.185h.845l-1.265 1.248-1.267-1.248h.895v-3.233l.371-.366Zm-.635.625v2.71h-.9l-.925-.911 1.825-1.799Zm1.32.049 1.776 1.75-.926.912h-.85v-2.662Z"/>
</svg>
