<svg xmlns="http://www.w3.org/2000/svg" viewBox="0 0 20 20" fill="currentColor" aria-hidden="true" data-slot="icon">
  <path d="M4.364 12.996c.047.204.355.307.496.163.036-.035.543-.962 1.124-2.057A176.868 176.868 0 0 1 7.054 9.1c.016-.013 4.692-.796 4.765-.8a.57.57 0 0 0 .109-.076c.106-.089.118-.195.042-.357-.062-.136-.31-.402-.529-.573l-.174-.136-2.017.706c-1.11.387-2.03.7-2.048.694-.017-.01 1.61-1.468 2.505-2.246l.085-.074-.607-.295a10.094 10.094 0 0 0-.634-.297c-.018 0-.434.586-.927 1.303-.707 1.029-.902 1.292-.908 1.234-.006-.056.348-2.594.422-3.028l.014-.094-.633-.212a8.217 8.217 0 0 0-.659-.202c-.011.006.048.733.13 1.618.086.885.16 1.673.168 1.75.009.111.006.135-.023.102-.02-.024-.459-.899-.971-1.944l-.937-1.908-.155-.018c-.286-.032-.674-.018-.825.035-.186.065-.269.168-.242.31.015.07.44.682 1.407 2.015l1.39 1.912-.201.623c-.11.34-.437 1.33-.726 2.197-.385 1.15-.522 1.597-.51 1.658ZM15.102 16c.93 0 1.552-.401 1.805-1.16.077-.235.08-.257.08-1.009l.003-.766h-1.887l-.01.3-.01.304.586.006.584.009v.472c0 .419-.01.487-.066.61-.147.322-.448.526-.858.585-.584.082-1.109-.168-1.321-.628l-.086-.184-.009-1.295c-.006-1.12-.002-1.315.04-1.46.161-.557.692-.862 1.35-.77.551.076.905.436.959.973l.02.222h.708l.009-.165a1.592 1.592 0 0 0-.035-.363c-.133-.57-.57-1.018-1.184-1.216-.292-.095-.858-.124-1.165-.059-.699.15-1.167.555-1.365 1.183-.062.2-.066.245-.066 1.594 0 1.35.004 1.392.066 1.592.25.794.906 1.225 1.852 1.225ZM8.71 13.89c.003-1.117.014-2.041.03-2.053.011-.012.586.903 1.277 2.033l1.26 2.056h.699v-5.488h-.709l-.008 2.037c-.003 1.118-.016 2.04-.03 2.055-.025-.01-.595-.918-1.277-2.035l-1.26-2.056-.342-.01c-.26-.005-.348.004-.357.03-.009.02-.012 1.26-.009 2.753l.01 2.714H8.7l.009-2.035Z"/>
</svg>
