<svg xmlns="http://www.w3.org/2000/svg" viewBox="0 0 20 20" fill="currentColor" aria-hidden="true" data-slot="icon">
  <path d="M9.925 6.89c.023.012.042.04.07.04.026 0 .066-.01.068-.035.005-.033-.044-.054-.075-.068-.04-.017-.091-.024-.129-.003-.01.005-.019.017-.014.026.007.03.054.026.08.04Zm-.513.04c.028 0 .046-.028.07-.04.026-.014.073-.01.082-.038.005-.009-.005-.02-.014-.025-.038-.022-.09-.014-.13.002-.03.014-.079.035-.074.068.002.023.042.035.066.033Zm5.182 6.534c-.085-.094-.125-.272-.17-.462-.041-.19-.09-.393-.245-.525a.626.626 0 0 0-.19-.114c.215-.64.131-1.278-.087-1.854-.267-.706-.733-1.322-1.09-1.744-.4-.504-.79-.982-.782-1.688.011-1.075.119-3.075-1.777-3.077-2.4-.005-1.8 2.423-1.826 3.169-.04.548-.15.98-.527 1.516-.443.528-1.067 1.378-1.362 2.267-.14.42-.206.846-.145 1.249-.153.136-.267.344-.39.473-.098.101-.24.139-.398.195-.157.056-.328.14-.433.34a.6.6 0 0 0-.066.29c0 .092.014.185.028.277.028.19.059.368.019.487-.122.338-.138.572-.052.743.09.171.268.246.471.288.406.085.957.064 1.39.293.464.244.935.331 1.31.244a.85.85 0 0 0 .608-.473c.292-.003.616-.127 1.131-.155.35-.028.788.124 1.292.096a.748.748 0 0 0 .058.157v.003a.94.94 0 0 0 .945.539c.39-.03.8-.258 1.132-.654.319-.385.844-.544 1.193-.755.174-.105.314-.237.326-.429.01-.192-.103-.405-.363-.696ZM9.993 6.046c.23-.52.801-.51 1.031-.01.152.334.084.725-.1.948a2.9 2.9 0 0 0-.296-.115c.026-.028.073-.064.091-.108.113-.277-.004-.633-.213-.64-.171-.012-.326.253-.277.54a1.67 1.67 0 0 0-.304-.104.934.934 0 0 1 .068-.51Zm-.954-.27c.237 0 .487.333.448.786a.843.843 0 0 0-.24.108c.029-.21-.077-.472-.225-.46-.196.017-.23.497-.042.659.024.019.045-.005-.138.129-.366-.343-.246-1.221.197-1.221ZM8.72 7.2c.145-.108.319-.234.33-.246.11-.103.317-.333.655-.333.166 0 .365.054.607.209.147.096.264.103.53.218.196.082.32.227.245.426-.06.167-.258.338-.532.425-.26.084-.464.375-.895.349a.653.653 0 0 1-.225-.05c-.188-.081-.286-.243-.469-.35-.201-.113-.31-.245-.344-.36-.033-.114 0-.21.098-.288Zm.077 7.828c-.063.823-1.028.807-1.764.422-.701-.37-1.608-.152-1.793-.513-.057-.11-.057-.298.06-.619v-.005c.057-.178.015-.374-.013-.56-.029-.183-.043-.351.02-.468.083-.157.2-.214.348-.265.24-.087.276-.08.459-.232.129-.134.223-.303.335-.422.12-.13.234-.19.415-.162.19.028.354.16.513.375l.46.835c.222.466 1.01 1.134.96 1.614Zm-.032-.607a5.039 5.039 0 0 0-.338-.46c.167 0 .333-.05.392-.208.053-.145 0-.349-.174-.583-.316-.427-.898-.762-.898-.762-.316-.197-.494-.438-.576-.7-.082-.263-.07-.547-.007-.826.122-.537.436-1.06.637-1.387.054-.04.02.075-.204.487-.199.378-.571 1.25-.06 1.931.014-.485.128-.98.323-1.44.281-.643.874-1.756.921-2.642.026.018.108.075.145.096.108.063.19.157.296.241.29.235.668.216.994.028.145-.082.262-.175.372-.21.232-.073.417-.202.523-.352.18.712.602 1.741.872 2.243.143.267.428.832.553 1.514a.931.931 0 0 1 .255.033c.324-.837-.274-1.74-.546-1.99-.11-.108-.115-.155-.06-.153.294.263.684.79.824 1.383.066.272.077.556.01.837.384.16.841.42.72.816-.053-.003-.076 0-.1 0 .076-.237-.09-.413-.534-.612-.46-.202-.844-.202-.897.293-.284.098-.43.344-.502.64-.066.262-.084.579-.103.935-.012.18-.084.422-.16.68-.752.536-1.797.77-2.678.168Zm6.032-.27c-.02.394-.965.467-1.48 1.09-.31.369-.69.572-1.023.598a.767.767 0 0 1-.79-.452c-.11-.26-.056-.541.026-.85.087-.334.216-.676.232-.952.02-.357.04-.668.099-.907.06-.242.154-.404.32-.495.008-.005.017-.007.024-.012.019.31.171.624.44.692.296.077.72-.176.9-.382.212-.007.369-.021.53.12.233.198.167.71.401.974.249.272.329.457.321.577ZM8.813 7.486c.046.045.11.106.187.167.155.121.37.248.64.248.272 0 .527-.138.745-.253.115-.061.256-.164.347-.244.091-.08.138-.148.073-.155-.066-.007-.061.061-.14.12-.104.075-.228.173-.327.23-.173.098-.457.239-.7.239a.94.94 0 0 1-.584-.228c-.073-.058-.134-.117-.18-.161-.036-.033-.045-.108-.101-.115-.033-.003-.042.087.04.152Z"/>
</svg>
