<svg xmlns="http://www.w3.org/2000/svg" viewBox="0 0 20 20" fill="currentColor" aria-hidden="true" data-slot="icon">
  <g clip-path="url(#a)">
    <path d="M16.234 9.231c0-.105.037-.196.112-.27a.369.369 0 0 1 .27-.113c.107 0 .197.038.272.112a.37.37 0 0 1 .112.271.371.371 0 0 1-.112.271.369.369 0 0 1-.271.113.37.37 0 0 1-.27-.113.369.369 0 0 1-.113-.27Zm.703 0a.311.311 0 0 0-.093-.226.308.308 0 0 0-.227-.094.31.31 0 0 0-.227.094.309.309 0 0 0-.093.226.307.307 0 0 0 .093.227.31.31 0 0 0 .227.094.309.309 0 0 0 .227-.094.309.309 0 0 0 .093-.227Zm-.2.231-.121-.204h-.069v.204h-.066v-.471h.12c.114 0 .171.043.171.13 0 .06-.03.103-.092.128l.13.213h-.074Zm-.19-.414v.157l.045.001c.044 0 .073-.006.088-.016.015-.012.023-.033.023-.064 0-.053-.034-.079-.102-.079h-.054Zm-2.27 1.913c0 .235.008.389.085.478.077.086.2.124.354.124.739 0 .99-.657.99-1.238 0-.768-.405-1.225-1.178-1.225-.114 0-.196.021-.221.056-.026.034-.03.115-.03.247v1.558Zm-.61-1.353c0-.405-.009-.487-.205-.508l-.082-.008c-.042-.022-.042-.146.01-.15a17.8 17.8 0 0 1 1.143-.038c.35 0 .7.034.995.14.559.201.866.705.866 1.238 0 .572-.273 1.033-.764 1.277-.29.145-.64.2-1.08.2-.2 0-.414-.025-.568-.025-.204 0-.422.004-.665.012-.034-.025-.034-.128 0-.149l.132-.02c.192-.035.218-.065.218-.458V9.61m-1.403 2.193c-.393 0-.636-.111-.726-.162-.08-.094-.136-.401-.136-.692.03-.055.128-.06.162-.012.085.277.371.67.734.67.316 0 .46-.218.46-.432 0-.345-.323-.55-.58-.678-.307-.154-.64-.41-.644-.833 0-.482.371-.815.99-.815.141 0 .316.017.487.069.055.017.094.025.146.034.033.093.075.324.075.61-.02.051-.127.056-.166.013-.072-.218-.256-.53-.563-.53-.282 0-.436.184-.436.397 0 .197.175.376.389.487l.282.15c.264.14.602.388.602.858 0 .525-.432.866-1.076.866Zm-2.45-.79c0 .333.042.543.375.543.316 0 .482-.244.482-.59 0-.37-.213-.631-.622-.631-.236 0-.236.004-.236.175l.001.504Zm0-.985c0 .11.004.119.226.119.367 0 .503-.235.503-.49 0-.372-.23-.556-.525-.556-.2 0-.204.035-.204.222v.705Zm-.59-.414c0-.432-.008-.479-.187-.5l-.116-.018c-.038-.02-.046-.149.018-.153.324-.021.636-.038 1.062-.038.41 0 .683.046.871.157.183.111.295.29.295.543 0 .359-.304.5-.436.534-.043.008-.085.025-.085.046 0 .013.021.026.06.035.337.072.623.294.627.708a.716.716 0 0 1-.5.717c-.268.094-.588.107-.849.107-.153 0-.315-.017-.44-.017-.208 0-.418.004-.661.012-.034-.025-.034-.136 0-.149l.124-.026c.192-.037.218-.068.218-.452V9.612m-.953.645c-.055 0-.06.004-.06.098v.64c0 .24 0 .504.3.504.059 0 .128-.03.178-.064.043.013.069.06.06.11a.868.868 0 0 1-.614.249c-.354 0-.479-.205-.479-.487v-.952c0-.09-.004-.098-.08-.098h-.132c-.047-.017-.06-.102-.026-.132.132-.047.252-.124.354-.193.077-.055.184-.144.316-.332.03-.018.107-.013.128.02v.321c0 .081.004.085.081.085h.38c.022.018.035.043.035.082 0 .046-.013.123-.056.15h-.385Zm-1.532.277a.34.34 0 0 0 .175-.038c.021-.013.03-.056.03-.098 0-.14-.082-.235-.227-.235-.179 0-.332.17-.332.307 0 .06.06.064.196.064h.158Zm-.282.188c-.098 0-.107.009-.107.077 0 .32.205.632.602.632.12 0 .282-.026.397-.222a.096.096 0 0 1 .11.098.817.817 0 0 1-.746.487c-.576 0-.888-.406-.888-.871 0-.538.389-.957.922-.957.444 0 .683.287.683.616 0 .08-.02.14-.153.14h-.82Zm-.733.286c0 .278 0 .547.009.688-.03.05-.15.098-.252.098-.005 0-.146-.218-.346-.466l-.986-1.22c-.243-.308-.388-.483-.465-.547-.021.043-.021.115-.021.273v.829c0 .345.017.665.064.78.038.09.137.116.247.137l.12.018c.034.034.026.123 0 .148-.19-.007-.381-.012-.572-.012-.158 0-.316.004-.478.012-.026-.025-.034-.114 0-.149l.072-.013c.116-.025.197-.05.235-.14.043-.116.06-.436.06-.782V9.578c0-.234 0-.303-.03-.363-.03-.072-.094-.115-.243-.145l-.12-.017c-.03-.034-.025-.136.018-.15.2.009.413.014.588.014.146 0 .269-.005.36-.013.042.192.319.516.703.973l.358.423c.193.221.312.37.41.47.018-.043.018-.116.018-.193v-.59c0-.345-.018-.665-.064-.78-.04-.09-.133-.115-.248-.137l-.116-.017c-.033-.034-.025-.123 0-.15a9.584 9.584 0 0 0 1.05 0c.026.027.035.116 0 .15l-.076.013c-.11.026-.193.051-.231.141-.047.115-.064.435-.064.781v1.02m9.838-5.913c-1.661-.798-3.164-.417-4.845.086-1.693.506-3.198.78-4.889.09l.461.822.508.909.46.822c1.347.38 2.462-.113 3.658-.712 1.437-.717 2.735-1.363 4.377-.989-1.387-.694-2.645-.522-4.095-.128 1.42-.724 2.756-1.286 4.365-.9Zm-4.886 9.851L9.35 12.388h-.57l1.332 2.815s.134.266.422.119c.288-.146.143-.376.143-.376M5.703 5.348s-.04-.092-.151-.03c-.094.051-.045.147-.045.147L7.259 9.17h.425l-1.98-3.822Z"/>
  </g>
  <defs>
    <clipPath id="a">
      <path d="M3 3h14v14H3z"/>
    </clipPath>
  </defs>
</svg>
