<svg xmlns="http://www.w3.org/2000/svg" viewBox="0 0 20 20" fill="currentColor" aria-hidden="true" data-slot="icon">
  <g clip-path="url(#a)">
    <path d="M4.086 3h1.008v2.07h2.252V3h1.015v5.182H7.35V5.996H5.093v2.185h-1.01L4.086 3Zm6.995 0h.996l1.638 2.742h.059L15.412 3h1.003v5.182h-1.003V5.627l.058-.869h-.058l-1.361 2.324h-.607l-1.369-2.324h-.058l.059.869v2.555h-.996L11.082 3Zm2.743 12.628a2.385 2.385 0 0 1-.673-.094 1.993 1.993 0 0 1-1.056-.738 2.226 2.226 0 0 1-.314-.637l.972-.362c.064.247.194.472.375.65a.982.982 0 0 0 .704.254 1.02 1.02 0 0 0 .573-.153.595.595 0 0 0 .192-.195.513.513 0 0 0 .069-.268.615.615 0 0 0-.054-.26.602.602 0 0 0-.183-.218 1.485 1.485 0 0 0-.33-.196 4.753 4.753 0 0 0-.496-.195l-.337-.117a2.772 2.772 0 0 1-.451-.195 2.008 2.008 0 0 1-.409-.297 1.553 1.553 0 0 1-.306-.405 1.22 1.22 0 0 1-.117-.536 1.311 1.311 0 0 1 .482-1.028c.165-.138.354-.244.558-.31.234-.08.48-.12.727-.117.242-.006.483.03.712.108.185.058.36.149.513.268.134.097.25.217.344.354.079.115.143.24.191.37l-.91.361a.903.903 0 0 0-.283-.39.81.81 0 0 0-.55-.175.966.966 0 0 0-.559.152.44.44 0 0 0-.221.384.491.491 0 0 0 .214.397c.21.138.439.243.68.312l.345.108c.206.067.405.152.596.254.173.084.331.196.467.332.13.127.232.28.298.449.075.18.111.376.107.571.006.245-.054.487-.175.7-.109.19-.258.353-.436.478a1.96 1.96 0 0 1-.604.283 2.437 2.437 0 0 1-.658.093l.003.008Zm-7.6 0a2.59 2.59 0 0 1-1.884-.782 2.774 2.774 0 0 1-.557-.86c-.133-.34-.2-.7-.198-1.065-.003-.361.064-.72.198-1.056.128-.32.318-.613.557-.862a2.555 2.555 0 0 1 1.883-.788c.359-.004.714.068 1.044.21a2.578 2.578 0 0 1 1.39 1.44c.139.335.208.694.205 1.056a2.78 2.78 0 0 1-.204 1.064c-.127.32-.314.612-.551.861a2.622 2.622 0 0 1-1.884.782h.002Zm0-.926c.226.002.45-.043.657-.13a1.61 1.61 0 0 0 .537-.363c.157-.158.28-.348.36-.557.09-.232.136-.48.134-.73a1.882 1.882 0 0 0-.135-.724 1.609 1.609 0 0 0-.897-.926 1.645 1.645 0 0 0-.655-.13 1.666 1.666 0 0 0-1.2.492 1.719 1.719 0 0 0-.36.565c-.087.23-.13.476-.127.723-.003.25.04.497.127.73.083.208.205.397.36.558a1.665 1.665 0 0 0 1.2.492Zm-1.923 1.416h3.792V17H4.301v-.882Z"/>
  </g>
  <defs>
    <clipPath id="a">
      <path d="M3 3h14v14H3z"/>
    </clipPath>
  </defs>
</svg>
