<svg xmlns="http://www.w3.org/2000/svg" viewBox="0 0 20 20" fill="currentColor" aria-hidden="true" data-slot="icon">
  <path d="M10.462 4.614a8.22 8.22 0 0 0-.742.013c-1.23.141-2.07.65-2.377 1.446-.109.276-.137.5-.122.886.024.605.21 1.002.631 1.37.613.53 1.49.755 3 .755 1.368 0 1.854.206 1.957.837.157.934-.784 1.535-2.207 1.414-.938-.08-1.748-.456-2.111-.984a3.874 3.874 0 0 1-.178-.31c-.19-.38-.32-.489-.588-.489-.214.003-.365.083-.458.247l-.067.12v2.015l.069.148c.082.172.2.273.372.315.175.045.396-.018.71-.2l.25-.146.412.093c.91.201 1.376.261 2.033.261.552.003.774-.023 1.228-.142.562-.149.987-.393 1.358-.785.4-.422.575-.927.549-1.574-.035-.814-.348-1.349-1-1.707-.48-.262-1.146-.395-2.189-.44-1.021-.043-1.397-.077-1.758-.16-.255-.06-.392-.125-.537-.257-.327-.295-.295-.878.068-1.241.32-.319.755-.464 1.386-.464.716.002 1.197.135 1.707.477.092.064.36.31.596.546.443.451.567.541.753.541a.546.546 0 0 0 .366-.172c.13-.164.152-.315.152-1.1 0-.83-.022-.955-.189-1.14-.194-.213-.424-.21-.875.015l-.295.148-.315-.085c-.748-.196-1.019-.238-1.589-.252ZM4 10.887v4.5h12v-.5H4.5v-4H4Z"/>
</svg>
