<svg xmlns="http://www.w3.org/2000/svg" viewBox="0 0 20 20" fill="currentColor" aria-hidden="true" data-slot="icon">
  <path d="M17.121 9.55a5.827 5.827 0 0 0-.14-.854c-.03-.145-.08-.283-.116-.428L16.8 8.07l-.037-.096-.043-.108a5.256 5.256 0 0 0-.377-.765 5.831 5.831 0 0 0-.937-1.21l-.055-.055-.024-.03-.043-.036c-.037-.036-.073-.066-.11-.103a1.618 1.618 0 0 1-.103-.096 1.69 1.69 0 0 0-.122-.096l-.097-.079-.049-.036-.012-.012-.03-.024-.006-.006-.025-.018a8.24 8.24 0 0 0-.17-.114c-.098-.067-.17-.12-.225-.157.06-.229.11-.464.146-.699.06-.355.31-1.09-.201-1.3-.481-.2-1.108.704-1.108.704a9.107 9.107 0 0 0-2.19 5.161c.316.067.62.205.876.404h.006a9.23 9.23 0 0 0 1.588-2.072c.408.253.767.578 1.053.964l.043.054.042.066.085.133c.05.084.104.162.146.253a4.04 4.04 0 0 1 .475 2.156 3.324 3.324 0 0 1-.049.421c-.015.11-.038.219-.066.325l-.08.278.116-.265c.03-.085.073-.193.11-.32.042-.138.079-.283.103-.421.03-.169.055-.343.067-.518.012-.195.012-.39 0-.584a4.311 4.311 0 0 0-.085-.627 5.385 5.385 0 0 0-.183-.632 3.456 3.456 0 0 0-.134-.313l-.067-.139-.036-.072-.018-.078a4.5 4.5 0 0 0-1.168-1.367c.09-.205.182-.416.255-.633l.036.018.183.097.024.012.006.006c.025.018-.036-.024-.03-.018l.012.006.049.03.103.066.055.036.03.018.012.012h.007c.006.006-.03-.024-.019-.012l.006.006c.037.03.073.055.116.085l.122.09.018.012c-.024-.018-.006-.006-.012-.012h.006l.006.006.03.024.061.048a5.25 5.25 0 0 1 1.333 1.632l.043.085.042.096.092.187c.048.12.103.24.14.367.176.5.28 1.03.298 1.56.006.126.006.253.006.38 0 .126-.012.246-.018.36-.018.224-.055.44-.104.663a5.6 5.6 0 0 1-.152.548c-.049.163-.11.301-.152.416-.049.114-.091.199-.116.259-.03.06-.042.09-.042.09s.018-.03.054-.084c.031-.054.086-.139.147-.247.054-.109.127-.241.194-.398.08-.174.152-.355.207-.542a6.01 6.01 0 0 0 .177-.668 3.7 3.7 0 0 0 .06-.374c.02-.13.031-.26.037-.391a5.341 5.341 0 0 0-.006-.825Zm-7.613.417a9.13 9.13 0 0 0-2.642-.372 3.63 3.63 0 0 1 .349-1.375l.03-.06.036-.07.072-.136c.048-.083.09-.165.15-.242.217-.325.482-.614.783-.862.139-.118.29-.224.446-.319a4.509 4.509 0 0 1 .83-.396c.12-.047.23-.07.313-.094l.283-.065s-.102.006-.289.03c-.09.012-.204.023-.33.053-.143.029-.283.064-.422.106a5.443 5.443 0 0 0-.488.183c-.18.077-.349.171-.511.272a4.226 4.226 0 0 0-.981.82c-.073.077-.145.171-.217.26l-.09.124-.043.065-.048.07a3.917 3.917 0 0 0-.307.562 4.15 4.15 0 0 0-.337 1.098v.017a8.12 8.12 0 0 0-.65.083v-.348c.006-.03-.006.041-.006.035v-.018c0-.017.006-.035.006-.059.006-.041.006-.076.012-.118 0-.023.006-.041.006-.065v-.053c0-.006-.006.042-.006.018v-.006l.018-.136c.006-.047.012-.094.024-.141V8.81c-.006.03 0 .006-.006.012v-.018l.006-.035.012-.077c.15-.68.421-1.328.813-1.901l.054-.077.06-.083.126-.165c.085-.094.163-.2.26-.295a5.323 5.323 0 0 1 1.558-1.163c.109-.059.223-.106.326-.153.204-.089.415-.16.626-.225.18-.053.367-.094.553-.13.169-.035.313-.047.434-.065.12-.011.216-.017.283-.023h.096l-.102-.006c-.067 0-.163-.006-.283-.006-.12.006-.271 0-.446.018a6.063 6.063 0 0 0-.572.076 5.003 5.003 0 0 0-.668.166c-.12.037-.238.078-.355.124a6.63 6.63 0 0 0-1.09.549c-.24.153-.469.33-.686.52-.108.088-.216.2-.319.3l-.138.154-.072.077-.073.088c-.18.213-.349.443-.493.679a5.709 5.709 0 0 0-.62 1.364l-.024.07-.012.036-.013.053-.036.142-.036.136c-.012.053-.018.1-.03.147-.006.041-.018.083-.024.118-.006.018-.006.036-.012.06v.017l-.006.035v.036c-.006.07-.012.136-.024.2l-.036.355c-.21.053-.422.118-.626.189 0 0-1.102.253-1.042.785.06.502 1.144.602 1.144.602a9.312 9.312 0 0 0 5.562-.59 2.066 2.066 0 0 1-.06-.94Zm2.625 1.153a2.098 2.098 0 0 1-.783.553v.006c.229.882.584 1.72 1.054 2.5a3.939 3.939 0 0 1-1.325.425l-.067.006-.078.006-.157.012c-.096 0-.192.006-.289 0a3.767 3.767 0 0 1-1.163-.2 3.774 3.774 0 0 1-.512-.207 3.793 3.793 0 0 1-.777-.493c-.102-.079-.18-.158-.253-.219a5.065 5.065 0 0 1-.204-.206s.06.085.174.23c.06.074.133.159.223.25.103.11.205.207.32.304a4.205 4.205 0 0 0 .922.608c.186.091.385.17.583.237a4.642 4.642 0 0 0 .976.195l.157.012.078.006h.09c.217 0 .434-.012.651-.043a4.489 4.489 0 0 0 1.079-.286c.132.183.27.36.415.53-.006.005-.012.005-.018.011l-.175.11-.024.012-.006.006c-.03.012.036-.018.03-.012h-.006l-.012.006c-.018.006-.036.018-.054.025l-.108.054-.06.03-.03.019-.013.006h-.006c-.006 0 .036-.018.018-.006l-.006.006-.126.055c-.042.018-.09.036-.133.06l-.018.007c.03-.013.006 0 .012-.007h-.006l-.006.007-.036.012-.072.03a5.226 5.226 0 0 1-2.072.353l-.09-.006-.103-.006-.211-.019c-.127-.018-.26-.03-.392-.06a5.33 5.33 0 0 1-1.506-.517c-.114-.061-.223-.122-.331-.183-.108-.06-.205-.133-.307-.2a5.832 5.832 0 0 1-.524-.414 5.077 5.077 0 0 1-.404-.401c-.12-.121-.205-.243-.283-.34-.078-.098-.127-.177-.169-.232l-.06-.085.048.085c.036.055.079.146.145.25.066.103.144.23.253.37.114.159.24.31.367.45.157.17.32.335.494.48.097.08.193.165.295.238.103.079.211.158.326.231.234.151.477.287.729.407.265.122.536.225.813.304.138.043.289.073.434.11l.204.036.103.018.114.019c.283.036.566.055.85.055a6.06 6.06 0 0 0 1.512-.213l.072-.019.036-.012.054-.018c.049-.018.097-.03.139-.049l.132-.042.145-.055c.042-.018.078-.03.114-.043.019-.006.037-.012.055-.024l.012-.006h.006l.036-.018.006-.006.024-.012.18-.092c.097-.048.17-.085.23-.109.156.152.313.298.482.432 0 0 .789.82 1.222.486.41-.316-.06-1.313-.06-1.313a9.226 9.226 0 0 0-3.38-4.487Zm-.033-.84a1.12 1.12 0 1 1-2.24 0 1.12 1.12 0 0 1 2.24 0Z"/>
</svg>
