<svg xmlns="http://www.w3.org/2000/svg" viewBox="0 0 20 20" fill="currentColor" aria-hidden="true" data-slot="icon">
  <path d="M4.576 2.478c.077.122.123.273.17.41l.052.07c.07.094.15.181.233.265.192.197.406.368.635.52.144.095.294.18.44.273l-.028-.015.046.027a3.08 3.08 0 0 1-.04-.223.939.939 0 0 1-.01-.142c-.001-.011-.043-.211.05-.13.109.094.184.258.249.38.117.222.22.45.311.683-.005-.013-.04-.106.05.106.008.016.018.032.026.045l.087.138c.04.06.078.12.12.178l.011.017.05.066c.098.128.2.254.305.377a15.543 15.543 0 0 0 .923.992l.158.152.056.051.078.07c.913.826 1.928 1.513 2.942 2.204.12.082.238.167.356.252a.605.605 0 0 1 .159.207c.04-.132.093-.261.155-.383.115-.228.271-.425.437-.614.102-.116.212-.231.33-.331l.004-.01c.31-.257.659-.459 1.059-.515.141-.02.286-.024.426-.015.232.013.45.072.667.141.15.049.306.105.443.18.072.039.15.08.194.148.005.01.011.017.015.028.004.012-.166-.025-.179-.028-.136-.035-.12-.033-.14-.033-.032 0-.065-.003-.098-.003a1.76 1.76 0 0 0-.156.008c-.28.036-.552.142-.794.296a3.336 3.336 0 0 0-.35.272.587.587 0 0 1-.45.178l-.085.193c-.092.217-.173.44-.226.671h.002c.008.014.01.016.003.002.073.074.109.18.145.274.044.113.07.234.084.357.036.332-.044.691-.132 1.036a6.602 6.602 0 0 1-.117.411 3.11 3.11 0 0 1-.093.252l-.085.202a3.96 3.96 0 0 1-.298.575c-.159.26-.323.52-.512.77-.099.13-.198.279-.337.389-.077.06.005-.08.005-.08.068-.135.152-.27.236-.402l.018-.028.026-.074c.011-.033.019-.067.028-.1a6.72 6.72 0 0 1-1.36 1.49c-.008.01-.015.022-.023.034-.599.897-1.342 1.735-2.228 2.36-.083.058-.598.405-.624.352-.025-.052.077-.173.098-.2l.014-.019.013-.02c.095-.144.21-.275.328-.4.136-.143.287-.303.46-.404a.41.41 0 0 1 .028-.018l.086-.058c.086-.06.171-.12.256-.182l.077-.07.015-.014.094-.097.007-.008a6.79 6.79 0 0 0 .144-.168c.033-.04.065-.082.098-.124l.052-.073c.042-.059.084-.118.123-.178-.747.478-1.563.867-2.419 1.09-.098.026-.702.17-.708.112-.005-.058.135-.136.163-.155l.02-.012.019-.014c.14-.1.293-.184.447-.26.177-.086.375-.183.573-.216l.032-.006.101-.025c.101-.025.202-.052.303-.08l.098-.04.018-.007.117-.055.014-.007.136-.072.057-.035a6.438 6.438 0 0 0 .193-.12 5.908 5.908 0 0 0 .383-.28l.056-.045c.09-.075.177-.153.263-.232.048-.044.095-.09.142-.135a6.403 6.403 0 0 1-1.78.573c-.185.03-.37.053-.559.056-.102.001-.247.009-.343-.041-.082-.043.027-.101.06-.116.126-.06.267-.087.403-.114l.042-.009.119-.029.119-.031.054-.016c.175-.054.348-.119.517-.19l.006-.003.05-.023c.046-.021.093-.042.14-.065a6.18 6.18 0 0 0 .737-.44l.004-.003.056-.041a6.374 6.374 0 0 0 .327-.257c.145-.121.283-.251.414-.386.155-.158.292-.328.421-.505l.023-.142c.034-.21.08-.42.142-.623-.171.018-.352.03-.525.017-.093-.007-.192-.013-.271-.064-.008-.005-.017-.009-.024-.016-.006-.01.171-.047.189-.05.152-.026.133-.02.154-.03.032-.013.064-.025.096-.04.047-.02.093-.044.138-.069a1.84 1.84 0 0 0 .48-.425l.029-.066-.059.032a3.022 3.022 0 0 1-.632.2c-.23.053-.462.101-.699.129-.095.01-.199.026-.296.005l.021-.016c.128-.06.283-.087.425-.117l.074-.041a2.55 2.55 0 0 0 .28-.193 3.41 3.41 0 0 0 .409-.377 3.16 3.16 0 0 1-.647.066 2.968 2.968 0 0 1-.524-.032c-.093-.016-.193-.03-.268-.09a.105.105 0 0 1-.019-.017c-.01-.012.212-.035.193-.034.154-.011.135-.007.156-.014.033-.01.067-.019.1-.03.063-.02.139-.052.117-.042.212-.098.4-.242.56-.411-.053.011-.106.024-.159.032a2.905 2.905 0 0 1-.738-.003 2.93 2.93 0 0 1-.518-.093c-.087-.025-.182-.051-.249-.116-.008-.007-.016-.013-.022-.023-.008-.012.181-.01.195-.011.154.007.135.01.156.005l.103-.019c.064-.013.144-.035.121-.028a1.85 1.85 0 0 0 .63-.363l-.121.023c-.184.034-.37.057-.558.048a3.021 3.021 0 0 1-.66-.121 6.378 6.378 0 0 1-.675-.218c-.088-.035-.186-.07-.257-.135l.026-.004c.144.007.294.057.433.097.03 0 .059 0 .087-.002.118-.004.236-.02.352-.038.231-.037.456-.099.676-.177-.01 0-.02.002-.03.001a2.257 2.257 0 0 1-.448-.063 2.917 2.917 0 0 1-.683-.28 2.965 2.965 0 0 1-.445-.282c-.072-.057-.15-.117-.188-.204-.004-.009-.009-.017-.011-.027-.003-.015.174.06.186.063.139.064.121.059.142.063.034.007.068.015.103.021.048.01.107.018.123.02.213.015.426-.014.63-.073-.144-.001-.289-.018-.433-.058a2.25 2.25 0 0 1-.422-.165 2.91 2.91 0 0 1-.6-.43c-.129-.115-.259-.241-.366-.378-.057-.072-.12-.149-.136-.24-.002-.01-.005-.02-.004-.031.004-.013.18.116.165.104.122.096.105.086.125.095.031.015.062.031.094.045.045.02.1.04.115.047.294.092.608.1.91.044a7.346 7.346 0 0 1-.523-.131c-.18-.05-.359-.11-.523-.2a3.018 3.018 0 0 1-.541-.397 6.367 6.367 0 0 1-.513-.49c-.064-.07-.136-.144-.172-.233l.025.007c.126.07.24.18.347.276l.08.037c.107.048.22.085.333.12.147.043.297.077.449.103l-.107-.037a2.588 2.588 0 0 1-.54-.307 4.173 4.173 0 0 1-.484-.412c-.062-.06-.118-.126-.176-.19l-.032-.038-.158-.19a2.797 2.797 0 0 1-.242-.368l-.003-.004.002.002c-.004-.009-.009-.017-.011-.027a.088.088 0 0 1 .033.014l-.024-.009c.144.046.272.162.388.253.068.053.13.114.195.172l.006.007.052.035.01.006.059.033c.082.045.168.083.255.116.152.05.308.082.467.09h.033a4.713 4.713 0 0 1-.141-.053c-.195-.075-.38-.173-.567-.268a2.48 2.48 0 0 1-.472-.3 3.02 3.02 0 0 1-.45-.498 6.352 6.352 0 0 1-.405-.583c-.048-.081-.104-.17-.12-.264l.022.013c.11.094.198.224.285.34l.07.052c.096.068.198.128.302.183l.03.015a3.238 3.238 0 0 1-.17-.172 4.202 4.202 0 0 1-.39-.503c-.047-.071-.09-.147-.132-.222a1.505 1.505 0 0 1-.025-.044l-.114-.217a2.79 2.79 0 0 1-.162-.41l-.001-.003c-.002-.01-.005-.02-.005-.029a.091.091 0 0 1 .03.02l-.022-.013c.132.074.233.215.328.328.055.066.104.137.154.207l.006.008.044.046.008.008.05.045c.071.06.147.114.225.165a3.511 3.511 0 0 1-.21-.489 6.373 6.373 0 0 1-.213-.675c-.022-.092-.048-.193-.037-.288l.019.018Zm5.476 9.897.022.015-.025-.016h.003Zm-1.41-1.858.015.016-.021-.02.005.004Zm7.083-2.457-.005-.008-.008-.014.013.022Z"/>
</svg>
