<svg xmlns="http://www.w3.org/2000/svg" viewBox="0 0 20 20" fill="currentColor" aria-hidden="true" data-slot="icon">
  <path d="M7.575 11.62H6.18a.2.2 0 0 0-.2.2v1c0 .105.09.2.2.2h1.4v.66H5.83c-.28 0-.51-.23-.51-.515V11.47c0-.28.23-.51.515-.51h1.74v.66Zm.505-1.85c0 .29-.235.525-.525.525h-2.24V9.62h1.89a.2.2 0 0 0 .2-.2V7.195a.2.2 0 0 0-.2-.2h-1.01a.2.2 0 0 0-.205.2v1.01c0 .115.09.2.2.2H7v.675H5.84a.52.52 0 0 1-.525-.52V6.84c0-.285.235-.52.525-.52h1.71c.29 0 .525.235.525.52v2.93h.005Zm6.6 3.91h-.66v-2.06h-.465a.2.2 0 0 0-.2.2v1.86h-.665v-2.06h-.465a.2.2 0 0 0-.2.2v1.86h-.665v-2.21c0-.28.23-.51.515-.51h2.805v2.72Zm.005-3.91c0 .29-.235.525-.525.525h-2.24V9.62h1.89a.2.2 0 0 0 .2-.2V7.195a.2.2 0 0 0-.2-.2h-1.015a.2.2 0 0 0-.2.2v1.01c0 .115.09.2.2.2h.81v.675H12.45a.52.52 0 0 1-.525-.52V6.84c0-.285.235-.52.525-.52h1.715c.29 0 .525.235.525.52v2.93h-.005ZM10.86 6.32H9.14a.52.52 0 0 0-.52.52v1.72c0 .29.23.52.52.52h1.72a.52.52 0 0 0 .52-.52V6.84a.523.523 0 0 0-.52-.52Zm-.15.875v1.01a.2.2 0 0 1-.2.2H9.495a.2.2 0 0 1-.2-.2V7.2c0-.11.085-.2.2-.2H10.5c.115 0 .2.09.2.2l.01-.005Zm-.395 3.765H8.62a.513.513 0 0 0-.515.51v1.695c0 .285.23.515.515.515h1.695c.285 0 .515-.23.515-.515V11.47c0-.28-.23-.51-.515-.51Zm-.15.86v1a.2.2 0 0 1-.2.2v-.005H8.97a.2.2 0 0 1-.2-.2v-.995c0-.11.09-.2.2-.2h1c.11 0 .2.09.2.2h-.005Zm5.58-7.27a.87.87 0 0 0-.62-.26H4.875A.87.87 0 0 0 4 5.165v9.67a.87.87 0 0 0 .875.875h10.25a.87.87 0 0 0 .875-.875v-9.67c0-.24-.1-.46-.255-.62m0 10.29a.614.614 0 0 1-.62.62H4.875a.616.616 0 0 1-.625-.62v-9.67a.615.615 0 0 1 .62-.62h10.25a.62.62 0 0 1 .62.62v9.67h.005Z"/>
</svg>
