<svg xmlns="http://www.w3.org/2000/svg" viewBox="0 0 20 20" fill="currentColor" aria-hidden="true" data-slot="icon">
  <path d="M14.527 8.18a.86.86 0 0 1 1.084.551.86.86 0 0 1-.755 1.12l-.924 2.87c.476.252.859.681 1.037 1.233a2.15 2.15 0 0 1-1.393 2.703 2.155 2.155 0 0 1-2.41-.784l.577-.394c.36.488 1.008.714 1.62.517a1.454 1.454 0 0 0 .94-1.827c-.176-.549-.698-.922-1.235-.994l1.164-3.524a.86.86 0 0 1 .295-1.472Zm-8.72 5.513a1.455 1.455 0 0 0 2.047 2.014c.466-.342.659-.954.56-1.487l3.716-.01a.86.86 0 1 1 .004.655l-3.02.031a2.15 2.15 0 1 1-3.86-1.627l.554.424Zm-2.399-6.1a2.141 2.141 0 0 1 2.409-.762l-.233.653a1.447 1.447 0 0 0-1.611.521 1.452 1.452 0 0 0 .325 2.027c.468.341 1.11.34 1.586.087l1.151 3.531a.862.862 0 0 1 .635 1.361.858.858 0 0 1-1.2.183.858.858 0 0 1-.056-1.345l-.958-2.861a2.157 2.157 0 0 1-1.566-.397 2.147 2.147 0 0 1-.482-2.998Zm6.613-2.974a.866.866 0 0 1 .84 1.066l2.47 1.769a2.164 2.164 0 1 1 2.168 3.614l-.198-.673a1.463 1.463 0 0 0-.465-2.85c-.581 0-1.101.383-1.337.875l-3.023-2.2a.867.867 0 1 1-.455-1.6Zm-2.122.123a2.158 2.158 0 0 1 4.215.645l-.699-.014a1.46 1.46 0 0 0-2.85-.42c-.175.554.031 1.163.427 1.536l-3.004 2.21a.863.863 0 1 1-.392-.528l2.428-1.814a2.152 2.152 0 0 1-.181-1.406l.056-.21Z"/>
</svg>
