<svg xmlns="http://www.w3.org/2000/svg" viewBox="0 0 20 20" fill="currentColor" aria-hidden="true" data-slot="icon">
  <path d="M10 16.223c-.223 0-.447-.062-.641-.183l-2.727-1.704s.202.151.733.151c.483 0 .858-.316 1.23-.554l.001-.001L10 13.055v3.168Zm2.184-9.468c.367 0 .975.187 1.283.33l3.258 3.667c.45.509.333 1.278-.25 1.643l-5.835 3.644a1.209 1.209 0 0 1-.64.183v-3.168l3.395-2.122-2.976-3.349.085-.096c.428-.487.96-.732 1.68-.732Zm-2.183-2.977c.328 0 .658.132.89.395l2.006 2.263a2.423 2.423 0 0 0-1.021-.227c-.72 0-1.363.31-1.79.798L10 7.103l-3.395 3.83 2.773 1.709-1.403.877h-.002c-.372.24-.82.38-1.304.38-.53 0-1.032-.21-1.333-.398-.705-.44-1.785-1.09-1.811-1.106a1.077 1.077 0 0 1-.252-1.643l5.834-6.58c.233-.263.563-.394.893-.394Z"/>
</svg>
