<svg xmlns="http://www.w3.org/2000/svg" viewBox="0 0 20 20" fill="currentColor" aria-hidden="true" data-slot="icon">
  <path d="m14.643 10.598.063-.467c.493.3.655.48.705.558-.083.016-.293.024-.768-.091Zm-1.132 4.16a.284.284 0 0 0-.003.039c0 .043-.108.21-.585.4a5.347 5.347 0 0 1-.75.225c-.732.169-1.63.262-2.528.262-2.402 0-3.86-.616-3.86-.887 0-.013-.002-.026-.003-.038l-1.09-8.092c.07.04.146.08.225.118l.067.03c.07.032.141.064.217.094l.093.036c.08.03.164.06.25.087l.067.023c.108.034.22.066.336.097l.092.023a9.891 9.891 0 0 0 .717.155l.063.012c.132.023.265.044.4.063l.113.016c.104.014.208.028.315.04l.125.014c.127.014.255.026.385.037l.042.004c.144.012.288.021.433.03l.121.006.33.013c.485.016.97.011 1.456-.014l.12-.006c.145-.008.29-.017.433-.029l.042-.004c.13-.01.258-.023.386-.037l.124-.014c.107-.012.213-.026.317-.04l.11-.016c.136-.019.27-.04.402-.063l.058-.01c.112-.022.223-.043.33-.066l.111-.024c.097-.022.192-.045.284-.068l.087-.022c.117-.031.231-.063.34-.098l.06-.02c.087-.028.172-.058.257-.09l.089-.035c.078-.03.152-.062.224-.096l.06-.027c.08-.038.157-.078.227-.119l-.508 3.774c-1.296-.406-3.024-1.194-3.809-1.563a.568.568 0 0 0-1.133.002c0 .313.254.567.567.567.102 0 .197-.029.28-.077.895.423 2.68 1.233 4.018 1.641l-.504 3.748ZM9.645 4.317c2.958 0 5.04.916 5.08 1.425l-.008.059c-.005.017-.016.035-.025.052-.008.015-.014.03-.024.046-.013.017-.03.035-.047.053-.015.016-.027.031-.044.047-.02.018-.045.036-.07.054-.02.016-.038.032-.061.048-.028.019-.06.037-.093.056l-.078.046c-.035.02-.076.038-.115.058-.031.014-.06.03-.092.044-.044.02-.093.039-.14.058l-.106.043-.161.055c-.04.014-.077.028-.12.041-.057.019-.12.036-.181.054-.045.013-.086.026-.132.038-.065.018-.135.034-.203.051l-.145.036-.225.047-.153.031c-.08.016-.167.03-.251.044-.052.01-.103.019-.157.027-.087.014-.178.025-.269.038l-.169.023c-.094.012-.194.02-.292.03l-.173.02-.302.022-.19.015c-.107.006-.22.01-.33.014L10.185 7c-.36.01-.72.01-1.078 0l-.184-.008c-.111-.004-.224-.008-.331-.014l-.188-.014L8.1 6.94 7.93 6.92l-.296-.03-.164-.024c-.092-.012-.185-.024-.273-.038-.053-.008-.1-.017-.152-.026-.087-.014-.174-.029-.257-.045l-.144-.029c-.078-.017-.159-.032-.234-.05-.047-.01-.09-.022-.135-.033-.072-.017-.145-.035-.213-.053-.042-.011-.081-.024-.122-.036a6.111 6.111 0 0 1-.192-.056l-.11-.038-.17-.059c-.035-.013-.065-.026-.098-.04-.05-.02-.101-.04-.147-.06-.031-.014-.057-.028-.086-.042-.042-.02-.085-.04-.122-.06l-.074-.044c-.032-.02-.067-.039-.096-.059-.022-.015-.039-.03-.059-.044-.025-.02-.05-.038-.072-.058-.017-.015-.028-.03-.042-.045-.017-.018-.036-.037-.048-.054-.01-.016-.016-.03-.024-.045-.01-.018-.02-.035-.026-.053l-.008-.06c.04-.508 2.123-1.424 5.078-1.424Zm6.346 6.315c-.061-.327-.437-.672-1.203-1.108l.502-3.73a.255.255 0 0 0 .002-.038c0-1.182-2.975-2.006-5.646-2.006C6.976 3.749 4 4.573 4 5.755c0 .013.001.025.003.038l1.215 9.026c.037 1.042 2.727 1.432 4.427 1.432.94 0 1.883-.098 2.656-.277a5.95 5.95 0 0 0 .83-.25c.614-.243.931-.548.944-.905l.492-3.656c.29.068.53.102.724.102.28 0 .47-.071.59-.215a.499.499 0 0 0 .11-.419Z"/>
</svg>
