<svg xmlns="http://www.w3.org/2000/svg" viewBox="0 0 20 20" fill="currentColor" aria-hidden="true" data-slot="icon">
  <path d="M7.153 17c.6 0 .672-.006.963-.084 1.4-.382 2.382-1.5 2.631-3.007.09-.564.094-.879.007-2.56-.094-1.837-.15-3.405-.15-4.112.004-.632.055-.914.247-1.3.43-.871 1.542-1.49 2.394-1.332 1.05.195 1.715 1.475 1.3 2.505-.13.321-.282.545-.57.836-.454.46-1.02.801-1.704 1.022-.393.126-.523.213-.64.433a.763.763 0 0 0-.073.632.793.793 0 0 0 .774.58c.36 0 1.205-.327 1.8-.7 1.825-1.137 2.558-2.874 1.965-4.65a3.36 3.36 0 0 0-2.21-2.164c-.25-.078-.354-.087-.836-.097-.386-.007-.62.003-.775.035-1.545.32-2.79 1.491-3.169 2.979-.132.535-.106 2.213.091 5.463.12 1.95.091 2.316-.217 2.948-.557 1.13-2.086 1.468-3.146.69-.44-.32-.68-.888-.68-1.598 0-.434.071-.751.25-1.13.391-.826 1.056-1.322 2.05-1.526.389-.08.56-.201.671-.46.13-.312-.013-.72-.305-.866-.188-.097-.327-.11-.644-.055-1.786.308-3.128 1.627-3.429 3.37-.08.464-.049 1.297.064 1.721.321 1.183 1.161 2.012 2.38 2.343.29.078.362.084.961.084Zm7.237-.833c.226.233.624.298.935.15.392-.185.575-.707.38-1.087-.15-.295-1.915-3.104-2.015-3.21a.655.655 0 0 0-.28-.168.59.59 0 0 0-.414-.01.813.813 0 0 0-.27.162.658.658 0 0 0-.216.638c.055.236 1.72 3.363 1.88 3.525Z"/>
</svg>
