<svg xmlns="http://www.w3.org/2000/svg" viewBox="0 0 20 20" fill="currentColor" aria-hidden="true" data-slot="icon">
  <path d="m4 4.624.72 1.59L4 7.463l.72 1.25L4 9.96l.72 1.212-.72 1.25.72 1.25L4 15.374l1.4-.455c3.15.005 6.348.003 9.048 0l1.552.455-1.022-1.818.568-.946-1.098-1.136-.002-.008V5.002H5.4L4 4.624Zm9.844.984v3.515l-.115-.449-.719-2.195-1.78.303-.945-1.172 3.559-.002Zm-5.847.002h2.281l-1.508.604-.773-.604Zm1.43 1.84c.279-.017.558.027.82.127.983.379.643 1.4.075 2.006-.19.19-.605.114-.303-.454.114-.227.227-.681-.114-.795-.757-.265-1.627.341-1.816 1.136-.19.681.303 1.4 1.173 1.211.72-.151 1.401-.644 1.666-.87.265-.228.454.19.15.643-.34.454-.87.984-1.324 1.287-1.78 1.212-3.331-.379-2.688-2.196.338-.922 1.228-2.02 2.36-2.095Zm3.263 1.016a.33.33 0 0 1 .227.09c.162.164.102.487-.134.723-.236.237-.56.297-.723.134-.162-.163-.103-.486.133-.722.146-.146.334-.23.497-.225Zm-.21 1.616a.33.33 0 0 1 .227.091c.162.163.103.487-.134.723-.237.237-.56.296-.723.134-.162-.163-.102-.486.135-.722.145-.146.332-.231.495-.226Z"/>
</svg>
