<svg xmlns="http://www.w3.org/2000/svg" viewBox="0 0 20 20" fill="currentColor" aria-hidden="true" data-slot="icon">
  <path fill-rule="evenodd" d="M6.458 3.29c.37 0 .67.299.67.668v.22c0 .325.157.625.415.81A2.337 2.337 0 0 1 9.791 3.29h.417c1.07 0 1.971.719 2.248 1.7a.998.998 0 0 0 .416-.811v-.22a.669.669 0 1 1 1.338 0v.22c0 .885-.5 1.694-1.29 2.09l-.376.187v1.023c.527.4.957.921 1.248 1.522l1.05-.555a.998.998 0 0 0 .53-.881V6.458a.669.669 0 1 1 1.338 0v1.106c0 .865-.478 1.66-1.243 2.064l-1.289.682c.021.171.032.346.032.523v1.281l.985.37a2.336 2.336 0 0 1 1.515 2.186v1.371a.67.67 0 0 1-1.338 0v-1.37a.998.998 0 0 0-.647-.935l-.634-.237a4.212 4.212 0 0 1-8.183 0l-.634.237a.998.998 0 0 0-.647.934v1.371a.67.67 0 1 1-1.338 0v-1.37c0-.974.604-1.846 1.516-2.188l.984-.369v-1.28c0-.178.011-.353.032-.524l-1.288-.682a2.336 2.336 0 0 1-1.244-2.064V6.458a.669.669 0 1 1 1.338 0v1.106c0 .37.205.709.531.881L6.208 9a4.228 4.228 0 0 1 1.248-1.522V6.455l-.376-.188a2.336 2.336 0 0 1-1.29-2.089v-.22c0-.37.299-.669.668-.669Zm2.336 3.508a4.211 4.211 0 0 1 2.412 0V5.625a.998.998 0 0 0-.998-.998h-.417a.998.998 0 0 0-.997.998v1.173ZM10 7.96a2.874 2.874 0 0 0-2.873 2.873v1.73a2.874 2.874 0 0 0 2.204 2.731v-2.17a.67.67 0 1 1 1.338 0v2.17a2.874 2.874 0 0 0 2.203-2.794v-1.667A2.874 2.874 0 0 0 10 7.96Z" clip-rule="evenodd"/>
</svg>
