<svg xmlns="http://www.w3.org/2000/svg" viewBox="0 0 20 20" fill="currentColor" aria-hidden="true" data-slot="icon">
  <path fill-rule="evenodd" d="M15.277 4.719c-.213 0-.317 0-.417.004a6.56 6.56 0 0 0-3.615 1.24c-.09.066-.181.136-.392.3l-1.16.903c-.01.006-.018.013-.026.02-.173.134-.3.233-.438.32-.122.076-.25.144-.381.203a5.319 5.319 0 0 1-.509.187l-.03.01-2.345.782a18.161 18.161 0 0 0 5.344 5.344l.781-2.345.01-.03c.07-.208.12-.36.187-.51a3.18 3.18 0 0 1 .204-.38 5.302 5.302 0 0 1 .34-.464l.903-1.16c.163-.211.234-.302.3-.392a6.56 6.56 0 0 0 1.24-3.616c.003-.1.004-.203.004-.416Zm.253-1.496a1.36 1.36 0 0 1 1.247 1.406V4.658c0 .246 0 .389-.005.53a8.058 8.058 0 0 1-1.524 4.442c-.083.114-.17.226-.322.42l-.912 1.174a4.5 4.5 0 0 0-.252.338c-.04.065-.077.132-.108.202-.032.07-.058.147-.142.397l-.988 2.964a.986.986 0 0 1-1.443.534 19.663 19.663 0 0 1-6.744-6.745.986.986 0 0 1 .534-1.443l2.963-.988c.25-.083.327-.11.398-.141.07-.032.136-.068.201-.108.066-.041.13-.09.338-.252l1.174-.913c.194-.151.307-.239.42-.321a8.06 8.06 0 0 1 4.443-1.524c.14-.005.283-.005.53-.005H15.367c.044 0 .105 0 .163.004ZM5.79 11.623a.75.75 0 0 1 0 1.06l-.378.38A4.123 4.123 0 0 0 4.35 14.89l-.284 1.039 1.039-.283a4.123 4.123 0 0 0 1.833-1.063l.376-.376a.75.75 0 0 1 1.06 1.06l-.376.377a5.623 5.623 0 0 1-2.5 1.45l-1.883.512a1 1 0 0 1-1.227-1.229l.515-1.883a5.623 5.623 0 0 1 1.448-2.492l.378-.379a.75.75 0 0 1 1.061 0Z" clip-rule="evenodd"/>
  <path d="M13.581 7.414a1 1 0 1 1-2 0 1 1 0 0 1 2 0Z"/>
</svg>
