<svg width="20" height="20" viewBox="0 0 20 20" fill="none" xmlns="http://www.w3.org/2000/svg">
<path d="M4.44055 8.85779C6.55566 6.7427 11.0939 7.85127 14.5773 11.3344C15.1806 11.9377 15.7116 12.5745 16.1681 13.223C15.002 15.4667 12.6585 17.0003 9.9552 17.0004C6.96694 17.0002 4.41639 15.1273 3.41223 12.4916C3.24091 11.0289 3.5635 9.73504 4.44055 8.85779ZM9.9552 3.00037C13.8212 3.00037 16.9552 6.13439 16.9552 10.0004C16.9552 10.919 16.7759 11.7953 16.4542 12.599C15.9788 11.8681 15.4191 11.1476 14.7765 10.4613C13.8894 9.51402 12.9292 8.71817 11.9513 8.08728L14.837 5.21228L11.9591 5.18787L10.0587 7.07947C9.8136 6.97644 9.56941 6.88481 9.32727 6.80408C9.33562 6.80686 9.34431 6.81006 9.35266 6.81287L7.7218 5.18787L4.85168 5.2113C6.12848 3.85087 7.94212 3.00037 9.9552 3.00037ZM4.8429 12.2797L7.72083 12.3051L9.83899 10.1927L11.9581 12.3051L14.8361 12.2797L12.5333 9.98474C11.125 9.29926 9.70067 8.88681 8.38586 8.74646L4.8429 12.2797ZM6.08118 6.44568C6.08345 6.44532 6.08574 6.44506 6.08801 6.4447C5.27792 6.57205 4.56177 6.89294 3.99329 7.42517C3.56634 7.82495 3.2524 8.31602 3.04602 8.87439C3.27295 7.47113 3.918 6.20863 4.84778 5.21619L6.08118 6.44568Z" fill="white"/>
</svg>
