<svg width="20" height="20" viewBox="0 0 20 20" fill="none" xmlns="http://www.w3.org/2000/svg">
<path d="M14.4933 3C11.5825 3 11.0359 7.14808 12.6733 7.14808C14.3125 7.14808 17.4059 3 14.4933 3ZM9.99407 3.50867C9.94779 3.50828 9.89918 3.51139 9.84824 3.518C8.20849 3.73033 8.78657 6.5805 9.65924 6.633C10.5045 6.6855 11.4279 3.51392 9.99407 3.50867ZM7.15499 4.63508C7.05687 4.63995 6.96044 4.66248 6.87032 4.70158C5.55257 5.24583 6.66965 7.48758 7.40757 7.33767C8.0889 7.19767 8.17699 4.61233 7.15499 4.63508ZM5.05499 6.39442C4.92133 6.39475 4.79145 6.43879 4.68515 6.51983C3.63107 7.24783 5.03924 9.01008 5.6599 8.73592C6.2024 8.49675 5.85707 6.42183 5.05499 6.39442ZM10.907 7.74133C8.6699 7.76058 5.82265 8.89517 5.32624 11.1153C4.77557 13.5817 7.59365 17 10.5337 17C11.9803 17 13.6487 15.6933 13.9607 14.0384C14.1993 12.7767 11.1549 13.283 11.264 14.1183C11.3952 15.1187 10.5302 15.6122 9.68257 14.9665C6.98582 12.9132 14.1497 11.8888 13.6767 9.083C13.5232 8.173 12.3408 7.7285 10.907 7.74075V7.74133Z" fill="white"/>
</svg>
