<svg width="20" height="20" viewBox="0 0 20 20" fill="none" xmlns="http://www.w3.org/2000/svg">
<path d="M4.90039 15.0996H7V16H4V13H4.90039V15.0996ZM13 15.498C13 15.6307 12.9473 15.7588 12.8535 15.8525C12.7598 15.9461 12.6325 15.998 12.5 15.998H9.75L8 14.248L8.42188 13.8271L8.60645 14.0117C8.74735 14.1529 8.93599 14.2314 9.13574 14.2314C9.28373 14.2315 9.42879 14.1878 9.55176 14.1055L13 11.8037V15.498ZM15.5 4C15.6326 4 15.7597 4.05272 15.8535 4.14648C15.9473 4.24025 16 4.36739 16 4.5V8.96484C16 9.12935 15.9594 9.29144 15.8818 9.43652C15.8042 9.58166 15.6916 9.70553 15.5547 9.79688L9.41309 13.8975C9.31705 13.9614 9.20176 13.9898 9.08691 13.9785C8.97188 13.9672 8.86402 13.9166 8.78223 13.835L8.01953 13.0732L11.4043 9.68848L10.3115 8.59473L6.92676 11.9805L6.16406 11.2178C6.0823 11.136 6.03093 11.0281 6.01953 10.9131C6.00818 10.7982 6.03757 10.683 6.10156 10.5869L10.2012 4.44434C10.2925 4.3076 10.4165 4.1957 10.5615 4.11816C10.7066 4.04067 10.8688 3.99997 11.0332 4H15.5ZM11.0508 9.68848L7.2334 13.5059L6.49414 12.7666L10.3115 8.94922L11.0508 9.68848ZM8.19531 7L5.89355 10.4473C5.79759 10.5916 5.75449 10.765 5.77148 10.9375C5.78852 11.1101 5.86492 11.2717 5.9873 11.3945L6.18262 11.5898L5.75098 12.0518L4 10.25V7.5C4 7.36756 4.05293 7.24022 4.14648 7.14648C4.24 7.05297 4.36676 7.00026 4.49902 7H8.19531ZM13 5.5C12.6022 5.5 12.2208 5.65815 11.9395 5.93945C11.6581 6.22076 11.5 6.60218 11.5 7C11.5 7.39782 11.6581 7.77924 11.9395 8.06055C12.2208 8.34185 12.6022 8.5 13 8.5C13.3978 8.5 13.7792 8.34185 14.0605 8.06055C14.3419 7.77924 14.5 7.39782 14.5 7C14.5 6.60218 14.3419 6.22076 14.0605 5.93945C13.7792 5.65815 13.3978 5.5 13 5.5Z" fill="white"/>
</svg>
