<svg width="20" height="20" viewBox="0 0 20 20" fill="none" xmlns="http://www.w3.org/2000/svg">
<path d="M7.15332 17C7.75278 17 7.82458 16.9938 8.11621 16.916C9.51584 16.5337 10.4975 15.4157 10.7471 13.9092C10.8378 13.3454 10.8414 13.0303 10.7539 11.3486C10.66 9.51179 10.6045 7.94382 10.6045 7.2373C10.6077 6.60546 10.6594 6.32308 10.8506 5.9375C11.2815 5.06599 12.393 4.44695 13.2451 4.60547C14.2949 4.79987 14.9595 6.07998 14.5449 7.11035C14.4153 7.43107 14.2629 7.65476 13.9746 7.94629C13.521 8.40636 12.9541 8.74743 12.2705 8.96777C11.8785 9.09412 11.7485 9.18112 11.6318 9.40137C11.512 9.61521 11.4928 9.80316 11.5576 10.0332C11.6613 10.3864 11.9626 10.61 12.332 10.6133C12.6919 10.6131 13.5368 10.2856 14.1328 9.91309C15.9571 8.77574 16.6897 7.03936 16.0967 5.26367C15.7467 4.21707 14.9236 3.4097 13.8867 3.09863C13.6375 3.02098 13.5333 3.01167 13.0508 3.00195C12.6653 2.99548 12.4319 3.00471 12.2764 3.03711C10.7308 3.35794 9.48653 4.52837 9.10742 6.01562C8.97465 6.55057 9.00062 8.22905 9.19824 11.4785C9.3181 13.4287 9.28907 13.7952 8.98145 14.4268C8.42411 15.5576 6.89454 15.8949 5.83496 15.1172C5.39431 14.7964 5.1543 14.2291 5.1543 13.5195C5.15434 13.0855 5.22613 12.7677 5.4043 12.3887C5.7964 11.5627 6.46051 11.0674 7.45508 10.8633C7.84391 10.7823 8.01581 10.6616 8.12598 10.4023C8.25529 10.0913 8.11279 9.68286 7.82129 9.53711C7.63349 9.43999 7.49397 9.42743 7.17676 9.48242C5.39135 9.79025 4.04939 11.1093 3.74805 12.8525C3.66707 13.3159 3.6991 14.1488 3.8125 14.5732C4.13331 15.7559 4.97309 16.5855 6.19141 16.916C6.48285 16.9937 6.5543 17 7.15332 17ZM14.3896 16.167C14.6164 16.4001 15.0142 16.4652 15.3252 16.3164C15.7173 16.1317 15.8995 15.6096 15.7051 15.2305C15.5554 14.9347 13.7899 12.1264 13.6895 12.0195C13.6117 11.9418 13.5138 11.8807 13.4102 11.8516C13.229 11.7966 13.1676 11.7965 12.9961 11.8418C12.928 11.858 12.8076 11.9326 12.7266 12.0039C12.539 12.1691 12.4581 12.4118 12.5098 12.6416C12.5649 12.8781 14.2309 16.005 14.3896 16.167Z" fill="white"/>
</svg>
