<svg width="20" height="20" viewBox="0 0 20 20" fill="none" xmlns="http://www.w3.org/2000/svg">
<path d="M17.4989 11.5393C17.499 11.7965 17.4498 12.0514 17.354 12.2902C17.2589 12.5269 17.1186 12.7428 16.941 12.9258C16.7655 13.1072 16.5556 13.2517 16.3236 13.351C16.0931 13.4492 15.8451 13.4997 15.5946 13.4995H15.0707C15.0165 12.8464 14.3617 12.2902 13.4353 12.0326C13.6701 11.7932 13.8298 11.4903 13.8946 11.1612C13.96 10.8304 13.9285 10.4878 13.8037 10.1746C13.681 9.86405 13.4693 9.59674 13.1952 9.40619C12.9245 9.21881 12.6032 9.1183 12.274 9.11805C11.9457 9.11805 11.6253 9.21846 11.3528 9.40619C11.0787 9.59674 10.867 9.86405 10.7443 10.1746C10.6195 10.4878 10.588 10.8304 10.6534 11.1612C10.7189 11.4921 10.8787 11.7951 11.1127 12.0326C10.67 12.142 10.2601 12.3561 9.91739 12.6569C9.70039 12.5287 9.46723 12.43 9.22411 12.3635C9.42604 12.159 9.56356 11.8997 9.61964 11.6179C9.67658 11.3344 9.65019 11.0406 9.54368 10.7718C9.43869 10.5057 9.25733 10.2766 9.02241 10.1134C8.79082 9.95285 8.51579 9.86666 8.23397 9.86633C7.95281 9.86633 7.67777 9.95277 7.44464 10.1134C7.20973 10.2766 7.02836 10.5057 6.92338 10.7718C6.81669 11.0408 6.79031 11.335 6.84741 11.6187C6.90366 11.9003 7.04117 12.1592 7.24295 12.3635C6.513 12.5713 5.98125 12.9878 5.86775 13.4916H5.34386C4.84613 13.4738 4.37577 13.2593 4.03589 12.8953C3.68977 12.5249 3.49775 12.0366 3.49891 11.5297C3.49891 11.0206 3.691 10.5308 4.03589 10.1649C4.37991 9.79823 4.84966 9.58431 5.34386 9.56772C5.58659 9.56859 5.82671 9.61749 6.05111 9.71004C6.20478 9.36864 6.44926 9.07963 6.75748 8.87706C7.06338 8.67607 7.42177 8.56977 7.78779 8.57146H7.92575C8.02179 8.06329 8.26365 7.59703 8.62164 7.23468C8.97963 6.87145 9.43628 6.62959 9.93136 6.53878C10.4262 6.44879 10.9368 6.51533 11.3921 6.72913C11.8488 6.94392 12.2321 7.2958 12.4914 7.73848C12.7869 7.64582 13.1002 7.62428 13.4056 7.67561C13.7121 7.72774 14.0022 7.85094 14.2525 8.03535C14.5049 8.22046 14.7118 8.46319 14.8594 8.7426C15.0064 9.02445 15.0884 9.33561 15.0995 9.65329C15.3816 9.57399 15.6785 9.56291 15.9657 9.62098C16.252 9.67948 16.5227 9.80434 16.755 9.9877C16.9872 10.1711 17.175 10.4077 17.3051 10.6775C17.4334 10.9482 17.4998 11.2459 17.4989 11.5471V11.5393Z" fill="white"/>
</svg>
