<svg width="20" height="20" viewBox="0 0 20 20" fill="none" xmlns="http://www.w3.org/2000/svg">
<path d="M4.59863 3.59361C4.49071 3.59361 4.38577 3.62899 4.29989 3.69434C4.21402 3.75969 4.15194 3.8514 4.12317 3.95541C4.00614 4.38186 3.97216 4.82682 4.02307 5.26609C4.07692 5.70911 4.21419 6.13792 4.42763 6.52985C4.56295 6.77933 4.72518 7.01323 4.91142 7.22739C4.88349 7.36616 4.86123 7.506 4.84468 7.64658C4.81557 7.88735 4.80269 8.12981 4.80614 8.37231C4.80774 8.47172 4.81041 8.57251 4.82178 8.67362C4.84463 8.96218 5.10745 9.30444 5.28677 9.52449C5.5867 9.89497 5.9535 10.2059 6.36811 10.441C6.37331 10.4559 6.37922 10.4705 6.38584 10.4848C6.42999 10.5789 6.48535 10.6674 6.5516 10.7476C6.41792 11.0304 6.32692 11.3316 6.28157 11.6411C6.23204 11.8698 6.201 12.102 6.18873 12.3356C6.10048 12.3757 6.01749 12.4265 5.94161 12.4868C5.73141 12.6581 5.57473 12.8861 5.49012 13.1437C5.46593 13.2153 5.44643 13.2885 5.43177 13.3626L5.30973 13.3293L5.29622 13.4148C5.2343 13.8044 5.26211 14.1416 5.42029 14.4856C5.28524 14.5041 5.1575 14.5581 5.05011 14.642C4.96861 14.7075 4.90392 14.7915 4.86139 14.8871C4.78313 15.0631 4.70497 15.268 4.70497 15.4636C4.70497 15.6088 4.75035 15.7539 4.86454 15.8485C4.93212 15.9041 5.01684 15.9346 5.10435 15.9349H6.36913C6.44413 16.1339 6.58785 16.3196 6.79979 16.375C6.85958 16.3896 6.92066 16.3984 6.98227 16.4C7.0474 16.4032 7.1105 16.4042 7.17408 16.4042C7.33878 16.4075 7.50369 16.4058 7.66833 16.4042C7.92592 16.4009 8.18388 16.3961 8.44307 16.3896C8.51942 16.3877 8.59374 16.3646 8.65766 16.3227C8.72157 16.2809 8.77255 16.2221 8.80487 16.1529C8.83754 16.2223 8.8889 16.2812 8.95319 16.323C9.01747 16.3648 9.09214 16.3879 9.1688 16.3896C9.42634 16.3961 9.68382 16.4009 9.94141 16.4042C10.1061 16.4042 10.271 16.4058 10.4357 16.4042C10.4996 16.4044 10.5636 16.403 10.6275 16.4C10.6886 16.3973 10.7494 16.3889 10.8089 16.3749C11.0209 16.3195 11.1652 16.1355 11.2385 15.935H12.5158C12.6031 15.9346 12.6875 15.9041 12.7546 15.8485C12.8687 15.7539 12.9152 15.6088 12.9152 15.4637C12.9136 15.268 12.8366 15.0631 12.7567 14.8871C12.6442 14.6376 12.4309 14.5199 12.1863 14.4856C12.3445 14.1416 12.3724 13.8044 12.3104 13.4148L12.2969 13.3293L12.1874 13.3595C12.1863 13.3553 12.1846 13.3492 12.1842 13.3439C12.1894 13.3352 12.194 13.3261 12.1978 13.3168C12.2666 13.1531 12.3471 12.9945 12.4387 12.8423C12.5561 12.6414 12.6885 12.4497 12.8349 12.2689C12.9109 12.1735 12.9927 12.083 13.0799 11.9978C13.2348 11.8478 13.4302 11.7226 13.6503 11.7079C13.8046 11.6973 13.9578 11.7425 14.0809 11.8361C14.1739 11.9063 14.2194 11.9862 14.2634 12.0906C14.3367 12.2683 14.3821 12.4202 14.5272 12.5587C14.7848 12.8017 15.1675 12.8065 15.474 12.663C15.7137 12.5505 15.9161 12.3447 15.9797 12.0822C15.999 12.0035 16.0046 11.922 15.9964 11.8414C15.9459 11.3506 15.6438 10.9056 15.2738 10.5943C14.9363 10.3106 14.4999 10.1031 14.0549 10.0917C13.6359 10.0803 13.2225 10.2097 12.8589 10.4118C12.2394 10.7558 11.7473 11.3147 11.3772 11.9341C11.3637 11.8401 11.347 11.7465 11.3271 11.6536C11.3 11.4718 11.2578 11.2926 11.201 11.1177C11.1749 11.0352 11.1446 10.9542 11.1102 10.8748C11.161 10.8214 11.2057 10.7627 11.2437 10.6996C11.2861 10.6308 11.3248 10.5598 11.3595 10.4869L11.3793 10.442C11.7931 10.2067 12.1595 9.89625 12.4595 9.52657C12.6438 9.30161 12.8985 8.96826 12.9246 8.67154C12.936 8.57208 12.9396 8.4698 12.9413 8.36708C12.9448 8.12036 12.9313 7.87369 12.9006 7.62886C12.8829 7.49509 12.861 7.36191 12.8349 7.22953C13.0209 7.01495 13.1827 6.78067 13.3177 6.53086C13.5311 6.13932 13.6684 5.71086 13.7223 5.26818C13.7729 4.82903 13.7397 4.38427 13.6242 3.95755C13.5965 3.85296 13.535 3.7605 13.4491 3.69465C13.3633 3.6288 13.258 3.59327 13.1498 3.59361C12.3151 3.59361 11.5941 3.93443 10.9257 4.3746C10.3085 3.99641 9.59866 3.79626 8.87475 3.79626C8.15084 3.79626 7.44103 3.99641 6.82376 4.3746C6.15371 3.93443 5.43332 3.59361 4.59863 3.59361ZM4.60802 4.08477H4.64764C5.11065 4.33904 5.5252 4.85577 5.83009 5.36934C5.76735 5.45004 5.70684 5.53245 5.64863 5.61647C5.42436 5.95425 5.24918 6.32216 5.12832 6.70917C4.755 6.20708 4.28087 5.28419 4.59553 4.09411C4.60039 4.09251 4.60311 4.08802 4.60802 4.08477ZM13.1008 4.08477H13.1394L13.1508 4.09619C13.4655 5.28633 12.9914 6.20815 12.618 6.71024C12.4916 6.3038 12.305 5.91859 12.0644 5.56746C12.0185 5.49942 11.9697 5.43333 11.9183 5.36934C12.2232 4.85577 12.6378 4.3391 13.1008 4.08477ZM5.29516 4.18059C5.70762 4.29148 6.09557 4.49173 6.46405 4.72487C6.31356 4.84543 6.1724 4.97719 6.04176 5.11902C5.97161 5.00327 5.89532 4.891 5.81546 4.78012C5.66233 4.56352 5.48804 4.36269 5.29516 4.18059ZM12.4533 4.18059C12.2604 4.36269 12.0861 4.56352 11.933 4.78012C11.8531 4.891 11.7784 5.00536 11.7067 5.1211C11.5761 4.97861 11.4349 4.84616 11.2844 4.72487C11.6512 4.49173 12.0408 4.29142 12.4533 4.18059ZM8.77673 4.27135V5.65603C8.03659 5.67231 7.30947 5.87774 6.86444 6.27226C6.34927 6.72711 6.0053 7.51397 6.04278 7.92803C6.07534 8.29811 6.6691 8.55148 7.4598 8.6819C7.41996 8.75288 7.39245 8.8301 7.37844 8.91029C7.36004 9.02287 7.3604 9.13773 7.37951 9.2502C7.10826 9.21935 6.8386 9.17585 6.57141 9.11983C6.14845 9.02983 5.73349 8.9057 5.3306 8.74863C5.31509 8.71082 5.30424 8.67125 5.29831 8.63081C5.29831 8.63081 5.13142 7.10898 5.97914 5.84064C6.65736 4.82657 7.71211 4.30237 8.77673 4.27135ZM8.9717 4.27135C10.0183 4.30066 11.0559 4.80841 11.739 5.79467C12.6226 7.07119 12.4523 8.62979 12.4523 8.62979C12.4479 8.66876 12.4384 8.70698 12.4241 8.74345C12.0194 8.90254 11.6024 9.02838 11.177 9.11881C10.9373 9.16937 10.6683 9.21491 10.37 9.24913C10.3894 9.13637 10.3901 9.02119 10.3721 8.9082C10.3577 8.82797 10.3299 8.75075 10.2897 8.67982C11.0803 8.5494 11.6741 8.29869 11.7067 7.92702C11.7442 7.5129 11.4002 6.72503 10.8851 6.27018C10.4384 5.87726 9.71185 5.67231 8.9717 5.65603V4.27135ZM8.51605 4.65189C8.50079 4.65166 8.48564 4.6545 8.47149 4.66024C8.45735 4.66598 8.4445 4.6745 8.43371 4.68529C8.42292 4.69608 8.4144 4.70893 8.40866 4.72307C8.40293 4.73722 8.40008 4.75237 8.40031 4.76763C8.40031 4.87077 8.5255 4.92191 8.59842 4.84899C8.67135 4.77606 8.61919 4.65189 8.51605 4.65189ZM9.23238 4.65189C9.20172 4.652 9.17235 4.66423 9.15067 4.68591C9.12899 4.70759 9.11676 4.73697 9.11664 4.76763C9.11664 4.87077 9.24082 4.92191 9.31369 4.84899C9.38662 4.77606 9.33553 4.65189 9.23238 4.65189ZM8.51605 5.16172C8.48538 5.16184 8.456 5.17407 8.43431 5.19577C8.41263 5.21746 8.40041 5.24685 8.40031 5.27752C8.40031 5.38066 8.5255 5.43282 8.59842 5.35989C8.67135 5.28697 8.61919 5.16172 8.51605 5.16172ZM9.23238 5.16172C9.20171 5.16184 9.17233 5.17407 9.15065 5.19577C9.12897 5.21746 9.11674 5.24685 9.11664 5.27752C9.11664 5.38066 9.24082 5.43282 9.31369 5.35989C9.38662 5.28697 9.33553 5.16172 9.23238 5.16172ZM7.35762 7.16691C7.53396 7.16819 7.70004 7.24752 7.81327 7.38269C7.93184 7.52246 7.99751 7.69997 7.99676 7.88319C7.99671 7.8986 7.99361 7.91385 7.98766 7.92806C7.98171 7.94227 7.97301 7.95517 7.96207 7.96602C7.95112 7.97687 7.93815 7.98545 7.92388 7.99128C7.90962 7.99711 7.89435 8.00008 7.87894 8C7.86353 8.00008 7.84826 7.99711 7.83399 7.99128C7.81973 7.98545 7.80675 7.97687 7.79581 7.96602C7.78487 7.95517 7.77617 7.94227 7.77022 7.92806C7.76426 7.91385 7.76117 7.8986 7.76112 7.88319C7.763 7.75678 7.71934 7.63391 7.63811 7.53703C7.60341 7.49559 7.56024 7.46205 7.5115 7.43867C7.46276 7.41529 7.40959 7.40261 7.35554 7.40149C7.28319 7.40153 7.21258 7.42372 7.15321 7.46507C7.08637 7.51159 7.03342 7.57537 6.99999 7.64963C6.99352 7.66342 6.98438 7.67579 6.97311 7.68605C6.96184 7.6963 6.94866 7.70422 6.93432 7.70936C6.91997 7.7145 6.90476 7.71675 6.88954 7.71599C6.87432 7.71523 6.85941 7.71148 6.84565 7.70493C6.78757 7.67744 6.76183 7.60868 6.78933 7.55059C6.84168 7.4388 6.92216 7.34252 7.02289 7.27117C7.12131 7.20326 7.23805 7.16693 7.35762 7.16691ZM10.3929 7.16691C10.5123 7.16691 10.6283 7.20321 10.7266 7.27117C10.8271 7.34228 10.9079 7.43902 10.9601 7.55059C10.973 7.57853 10.9743 7.61043 10.9638 7.63933C10.9532 7.66823 10.9317 7.6918 10.9039 7.70488C10.8759 7.71795 10.8439 7.71948 10.8148 7.70914C10.7858 7.6988 10.7619 7.67741 10.7485 7.64963C10.715 7.57536 10.662 7.51157 10.5952 7.46507C10.5358 7.42373 10.4652 7.40154 10.3929 7.40149C10.3388 7.40244 10.2856 7.41505 10.2368 7.43845C10.188 7.46186 10.1449 7.4955 10.1103 7.53709C10.0291 7.63395 9.98545 7.7568 9.98732 7.88319C9.98666 7.91395 9.97394 7.94321 9.9519 7.96468C9.92985 7.98614 9.90026 7.99808 9.86949 7.99792C9.83873 7.99808 9.80914 7.98614 9.78709 7.96468C9.76505 7.94321 9.75233 7.91395 9.75167 7.88319C9.75086 7.69957 9.8164 7.52183 9.93623 7.38269C9.99218 7.3158 10.062 7.26186 10.1408 7.22459C10.2197 7.18732 10.3057 7.16768 10.3929 7.16691ZM8.8716 8.34098H8.87683C9.39687 8.33606 10.0307 8.57363 10.0926 8.95513C10.1529 9.32029 9.95144 9.56816 9.64009 9.71001C9.17868 9.88122 9.01633 9.6579 8.94458 9.51606C8.91041 9.44762 8.89578 9.41238 8.87785 9.41078H8.87368C8.85905 9.41729 8.84026 9.44938 8.80279 9.51296C8.72943 9.64173 8.57803 9.83467 8.25851 9.76943C7.86559 9.64226 7.58361 9.37736 7.65376 8.95513C7.71729 8.57363 8.35151 8.33606 8.8716 8.34098ZM8.87374 8.51822C8.55822 8.51822 8.17715 8.61036 8.13968 8.80597C8.0777 9.13045 8.55902 9.28671 8.87683 9.28591C9.19459 9.28506 9.67068 9.12879 9.60876 8.80597C9.57128 8.61036 9.18919 8.51822 8.87374 8.51822ZM5.46615 9.00414C5.81387 9.1305 6.16994 9.23257 6.53179 9.30961C6.83284 9.37323 7.13703 9.42091 7.44309 9.45248C7.4552 9.48105 7.47023 9.5083 7.48794 9.53378C7.63144 9.78 7.87723 9.93509 8.1511 10.028C8.006 10.0884 7.89357 10.1836 7.86751 10.3336C7.8579 10.3932 7.86401 10.4543 7.88524 10.5108C7.88524 10.5124 7.88732 10.5154 7.88732 10.517C7.67361 10.4744 7.46288 10.418 7.25646 10.3481C6.60926 10.1248 6.06904 9.76783 5.6403 9.24288C5.57805 9.16645 5.51992 9.08676 5.46615 9.00414ZM12.2802 9.00622C12.2378 9.06324 12.194 9.12239 12.1467 9.17615C11.9038 9.46796 11.6451 9.73756 11.3271 9.94464C10.887 10.2315 10.3908 10.4101 9.86426 10.516C9.88806 10.4554 9.8942 10.3892 9.88199 10.3252C9.85428 10.1801 9.74543 10.0873 9.60358 10.027C9.87745 9.93407 10.1222 9.77728 10.2657 9.53277C10.2802 9.50651 10.2938 9.47973 10.3064 9.45248C10.6124 9.42079 10.9166 9.3731 11.2177 9.30961C11.5783 9.23276 11.9333 9.1314 12.2802 9.00622ZM8.89141 10.1949C9.2925 10.1959 9.68718 10.2724 9.60571 10.4305C9.56818 10.5039 9.46979 10.5593 9.34914 10.5984C9.19272 10.6179 9.03347 10.6313 8.87368 10.6411C8.71555 10.631 8.5577 10.6168 8.40031 10.5984C8.27149 10.556 8.16957 10.4948 8.13861 10.4149C8.08314 10.269 8.49037 10.1938 8.89141 10.1949ZM14.0445 10.467C14.2939 10.4735 14.5531 10.5613 14.7879 10.7048C14.5449 10.7749 14.3464 10.9723 14.2405 11.2136C14.2072 11.2895 14.1837 11.3694 14.1706 11.4513C14.0411 11.3818 13.8981 11.3412 13.7514 11.3325C13.7472 11.3179 13.7405 11.3041 13.7317 11.2918C13.5898 11.0994 13.5701 10.7405 13.7348 10.5546C13.7465 10.5419 13.759 10.5301 13.7723 10.5191C13.7901 10.5042 13.8086 10.4899 13.8275 10.4764C13.8995 10.4676 13.972 10.4645 14.0445 10.467ZM13.4459 10.5578C13.3949 10.6769 13.3707 10.8057 13.375 10.9352C13.3773 11.0807 13.4129 11.2233 13.4803 11.3523C13.3503 11.3805 13.226 11.4302 13.1123 11.4993C13.1038 11.4912 13.0939 11.4848 13.0831 11.4805C12.9918 11.4414 12.9136 11.3521 12.8631 11.2657C12.8077 11.1695 12.7408 10.9868 12.8109 10.8841C12.8109 10.8825 12.812 10.8826 12.812 10.881C12.8886 10.8288 12.9658 10.7794 13.0424 10.7371C13.171 10.6648 13.3061 10.6048 13.4459 10.5578ZM7.0427 10.6662C7.14216 10.702 7.24135 10.7359 7.34406 10.7652C7.87494 11.0513 8.47501 11.1838 9.07698 11.1479C9.33848 11.1314 9.59695 11.0827 9.84654 11.003C10.0417 10.9426 10.2303 10.863 10.4096 10.7652C10.5111 10.7354 10.6116 10.7024 10.7109 10.6662C10.4485 11.0202 10.0764 11.2775 9.65259 11.3981C10.0357 11.3492 10.4334 11.2508 10.7464 11.0666C10.9208 11.4905 11.0191 12.0643 10.9278 12.8256C10.905 13.0082 10.8766 13.1812 10.8423 13.3459C10.451 13.1274 9.9106 13.3019 9.5014 13.5367C9.44924 12.7818 9.28625 12.2261 9.21781 12.0206C9.15583 11.8315 8.93177 11.8693 8.92686 12.0405C8.95782 12.1236 8.97773 12.2325 8.99572 12.3188C9.02509 12.4704 9.049 12.6254 9.0718 12.7787C9.10928 13.0346 9.14878 13.3052 9.16667 13.5628C9.16998 13.6199 9.17339 13.6788 9.17505 13.7359C8.93012 13.7682 8.6821 13.7696 8.43682 13.74C8.43843 13.6814 8.44083 13.6236 8.44408 13.5649C8.45225 13.4605 8.46544 13.3537 8.47852 13.251C8.49806 13.0896 8.52139 12.9302 8.54418 12.7703C8.56869 12.6089 8.59244 12.4463 8.62346 12.2865C8.63483 12.2262 8.65037 12.1429 8.66831 12.0728C8.67151 11.9 8.57162 11.8969 8.51295 11.9018C8.45748 11.9066 8.4167 11.9517 8.38573 12.0446C8.31398 12.2647 8.16471 12.8033 8.1125 13.519C7.65931 13.2174 7.29329 13.123 6.7716 13.3595C6.73573 13.1915 6.70685 13.0131 6.68405 12.8256C6.58619 12.0023 6.70871 11.3991 6.90923 10.9654C7.21903 11.1806 7.61938 11.3032 8.01555 11.37C7.62673 11.2408 7.28708 10.995 7.0427 10.6662ZM14.9964 10.9237C15.0477 10.9223 15.0974 10.941 15.1351 10.9758C15.1367 10.9758 15.1387 10.9773 15.1403 10.979C15.4012 11.2333 15.5889 11.5555 15.6231 11.8799C15.6606 12.2532 15.0549 12.5458 14.7827 12.2865C14.6278 12.1398 14.6394 11.8559 14.3917 11.613C14.3984 11.5997 14.4019 11.5851 14.4021 11.5702C14.4135 11.2539 14.6671 10.9091 14.9964 10.9237ZM12.545 11.0916C12.5615 11.196 12.5972 11.2964 12.6503 11.3877C12.71 11.4952 12.7939 11.5873 12.8954 11.6567C12.8692 11.6795 12.8435 11.7028 12.8182 11.7266C12.7367 11.8065 12.6586 11.893 12.5836 11.981C12.5652 11.973 12.5453 11.9691 12.5252 11.9695C12.4306 11.9744 12.3363 11.9307 12.2646 11.8736C12.1879 11.8133 12.0771 11.6827 12.0852 11.5702C12.2242 11.3976 12.3781 11.2374 12.545 11.0916ZM11.9028 11.8121C11.9553 11.9109 12.0282 11.9977 12.1165 12.0665C12.2021 12.1347 12.3022 12.1813 12.4095 12.2031C12.2377 12.4355 12.0859 12.6821 11.9559 12.9403C11.8754 12.7888 11.7647 12.6554 11.6306 12.5482C11.5924 12.5182 11.5524 12.4907 11.5107 12.4659C11.6255 12.2388 11.7565 12.0203 11.9028 11.8121ZM11.276 12.6756C11.5923 12.8223 11.7919 13.1566 11.8359 13.5316C11.58 13.6066 11.2997 13.7406 11.0633 13.858C11.1514 13.532 11.2162 13.2004 11.2573 12.8653C11.2654 12.8023 11.2716 12.739 11.276 12.6756ZM6.33154 12.6829C6.33645 12.7448 6.34275 12.806 6.34927 12.8664C6.39032 13.2015 6.45508 13.5341 6.54322 13.8601C6.31008 13.7443 6.03685 13.6134 5.78412 13.5368C5.82651 13.1652 6.02014 12.8328 6.33154 12.6829ZM7.34401 13.5723C7.62172 13.5833 7.89511 13.7255 8.09889 13.9038C8.11031 14.6897 8.27549 15.4281 8.38146 15.5732C8.48909 15.7167 8.43154 15.9757 8.43154 15.9757C8.43154 15.9757 7.04243 16.0116 6.9071 15.9757C6.77176 15.9399 6.6108 15.5409 6.83412 15.3094C6.93843 15.2018 7.08786 15.1754 7.21994 15.177C7.49061 15.2357 7.66657 15.4031 7.85075 15.6378C7.81162 15.2352 7.58569 15.1299 7.4243 15.0321C7.37214 15.0011 7.35191 14.9862 7.3242 14.9341C7.12151 14.5465 6.9634 14.1372 6.85291 13.7141C7.0088 13.6059 7.17734 13.5657 7.34401 13.5723ZM10.2635 13.5723C10.43 13.5657 10.5988 13.6059 10.7547 13.7141C10.644 14.1369 10.4866 14.5461 10.2854 14.9341C10.2561 14.9862 10.2359 15.0011 10.1854 15.0321C10.0239 15.1299 9.79801 15.2352 9.75888 15.6378C9.94311 15.4031 10.1191 15.2357 10.3897 15.177C10.5218 15.1754 10.6728 15.2018 10.7755 15.3094C10.9989 15.5409 10.8379 15.9399 10.7025 15.9757C10.5672 16.0116 9.17809 15.9757 9.17809 15.9757C9.17809 15.9757 9.12161 15.7167 9.22918 15.5732C9.33521 15.4281 9.50145 14.6897 9.51282 13.9038C9.71462 13.7255 9.98609 13.5833 10.2635 13.5723ZM5.64024 13.7798C5.88806 13.845 6.29775 14.0344 6.65479 14.2218C6.71186 14.3898 6.77545 14.5537 6.8456 14.7151C6.86962 14.7698 6.89471 14.8249 6.92066 14.8788C6.79494 14.9147 6.6807 14.9826 6.58913 15.0759C6.46477 15.207 6.39278 15.3791 6.3868 15.5597H5.10435C4.97553 15.4521 5.11925 14.476 6.38269 15.0498C6.1039 14.8281 5.62882 14.5314 5.64024 13.7798ZM11.9663 13.7798C11.9777 14.5313 11.5031 14.8281 11.226 15.0498C12.4878 14.4759 12.6327 15.4521 12.5022 15.5596H11.1968C11.1918 15.4045 11.136 15.2553 11.0378 15.1351C10.9396 15.0148 10.8046 14.9303 10.6535 14.8944C10.7533 14.6844 10.8383 14.4677 10.908 14.2459C11.2764 14.0486 11.7104 13.8466 11.9663 13.7798ZM9.1979 13.9997C9.19376 14.3113 9.16167 14.6219 9.10202 14.9278C9.08077 15.0354 9.02706 15.2956 8.97165 15.3918C8.95656 15.414 8.94264 15.437 8.92995 15.4606C8.85057 15.4618 8.78624 15.4613 8.70573 15.4617C8.69028 15.4326 8.67325 15.4044 8.65469 15.3772C8.63346 15.3297 8.61602 15.2805 8.60253 15.2302C8.563 15.091 8.53133 14.9496 8.50767 14.8068C8.46332 14.5421 8.43857 14.2744 8.43362 14.006C8.68731 14.0415 8.94482 14.0393 9.1979 13.9997Z" fill="white"/>
</svg>
