<svg width="20" height="20" viewBox="0 0 20 20" fill="none" xmlns="http://www.w3.org/2000/svg">
<path d="M4.11733 10.1438H2.84933C2.676 10.1438 2.54733 10.2758 2.54733 10.5025V11.3258H2V10.5325C2 10.0872 2.28 9.7865 2.676 9.7865H3.95867C4.27267 9.7745 4.348 9.6185 4.348 9.39184C4.348 9.2185 4.26133 8.98117 3.95867 9.00517H2V8.6785H4.11733C4.672 8.6785 4.89067 8.99917 4.89067 9.39184C4.89067 9.83784 4.672 10.1438 4.11733 10.1438ZM6.44267 9.39584V10.6045C6.44267 11.0465 6.24333 11.3218 5.692 11.3218H4.50733V10.9952H5.54067C5.75267 10.9952 5.87867 10.8232 5.87867 10.6045V9.39584C5.87867 9.0105 6.06533 8.67784 6.61333 8.67784H7.79V9.0045H6.772C6.49733 8.99317 6.44267 9.21784 6.44267 9.39584ZM9.66933 11.3318C9.44867 11.3198 9.356 11.1518 9.31467 11.0805C9.27267 11.0092 8.03467 8.6745 8.03467 8.6745H8.65067L9.676 10.5778C9.72933 10.6845 9.85067 10.7112 9.916 10.5858L10.936 8.6745H11.3207C11.3207 8.6745 10.122 10.9438 10.074 11.0212C10.0267 11.0992 9.89 11.3438 9.66933 11.3318ZM11.6727 8.68384H12.2327V11.3238H11.6727V8.68384ZM14.186 8.9905L14.188 11.3085H13.6373V8.99317L12.5907 8.99184V8.66984L15.2393 8.6665L15.238 8.9925L14.186 8.9905ZM16.3427 8.66984C16.1333 8.67317 16.0027 8.90584 15.9567 8.98117C15.9093 9.0585 14.708 11.3325 14.708 11.3325H15.0933L15.3867 10.7725H17.0807L17.3833 11.3325H18C18 11.3325 16.76 8.99384 16.718 8.92184C16.6767 8.8505 16.584 8.68184 16.3627 8.66984H16.3427ZM16.2227 9.33384C16.2747 9.3305 16.326 9.36517 16.356 9.42584L16.906 10.4425H15.57L16.1153 9.41717C16.144 9.3625 16.1827 9.33717 16.2227 9.33384Z" fill="white"/>
</svg>
