<svg width="20" height="20" viewBox="0 0 20 20" fill="none" xmlns="http://www.w3.org/2000/svg">
<path d="M12.805 4.22803C12.3528 4.22803 11.9191 4.40766 11.5994 4.7274C11.2796 5.04715 11.1 5.48082 11.1 5.933C11.1 6.38519 11.2796 6.81886 11.5994 7.1386C11.9191 7.45835 12.3528 7.63798 12.805 7.63798C13.2572 7.63798 13.6908 7.45835 14.0106 7.1386C14.3303 6.81886 14.51 6.38519 14.51 5.933C14.51 5.48082 14.3303 5.04715 14.0106 4.7274C13.6908 4.40766 13.2572 4.22803 12.805 4.22803ZM10.46 4.40052C8.46156 4.38903 6.56858 5.47101 5.5741 7.22598C5.61739 7.22356 5.66074 7.2224 5.7041 7.22248C6.16078 7.22296 6.60831 7.35056 6.99658 7.59098C7.37235 7.04824 7.87195 6.60277 8.45404 6.29142C9.03614 5.98007 9.684 5.81179 10.344 5.8005C10.3716 5.29755 10.5522 4.81503 10.8615 4.41752C10.7279 4.40697 10.594 4.4013 10.46 4.40052ZM15.073 6.89749C14.876 7.36128 14.5412 7.75331 14.114 8.02047C14.455 8.66433 14.6218 9.38614 14.5979 10.1143C14.5739 10.8426 14.3601 11.5518 13.9775 12.1719C14.3766 12.4986 14.6622 12.9431 14.7935 13.4419C15.5243 12.5199 15.9448 11.3905 15.995 10.215C16.0452 9.03962 15.7225 7.87842 15.073 6.89749ZM5.7051 7.96647C5.25291 7.96647 4.81924 8.1461 4.4995 8.46585C4.17975 8.78559 4.00012 9.21926 4.00012 9.67145C4.00025 10.1235 4.17994 10.5571 4.49967 10.8767C4.8194 11.1964 5.253 11.3759 5.7051 11.3759C6.15728 11.3759 6.59095 11.1963 6.9107 10.8765C7.23044 10.5568 7.41007 10.1231 7.41007 9.67095C7.41007 9.21876 7.23044 8.78509 6.9107 8.46535C6.59095 8.1456 6.15728 7.96647 5.7051 7.96647ZM6.71858 11.8994C6.26241 12.1064 5.75381 12.1689 5.2611 12.0784C5.60188 12.9212 6.14445 13.6673 6.84112 14.2512C7.53779 14.8352 8.36723 15.239 9.25655 15.4274C9.6545 15.5126 10.0605 15.5544 10.4675 15.5519C10.1545 15.1417 9.97964 14.6427 9.96804 14.1269C9.82766 14.1112 9.68815 14.0885 9.55004 14.0589C8.94742 13.9314 8.3807 13.6715 7.89097 13.2979C7.40124 12.9243 7.00077 12.4464 6.71858 11.8989V11.8994ZM12.421 12.3634C11.9688 12.3634 11.5351 12.543 11.2154 12.8628C10.8957 13.1825 10.716 13.6162 10.716 14.0684C10.716 14.5206 10.8957 14.9542 11.2154 15.274C11.5351 15.5937 11.9688 15.7734 12.421 15.7734C12.8732 15.7734 13.3069 15.5937 13.6266 15.274C13.9463 14.9542 14.126 14.5206 14.126 14.0684C14.126 13.6162 13.9463 13.1825 13.6266 12.8628C13.3069 12.543 12.8732 12.3634 12.421 12.3634Z" fill="white"/>
</svg>
