<svg width="20" height="20" viewBox="0 0 20 20" fill="none" xmlns="http://www.w3.org/2000/svg">
<path d="M14.236 9.0404H5.76409C5.32559 9.0404 4.9696 9.3959 4.9696 9.8349V15.1299C4.9696 15.5684 5.32509 15.9244 5.76409 15.9244H14.236C14.6745 15.9244 15.0305 15.5689 15.0305 15.1299V9.8349C15.0305 9.3959 14.6745 9.0404 14.236 9.0404ZM10.0001 15.2624C8.46707 15.2624 7.22008 14.0154 7.22008 12.4824C7.22008 10.9494 8.46707 9.7024 10.0001 9.7024C11.533 9.7024 12.78 10.9494 12.78 12.4824C12.78 14.0154 11.533 15.2624 10.0001 15.2624ZM10.0001 10.2054C8.74457 10.2054 7.72307 11.2269 7.72307 12.4824C7.72307 13.7379 8.74457 14.7594 10.0001 14.7594C11.2555 14.7594 12.277 13.7379 12.277 12.4824C12.277 11.2269 11.2555 10.2054 10.0001 10.2054ZM10.0001 14.1369C9.21856 14.1369 8.55957 13.5854 8.38957 12.8529H9.22456C9.36206 13.1434 9.65406 13.3424 10.0001 13.3424C10.4801 13.3424 10.8606 12.9619 10.8606 12.4819C10.8606 12.0019 10.4801 11.6214 10.0001 11.6214C9.67556 11.6214 9.40006 11.7974 9.25356 12.0584H8.40257C8.59157 11.3524 9.23706 10.8274 10.0001 10.8274C10.9091 10.8274 11.6545 11.5729 11.6545 12.4819C11.6545 13.3914 10.9091 14.1369 10.0001 14.1369ZM15.9245 4.19794L15.9235 4.19944C15.9225 4.19844 15.9215 4.19794 15.9205 4.19694C15.9205 4.19694 15.9215 4.19544 15.9225 4.19494C15.8645 4.12644 15.783 4.07944 15.663 4.07594C15.562 4.07844 15.4675 4.12444 15.407 4.20544L14.498 5.38193C14.416 5.35293 14.3285 5.33443 14.2365 5.33443H5.76409C5.67209 5.33443 5.58509 5.35343 5.50259 5.38193L4.5936 4.20494C4.5331 4.12394 4.4386 4.07844 4.3376 4.07544C4.2176 4.07844 4.1361 4.12544 4.0781 4.19444C4.0781 4.19444 4.0791 4.19594 4.0801 4.19644C4.0786 4.19744 4.0776 4.19844 4.0766 4.19944L4.0756 4.19794C4.0426 4.23694 3.9271 4.41094 4.0696 4.60994L5.02409 5.84543C4.99059 5.93343 4.9701 6.02842 4.9701 6.12842V7.98191C4.9701 8.42041 5.32559 8.7764 5.76459 8.7764H14.2365C14.675 8.7764 15.031 8.42091 15.031 7.98191V6.12842C15.031 6.02842 15.0105 5.93343 14.9765 5.84543L15.931 4.60994C16.073 4.41094 15.9575 4.23694 15.9245 4.19794ZM7.45208 8.11391C6.95858 8.11391 6.55858 7.71391 6.55858 7.22042C6.55858 6.72692 6.95858 6.32692 7.45208 6.32692C7.94557 6.32692 8.34557 6.72692 8.34557 7.22042C8.34557 7.71391 7.94557 8.11391 7.45208 8.11391ZM12.6145 8.11391C12.121 8.11391 11.721 7.71391 11.721 7.22042C11.721 6.72692 12.121 6.32692 12.6145 6.32692C13.108 6.32692 13.508 6.72692 13.508 7.22042C13.508 7.71391 13.108 8.11391 12.6145 8.11391Z" fill="white"/>
</svg>
