<svg width="20" height="20" viewBox="0 0 20 20" fill="none" xmlns="http://www.w3.org/2000/svg">
<path d="M4 4V16H16V4H4ZM5.332 5.482H9.072V6.398H7.698V9.996H6.706V6.398H5.332V5.482ZM9.996 14.482H5.496V13.732H9.996V14.482ZM12.778 9.87287C12.4572 10.0114 12.1091 10.0754 11.76 10.06C11.4553 10.0648 11.1527 10.0085 10.8702 9.8943C10.5876 9.7801 10.3309 9.61038 10.1151 9.39517C9.89933 9.17996 9.72894 8.92364 9.61401 8.6414C9.49908 8.35916 9.44195 8.05672 9.446 7.752V7.74C9.44021 7.43021 9.49729 7.12245 9.61379 6.83534C9.7303 6.54823 9.90381 6.28772 10.1238 6.06956C10.3439 5.8514 10.6058 5.68012 10.8939 5.56607C11.182 5.45202 11.4903 5.39756 11.8 5.406C12.1289 5.38918 12.4576 5.44234 12.7645 5.56197C13.0713 5.68161 13.3493 5.86499 13.58 6.1L12.948 6.828C12.6445 6.51298 12.2293 6.32983 11.792 6.318C11.6134 6.32148 11.4373 6.36076 11.2741 6.43351C11.111 6.50626 10.9641 6.611 10.8421 6.74154C10.7201 6.87208 10.6256 7.02576 10.5641 7.19348C10.5026 7.3612 10.4753 7.53956 10.484 7.718V7.732C10.4735 7.91175 10.4994 8.09177 10.56 8.26131C10.6206 8.43085 10.7148 8.58644 10.8368 8.71879C10.9589 8.85114 11.1064 8.95753 11.2705 9.03162C11.4346 9.10571 11.612 9.14597 11.792 9.15C12.0158 9.14923 12.237 9.10189 12.4415 9.01098C12.6461 8.92008 12.8294 8.78761 12.98 8.622L13.612 9.26C13.3839 9.52475 13.0988 9.7343 12.778 9.87287Z" fill="white"/>
</svg>
