<svg width="20" height="20" viewBox="0 0 20 20" fill="none" xmlns="http://www.w3.org/2000/svg">
<path d="M11.1695 10.4262C10.9207 10.4262 11.2193 10.5506 11.5435 10.6004C11.6306 10.5382 11.7114 10.4635 11.7861 10.3951C11.5839 10.4395 11.3752 10.4501 11.1695 10.4262ZM12.5016 10.0965C12.6447 9.89116 12.7504 9.66719 12.794 9.437C12.7566 9.60498 12.6695 9.74807 12.5887 9.89116C12.122 10.1836 12.5451 9.72318 12.5887 9.54276C12.0909 10.1711 12.5202 9.91605 12.5016 10.0965ZM12.9875 8.82107C13.0186 8.37251 12.9004 8.50938 12.863 8.68358C12.9066 8.70847 12.9439 8.99527 12.9875 8.82107ZM10.2363 2.72717C10.3608 2.75205 10.5163 2.77072 10.4976 2.80182C10.6407 2.77072 10.6718 2.73961 10.2301 2.72717M10.4976 2.80182L10.4043 2.82049L10.4914 2.81427V2.80182M14.6181 8.98843C14.6305 9.3866 14.4937 9.57947 14.3817 9.92165L14.1639 10.0343C13.9897 10.3702 14.1826 10.252 14.0582 10.5195C13.7844 10.7622 13.2245 11.2785 13.0503 11.3289C12.9252 11.3289 13.1374 11.1734 13.1685 11.1174C12.8008 11.3663 12.8692 11.4907 12.3155 11.6462L12.2969 11.6089C10.9151 12.2559 8.99764 10.9743 9.02875 9.21862C9.01008 9.32439 8.9852 9.2995 8.95409 9.34305C8.91636 8.89655 9.01522 8.44913 9.23756 8.06013C9.45989 7.67113 9.7952 7.35892 10.199 7.16492C10.5716 6.97735 10.9919 6.90555 11.4056 6.95877C11.8194 7.01198 12.2078 7.18778 12.5208 7.46355C12.3218 7.20543 12.0649 6.99775 11.7708 6.85725C11.4768 6.71676 11.1538 6.6474 10.828 6.65477C10.0939 6.66099 9.40888 7.1276 9.17868 7.63153C8.8054 7.86795 8.76185 8.54609 8.60009 8.66492C8.3755 10.2831 9.01071 10.9805 10.0808 11.8018C10.2488 11.92 10.1306 11.9324 10.1555 12.0195C9.7919 11.847 9.46785 11.6013 9.20357 11.2978C9.34666 11.5031 9.49598 11.7084 9.70129 11.864C9.35911 11.752 8.91116 11.0552 8.78051 11.0241C9.35911 12.0568 11.1322 12.8414 12.0536 12.455C11.5637 12.4897 11.0717 12.4306 10.604 12.2808C10.3987 12.1813 10.125 11.9635 10.1685 11.9262C10.7706 12.1795 11.4301 12.2647 12.0767 12.1726C12.7233 12.0806 13.3329 11.8148 13.8404 11.4036C14.1142 11.1858 14.419 10.8188 14.5061 10.8126C14.3817 11.0116 14.531 10.9121 14.4315 11.0863C14.7052 10.6384 14.307 10.8997 14.7176 10.3148L14.867 10.5202C14.811 10.1469 15.3273 9.6983 15.2776 9.11286C15.3958 8.92622 15.402 9.2995 15.2776 9.71634C15.458 9.25595 15.3273 9.18752 15.3709 8.80801C15.4207 8.93244 15.4829 9.06931 15.514 9.19996C15.402 8.76446 15.6384 8.45339 15.6882 8.20453C15.6322 8.17342 15.514 8.39117 15.4891 7.87479C15.4891 7.6446 15.5513 7.75036 15.5762 7.70059C15.5264 7.66948 15.4144 7.5015 15.3398 7.16492C15.3896 7.08405 15.4767 7.37023 15.5513 7.37645C15.5015 7.11515 15.4269 6.90985 15.4269 6.70454C15.2154 6.28148 15.3522 6.76675 15.178 6.51789C14.9665 5.83913 15.3647 6.36236 15.3896 6.05751C15.7255 6.53656 15.9122 7.27691 15.9999 7.58798C15.9377 7.2147 15.8257 6.84141 15.695 6.49301C15.7946 6.53656 15.5333 5.72093 15.8257 6.26281C15.4383 5.09687 14.6245 4.12055 13.5474 3.52973C13.6594 3.6355 13.8087 3.77237 13.7527 3.79103C13.2861 3.51107 13.367 3.4924 13.2985 3.3742C12.919 3.21866 12.8941 3.38664 12.6391 3.3742C11.9174 2.98847 11.7805 3.03202 11.1198 2.78316L11.1509 2.92625C10.6718 2.77072 10.591 2.98847 10.0746 2.92625C10.0435 2.90137 10.2426 2.83915 10.4043 2.81427C9.9433 2.87648 9.96819 2.72717 9.51402 2.83293C9.61978 2.75205 9.73799 2.70228 9.8562 2.63384C9.48291 2.65873 8.96031 2.8516 9.12207 2.6774C8.50677 2.95736 7.41615 3.34309 6.80645 3.91546L6.7884 3.77859C6.50844 4.11455 5.569 4.78087 5.49434 5.21637L5.41284 5.23503C5.26975 5.48389 5.17643 5.76385 5.05822 6.01956C4.87158 6.34307 4.77826 6.14398 4.80936 6.19376C4.43608 6.95277 4.24943 7.5942 4.08768 8.12365C4.19966 8.29163 4.08768 9.15019 4.13123 9.84077C3.94458 13.2395 6.52026 16.545 9.33422 17.3102C9.75106 17.4533 10.3608 17.4533 10.8834 17.4658C10.2674 17.2916 10.1866 17.3725 9.5893 17.1609C9.1538 16.9618 9.06048 16.7254 8.75563 16.4579L8.88005 16.6756C8.27595 16.4641 8.52543 16.4143 8.03332 16.2588L8.16397 16.0908C7.9711 16.0722 7.64759 15.7611 7.56049 15.5869L7.34896 15.5931C7.09388 15.2814 6.95701 15.0512 6.96945 14.8708L6.90039 14.9952C6.81951 14.8646 5.95473 13.8125 6.40268 14.0552C6.3218 13.9805 6.20981 13.9307 6.0916 13.713L6.1787 13.6072C5.96095 13.3335 5.78053 12.9726 5.79297 12.8607C5.9174 13.01 5.99206 13.0473 6.07294 13.066C5.52545 11.7147 5.49434 12.9913 5.07688 11.696L5.17021 11.6836C5.10799 11.584 5.05822 11.472 5.00845 11.3663L5.04578 10.993C4.65383 10.5326 4.93379 9.06309 4.98978 8.2543C5.03333 7.91834 5.31952 7.56994 5.53727 7.02183L5.40662 6.99695C5.65548 6.55522 6.86306 5.21015 7.42299 5.2792C7.69051 4.93702 7.367 5.2792 7.31101 5.1921C7.90826 4.57556 8.09491 4.7566 8.4937 4.64462C8.9292 4.39514 8.12042 4.74416 8.32572 4.55067C9.0723 4.36403 8.85455 4.11517 9.83194 4.02185C9.93148 4.08406 9.5893 4.10895 9.50842 4.18361C10.1306 3.87876 11.4688 3.95341 12.3466 4.35159C13.3607 4.83064 14.4999 6.22486 14.5434 7.54443L14.5932 7.55688C14.5683 8.0857 14.6741 8.6898 14.4874 9.24351L14.6119 8.98221M8.46944 10.769L8.43833 10.9432C8.60009 11.161 8.73074 11.3974 8.93605 11.5716C8.78673 11.2792 8.67475 11.161 8.46944 10.7628M8.85517 10.7503C8.76807 10.657 8.7183 10.5388 8.6623 10.4268C8.71208 10.6259 8.82406 10.8001 8.92983 10.9743L8.85517 10.7503ZM15.6645 9.2684L15.621 9.36172C15.5588 9.83455 15.4095 10.3018 15.1917 10.7379C15.4406 10.2837 15.5961 9.77918 15.6583 9.2684M10.2799 2.60896C10.4479 2.54674 10.6905 2.57785 10.8709 2.5343C10.6407 2.55297 10.4105 2.56541 10.1866 2.59652L10.2799 2.60896ZM4.40435 5.73337C4.4479 6.08799 4.13682 6.23109 4.47278 5.99467C4.65943 5.58405 4.40435 5.88268 4.41057 5.73337M4.0124 7.3889C4.08705 7.14626 4.10572 7.00317 4.13682 6.86629C3.91907 7.14004 4.03106 7.19603 4.0124 7.38268" fill="white"/>
</svg>
