<svg width="20" height="20" viewBox="0 0 20 20" fill="none" xmlns="http://www.w3.org/2000/svg">
<path d="M8.49949 4V6.1545C10.6205 6.1545 12.3465 7.8795 12.3465 10C12.3465 12.1205 10.6205 13.8455 8.49949 13.8455V16C11.808 16 14.4995 13.3085 14.4995 10C14.4995 6.6915 11.808 4 8.49949 4ZM8.49949 7.0055C6.84299 7.0055 5.49949 8.349 5.50049 10.0055C5.50059 10.5987 5.6766 11.1786 6.00627 11.6718C6.33595 12.1651 6.80447 12.5494 7.35259 12.7764C7.90072 13.0033 8.50383 13.0626 9.08565 12.9468C9.66748 12.8309 10.2019 12.5452 10.6213 12.1256C11.0407 11.7061 11.3263 11.1715 11.442 10.5897C11.5576 10.0078 11.4981 9.40473 11.271 8.85668C11.0439 8.30863 10.6593 7.84024 10.166 7.51073C9.67269 7.18122 9.09273 7.0054 8.49949 7.0055Z" fill="white"/>
</svg>
