<svg width="20" height="20" viewBox="0 0 20 20" fill="none" xmlns="http://www.w3.org/2000/svg">
<path d="M10 4.14844C6.685 4.14844 4 6.83494 4 10.1484C4 12.7999 5.719 15.0484 8.1025 15.8409C8.4025 15.8974 8.5125 15.7119 8.5125 15.5524C8.5125 15.4099 8.5075 15.0324 8.505 14.5324C6.836 14.8944 6.484 13.7274 6.484 13.7274C6.211 13.0349 5.8165 12.8499 5.8165 12.8499C5.273 12.4779 5.8585 12.4854 5.8585 12.4854C6.461 12.5274 6.7775 13.1034 6.7775 13.1034C7.3125 14.0209 8.182 13.7559 8.525 13.6024C8.579 13.2144 8.7335 12.9499 8.905 12.7999C7.5725 12.6499 6.172 12.1339 6.172 9.83494C6.172 9.17994 6.4045 8.64494 6.7895 8.22494C6.722 8.07344 6.5195 7.46344 6.842 6.63694C6.842 6.63694 7.3445 6.47594 8.492 7.25194C8.972 7.11844 9.482 7.05244 9.992 7.04944C10.502 7.05244 11.012 7.11844 11.492 7.25194C12.632 6.47594 13.1345 6.63694 13.1345 6.63694C13.457 7.46344 13.2545 8.07344 13.1945 8.22494C13.577 8.64494 13.8095 9.17994 13.8095 9.83494C13.8095 12.1399 12.407 12.6474 11.072 12.7949C11.282 12.9749 11.477 13.3429 11.477 13.9049C11.477 14.7079 11.4695 15.3529 11.4695 15.5479C11.4695 15.7054 11.5745 15.8929 11.882 15.8329C14.2825 15.0459 16 12.7959 16 10.1484C16 6.83494 13.3135 4.14844 10 4.14844Z" fill="white"/>
</svg>
