<svg width="20" height="20" viewBox="0 0 20 20" fill="none" xmlns="http://www.w3.org/2000/svg">
<path d="M10.1169 4C11.7312 4.00005 13.0796 4.59146 14.116 5.55469L12.4285 7.20215C11.9966 6.79692 11.2394 6.31256 10.1169 6.3125C8.53574 6.3125 7.19378 7.35518 6.70874 8.79688L6.62769 9.08105C6.55676 9.36929 6.51636 9.6707 6.51636 9.97949C6.51636 10.2883 6.55687 10.5897 6.63062 10.8779L6.71558 11.1621L6.81519 11.4277C7.36269 12.7301 8.6347 13.6465 10.1169 13.6465C11.0069 13.6464 11.6844 13.4008 12.1892 13.0488L12.3337 12.9414C13.0305 12.3883 13.3496 11.6255 13.4119 11.1084H10.1169V8.88965H15.7302C15.8166 9.26169 15.8572 9.62067 15.8572 10.1123C15.8572 11.9326 15.2053 13.4667 14.0759 14.5098L14.0769 14.5107C13.087 15.4275 11.7313 15.9589 10.1169 15.959C7.77832 15.959 5.75841 14.6163 4.77515 12.6631C4.37001 11.8526 4.13746 10.9427 4.13745 9.97949C4.13745 9.01615 4.36989 8.10547 4.77515 7.29492C5.75847 5.34183 7.77843 4 10.1169 4Z" fill="white"/>
</svg>
