<svg width="20" height="20" viewBox="0 0 20 20" fill="none" xmlns="http://www.w3.org/2000/svg">
<path fill-rule="evenodd" clip-rule="evenodd" d="M10.6888 3.08864L10.3999 6.6442C10.2665 6.62198 10.1332 6.62198 9.97766 6.62198C9.79988 6.62198 9.6221 6.6442 9.46654 6.66642L9.31099 4.95531C9.31099 4.91087 9.35543 4.8442 9.39988 4.8442H9.68877L9.55543 3.11087C9.55543 3.06642 9.59988 2.99976 9.64432 2.99976H10.5999C10.6665 2.99976 10.711 3.0442 10.6888 3.08864ZM8.28877 3.26642C8.26654 3.22198 8.2221 3.17753 8.17766 3.19976L7.28877 3.53309C7.2221 3.55531 7.19988 3.62198 7.2221 3.66642L7.95543 5.2442L7.68877 5.35531C7.64432 5.37753 7.6221 5.42198 7.64432 5.48864L8.37766 7.0442C8.64432 6.88864 8.93321 6.77753 9.24432 6.71087L8.28877 3.26642ZM6.11099 4.26642L8.17766 7.17753C7.91099 7.35531 7.68877 7.55531 7.48877 7.77753L6.2221 6.55531C6.17766 6.51087 6.17766 6.4442 6.2221 6.42198L6.44432 6.2442L5.2221 4.99976C5.17766 4.95531 5.17766 4.88864 5.2221 4.86642L5.95543 4.26642C5.99988 4.19976 6.06654 4.22198 6.11099 4.26642ZM4.37766 5.93309C4.33321 5.91087 4.26654 5.91087 4.24432 5.95531L3.77766 6.77753C3.75543 6.82198 3.77766 6.88864 3.8221 6.91087L5.39988 7.66642L5.24432 7.91087C5.2221 7.95531 5.24432 8.02198 5.28877 8.0442L6.86654 8.75531C6.97766 8.46642 7.13321 8.19976 7.31099 7.95531L4.37766 5.93309ZM3.19988 8.17753C3.19988 8.13309 3.26654 8.08864 3.31099 8.11087L6.75543 8.99976C6.66654 9.28864 6.6221 9.59976 6.59988 9.91087L4.86654 9.77753C4.8221 9.77753 4.77766 9.73309 4.77766 9.66642L4.8221 9.37753L3.13321 9.22198C3.08877 9.22198 3.04432 9.17753 3.04432 9.11087L3.19988 8.17753ZM3.08877 10.5109C3.0221 10.5109 2.99988 10.5553 2.99988 10.622L3.17766 11.5553C3.17766 11.5998 3.24432 11.6442 3.28877 11.622L4.97766 11.1775L5.0221 11.4664C5.0221 11.5109 5.08877 11.5553 5.13321 11.5331L6.79988 11.0664C6.71099 10.7775 6.64432 10.4664 6.6221 10.1553L3.08877 10.5109ZM3.64432 12.9775C3.6221 12.9331 3.64432 12.8664 3.68877 12.8442L6.91099 11.3109C7.0221 11.5998 7.19988 11.8664 7.39988 12.1109L5.99988 13.1109C5.95543 13.1331 5.88877 13.1331 5.86654 13.0886L5.66654 12.8442L4.2221 13.8442C4.17766 13.8664 4.11099 13.8664 4.08877 13.822L3.64432 12.9775ZM7.53321 12.3109L5.0221 14.8442C4.97766 14.8886 4.97766 14.9553 5.0221 14.9775L5.75543 15.5775C5.79988 15.622 5.86654 15.5998 5.88877 15.5553L6.91099 14.1331L7.13321 14.3331C7.17766 14.3775 7.24432 14.3553 7.26654 14.3109L8.24432 12.8886C7.97766 12.7331 7.73321 12.5331 7.53321 12.3109ZM7.04432 16.3553C6.99988 16.3331 6.97766 16.2886 6.99988 16.222L8.46654 12.9998C8.73321 13.1331 9.04432 13.2442 9.33321 13.3109L8.88877 14.9775C8.86654 15.022 8.8221 15.0664 8.77766 15.0442L8.51099 14.9331L8.04432 16.622C8.0221 16.6664 7.97766 16.7109 7.93321 16.6886L7.04432 16.3553ZM9.57766 13.3553L9.28877 16.9109C9.28877 16.9553 9.33321 17.022 9.37766 17.022H10.3332C10.3777 17.022 10.4221 16.9775 10.4221 16.9109L10.2888 15.1775H10.5777C10.6221 15.1775 10.6665 15.1331 10.6665 15.0664L10.511 13.3553C10.3332 13.3775 10.1777 13.3998 9.99988 13.3998C9.86654 13.3775 9.71099 13.3775 9.57766 13.3553ZM13.0221 3.75531C13.0443 3.71087 13.0221 3.6442 12.9777 3.62198L12.0888 3.28864C12.0443 3.26642 11.9777 3.31087 11.9777 3.35531L11.511 5.0442L11.2443 4.93309C11.1999 4.91087 11.1332 4.95531 11.1332 4.99976L10.6888 6.66642C10.9999 6.73309 11.2888 6.8442 11.5554 6.97753L13.0221 3.75531ZM14.9777 5.15531L12.4665 7.68864C12.2665 7.46642 12.0221 7.26642 11.7554 7.11087L12.7332 5.68864C12.7554 5.6442 12.8221 5.6442 12.8665 5.66642L13.0888 5.86642L14.111 4.4442C14.1332 4.39976 14.1999 4.39976 14.2443 4.42198L14.9777 5.02198C14.9999 5.06642 14.9999 5.13309 14.9777 5.15531ZM16.311 7.15531C16.3554 7.13309 16.3777 7.06642 16.3554 7.02198L15.8888 6.19976C15.8665 6.15531 15.7999 6.13309 15.7554 6.17753L14.311 7.17753L14.1554 6.93309C14.1332 6.88864 14.0665 6.86642 14.0221 6.91087L12.6221 7.88864C12.8221 8.13309 12.9777 8.39976 13.111 8.68864L16.311 7.15531ZM16.8221 8.4442L16.9777 9.37753C16.9777 9.42198 16.9554 9.48864 16.8888 9.48864L13.3554 9.82198C13.3332 9.51087 13.2665 9.19976 13.1777 8.91087L14.8443 8.4442C14.8888 8.42198 14.9554 8.46642 14.9554 8.51087L14.9999 8.79976L16.6888 8.35531C16.7554 8.35531 16.7999 8.39976 16.8221 8.4442ZM16.6665 11.8886C16.711 11.9109 16.7777 11.8664 16.7777 11.822L16.9332 10.8886C16.9332 10.8442 16.911 10.7775 16.8443 10.7775L15.111 10.622L15.1554 10.3331C15.1554 10.2886 15.1332 10.222 15.0665 10.222L13.3332 10.0886C13.3332 10.3998 13.2665 10.7109 13.1777 10.9998L16.6665 11.8886ZM15.7554 14.022C15.7332 14.0664 15.6665 14.0886 15.6221 14.0442L12.6888 12.022C12.8665 11.7775 13.0221 11.5109 13.1332 11.222L14.711 11.9331C14.7554 11.9553 14.7777 12.022 14.7554 12.0664L14.5999 12.3331L16.1777 13.0886C16.2221 13.1109 16.2443 13.1775 16.2221 13.222L15.7554 14.022ZM11.8221 12.822L13.8888 15.7331C13.911 15.7775 13.9777 15.7775 14.0221 15.7553L14.7554 15.1553C14.7999 15.1109 14.7999 15.0664 14.7554 15.022L13.5332 13.7775L13.7554 13.5998C13.7999 13.5553 13.7999 13.5109 13.7554 13.4664L12.5332 12.2442C12.3332 12.4664 12.0888 12.6664 11.8221 12.822ZM11.8221 16.7775C11.7777 16.7998 11.711 16.7553 11.711 16.7109L10.7777 13.2886C11.0888 13.222 11.3777 13.1109 11.6443 12.9553L12.3777 14.5109C12.3999 14.5553 12.3777 14.622 12.3332 14.6442L12.0665 14.7553L12.7999 16.3331C12.8221 16.3775 12.7999 16.4442 12.7554 16.4664L11.8221 16.7775Z" fill="white"/>
</svg>
