<svg width="20" height="20" viewBox="0 0 20 20" fill="none" xmlns="http://www.w3.org/2000/svg">
<path d="M12.2224 17.2902C12.2224 17.539 12.222 17.6639 12.1736 17.7589C12.131 17.8423 12.0627 17.9097 11.9792 17.9523C11.8842 18.0006 11.7601 18.0011 11.5115 18.0011H8.48901C8.2401 18.0011 8.11534 18.0007 8.02026 17.9523C7.93688 17.9097 7.86848 17.8423 7.82593 17.7589C7.7775 17.6639 7.77808 17.539 7.77808 17.2902V16.4454H12.2224V17.2902ZM7.19995 3.11243C7.32441 3.11243 7.38679 3.11262 7.43433 3.13684C7.47599 3.15812 7.50973 3.19185 7.53101 3.23352C7.55523 3.28106 7.55542 3.34344 7.55542 3.4679V3.60071C7.55542 3.66285 7.55606 3.69414 7.56812 3.7179C7.57872 3.73871 7.59519 3.75606 7.61597 3.76672C7.6397 3.77882 7.6711 3.77844 7.73315 3.77844H12.2664C12.3284 3.77844 12.3598 3.77872 12.3835 3.76672C12.4045 3.75607 12.4217 3.7388 12.4324 3.7179C12.4444 3.69416 12.4441 3.66273 12.4441 3.60071V3.4679C12.4441 3.34351 12.4443 3.28105 12.4685 3.23352C12.4898 3.19171 12.5243 3.15815 12.5662 3.13684C12.6137 3.11266 12.6761 3.11243 12.8005 3.11243H12.9412C13.1303 3.11243 13.2252 3.11258 13.3005 3.14075C13.3714 3.16731 13.4236 3.20277 13.4744 3.25891C13.5281 3.31857 13.566 3.41512 13.6423 3.60754C13.766 3.91945 13.9397 4.2871 14.1111 4.41809C14.4791 4.69932 14.7814 5.06074 14.9939 5.47766C15.333 6.14316 15.3337 7.01457 15.3337 8.75696V11.2452C15.3337 12.9876 15.333 13.859 14.9939 14.5245C14.7814 14.9415 14.4791 15.3029 14.1111 15.5841C13.9397 15.7151 13.766 16.0827 13.6423 16.3947C13.566 16.5871 13.5281 16.6836 13.4744 16.7433C13.4236 16.7994 13.3714 16.8349 13.3005 16.8615C13.2252 16.8896 13.1303 16.8898 12.9412 16.8898H12.8005C12.6761 16.8898 12.6137 16.8895 12.5662 16.8654C12.5243 16.8441 12.4898 16.8105 12.4685 16.7687C12.4443 16.7212 12.4441 16.6587 12.4441 16.5343V16.4015C12.4441 16.3395 12.4444 16.308 12.4324 16.2843C12.4217 16.2634 12.4045 16.2461 12.3835 16.2355C12.3598 16.2235 12.3284 16.2238 12.2664 16.2238H7.73315C7.6711 16.2238 7.6397 16.2234 7.61597 16.2355C7.59519 16.2461 7.57872 16.2635 7.56812 16.2843C7.55606 16.3081 7.55542 16.3393 7.55542 16.4015V16.5343C7.55542 16.6588 7.55523 16.7211 7.53101 16.7687C7.50973 16.8103 7.47599 16.8441 7.43433 16.8654C7.38679 16.8896 7.32441 16.8898 7.19995 16.8898H7.05933C6.87007 16.8898 6.77527 16.8896 6.69995 16.8615C6.62897 16.8349 6.57699 16.7995 6.52612 16.7433C6.4723 16.6836 6.43355 16.5873 6.35718 16.3947C6.23355 16.0829 6.06073 15.7152 5.8894 15.5841C5.52132 15.3029 5.21807 14.9415 5.00562 14.5245C4.66661 13.8591 4.66675 12.9875 4.66675 11.2452V8.75696C4.66675 7.01471 4.66661 6.14314 5.00562 5.47766C5.21807 5.06069 5.52132 4.69934 5.8894 4.41809C6.06073 4.28701 6.23355 3.91929 6.35718 3.60754C6.43355 3.41494 6.4723 3.31856 6.52612 3.25891C6.57699 3.2027 6.62897 3.16732 6.69995 3.14075C6.77527 3.11257 6.87007 3.11243 7.05933 3.11243H7.19995ZM8.84448 5.11243C7.84883 5.11243 7.35075 5.11202 6.97046 5.30579C6.636 5.47623 6.36452 5.74865 6.19409 6.08313C6.00039 6.46335 5.99976 6.9609 5.99976 7.95618V12.046C5.99976 13.0413 6.00039 13.5388 6.19409 13.9191C6.36452 14.2535 6.636 14.526 6.97046 14.6964C7.35075 14.8902 7.84883 14.8898 8.84448 14.8898H11.156C12.1511 14.8898 12.6489 14.89 13.0291 14.6964C13.3636 14.526 13.636 14.2536 13.8064 13.9191C14 13.5389 13.9998 13.0411 13.9998 12.046V7.95618C13.9998 6.96107 14 6.46332 13.8064 6.08313C13.636 5.74862 13.3636 5.47623 13.0291 5.30579C12.6489 5.11219 12.1511 5.11243 11.156 5.11243H8.84448ZM11.5115 2.0011C11.7601 2.0011 11.8842 2.00158 11.9792 2.04993C12.0627 2.09245 12.131 2.15989 12.1736 2.24329C12.222 2.33834 12.2224 2.46324 12.2224 2.71204V3.55676H7.77808V2.71204C7.77808 2.46324 7.7775 2.33834 7.82593 2.24329C7.86848 2.15989 7.93688 2.09251 8.02026 2.04993C8.11534 2.00149 8.2401 2.0011 8.48901 2.0011H11.5115Z" fill="white"/>
</svg>
