<svg width="20" height="20" viewBox="0 0 20 20" fill="none" xmlns="http://www.w3.org/2000/svg">
<path d="M9.92483 6.88985C9.94827 6.90157 9.96702 6.92969 9.99514 6.92969C10.0209 6.92969 10.0608 6.92032 10.0631 6.89454C10.0678 6.86173 10.0186 6.84063 9.98811 6.82657C9.94827 6.81016 9.89671 6.80313 9.85921 6.82423C9.84983 6.82891 9.84046 6.84063 9.84514 6.85001C9.85217 6.88048 9.89905 6.87579 9.92483 6.88985ZM9.41155 6.92969C9.43967 6.92969 9.45842 6.90157 9.48186 6.88985C9.50764 6.87579 9.55452 6.88048 9.56389 6.85235C9.56858 6.84298 9.55921 6.83126 9.54983 6.82657C9.51233 6.80548 9.46077 6.81251 9.42093 6.82891C9.39046 6.84298 9.34124 6.86407 9.34592 6.89688C9.34827 6.92032 9.38811 6.93204 9.41155 6.92969ZM14.5936 13.4641C14.5092 13.3703 14.4694 13.1922 14.4248 13.0023C14.3826 12.8125 14.3334 12.6086 14.1787 12.4774C14.1483 12.4516 14.1178 12.4281 14.085 12.4094C14.0545 12.3906 14.0217 12.3742 13.9889 12.3625C14.2045 11.7227 14.1201 11.0852 13.9022 10.5086C13.635 9.80313 13.1686 9.18673 12.8123 8.76485C12.4115 8.26094 12.0225 7.78282 12.0295 7.07735C12.0412 6.00157 12.149 4.00235 10.253 4.00001C7.85296 3.99532 8.45296 6.42344 8.42717 7.16876C8.38733 7.71719 8.27717 8.14844 7.89983 8.68516C7.45686 9.21251 6.83343 10.0633 6.53811 10.9516C6.39749 11.3711 6.33186 11.7977 6.3928 12.2008C6.24046 12.3367 6.12561 12.5453 6.00374 12.6742C5.9053 12.775 5.76233 12.8125 5.6053 12.8688C5.44827 12.925 5.27718 13.0094 5.17171 13.2086C5.12249 13.3 5.10608 13.3984 5.10608 13.4992C5.10608 13.5906 5.12014 13.6844 5.13421 13.7758C5.16233 13.9656 5.1928 14.1438 5.15296 14.2633C5.03108 14.6008 5.01468 14.8352 5.10139 15.0063C5.19046 15.1773 5.36858 15.2523 5.57249 15.2945C5.97796 15.3789 6.52874 15.3578 6.96233 15.5875C7.42639 15.8313 7.89749 15.918 8.27249 15.8313C8.54436 15.7703 8.76702 15.6063 8.87952 15.3578C9.17249 15.3555 9.49593 15.2313 10.0115 15.2031C10.3608 15.175 10.799 15.3273 11.303 15.2992C11.317 15.3531 11.3358 15.407 11.3615 15.4563V15.4586C11.5561 15.85 11.9194 16.0281 12.3061 15.9977C12.6951 15.9672 13.1053 15.7398 13.4381 15.3438C13.7569 14.9594 14.2819 14.8 14.6311 14.5891C14.8045 14.4836 14.9451 14.3523 14.9569 14.1602C14.9662 13.968 14.8537 13.7547 14.5936 13.4641ZM9.9928 6.0461C10.2225 5.52579 10.7944 5.53516 11.0241 6.03673C11.1764 6.36954 11.1084 6.76094 10.9233 6.9836C10.8858 6.96485 10.785 6.92266 10.628 6.86876C10.6537 6.84063 10.7006 6.80548 10.7194 6.76094C10.8319 6.48438 10.7147 6.12813 10.5061 6.1211C10.335 6.10938 10.1803 6.37423 10.2295 6.66016C10.1334 6.61329 10.0092 6.57813 9.92483 6.55704C9.90139 6.39532 9.9178 6.21485 9.9928 6.0461ZM9.03889 5.77657C9.27561 5.77657 9.52639 6.10938 9.48655 6.56173C9.40452 6.58516 9.32014 6.62032 9.24749 6.66954C9.27561 6.46094 9.17014 6.19844 9.02249 6.21016C8.82561 6.22657 8.7928 6.70704 8.9803 6.86876C9.00374 6.88751 9.02483 6.86407 8.84202 6.99766C8.47639 6.65548 8.59593 5.77657 9.03889 5.77657ZM8.72014 7.19923C8.86546 7.09141 9.03889 6.96485 9.05061 6.95313C9.16077 6.85001 9.36702 6.62032 9.70452 6.62032C9.87092 6.62032 10.0701 6.67423 10.3115 6.82891C10.4592 6.92501 10.5764 6.93204 10.8412 7.04688C11.0381 7.12891 11.1623 7.27423 11.0873 7.47344C11.0264 7.63985 10.8295 7.81094 10.5553 7.89766C10.2951 7.98204 10.0912 8.27266 9.65999 8.24688C9.56858 8.24219 9.49592 8.22344 9.43499 8.19766C9.24749 8.11563 9.14905 7.95391 8.96624 7.8461C8.76467 7.7336 8.65686 7.60235 8.62171 7.48751C8.58889 7.37266 8.62171 7.27657 8.72014 7.19923ZM8.79749 15.0273C8.73421 15.85 7.76858 15.8336 7.03264 15.4492C6.33186 15.0789 5.42483 15.2969 5.23968 14.9359C5.18343 14.8258 5.18343 14.6383 5.30061 14.3172V14.3125C5.35686 14.1344 5.31468 13.9375 5.28655 13.7523C5.25843 13.5695 5.24436 13.4008 5.30764 13.2836C5.38968 13.1266 5.50686 13.0703 5.65452 13.0188C5.89593 12.932 5.93108 12.9391 6.11389 12.7867C6.2428 12.6531 6.33655 12.4844 6.44905 12.3648C6.56858 12.2359 6.68343 12.175 6.86389 12.2031C7.05374 12.2313 7.2178 12.3625 7.37717 12.5781L7.83655 13.4125C8.05921 13.8789 8.84671 14.5469 8.79749 15.0273ZM8.76467 14.4203C8.66858 14.2656 8.53967 14.1016 8.42717 13.9609C8.59358 13.9609 8.75999 13.9094 8.81858 13.7523C8.87249 13.607 8.81858 13.4031 8.64514 13.1688C8.32874 12.7422 7.74749 12.407 7.74749 12.407C7.43108 12.2102 7.25296 11.9688 7.17093 11.7063C7.08889 11.4438 7.10061 11.1602 7.16389 10.8813C7.28577 10.3445 7.59983 9.82188 7.80139 9.49376C7.8553 9.45391 7.82014 9.56876 7.59749 9.98126C7.39827 10.3586 7.02561 11.2305 7.53655 11.9125C7.55061 11.4273 7.66546 10.9328 7.85999 10.4711C8.14124 9.82891 8.73421 8.71563 8.78108 7.82969C8.80686 7.84844 8.88889 7.90469 8.92639 7.92579C9.03421 7.98907 9.11624 8.08282 9.22171 8.16719C9.51233 8.40157 9.88967 8.38282 10.2155 8.19532C10.3608 8.11329 10.478 8.01954 10.5881 7.98438C10.8201 7.91173 11.0053 7.78282 11.1108 7.63282C11.2912 8.34532 11.7131 9.37423 11.9826 9.87579C12.1256 10.143 12.4115 10.7078 12.5358 11.3898C12.6131 11.3875 12.6998 11.3992 12.7912 11.4227C13.1147 10.5859 12.517 9.6836 12.2451 9.43282C12.135 9.32501 12.1303 9.27813 12.1842 9.28048C12.4795 9.54298 12.8686 10.0703 13.0092 10.6633C13.0748 10.9352 13.0865 11.2188 13.0186 11.5C13.403 11.6594 13.86 11.9195 13.7381 12.3156C13.6865 12.3133 13.6631 12.3156 13.6397 12.3156C13.7147 12.0789 13.5483 11.9031 13.1053 11.7039C12.6459 11.5023 12.2615 11.5023 12.2076 11.9969C11.924 12.0953 11.7787 12.3414 11.7061 12.6367C11.6405 12.8992 11.6217 13.2156 11.603 13.5719C11.5912 13.7523 11.5186 13.9938 11.4436 14.2516C10.6912 14.7883 9.64592 15.0227 8.76467 14.4203ZM14.7975 14.1508C14.7764 14.5445 13.8319 14.6172 13.3162 15.2406C13.0069 15.6086 12.6272 15.8125 12.2944 15.8383C11.9615 15.8641 11.6733 15.7258 11.5045 15.3859C11.3944 15.1258 11.4483 14.8445 11.5303 14.5352C11.617 14.2023 11.7459 13.8602 11.7623 13.5836C11.7811 13.2273 11.8022 12.9156 11.8608 12.6766C11.9217 12.4352 12.0155 12.2734 12.1819 12.182C12.1889 12.1773 12.1983 12.175 12.2053 12.1703C12.224 12.4797 12.3764 12.7938 12.6459 12.8617C12.9412 12.9391 13.3655 12.6859 13.5459 12.4797C13.7569 12.4727 13.9139 12.4586 14.0756 12.5992C14.3076 12.7984 14.242 13.3094 14.4764 13.5742C14.7248 13.8461 14.8045 14.0313 14.7975 14.1508ZM8.81155 7.48516C8.85842 7.52969 8.92171 7.59063 8.99905 7.65157C9.15374 7.77344 9.36936 7.90001 9.63889 7.90001C9.91077 7.90001 10.1662 7.76173 10.3842 7.64688C10.499 7.58594 10.6397 7.48282 10.7311 7.40313C10.8225 7.32344 10.8694 7.25548 10.8037 7.24844C10.7381 7.24141 10.7428 7.30938 10.6631 7.36798C10.56 7.44298 10.4358 7.54141 10.3373 7.59766C10.1639 7.6961 9.8803 7.83673 9.63655 7.83673C9.3928 7.83673 9.19827 7.72423 9.05296 7.60938C8.9803 7.55079 8.91936 7.49219 8.87249 7.44766C8.83733 7.41485 8.82796 7.33985 8.77171 7.33282C8.73889 7.33048 8.72952 7.41954 8.81155 7.48516Z" fill="white"/>
</svg>
