<svg width="20" height="20" viewBox="0 0 20 20" fill="none" xmlns="http://www.w3.org/2000/svg">
<path d="M15.0823 10.6711L12.8587 8.40979C12.7072 8.25384 12.526 8.12986 12.3258 8.0452C12.1256 7.96054 11.9104 7.91692 11.693 7.91692C11.4756 7.91692 11.2605 7.96054 11.0603 8.0452C10.86 8.12986 10.6788 8.25384 10.5274 8.40979L8.76685 10.2C8.70677 10.2611 8.63513 10.3096 8.55611 10.3427C8.47708 10.3759 8.39225 10.3929 8.30657 10.3929C8.22088 10.3929 8.13605 10.3759 8.05703 10.3427C7.978 10.3096 7.90636 10.2611 7.84629 10.2L6.97404 9.3129L9.19766 7.05139C9.52303 6.71856 9.91163 6.45411 10.3406 6.27356C10.7696 6.09301 11.2304 6 11.6958 6C12.1613 6 12.622 6.09301 13.051 6.27356C13.48 6.45411 13.8686 6.71856 14.194 7.05139L16.4176 9.31291L15.0823 10.6711ZM8.30397 13.9999C7.83854 14 7.37778 13.9071 6.94878 13.7265C6.51979 13.546 6.13121 13.2815 5.8059 12.9487L3.58228 10.6925L4.9122 9.34017L7.13563 11.5961C7.28775 11.7508 7.46916 11.8738 7.66929 11.9577C7.86942 12.0416 8.08426 12.0848 8.30126 12.0848C8.51827 12.0848 8.73311 12.0416 8.93324 11.9577C9.13337 11.8738 9.31478 11.7508 9.4669 11.5961L11.2274 9.80546C11.2875 9.74436 11.3592 9.69584 11.4382 9.66271C11.5172 9.62959 11.602 9.61253 11.6877 9.61253C11.7734 9.61253 11.8582 9.62959 11.9373 9.66271C12.0163 9.69584 12.0879 9.74436 12.148 9.80546L13.0203 10.6925L10.8022 12.9541C10.4766 13.2862 10.0879 13.5499 9.65882 13.7295C9.22976 13.9091 8.7691 14.0011 8.30397 13.9999Z" fill="white"/>
</svg>
