<svg width="20" height="20" viewBox="0 0 20 20" fill="none" xmlns="http://www.w3.org/2000/svg">
<g clip-path="url(#clip0_318_374)">
<path d="M17.4885 5.69072C17.479 5.66677 17.4649 5.64494 17.4469 5.62649C17.4289 5.60804 17.4075 5.59333 17.3838 5.58323C17.3601 5.57312 17.3346 5.56782 17.3089 5.56762C17.2831 5.56742 17.2576 5.57232 17.2337 5.58206L15.7725 6.0916C15.1327 6.30586 14.4794 6.47734 13.8168 6.60489C12.4643 6.85217 11.4939 5.76939 11.4939 5.76939C11.4676 5.73683 11.4319 5.71322 11.3916 5.70181C11.3513 5.69041 11.3085 5.69177 11.2691 5.7057C11.1724 5.7371 11.0774 5.77337 10.9843 5.81435C11.1404 4.75548 11.5019 3.7373 12.0484 2.81704C12.1122 2.75276 12.1122 2.64903 12.0484 2.58475C12.0185 2.54794 11.978 2.52131 11.9323 2.50855C11.8867 2.4958 11.8382 2.49755 11.7936 2.51357C10.8719 2.97487 9.99402 3.51913 9.17096 4.1396C7.37257 5.5371 6.37222 6.96082 6.24859 8.38829C6.15492 9.54975 6.91923 10.3103 7.64982 11.0109L7.77721 11.1346C7.90313 11.5009 7.95215 11.8893 7.9212 12.2754C7.89026 12.6616 7.78002 13.0372 7.59737 13.3788C6.94546 14.8175 5.49926 16.0726 3.68589 16.7508C3.1164 16.9681 2.63682 17.1254 2.63682 17.1254C2.54016 17.1576 2.48462 17.2589 2.50944 17.3577C2.52213 17.3986 2.54746 17.4345 2.5818 17.46C2.61613 17.4856 2.6577 17.4997 2.70052 17.5001H2.74923C4.16964 17.1512 5.55061 16.6578 6.87053 16.0277L7.2452 15.8403C9.56811 14.6339 10.8082 13.2177 10.9506 11.6591C11.048 10.6662 10.4598 9.99935 9.82663 9.41112C10.6359 8.28713 13.2585 7.39543 13.2773 7.39543L15.8662 6.49624C16.6942 6.23398 17.3311 5.98295 17.3649 5.96797C17.3908 5.95994 17.4147 5.94638 17.4348 5.92822C17.455 5.91007 17.471 5.88774 17.4817 5.8628C17.4924 5.83786 17.4975 5.81089 17.4967 5.78377C17.496 5.75664 17.4893 5.73 17.4773 5.7057L17.4885 5.69072ZM10.6059 6.01667C9.75795 6.41708 9.0084 6.99906 8.41039 7.72139C8.28658 7.41644 8.23775 7.08623 8.26801 6.7585C8.36543 5.69072 9.50815 4.45058 9.68424 4.26325C10.2456 3.86549 10.8285 3.49901 11.4302 3.16548C10.9736 4.05487 10.6876 5.02196 10.5872 6.01667L10.6059 6.01667ZM5.784 16.0914C6.72409 15.4418 7.48038 14.5603 7.97953 13.5324C8.24927 12.9732 8.36932 12.3535 8.32797 11.734C8.51048 11.9197 8.65288 12.1409 8.74634 12.3838C8.83979 12.6268 8.8823 12.8864 8.87123 13.1465C8.72886 14.5103 7.04287 15.4844 7.02789 15.4994C6.62325 15.713 6.20737 15.9078 5.784 16.0914ZM10.5385 11.6254C10.4448 12.6969 9.75918 13.6111 8.82252 14.3679C9.06076 14.0178 9.20642 13.6131 9.2459 13.1915C9.34331 12.1686 8.6277 11.4568 7.92708 10.7749C7.22645 10.093 6.55956 9.42611 6.63824 8.44823C6.73565 7.30177 7.45126 6.27893 8.32422 5.41346C8.07074 5.81691 7.90835 6.27083 7.8484 6.74352C7.72101 7.99864 8.56401 8.7742 9.2946 9.45608C10.0252 10.138 10.6134 10.6812 10.5347 11.6254H10.5385ZM9.50441 9.11513C9.16579 8.82353 8.86158 8.49419 8.59772 8.13352C9.28336 7.03575 10.8457 6.32015 11.3028 6.13657C11.7894 6.60754 12.4122 6.91302 13.0824 7.00953C12.7003 7.14815 10.3699 7.96866 9.50441 9.11513Z" fill="white"/>
</g>
<defs>
<clipPath id="clip0_318_374">
<rect width="15" height="15" fill="white" transform="translate(2.5 2.50012)"/>
</clipPath>
</defs>
</svg>
