<svg width="20" height="20" viewBox="0 0 20 20" fill="none" xmlns="http://www.w3.org/2000/svg">
<path d="M4.36421 12.9961C4.41139 13.1996 4.71863 13.3035 4.86031 13.1592C4.8957 13.1238 5.40323 12.1971 5.98433 11.1025C6.56535 10.0081 7.04564 9.10483 7.05464 9.09863C7.07026 9.08572 11.7456 8.30275 11.8193 8.2998C11.829 8.29892 11.8782 8.26338 11.9277 8.22266C12.0338 8.13423 12.0461 8.02821 11.9697 7.86621C11.9077 7.73049 11.6596 7.46409 11.4414 7.29297L11.2675 7.15723L9.24996 7.86328C8.14082 8.24978 7.2198 8.56254 7.2021 8.55664C7.18478 8.54783 8.81114 7.08867 9.70699 6.31055L9.79195 6.2373L9.18453 5.94238C8.85312 5.77812 8.56848 5.64604 8.55074 5.64453C8.53304 5.64453 8.1166 6.2313 7.62398 6.94824C6.91684 7.97673 6.72206 8.23991 6.71578 8.18164C6.70988 8.12558 7.0639 5.588 7.13765 5.1543L7.1523 5.05957L6.51851 4.84766C6.16912 4.73313 5.87468 4.64152 5.86031 4.64648C5.84851 4.65239 5.9076 5.37857 5.99019 6.26367C6.07573 7.14879 6.14931 7.93696 6.15816 8.01367C6.16697 8.12546 6.16419 8.14863 6.13472 8.11621C6.11535 8.09213 5.67624 7.21713 5.16402 6.17188L4.22652 4.26367L4.07222 4.24609C3.78627 4.21371 3.39757 4.22823 3.24703 4.28125C3.0612 4.34616 2.9783 4.44921 3.00484 4.59082C3.01959 4.66163 3.44452 5.27287 4.41206 6.60645L5.80171 8.51758L5.60054 9.14062C5.49132 9.48014 5.16392 10.4708 4.87496 11.3379C4.48952 12.4885 4.3532 12.9353 4.36421 12.9961ZM15.1025 16C16.0313 15.9999 16.6535 15.5987 16.9072 14.8408C16.9839 14.6048 16.9873 14.5834 16.9873 13.8311L16.9902 13.0645H15.1025L15.0937 13.3652L15.0839 13.6689L15.6689 13.6748L16.2529 13.6836V14.1562C16.2529 14.5749 16.2435 14.6427 16.1875 14.7666C16.04 15.0882 15.7391 15.2916 15.3291 15.3506C14.7451 15.4331 14.2202 15.1828 14.0078 14.7227L13.9218 14.5391L13.913 13.2441C13.9071 12.1236 13.9108 11.9287 13.9521 11.7842C14.1143 11.2266 14.6449 10.9222 15.3027 11.0137C15.8543 11.0904 16.2085 11.4504 16.2617 11.9873L16.2822 12.209H16.9902L16.999 12.0439C17.0049 11.9525 16.9874 11.7869 16.9638 11.6807C16.8311 11.1112 16.3938 10.6625 15.7802 10.4648C15.4881 10.3705 14.9219 10.3414 14.6152 10.4062C13.9163 10.5567 13.4476 10.9607 13.25 11.5889C13.188 11.7895 13.1845 11.8343 13.1845 13.1826C13.1845 14.5335 13.188 14.5748 13.25 14.7754C13.5007 15.569 14.1556 16 15.1025 16ZM8.70992 13.8906C8.71287 12.7725 8.72447 11.8489 8.73921 11.8369C8.7511 11.8253 9.32635 12.7402 10.0166 13.8701L11.2763 15.9258H11.9755V10.4385H11.2675L11.2587 12.4746C11.2558 13.5927 11.2432 14.5155 11.2285 14.5303C11.2039 14.5206 10.6342 13.6118 9.9521 12.4951L8.69234 10.4385L8.34956 10.4297C8.0909 10.4238 8.00235 10.4326 7.99312 10.459C7.98427 10.4796 7.98138 11.719 7.98433 13.2119L7.99312 15.9258H8.70113L8.70992 13.8906Z" fill="white"/>
</svg>
