<svg width="20" height="20" viewBox="0 0 20 20" fill="none" xmlns="http://www.w3.org/2000/svg">
<path d="M13.9328 3.68951L6.64525 3.69068C5.42375 5.79068 4.21275 7.89593 3 10.0012C4.20808 12.1082 5.42783 14.2093 6.647 16.3105L13.9328 16.3082L15.7347 13.1558H16.9936V13.1547H17L16.9977 6.84418H15.733L13.9328 3.68951ZM7.85742 5.79535H9.07133L9.678 6.84535L7.858 10.0029L9.67625 13.1547L9.0725 14.2105H7.85742C7.04982 12.8081 6.23937 11.4073 5.42608 10.0082C6.23575 8.60351 7.04658 7.20001 7.85742 5.79535ZM11.498 5.79535L12.7148 5.7971C13.5274 7.20001 14.3365 8.60468 15.145 10.0099L12.7142 14.2099H11.5009C11.2781 13.8821 10.8954 13.1553 10.8954 13.1553L12.7172 10.0023L10.8948 6.84476L11.498 5.79535Z" fill="white"/>
</svg>
