<svg width="20" height="20" viewBox="0 0 20 20" fill="none" xmlns="http://www.w3.org/2000/svg">
<path d="M7.04272 11.7833L9.72542 13.332V10.2328L7.04158 8.68529V11.7838L7.04272 11.7833ZM5.88761 12.4495L9.72656 14.6639V16.8429L3.99951 13.5402V6.92895L5.88761 8.01846V12.4495ZM9.9998 6.66028L7.31767 8.21069L9.9998 9.75996L12.6831 8.21012L9.9998 6.66028ZM9.9998 5.33005L13.2278 7.19762L15.1159 6.10811L9.9998 3.15503L4.2813 6.45778L6.16655 7.54444L9.9998 5.33005ZM14.1108 12.4489V10.1975L12.9569 10.8632V11.7838L10.2742 13.3325V13.3354V10.2346L15.9995 6.93123V13.5407L10.2736 16.8452V14.6679L14.1108 12.4507V12.4489Z" fill="white"/>
</svg>
