<svg width="20" height="20" viewBox="0 0 20 20" fill="none" xmlns="http://www.w3.org/2000/svg">
<path d="M10.462 4.61372C10.17 4.60872 9.8365 4.61372 9.7195 4.62722C8.4895 4.76822 7.6505 5.27722 7.343 6.07272C7.234 6.34872 7.206 6.57372 7.2215 6.95872C7.2455 7.56372 7.431 7.96072 7.8525 8.32972C8.465 8.85972 9.3425 9.08372 10.8515 9.08372C12.22 9.08372 12.7065 9.29022 12.8095 9.92122C12.966 10.8547 12.0245 11.4562 10.6025 11.3347C9.6635 11.2547 8.8545 10.8787 8.491 10.3512C8.42711 10.2507 8.36788 10.1472 8.3135 10.0412C8.1225 9.66122 7.9935 9.55222 7.7255 9.55222C7.5105 9.55472 7.3595 9.63472 7.2665 9.79922L7.2 9.91922V11.9342L7.2685 12.0822C7.351 12.2542 7.4685 12.3552 7.6405 12.3972C7.8155 12.4422 8.0375 12.3792 8.3505 12.1962L8.6005 12.0512L9.0135 12.1437C9.9235 12.3452 10.3885 12.4052 11.046 12.4052C11.5975 12.4077 11.82 12.3822 12.2735 12.2627C12.8355 12.1142 13.2605 11.8702 13.632 11.4777C14.032 11.0557 14.207 10.5512 14.1805 9.90422C14.146 9.09022 13.833 8.55522 13.1805 8.19722C12.7005 7.93472 12.0345 7.80222 10.992 7.75722C9.971 7.71422 9.595 7.67972 9.2345 7.59722C8.9795 7.53722 8.842 7.47222 8.6965 7.33972C8.37 7.04522 8.4015 6.46222 8.7645 6.09872C9.0855 5.78022 9.52 5.63472 10.1515 5.63472C10.8675 5.63722 11.348 5.76972 11.8575 6.11222C11.95 6.17572 12.218 6.42222 12.454 6.65822C12.897 7.10922 13.0215 7.19922 13.207 7.19922C13.329 7.19922 13.502 7.11772 13.573 7.02722C13.703 6.86272 13.7245 6.71222 13.7245 5.92722C13.7245 5.09722 13.703 4.97222 13.536 4.78622C13.3425 4.57372 13.112 4.57622 12.661 4.80172L12.366 4.95022L12.051 4.86522C11.303 4.66922 11.032 4.62672 10.462 4.61322V4.61372ZM4 10.8872V15.3872H16V14.8872H4.5V10.8872H4Z" fill="white"/>
</svg>
