<svg width="20" height="20" viewBox="0 0 20 20" fill="none" xmlns="http://www.w3.org/2000/svg">
<path d="M16.7743 7.74984L12.3013 5.50051V9.99917L16.7743 7.75042V7.74984ZM7.7635 12.2497V7.74984L3.22575 5.50051V9.99976L7.7635 12.2497ZM3.10675 5.30859C3.13941 5.28804 3.17685 5.27632 3.2154 5.27458C3.25395 5.27284 3.29229 5.28114 3.32667 5.29867L7.7635 7.49842L12.2009 5.29867C12.2322 5.28297 12.2668 5.27479 12.3018 5.27479C12.3369 5.27479 12.3714 5.28297 12.4028 5.29867L16.8758 7.54859C16.9131 7.56731 16.9445 7.59605 16.9664 7.63159C16.9884 7.66713 17 7.70807 17 7.74984V12.2473C17 12.2892 16.9883 12.3302 16.9664 12.3658C16.9445 12.4015 16.9131 12.4303 16.8758 12.4492L12.4028 14.7008C12.3683 14.7179 12.3301 14.726 12.2917 14.7243C12.2532 14.7226 12.2159 14.7111 12.1831 14.691C12.1503 14.6709 12.1232 14.6427 12.1043 14.6093C12.0854 14.5758 12.0753 14.538 12.0749 14.4996V10.3638L7.86383 12.4521C7.83259 12.4673 7.79827 12.4753 7.7635 12.4753C7.72873 12.4753 7.69441 12.4673 7.66317 12.4521L3.12542 10.2016C3.08782 10.1829 3.05616 10.1542 3.034 10.1185C3.01185 10.0829 3.00007 10.0417 3 9.99976V5.50051C2.99988 5.46206 3.00963 5.42422 3.02832 5.39061C3.04701 5.35701 3.07402 5.32877 3.10675 5.30859Z" fill="white"/>
</svg>
