<svg width="20" height="20" viewBox="0 0 20 20" fill="none" xmlns="http://www.w3.org/2000/svg">
<path d="M4.96467 10.3642L4.16333 9.06954H3.58733V10.9315H4.16333V9.63687L4.96467 10.9315H5.53533V9.06954H4.96L4.96467 10.3642ZM9.51667 9.69687V9.51087H9.216V9.2602H8.65533V9.51087H8.35V9.69687H8.65533V10.9315H9.216V9.69687H9.51667ZM5.856 10.9262H6.412V9.69154H5.856V10.9262ZM5.856 9.45087H6.41667V9.06954H5.856V9.45087ZM15.6313 9.6062C15.1807 9.6062 14.8153 9.91754 14.8153 10.2989C14.8153 10.6802 15.1807 10.9915 15.6313 10.9915C16.082 10.9915 16.448 10.6802 16.448 10.2989C16.448 9.91754 16.082 9.6062 15.6313 9.6062ZM15.8567 10.5602C15.8567 10.7555 15.7413 10.8362 15.6313 10.8362C15.5213 10.8362 15.4007 10.7555 15.4007 10.5602V10.0382C15.4007 9.8422 15.516 9.7622 15.6313 9.7622C15.7413 9.7622 15.8567 9.8422 15.8567 10.0382V10.5602ZM14.084 9.7522C13.9889 9.69138 13.8809 9.6535 13.7687 9.64154C13.368 9.6062 13.0573 9.96287 13.0573 10.2889C13.0573 10.7209 13.388 10.8762 13.438 10.9015C13.628 10.9869 13.8687 10.9915 14.0787 10.8562V10.9262H14.63V9.06954H14.0787C14.084 9.06954 14.084 9.4662 14.084 9.7522ZM14.0893 10.3042V10.5249C14.0893 10.7155 13.9587 10.7655 13.8687 10.7655C13.7787 10.7655 13.648 10.7155 13.648 10.5249V10.0835C13.648 9.8922 13.7787 9.8422 13.8687 9.8422C13.954 9.8422 14.0887 9.8922 14.0887 10.0835V10.3042H14.0893ZM7.71867 9.63687C7.55256 9.64215 7.39414 9.70808 7.27333 9.8222V9.69154H6.71733V10.9262H7.27333V10.1135C7.27333 10.0082 7.388 9.88754 7.53867 9.88754C7.68867 9.88754 7.794 10.0082 7.794 10.1135V10.9262H8.35V10.2542C8.35 9.76687 7.92933 9.6262 7.71867 9.63687ZM12.2507 9.63687C12.0844 9.64153 11.9258 9.70755 11.8053 9.8222V9.69154H11.2493V10.9262H11.8053V10.1135C11.8053 10.0082 11.9207 9.88754 12.0707 9.88754C12.2207 9.88754 12.326 10.0082 12.326 10.1135V10.9262H12.882V10.2542C12.882 9.76687 12.4613 9.6262 12.2507 9.63687ZM11.084 10.3142C11.084 9.93287 10.7133 9.61154 10.2627 9.61154C9.80733 9.61154 9.44133 9.92287 9.44133 10.3042C9.44133 10.6855 9.80733 10.9969 10.2627 10.9969C10.6387 10.9969 10.9587 10.7809 11.054 10.4902H10.498V10.5649C10.498 10.7909 10.348 10.8409 10.268 10.8409C10.1827 10.8409 10.0327 10.7909 10.0327 10.5655V10.3089L11.084 10.3142ZM10.0727 9.87754C10.0931 9.84398 10.1218 9.8162 10.156 9.79683C10.1901 9.77747 10.2287 9.76715 10.268 9.76687C10.3427 9.76687 10.418 9.8022 10.4633 9.87754C10.498 9.93754 10.498 10.0129 10.498 10.1182H10.0327C10.0327 10.0129 10.0373 9.94287 10.0727 9.87754ZM16.668 9.3002C16.668 9.2402 16.6227 9.2102 16.5327 9.2102H16.4073V9.5262H16.4827V9.39554H16.5227L16.5827 9.5262H16.668L16.598 9.38554C16.6427 9.37087 16.668 9.3402 16.668 9.3002ZM16.5227 9.34554H16.4827V9.25487H16.5173C16.5627 9.25487 16.5873 9.2702 16.5873 9.3002C16.5873 9.33554 16.568 9.34554 16.5227 9.34554ZM16.5273 9.0842C16.4517 9.08507 16.3794 9.1156 16.3261 9.16921C16.2727 9.22282 16.2425 9.29523 16.242 9.37087C16.242 9.5262 16.3727 9.65687 16.528 9.65687C16.6039 9.65687 16.6768 9.6267 16.7305 9.573C16.7842 9.51931 16.8143 9.44648 16.8143 9.37054C16.8143 9.2946 16.7842 9.22177 16.7305 9.16807C16.6768 9.11437 16.6033 9.0842 16.5273 9.0842ZM16.5273 9.60154C16.4665 9.60067 16.4084 9.57607 16.3654 9.53298C16.3225 9.48989 16.298 9.43172 16.2973 9.37087C16.2979 9.30979 16.3223 9.25135 16.3654 9.2081C16.4086 9.16485 16.4669 9.14023 16.528 9.13954C16.589 9.1404 16.6472 9.1651 16.6901 9.20833C16.7331 9.25157 16.7575 9.30991 16.758 9.37087C16.7573 9.43172 16.7329 9.48989 16.6899 9.53298C16.6469 9.57607 16.5882 9.60067 16.5273 9.60154ZM15.902 8.02554H4.088C2.836 8.0202 2 8.9242 2 10.0029C2 11.0815 2.836 11.9755 4.09333 11.9755H15.9067C17.164 11.9755 18 11.0822 18 10.0029C17.9953 8.9242 17.154 8.02554 15.902 8.02554ZM15.8967 11.4935H4.09333C3.09667 11.4989 2.49067 10.8262 2.49067 10.0029C2.49067 9.17954 3.102 8.51754 4.09333 8.5122H15.8967C16.888 8.5122 17.4993 9.17954 17.4993 10.0029C17.4993 10.8262 16.8933 11.4935 15.8967 11.4935Z" fill="white"/>
</svg>
