<svg width="20" height="20" viewBox="0 0 20 20" fill="none" xmlns="http://www.w3.org/2000/svg">
<path d="M4 4.62427L4.7195 6.21427L4 7.46277L4.7195 8.71277L4 9.96127L4.7195 11.1733L4 12.4223L4.7195 13.6723L4 15.3748L5.4 14.9198C8.55 14.9248 11.748 14.9228 14.448 14.9198L16 15.3748L14.978 13.5573L15.546 12.6113L14.448 11.4753L14.446 11.4668V5.00227C11.1705 5.00177 8.3245 5.00227 5.4005 5.00227L4 4.62427ZM13.844 5.60827V9.12327L13.729 8.67427L13.01 6.47927L11.23 6.78177L10.285 5.61027L13.844 5.60827ZM7.9965 5.61027H10.278L8.7695 6.21377L7.9965 5.61027ZM9.4265 7.45027C9.70578 7.43333 9.98543 7.47664 10.2465 7.57727C11.2305 7.95577 10.8895 8.97727 10.3215 9.58327C10.1325 9.77227 9.7165 9.69677 10.019 9.12927C10.133 8.90227 10.246 8.44777 9.9055 8.33427C9.148 8.06927 8.278 8.67527 8.0885 9.46977C7.8995 10.1513 8.3915 10.8703 9.262 10.6813C9.9815 10.5298 10.663 10.0373 10.928 9.81027C11.193 9.58277 11.3815 10.0003 11.0785 10.4543C10.7385 10.9083 10.2085 11.4383 9.7535 11.7413C7.9745 12.9528 6.4225 11.3623 7.066 9.54527C7.4045 8.62277 8.2935 7.52477 9.4265 7.45027ZM12.69 8.46577C12.7745 8.46591 12.8558 8.49848 12.917 8.55677C13.079 8.71977 13.019 9.04277 12.783 9.27927C12.5465 9.51627 12.2225 9.57577 12.06 9.41327C11.8975 9.25027 11.9575 8.92727 12.1935 8.69077C12.3395 8.54477 12.5265 8.46027 12.69 8.46577ZM12.48 10.0823C12.5645 10.0824 12.6458 10.115 12.707 10.1733C12.8695 10.3358 12.81 10.6598 12.573 10.8963C12.3365 11.1328 12.013 11.1923 11.8505 11.0303C11.6885 10.8673 11.748 10.5443 11.9845 10.3078C12.13 10.1618 12.317 10.0768 12.48 10.0823Z" fill="white"/>
</svg>
