<svg width="20" height="20" viewBox="0 0 20 20" fill="none" xmlns="http://www.w3.org/2000/svg">
<path d="M4.38904 4.85715C4.33295 4.85645 4.27737 4.86747 4.22622 4.88945C4.17508 4.91143 4.1296 4.94382 4.093 4.98436C4.05639 5.0249 4.02955 5.07259 4.01435 5.12408C3.99916 5.17557 3.99598 5.22961 4.00504 5.2824L5.63654 14.7266C5.67854 14.965 5.89404 15.1404 6.14754 15.1428H13.975C14.0672 15.1438 14.1567 15.1132 14.2273 15.0567C14.2979 15.0003 14.345 14.9215 14.36 14.8348L15.995 5.28574C16.004 5.23298 16.0008 5.179 15.9855 5.12756C15.9703 5.07613 15.9435 5.0285 15.9069 4.98802C15.8703 4.94754 15.8248 4.91519 15.7737 4.89324C15.7226 4.87129 15.6671 4.86027 15.611 4.86096L4.38904 4.85715ZM11.26 11.6826H8.76104L8.08504 8.31494H11.8655L11.26 11.6826Z" fill="white"/>
</svg>
