<svg width="20" height="20" viewBox="0 0 20 20" fill="none" xmlns="http://www.w3.org/2000/svg">
<path d="M8.2405 4.5144V14.7501L10.5242 15.4856V6.90138C10.5242 6.49889 10.7016 6.22997 10.9874 6.32331C11.3584 6.42831 11.4307 6.79814 11.4307 7.20122V10.6283C12.8546 11.3242 13.9752 10.6271 13.9752 8.78962C13.9752 6.90138 13.3184 6.06256 11.3864 5.39056C10.624 5.12923 9.21174 4.69874 8.24225 4.5144H8.2405ZM10.9565 13.9882L14.6291 12.6612C15.0462 12.5107 15.1109 12.2966 14.7726 12.184C14.4308 12.072 13.8177 12.1029 13.3977 12.2558L10.9448 13.1308V11.7383L11.0848 11.6888C11.0848 11.6888 11.7854 11.4438 12.784 11.33C13.7734 11.225 14.9919 11.3475 15.9556 11.7156C17.0336 12.0662 17.1456 12.5743 16.8749 12.9243C16.6037 13.2742 15.9288 13.5286 15.9288 13.5286L10.9448 15.341V14.0017L10.9565 13.9882ZM4.05395 13.85C2.94563 13.5321 2.76246 12.877 3.26529 12.4967C3.73254 12.1548 4.52528 11.883 4.52528 11.883L7.80067 10.7088V12.058L5.45277 12.9167C5.04153 13.0748 4.97153 13.2853 5.31336 13.3985C5.65519 13.5122 6.26827 13.486 6.6801 13.3285L7.81059 12.9167V14.1265C7.74059 14.144 7.66125 14.1522 7.58309 14.1691C6.45201 14.3622 5.25211 14.2834 4.06095 13.8897L4.05395 13.85Z" fill="white"/>
</svg>
