<svg width="20" height="20" viewBox="0 0 20 20" fill="none" xmlns="http://www.w3.org/2000/svg">
<path d="M6.62082 11.4467L5.57943 10.4081L5.17435 10.8122L6.23331 11.8684L6.59308 12.2273L7.14244 12.7757L7.54938 12.3725L6.99909 11.8231L6.62082 11.4458V11.4467ZM4.77481 12.3059C3.46152 12.3059 2.55701 11.3144 2.55701 10.0011C2.55701 8.68783 3.46152 7.69639 4.77481 7.69639C6.08811 7.69639 6.99261 8.68783 6.99261 10.0011C6.99261 10.3332 6.93342 10.6476 6.82521 10.9278L7.22753 11.3292C7.43469 10.9362 7.54938 10.4811 7.54938 10.0011C7.54938 8.46772 6.38591 7.22656 4.77481 7.22656C3.16371 7.22656 2.00024 8.46772 2.00024 10.0011C2.00024 11.5345 3.16371 12.7757 4.77481 12.7757C5.26498 12.7757 5.71261 12.6601 6.0992 12.4566L5.74036 12.0987C5.45458 12.231 5.12996 12.3059 4.77481 12.3059ZM12.1737 7.31905H12.7286V12.6832H11.9471L8.93666 8.00899V12.6832H8.38175V7.31905H9.16048L12.1737 11.9942V7.31905ZM16.7323 10.8973L16.095 10.0002L16.7323 9.10309L17.9984 7.31905H17.3168L16.4419 8.55096L15.6419 9.67835L14.8419 8.55096L13.9669 7.31905H13.2853L14.5515 9.10309L15.1887 10.0002L14.5515 10.8973L13.2835 12.6832H13.9651L14.8419 11.4485L15.6419 10.3211L16.4419 11.4485L17.3186 12.6832H18.0002L16.7323 10.8973Z" fill="white"/>
</svg>
