<svg width="20" height="20" viewBox="0 0 20 20" fill="none" xmlns="http://www.w3.org/2000/svg">
<g clip-path="url(#clip0_318_272)">
<path d="M16.2336 9.23108C16.2336 9.1255 16.2709 9.03508 16.3462 8.96041C16.3812 8.92419 16.4233 8.89552 16.4699 8.87616C16.5164 8.8568 16.5664 8.84716 16.6168 8.84783C16.723 8.84783 16.8128 8.88575 16.8881 8.96041C16.9242 8.9955 16.9528 9.03762 16.9721 9.08416C16.9913 9.13071 17.0008 9.18071 17.0001 9.23108C17.0009 9.28154 16.9913 9.33162 16.9721 9.37827C16.9528 9.42491 16.9242 9.46713 16.8881 9.50233C16.853 9.53868 16.8108 9.56743 16.7641 9.5868C16.7175 9.60616 16.6673 9.61573 16.6168 9.61491C16.5664 9.61558 16.5164 9.60594 16.4699 9.58658C16.4233 9.56722 16.3812 9.53855 16.3462 9.50233C16.3099 9.4672 16.2811 9.42501 16.2618 9.37836C16.2424 9.33171 16.2328 9.28158 16.2336 9.23108ZM16.9371 9.23108C16.9377 9.18899 16.9298 9.1472 16.9138 9.10828C16.8977 9.06936 16.8739 9.03413 16.8437 9.00475C16.8143 8.97453 16.779 8.95066 16.7399 8.9346C16.7009 8.91855 16.659 8.91066 16.6168 8.91141C16.5747 8.91074 16.5329 8.91867 16.494 8.93472C16.4551 8.95077 16.4199 8.9746 16.3905 9.00475C16.3602 9.03404 16.3362 9.06924 16.32 9.10817C16.3039 9.1471 16.2959 9.18893 16.2966 9.23108C16.2958 9.27327 16.3037 9.31517 16.3198 9.35419C16.3358 9.39322 16.3597 9.42854 16.3899 9.458C16.4194 9.48839 16.4548 9.51241 16.4939 9.52857C16.533 9.54472 16.5751 9.55267 16.6174 9.55191C16.6595 9.55254 16.7014 9.54454 16.7403 9.52838C16.7792 9.51223 16.8144 9.48828 16.8437 9.458C16.874 9.42854 16.8978 9.39322 16.9139 9.35419C16.9299 9.31517 16.9378 9.27327 16.9371 9.23108ZM16.7364 9.46208L16.6157 9.2585H16.5474V9.46208H16.4809V8.99075H16.6017C16.7148 8.99075 16.772 9.03391 16.772 9.12083C16.772 9.1815 16.7411 9.22408 16.6804 9.24916L16.8093 9.46208H16.7364ZM16.5474 9.04791V9.20541L16.5917 9.206C16.6355 9.206 16.6652 9.20016 16.6798 9.18966C16.695 9.178 16.7032 9.157 16.7032 9.1255C16.7032 9.073 16.6687 9.04733 16.6011 9.04733L16.5474 9.04791ZM14.2771 10.9607C14.2771 11.1957 14.2852 11.3497 14.3622 11.439C14.4392 11.5247 14.5629 11.5632 14.7163 11.5632C15.4548 11.5632 15.7068 10.9058 15.7068 10.3254C15.7068 9.55658 15.3014 9.10041 14.5285 9.10041C14.4136 9.10041 14.3325 9.12141 14.3068 9.15583C14.2812 9.18966 14.2771 9.27075 14.2771 9.40316V10.9607ZM13.6669 9.60791C13.6669 9.2025 13.6582 9.12141 13.4616 9.10041L13.3805 9.09166C13.3379 9.07008 13.3379 8.94583 13.3892 8.94175C13.7698 8.91686 14.1511 8.90422 14.5326 8.90383C14.8826 8.90383 15.2326 8.93825 15.5277 9.04441C16.0866 9.24508 16.394 9.74908 16.394 10.2822C16.394 10.8545 16.121 11.3153 15.6298 11.5586C15.3399 11.7044 14.9899 11.7592 14.5507 11.7592C14.3494 11.7592 14.1365 11.7336 13.9825 11.7336C13.7777 11.7336 13.5602 11.7382 13.3169 11.7464C13.2825 11.7207 13.2825 11.6181 13.3169 11.5971L13.4487 11.5761C13.6412 11.5417 13.6669 11.5119 13.6669 11.1193V9.6085M12.264 11.8018C11.8714 11.8018 11.6282 11.691 11.5383 11.6402C11.4572 11.5463 11.4018 11.2389 11.4018 10.9484C11.4316 10.893 11.5302 10.8889 11.564 10.9356C11.6492 11.2132 11.935 11.6058 12.2978 11.6058C12.614 11.6058 12.7587 11.3882 12.7587 11.1742C12.7587 10.8288 12.4349 10.6241 12.1788 10.4957C11.8714 10.3423 11.5383 10.0862 11.5342 9.66333C11.5342 9.18091 11.9052 8.84783 12.5242 8.84783C12.6653 8.84783 12.8403 8.86533 13.0107 8.91666C13.0661 8.93358 13.1046 8.94175 13.1565 8.9505C13.1897 9.04441 13.2323 9.27483 13.2323 9.56125C13.2113 9.612 13.1046 9.61666 13.0661 9.57408C12.9937 9.35591 12.81 9.04441 12.5032 9.04441C12.2214 9.04441 12.0674 9.22816 12.0674 9.44108C12.0674 9.63766 12.2424 9.81733 12.4559 9.92816L12.7377 10.0775C13.0025 10.2187 13.3397 10.466 13.3397 10.9356C13.3397 11.4606 12.908 11.8018 12.264 11.8018ZM9.81398 11.0126C9.81398 11.3451 9.85598 11.5551 10.1891 11.5551C10.5052 11.5551 10.6715 11.3112 10.6715 10.9659C10.6715 10.5943 10.458 10.3336 10.0485 10.3336C9.8134 10.3336 9.8134 10.3377 9.8134 10.5086L9.81398 11.0126ZM9.81398 10.0267C9.81398 10.1376 9.81807 10.1457 10.0397 10.1457C10.4072 10.1457 10.5432 9.91125 10.5432 9.65516C10.5432 9.28358 10.3127 9.09983 10.0182 9.09983C9.81807 9.09983 9.81398 9.13483 9.81398 9.32208V10.0267ZM9.22482 9.61258C9.22482 9.18091 9.21607 9.13425 9.03698 9.11266L8.92148 9.09516C8.88298 9.07416 8.87482 8.94641 8.93898 8.94175C9.26273 8.92075 9.57482 8.90383 10.0012 8.90383C10.4113 8.90383 10.6843 8.9505 10.8722 9.06133C11.0553 9.17216 11.1667 9.35183 11.1667 9.60383C11.1667 9.96258 10.8634 10.1032 10.731 10.1376C10.6884 10.1457 10.6458 10.1632 10.6458 10.1842C10.6458 10.1971 10.6674 10.2099 10.7059 10.2187C11.0431 10.291 11.3289 10.5127 11.333 10.9268C11.3371 11.3194 11.1026 11.5504 10.8337 11.6443C10.5647 11.7377 10.2445 11.7511 9.98432 11.7511C9.8309 11.7511 9.66873 11.7336 9.54448 11.7336C9.33565 11.7336 9.12623 11.7382 8.88298 11.7464C8.84915 11.7207 8.84915 11.6099 8.88298 11.5971L9.00723 11.5714C9.19915 11.5335 9.22482 11.5032 9.22482 11.1193V9.612M8.27223 10.2572C8.21682 10.2572 8.21273 10.2612 8.21273 10.3552V10.9951C8.21273 11.2342 8.21273 11.4991 8.5114 11.4991C8.5709 11.4991 8.63973 11.4693 8.69048 11.4349C8.73307 11.4477 8.75873 11.495 8.74998 11.5457C8.63098 11.6741 8.39998 11.7937 8.13573 11.7937C7.78165 11.7937 7.6574 11.5889 7.6574 11.3072V10.3552C7.6574 10.2653 7.65332 10.2572 7.57632 10.2572H7.44507C7.3984 10.2397 7.38498 10.1545 7.4194 10.1247C7.55123 10.0781 7.67082 10.0005 7.77348 9.93225C7.85048 9.87683 7.95723 9.78758 8.08907 9.59975C8.11882 9.58225 8.19582 9.58691 8.2174 9.62075V9.941C8.2174 10.0221 8.22148 10.0262 8.29848 10.0262H8.67823C8.69982 10.0437 8.71265 10.0693 8.71265 10.1078C8.71265 10.1545 8.69982 10.2309 8.65723 10.2572H8.27223ZM6.73982 10.5342C6.7999 10.5342 6.86815 10.5255 6.91482 10.4957C6.9364 10.4829 6.94457 10.4403 6.94457 10.3977C6.94457 10.2572 6.86348 10.1632 6.71823 10.1632C6.53915 10.1632 6.38573 10.3336 6.38573 10.4701C6.38573 10.5302 6.44523 10.5342 6.58173 10.5342H6.73982ZM6.45807 10.7221C6.36007 10.7221 6.35132 10.7308 6.35132 10.7991C6.35132 11.1193 6.55607 11.4308 6.95332 11.4308C7.0729 11.4308 7.23507 11.4052 7.34998 11.2092C7.39665 11.2004 7.46082 11.2342 7.46082 11.3072C7.28582 11.67 6.97082 11.7937 6.71415 11.7937C6.13782 11.7937 5.82632 11.3882 5.82632 10.9227C5.82632 10.3849 6.21482 9.96608 6.74798 9.96608C7.19248 9.96608 7.43107 10.2525 7.43107 10.5815C7.43107 10.6626 7.41007 10.7221 7.27765 10.7221H6.45807ZM5.7254 11.0079C5.7254 11.2856 5.7254 11.5545 5.73357 11.6957C5.7044 11.7464 5.58423 11.7937 5.48215 11.7937C5.47748 11.7937 5.33632 11.5761 5.13623 11.3282L4.1504 10.1072C3.90715 9.79983 3.7619 9.62541 3.6849 9.56125C3.6639 9.60383 3.6639 9.67616 3.6639 9.83425V10.6626C3.6639 11.0085 3.68082 11.3282 3.72807 11.4437C3.76598 11.5335 3.86457 11.5592 3.9754 11.5802L4.09498 11.5977C4.12882 11.6315 4.12065 11.7213 4.09498 11.7464C3.90452 11.7386 3.71394 11.7343 3.52332 11.7336C3.36523 11.7336 3.20715 11.7382 3.04498 11.7464C3.01932 11.7213 3.01057 11.6315 3.04498 11.5971L3.11732 11.5842C3.23282 11.5586 3.3139 11.5335 3.3524 11.4437C3.39498 11.3282 3.4119 11.0085 3.4119 10.662V9.57816C3.4119 9.34366 3.4119 9.27483 3.38215 9.21533C3.3524 9.143 3.28823 9.09983 3.1389 9.07008L3.01932 9.05316C2.98957 9.01875 2.99365 8.91666 3.03682 8.90383C3.2369 8.912 3.4504 8.91666 3.6254 8.91666C3.77065 8.91666 3.89373 8.912 3.98415 8.90383C4.02673 9.09633 4.30382 9.42008 4.68823 9.87683L5.0464 10.2997C5.2389 10.5214 5.35848 10.6707 5.45648 10.7693C5.47398 10.7267 5.47398 10.6538 5.47398 10.5768V9.98766C5.47398 9.64233 5.45648 9.32208 5.40982 9.20658C5.37073 9.11733 5.2774 9.09166 5.1619 9.07008L5.0464 9.05316C5.01257 9.01875 5.02132 8.9295 5.0464 8.90383C5.2774 8.912 5.44307 8.91666 5.61807 8.91666C5.77673 8.91666 5.93015 8.912 6.0964 8.90383C6.12207 8.9295 6.13082 9.01875 6.0964 9.05316L6.01998 9.066C5.90915 9.09166 5.82748 9.11733 5.78898 9.20716C5.74232 9.32208 5.72482 9.64233 5.72482 9.98825V11.0085M15.5633 5.09466C13.902 4.29725 12.3987 4.67758 10.7182 5.181C9.02532 5.68733 7.52032 5.96091 5.82923 5.27083L6.29007 6.09333L6.79757 7.00158L7.2584 7.82408C8.60532 8.20441 9.72007 7.71091 10.9165 7.11241C12.3532 6.39491 13.6512 5.74916 15.2927 6.12308C13.9055 5.42891 12.6478 5.601 11.1977 5.99475C12.6175 5.27141 13.9545 4.70908 15.5633 5.09466ZM10.6767 14.946L9.3514 12.3881H8.7809L10.1127 15.2032C10.1127 15.2032 10.2468 15.4687 10.535 15.3217C10.8226 15.1758 10.6779 14.946 10.6779 14.946M5.70323 5.34841C5.70323 5.34841 5.66357 5.25566 5.55157 5.3175C5.45823 5.36941 5.50665 5.46508 5.50665 5.46508L7.25898 9.16983H7.68365L5.70323 5.34841Z" fill="white"/>
</g>
<defs>
<clipPath id="clip0_318_272">
<rect width="14" height="14" fill="white" transform="translate(3 3.00049)"/>
</clipPath>
</defs>
</svg>
