<svg width="20" height="20" viewBox="0 0 20 20" fill="none" xmlns="http://www.w3.org/2000/svg">
<path d="M10 4C8.4087 4 6.88258 4.63214 5.75736 5.75736C4.63214 6.88258 4 8.4087 4 10C4 11.5913 4.63214 13.1174 5.75736 14.2426C6.88258 15.3679 8.4087 16 10 16C11.5913 16 13.1174 15.3679 14.2426 14.2426C15.3679 13.1174 16 11.5913 16 10C16 8.4087 15.3679 6.88258 14.2426 5.75736C13.1174 4.63214 11.5913 4 10 4ZM10 4.5C11.1984 4.49955 12.3642 4.89052 13.3199 5.61346C14.2757 6.33639 14.9693 7.35172 15.295 8.505C14.7317 9.66536 13.9391 10.6995 12.965 11.545C12.495 11.95 11.985 12.31 11.425 12.565C10.86 12.815 10.24 12.965 9.625 12.925C9.15879 12.8996 8.70425 12.7697 8.295 12.545C9.37395 11.9621 10.3366 11.1859 11.135 10.255C11.6829 9.66362 12.0793 8.94817 12.29 8.17C12.38 7.775 12.39 7.37 12.31 6.97C12.2294 6.57573 12.0427 6.21094 11.77 5.915C11.4972 5.62913 11.1514 5.42336 10.77 5.32C10.3896 5.21952 9.99142 5.20585 9.605 5.28C8.83642 5.45055 8.13745 5.84971 7.6 6.425C7.10312 6.90907 6.71503 7.49341 6.46157 8.13914C6.2081 8.78487 6.09507 9.47718 6.13 10.17C6.19797 11.0204 6.54011 11.8257 7.105 12.465C6.52765 12.6668 5.93123 12.8092 5.325 12.89C4.81063 12.0571 4.52787 11.1021 4.5059 10.1234C4.48394 9.14478 4.72356 8.178 5.20003 7.32289C5.67651 6.46778 6.37257 5.75533 7.21636 5.25909C8.06016 4.76285 9.0211 4.5008 10 4.5ZM10.035 5.61C10.42 5.61 10.81 5.73 11.12 5.96C11.395 6.17 11.605 6.47 11.72 6.8C11.835 7.125 11.87 7.485 11.825 7.83C11.7144 8.52125 11.4209 9.17035 10.975 9.71C10.1393 10.7919 9.04372 11.645 7.79 12.19C7.55 11.98 7.34 11.73 7.19 11.45C6.8711 10.8582 6.74028 10.1831 6.815 9.515C6.875 8.855 7.105 8.215 7.415 7.62C7.7397 6.91422 8.26483 6.31954 8.925 5.91C9.265 5.725 9.65 5.61 10.035 5.61ZM15.45 9.26C15.61 10.4445 15.3797 11.6489 14.7941 12.6909C14.2085 13.7329 13.2993 14.5558 12.2043 15.0349C11.1092 15.5141 9.88788 15.6235 8.72512 15.3465C7.56236 15.0696 6.52147 14.4214 5.76 13.5C6.38294 13.359 6.99077 13.1581 7.575 12.9C7.83 13.1 8.115 13.255 8.41 13.37C9.29116 13.6813 10.2535 13.6742 11.13 13.35C11.9976 13.0253 12.7878 12.5229 13.45 11.875C14.2561 11.1213 14.9319 10.2394 15.45 9.265V9.26Z" fill="white"/>
</svg>
