<svg width="20" height="20" viewBox="0 0 20 20" fill="none" xmlns="http://www.w3.org/2000/svg">
<path d="M10 3C11.8565 3 13.637 3.7375 14.9497 5.05025C16.2625 6.36301 17 8.14348 17 10C17 11.8565 16.2625 13.637 14.9497 14.9497C13.637 16.2625 11.8565 17 10 17C8.14348 17 6.36301 16.2625 5.05025 14.9497C3.7375 13.637 3 11.8565 3 10C3 8.14348 3.7375 6.36301 5.05025 5.05025C6.36301 3.7375 8.14348 3 10 3ZM14.1807 14.1886C14.7315 13.6406 15.1683 12.9889 15.4658 12.2711C15.7633 11.5533 15.9155 10.7836 15.9138 10.0066V9.68645L15.6228 9.68777H11.7265V10.3413H15.2483L15.247 10.3612C15.1544 11.6904 14.5619 12.9353 13.5887 13.8454C12.6155 14.7555 11.3338 15.2634 10.0013 15.2669C9.31032 15.2686 8.62583 15.1333 7.98747 14.8687C7.34912 14.6041 6.76957 14.2156 6.28237 13.7256C5.7927 13.2382 5.40448 12.6586 5.14016 12.0202C4.87583 11.3819 4.74064 10.6975 4.74239 10.0066C4.74239 8.60291 5.29012 7.28255 6.28237 6.28898C6.76957 5.79941 7.34896 5.41125 7.98706 5.14692C8.62516 4.8826 9.30932 4.74736 10 4.74901L10.3334 4.75298V4.09809L10.0013 4.09412C8.43365 4.09587 6.93066 4.71931 5.82202 5.8277C4.71339 6.93609 4.08961 8.43894 4.08751 10.0066C4.08751 11.5863 4.7027 13.0707 5.81932 14.1886C6.36713 14.7394 7.01864 15.1761 7.73622 15.4736C8.45379 15.771 9.22321 15.9234 10 15.9218C10.7772 15.9237 11.5472 15.7716 12.2652 15.4741C12.9833 15.1766 13.6352 14.7397 14.1833 14.1886M10.3334 12.4727V6.88301H9.66793V13.1276H11.7265V12.4727H10.3334ZM8.6598 7.77339C8.66032 7.59634 8.60828 7.42311 8.51027 7.27566C8.41226 7.12821 8.27269 7.01317 8.10923 6.94511C7.94578 6.87705 7.76581 6.85904 7.59211 6.89335C7.41842 6.92767 7.25881 7.01277 7.13352 7.13787C7.00823 7.26298 6.9229 7.42245 6.88832 7.5961C6.85375 7.76975 6.87149 7.94975 6.93931 8.1133C7.00713 8.27685 7.12196 8.41659 7.26927 8.51482C7.41657 8.61305 7.58972 8.66535 7.76677 8.66509C8.00328 8.66474 8.23002 8.57073 8.39739 8.40361C8.56475 8.2365 8.6591 8.0099 8.6598 7.77339Z" fill="white"/>
</svg>
