<svg width="20" height="20" viewBox="0 0 20 20" fill="none" xmlns="http://www.w3.org/2000/svg">
<path d="M16.2656 16.2698H4.26562V4.26978H16.2656V16.2698ZM10.873 12.7141L11.0928 13.4094C11.1274 13.5206 11.1821 13.7364 11.1943 13.8079C11.1943 13.8079 11.2032 13.8463 11.2197 13.9338C11.1762 14.054 11.1246 14.104 11.0254 14.1379L11.0723 14.2551C11.2499 14.2081 11.3319 14.062 11.4014 13.8391L11.75 12.6907L11.5693 12.6897L11.3691 13.4182C11.3443 13.5076 11.3063 13.6456 11.3047 13.6516H11.3008C11.2995 13.6444 11.2693 13.4786 11.2393 13.3762L11.0312 12.6565L10.873 12.7141ZM9.25977 12.2717V12.6926H9.12695V12.8235H9.25977V13.5852C9.25977 13.6966 9.28692 13.7681 9.3584 13.8059C9.39934 13.8271 9.44519 13.8381 9.49121 13.8372C9.54111 13.8411 9.59122 13.8281 9.63281 13.8L9.61035 13.6877C9.5818 13.7028 9.59269 13.7034 9.54785 13.7034C9.44788 13.7033 9.41699 13.6607 9.41699 13.5383V12.8235H9.6377L9.68652 12.6926H9.42383V12.2717H9.25977ZM10.3516 12.2698V12.6897H10.2188V12.8215H10.3516V13.5833C10.3516 13.6947 10.3779 13.7661 10.4492 13.804C10.4902 13.825 10.536 13.8354 10.582 13.8342C10.632 13.8383 10.682 13.8252 10.7236 13.7971L10.7012 13.6858C10.6727 13.701 10.6843 13.7014 10.6396 13.7014C10.5399 13.7014 10.5088 13.6588 10.5088 13.5364V12.8215H10.7217L10.7705 12.6897H10.5146V12.2698H10.3516ZM7.625 12.6614C7.50259 12.6615 7.40289 12.7102 7.32129 12.8147C7.23593 12.9261 7.19824 13.0466 7.19824 13.2336C7.19834 13.6011 7.36858 13.8235 7.65039 13.8235C7.77814 13.8247 7.90129 13.7752 7.99316 13.6858L7.93164 13.5745C7.89965 13.6081 7.86106 13.6347 7.81836 13.6526C7.77545 13.6706 7.72908 13.6799 7.68262 13.679C7.58058 13.6789 7.48688 13.6386 7.42969 13.5432C7.39491 13.4854 7.38281 13.4047 7.38281 13.3V13.2737H8.0166V13.2493C8.01277 12.9844 7.98808 12.8795 7.90039 12.7815C7.8656 12.7428 7.82298 12.7114 7.77539 12.6907C7.72796 12.6701 7.67664 12.6604 7.625 12.6614ZM6.83105 12.2698V12.6389C6.83105 12.7172 6.83293 12.8071 6.83301 12.8108C6.80201 12.7666 6.76087 12.7307 6.71289 12.7063C6.66481 12.6819 6.61146 12.6699 6.55762 12.6711C6.48628 12.6703 6.41661 12.6941 6.36133 12.7395C6.22225 12.844 6.15137 13.0181 6.15137 13.2542C6.15142 13.6079 6.30219 13.8145 6.56543 13.8147C6.68408 13.8147 6.76253 13.7772 6.83594 13.6858C6.83821 13.7245 6.84581 13.7633 6.8584 13.8H7.02148C6.99888 13.7356 6.99122 13.6327 6.99121 13.4417V12.2698H6.83105ZM5.76562 12.2717V13.7991H5.92871V12.2717H5.76562ZM8.19727 12.7102C8.19727 12.7102 8.23633 12.7864 8.23633 12.9446V13.7991H8.3916V12.9729C8.46522 12.8884 8.5921 12.8167 8.67383 12.8167C8.69474 12.8157 8.716 12.8193 8.73535 12.8274C8.75467 12.8355 8.77202 12.848 8.78613 12.8635C8.8147 12.9013 8.82225 12.9304 8.82227 13.0481V13.7991H8.98438V12.9573C8.9845 12.9132 8.9762 12.8693 8.95996 12.8284C8.93902 12.7794 8.90372 12.7373 8.85938 12.7083C8.81521 12.6794 8.76358 12.6639 8.71094 12.6643C8.60296 12.6643 8.49732 12.7215 8.39062 12.8372C8.38899 12.7775 8.37571 12.7182 8.35254 12.6633L8.19727 12.7102ZM9.86035 12.6926V13.7991H10.0254V12.6643L9.86035 12.6926ZM11.8184 13.4729C11.7865 13.4712 11.7549 13.4799 11.7275 13.4963C11.6999 13.513 11.6777 13.5382 11.6641 13.5676C11.6506 13.5969 11.6453 13.6295 11.6504 13.6614C11.6556 13.6934 11.6702 13.7237 11.6924 13.7473C11.7146 13.7709 11.7439 13.7872 11.7754 13.7942C11.8067 13.8011 11.8394 13.7983 11.8691 13.7864C11.8992 13.7744 11.9253 13.7537 11.9434 13.7268C11.9614 13.7 11.9707 13.6683 11.9707 13.636C11.9719 13.5942 11.9571 13.5532 11.9287 13.5227C11.9002 13.4922 11.86 13.4741 11.8184 13.4729ZM11.8193 13.5051C11.8827 13.5053 11.9336 13.5603 11.9336 13.636C11.9335 13.7118 11.8819 13.7649 11.8184 13.7649C11.7547 13.7646 11.7042 13.7113 11.7041 13.636C11.7041 13.5603 11.7558 13.5051 11.8193 13.5051ZM11.7598 13.5432V13.7268H11.792V13.6477H11.8115L11.8564 13.7268H11.8896L11.8438 13.6458C11.8499 13.6457 11.8566 13.6444 11.8623 13.6418C11.8677 13.6393 11.8729 13.6357 11.877 13.6311C11.8809 13.6266 11.8838 13.6212 11.8857 13.6155C11.8876 13.6096 11.8882 13.603 11.8877 13.5969L11.8838 13.5725C11.8758 13.5519 11.8562 13.5432 11.8242 13.5432H11.7598ZM6.58301 12.8127C6.70319 12.8128 6.77911 12.8512 6.83008 12.929V13.5168C6.81633 13.5478 6.79477 13.5746 6.76855 13.5959C6.70304 13.6471 6.65592 13.6672 6.57227 13.6672C6.47848 13.6672 6.41508 13.6294 6.36816 13.5383C6.33543 13.4739 6.32716 13.3782 6.32715 13.2493C6.32715 13.0936 6.34365 13.0129 6.39258 12.929C6.41064 12.8939 6.43815 12.8644 6.47168 12.844C6.50522 12.8236 6.54381 12.8126 6.58301 12.8127ZM11.8213 13.5686C11.8377 13.5686 11.8564 13.5726 11.8564 13.594C11.8564 13.6186 11.8392 13.6213 11.8203 13.6213H11.793V13.5686H11.8213ZM7.61621 12.7971C7.65252 12.7961 7.68858 12.8045 7.7207 12.8215C7.75286 12.8386 7.78015 12.864 7.7998 12.8948C7.83052 12.9483 7.84551 13.0217 7.84766 13.1418H7.38184C7.38996 12.9126 7.47146 12.7972 7.61621 12.7971ZM14.5508 9.08325C14.4079 9.23001 14.2152 9.31627 14.0117 9.32349C13.9029 9.3172 13.7953 9.29639 13.6914 9.26294C13.5388 9.21841 13.3805 9.19483 13.2217 9.19263C12.5552 9.19264 12.1231 9.56306 12.123 10.135C12.123 10.5492 12.3058 10.805 12.6826 10.9084C12.255 11.0277 12.2042 11.1975 12.2041 11.3772C12.2041 11.568 12.28 11.6935 12.4023 11.7424C12.5247 11.7914 12.7234 11.8233 13.0283 11.8293L13.3184 11.8352C13.59 11.8408 13.7969 11.9174 13.7969 12.1653C13.7949 12.2228 13.7782 12.279 13.749 12.3284C13.7197 12.3779 13.6782 12.4194 13.6289 12.4485C13.5202 12.5194 13.374 12.5413 13.2012 12.5413C12.8861 12.5411 12.7119 12.4207 12.7119 12.1975C12.7086 12.1362 12.7198 12.0745 12.7432 12.0178H12.1123C12.0688 12.1055 12.0472 12.2039 12.0508 12.302C12.0506 12.3948 12.0698 12.4865 12.1064 12.5715C12.1432 12.6566 12.1972 12.7332 12.2646 12.7961C12.4984 13.0304 12.8806 13.0959 13.252 13.0959C13.6585 13.0959 14.051 12.9983 14.2793 12.7366C14.4207 12.5791 14.4955 12.372 14.4883 12.1594C14.4883 11.9087 14.4168 11.7191 14.2646 11.5657C14.0804 11.3881 13.8743 11.3229 13.4756 11.3196V11.3176L13.1084 11.3118C13.0373 11.3117 12.9971 11.2842 12.9971 11.2463C12.9973 11.17 13.0937 11.1052 13.2686 11.0178C13.3022 11.0219 13.3362 11.0241 13.3701 11.0237C13.9247 11.0237 14.332 10.6736 14.332 10.1946C14.3364 10.0286 14.282 9.86661 14.1787 9.73755C14.2377 9.74698 14.2977 9.7526 14.3574 9.75415C14.4472 9.75602 14.5366 9.73815 14.6191 9.70239C14.7015 9.66664 14.7754 9.61308 14.8359 9.54614L14.5508 9.08325ZM5.76562 8.24438V12.0305H6.48047V10.637H6.87207C7.26349 10.637 7.41598 10.5924 7.5791 10.511C7.96542 10.3146 8.18845 9.91169 8.18848 9.41138C8.18685 8.97468 8.00929 8.62463 7.67871 8.42993C7.48033 8.3101 7.29797 8.24438 6.69629 8.24438H5.76562ZM8.47363 9.29028V12.0305H9.1543V9.17505L8.47363 9.29028ZM9.61719 9.35571C9.68156 9.56746 9.71346 9.7885 9.70996 10.01V12.0305H10.3916V10.0608C10.5492 9.9091 10.7273 9.81081 10.8643 9.81079V9.80884C11.0426 9.80884 11.0928 9.90097 11.0928 10.22V12.0286H11.7656V9.89282C11.7611 9.7922 11.7434 9.69238 11.7139 9.59595C11.6317 9.3579 11.3782 9.19263 11.0879 9.19263C10.9249 9.19451 10.7645 9.23618 10.6201 9.31274C10.5161 9.37555 10.416 9.44462 10.3203 9.51978C10.3168 9.39739 10.2835 9.27752 10.2236 9.17114L9.61719 9.35571ZM13.2148 9.72681C13.4742 9.72681 13.6279 9.87962 13.6279 10.1409C13.6278 10.4019 13.4795 10.5383 13.21 10.5383C12.971 10.5382 12.8087 10.4238 12.8086 10.1409C12.8086 9.87974 12.9557 9.72695 13.2148 9.72681ZM6.93262 8.8606C7.23312 8.86071 7.41113 9.07345 7.41113 9.427C7.40893 9.60666 7.38365 9.71624 7.32227 9.81958C7.22612 9.97726 7.13953 10.0149 6.84961 10.0149H6.48047V8.8606H6.93262ZM8.82422 8.01978C8.70809 8.02266 8.59773 8.07239 8.51758 8.15747C8.43748 8.24255 8.39371 8.35641 8.39648 8.47388L8.39941 8.55884C8.40322 8.58766 8.40937 8.61623 8.41895 8.6438C8.4381 8.69883 8.46857 8.74949 8.50781 8.79224C8.54721 8.83505 8.59544 8.86947 8.64844 8.89282C8.70139 8.91612 8.75865 8.92798 8.81641 8.92798C8.87415 8.92796 8.93142 8.91615 8.98438 8.89282C9.03733 8.86948 9.08467 8.83502 9.12402 8.79224C9.16342 8.74943 9.19367 8.69896 9.21289 8.6438C9.23207 8.58868 9.24047 8.53021 9.23633 8.47192C9.23633 8.22126 9.05295 8.01999 8.82422 8.01978Z" fill="white"/>
</svg>
