<svg width="20" height="20" viewBox="0 0 20 20" fill="none" xmlns="http://www.w3.org/2000/svg">
<path d="M15.6227 12.5864C14.4544 12.5864 13.6828 12.0311 13.6179 11.1153L13.6143 11.0612H14.4003L14.4075 11.108C14.4796 11.5876 14.9592 11.8869 15.6551 11.8869C16.351 11.8869 16.7909 11.5732 16.7909 11.0864V11.0828C16.7909 10.6645 16.5061 10.4374 15.8174 10.2859L15.2513 10.1669C14.2308 9.95059 13.7369 9.48184 13.7369 8.71021V8.7066C13.7405 7.81958 14.5229 7.21021 15.6227 7.21021C16.708 7.21021 17.4508 7.80155 17.5049 8.67415L17.5085 8.73545H16.7224L16.7188 8.68496C16.6467 8.20179 16.2284 7.90972 15.6119 7.90972C14.9664 7.91333 14.5554 8.21982 14.5554 8.67415V8.67775C14.5554 9.06718 14.851 9.30516 15.5001 9.44578L16.0698 9.56477C17.1443 9.79194 17.6058 10.2282 17.6058 11.0323V11.0359C17.6058 11.9842 16.8558 12.5864 15.6227 12.5864Z" fill="white"/>
<path d="M10.7872 12.5864C9.28723 12.5864 8.34973 11.5552 8.34973 9.90011V9.8929C8.34973 8.24146 9.29084 7.21021 10.7872 7.21021C12.2872 7.21021 13.2247 8.24506 13.2247 9.8929V9.90011C13.2247 11.5516 12.2908 12.5864 10.7872 12.5864ZM10.7872 11.8725C11.786 11.8725 12.399 11.1008 12.399 9.90011V9.8929C12.399 8.68496 11.7752 7.92415 10.7872 7.92415C9.80286 7.92415 9.17185 8.68136 9.17185 9.8929V9.90011C9.17185 11.1116 9.79925 11.8725 10.7872 11.8725Z" fill="white"/>
<path d="M5.80042 12.4998L4.43384 8.70654H5.26316L6.21509 11.739H6.23312L7.18504 8.70654H7.99634L6.63696 12.4998H5.80042Z" fill="white"/>
<path d="M3.71633 12.5755C2.96633 12.5755 2.60575 12.2582 2.60575 11.501V9.32668H2.06128V8.70649H2.60575V7.71851H3.40263V8.70649H4.11296V9.32668H3.40263V11.4541C3.40263 11.8399 3.5757 11.9553 3.90383 11.9553C3.98676 11.9553 4.05527 11.9481 4.11296 11.9409V12.543C4.02282 12.5574 3.87498 12.5755 3.71633 12.5755Z" fill="white"/>
</svg>
