<svg width="20" height="20" viewBox="0 0 20 20" fill="none" xmlns="http://www.w3.org/2000/svg">
<path d="M12.5317 8.74761L11.2168 10.0624V8.74411H10.0758V12.0948H11.2174V10.7356L12.59 12.0948H14.025L12.282 10.3506L13.7269 8.90628V10.896C13.7269 11.5569 14.123 12.1659 15.1228 12.1659C15.5982 12.1659 16.0328 11.8964 16.244 11.6526L16.7573 12.0954H17V8.74703H15.8619V10.9159C15.7336 11.1399 15.5539 11.2816 15.2774 11.2816C14.9963 11.2816 14.8673 11.1148 14.8673 10.5828V8.74761H12.5317ZM9.85358 10.4212C9.85497 10.7679 9.75348 11.1072 9.56195 11.3962C9.37043 11.6852 9.09748 11.9109 8.77764 12.0447C8.45781 12.1785 8.10546 12.2145 7.7652 12.148C7.42493 12.0815 7.11204 11.9156 6.8661 11.6712C6.62017 11.4268 6.45226 11.115 6.38362 10.7751C6.31498 10.4353 6.34868 10.0827 6.48048 9.76206C6.61228 9.44138 6.83623 9.16701 7.12401 8.97366C7.4118 8.78031 7.75047 8.67667 8.09717 8.67586C8.32709 8.67478 8.55497 8.71908 8.76776 8.8062C8.98054 8.89332 9.17405 9.02156 9.3372 9.18357C9.50036 9.34559 9.62995 9.53819 9.71856 9.75036C9.80716 9.96253 9.85305 10.1901 9.85358 10.42M8.09717 9.50419C7.795 9.50419 7.5395 9.91486 7.5395 10.4212C7.5395 10.9269 7.795 11.337 8.09717 11.337C8.40517 11.337 8.66183 10.9275 8.66183 10.4212C8.66183 9.91428 8.40633 9.50419 8.09717 9.50419ZM6.81033 12.0983H5.51592L4.4875 10.6726H4.141V12.0959H3V7.81836H4.63333C5.576 7.81836 6.34542 8.46003 6.34542 9.24753C6.34542 9.72936 6.05083 10.1587 5.60283 10.4218L6.81033 12.0983ZM5.20617 9.24753C5.20663 9.15351 5.18855 9.06033 5.15296 8.97331C5.11737 8.88629 5.06497 8.80714 4.99876 8.74039C4.93256 8.67364 4.85384 8.6206 4.76711 8.5843C4.68038 8.548 4.58735 8.52916 4.49333 8.52886H4.141V9.95978H4.49392C4.68253 9.95901 4.86318 9.8837 4.9965 9.75028C5.12981 9.61686 5.20497 9.43614 5.20558 9.24753H5.20617Z" fill="white"/>
</svg>
