<svg width="20" height="20" viewBox="0 0 20 20" fill="none" xmlns="http://www.w3.org/2000/svg">
<path d="M15.8007 8.79598L15.7838 8.75287L14.1503 4.48981C14.117 4.40623 14.0582 4.33533 13.9822 4.28728C13.9061 4.24008 13.8174 4.21736 13.728 4.22218C13.6386 4.227 13.5528 4.25913 13.4822 4.31424C13.4124 4.37092 13.3618 4.44773 13.3372 4.53421L12.2343 7.90862H7.76825L6.66527 4.53421C6.64135 4.44725 6.5906 4.37004 6.52025 4.31359C6.44969 4.25849 6.36392 4.22638 6.27452 4.22158C6.18512 4.21678 6.09641 4.23952 6.02034 4.28673C5.94449 4.33496 5.88568 4.40578 5.85222 4.48921L4.21568 8.75037L4.19942 8.79348C3.96427 9.40788 3.93524 10.0821 4.11671 10.7144C4.29818 11.3468 4.68032 11.903 5.20549 12.2992L5.21115 12.3035L5.22615 12.3142L7.71445 14.1776L8.9456 15.1093L9.69544 15.6755C9.78315 15.7421 9.89026 15.7781 10.0004 15.7781C10.1105 15.7781 10.2176 15.7421 10.3054 15.6755L11.0552 15.1093L12.2863 14.1776L14.7896 12.3029L14.7959 12.2979C15.3199 11.9016 15.7011 11.346 15.8823 10.7145C16.0635 10.083 16.0348 9.40979 15.8007 8.79598Z" fill="white"/>
</svg>
