<svg width="20" height="20" viewBox="0 0 20 20" fill="none" xmlns="http://www.w3.org/2000/svg">
<path d="M15.2111 8.85399L15.2417 10.6496H15.2263L14.7068 8.85399H13.851V11.1157H14.4164L14.3859 9.25899H14.4012L14.9589 11.1157H15.7765V8.85399H15.2111ZM4.44507 8.85399L4.0172 11.1387H4.63613L4.9494 9.06032H4.96467L5.27033 11.1386H5.8816L5.46133 8.85399H4.44507ZM7.89873 8.85399L7.61607 10.5961H7.60073L7.31807 8.85399H6.38587L6.34 11.1387H6.91307L6.9284 9.08319H6.936L7.318 11.1386H7.89873L8.2808 9.08325H8.29613L8.31133 11.1386H8.8844L8.83093 8.85399H7.89873ZM3.05447 10.4891C3.07733 10.5426 3.06973 10.6191 3.06207 10.6573C3.0468 10.7337 2.99333 10.8101 2.84047 10.8101C2.69533 10.8101 2.61127 10.7261 2.61127 10.6037V10.3822H2V10.5579C2 11.0699 2.40493 11.2227 2.83287 11.2227C3.24547 11.2227 3.58927 11.0775 3.6428 10.7031C3.67333 10.5044 3.6504 10.3745 3.6428 10.3287C3.5358 9.84732 2.6648 9.70979 2.6036 9.44232C2.596 9.39645 2.596 9.35066 2.6036 9.32006C2.61893 9.24366 2.6724 9.16725 2.80993 9.16725C2.94747 9.16725 3.02393 9.25125 3.02393 9.37359V9.51112H3.59693V9.35065C3.59693 8.85399 3.14613 8.77759 2.8252 8.77759C2.42027 8.77759 2.08407 8.91512 2.02293 9.28185C2.0076 9.38119 2 9.47292 2.03053 9.58752C2.12227 10.0613 2.93993 10.1988 3.05447 10.4891ZM10.4891 10.4891C10.5119 10.5427 10.5043 10.6114 10.4967 10.6573C10.4813 10.7337 10.4279 10.8101 10.2751 10.8101C10.1299 10.8101 10.0459 10.7261 10.0459 10.6037V10.3822H9.43453V10.5579C9.43453 11.0622 9.83187 11.2151 10.2598 11.2151C10.6724 11.2151 11.0086 11.0775 11.0621 10.6955C11.0927 10.4968 11.0697 10.3745 11.0621 10.3211C10.9704 9.84732 10.1069 9.70212 10.0459 9.44239C10.0382 9.39652 10.0382 9.35066 10.0459 9.32006C10.0611 9.24366 10.1146 9.16725 10.2521 9.16725C10.382 9.16725 10.4661 9.25125 10.4661 9.37359V9.51112H11.0315V9.35065C11.0315 8.85399 10.5883 8.77759 10.2675 8.77759C9.86247 8.77759 9.53387 8.90745 9.4728 9.28185C9.45747 9.38119 9.45747 9.47292 9.4804 9.58752C9.57213 10.0613 10.3744 10.1911 10.4891 10.4891ZM12.4145 10.7948C12.575 10.7948 12.6208 10.6878 12.6361 10.6267C12.6437 10.6038 12.6437 10.5655 12.6437 10.5427V8.85399H13.2244V10.4968C13.2244 10.5427 13.2244 10.6267 13.2168 10.6496C13.1786 11.0775 12.8424 11.2151 12.4221 11.2151C12.0019 11.2151 11.6657 11.0775 11.6275 10.6496C11.6275 10.6267 11.6199 10.5427 11.6199 10.4968V8.85399H12.2005V10.5427C12.2005 10.5732 12.2005 10.6037 12.2082 10.6267C12.2082 10.6878 12.2541 10.7948 12.4145 10.7948ZM17.1824 10.7719C17.3505 10.7719 17.404 10.6649 17.4193 10.6037C17.4269 10.5809 17.4269 10.5426 17.4269 10.5197V10.1911H17.1901V9.85492H18V10.4663C18 10.5121 18 10.5426 17.9923 10.6191C17.9541 11.0393 17.595 11.1845 17.1901 11.1845C16.7851 11.1845 16.426 11.0393 16.3878 10.6191C16.3801 10.5426 16.3801 10.5121 16.3801 10.4662V9.50352C16.3801 9.46525 16.3878 9.38885 16.3878 9.35065C16.4413 8.92272 16.7851 8.78519 17.1901 8.78519C17.595 8.78519 17.9465 8.92272 17.9923 9.35065C18 9.41939 18 9.50345 18 9.50345V9.57985H17.4269V9.44999C17.4269 9.44999 17.4269 9.39646 17.4193 9.36592C17.4117 9.31246 17.3658 9.19786 17.1901 9.19786C17.022 9.19786 16.9761 9.30479 16.9609 9.36592C16.9532 9.39646 16.9532 9.43472 16.9532 9.47292V10.5197C16.9532 10.5503 16.9532 10.5808 16.9609 10.6037C16.9609 10.6649 17.022 10.7719 17.1824 10.7719Z" fill="white"/>
</svg>
