<svg width="20" height="20" viewBox="0 0 20 20" fill="none" xmlns="http://www.w3.org/2000/svg">
<path d="M6.49951 3.94323C8.68778 2.69993 11.3737 2.6999 13.5122 3.94323L13.1636 4.5399C11.224 3.39607 8.78676 3.39604 6.84717 4.5399C4.90769 5.68381 3.66455 7.77269 3.66455 10.0106C3.66455 12.2485 4.85796 14.3374 6.84717 15.4813C8.78676 16.6252 11.224 16.6251 13.1636 15.4813L13.5122 16.078C11.324 17.3213 8.63804 17.3213 6.49951 16.078C4.31124 14.8347 2.96826 12.4973 2.96826 10.0106C2.96826 7.4742 4.31123 5.18656 6.49951 3.94323ZM5.70361 7.52428C4.80853 9.06598 4.80845 10.9064 5.70361 12.4481C6.59885 13.9399 8.19068 14.8846 9.98096 14.8846C11.7712 14.8846 13.3631 13.9897 14.2583 12.4481L14.855 12.7958C13.8603 14.5364 11.9702 15.6306 9.98096 15.6307C7.99162 15.6307 6.10161 14.5364 5.10693 12.7958C4.11226 11.0551 4.11226 8.91632 5.10693 7.17565L5.70361 7.52428ZM10.0308 5.78307C12.3681 5.78323 14.2573 7.67326 14.2573 10.0106C14.2573 12.348 12.3681 14.238 10.0308 14.2381C7.69328 14.2381 5.80322 12.3481 5.80322 10.0106C5.80325 7.67316 7.6933 5.78307 10.0308 5.78307ZM9.98096 7.57408C8.63817 7.57408 7.54349 8.6181 7.54346 10.0106C7.54346 11.3534 8.63815 12.4471 9.98096 12.4471C11.3237 12.447 12.4175 11.3533 12.4175 10.0106C12.4174 8.66791 11.3236 7.57421 9.98096 7.57408ZM10.0308 4.34069C12.0198 4.34082 13.9091 5.43529 14.9038 7.17565L14.3071 7.52428C13.412 5.98264 11.821 5.0869 10.0308 5.08678V4.34069Z" fill="white"/>
</svg>
