<svg width="20" height="20" viewBox="0 0 20 20" fill="none" xmlns="http://www.w3.org/2000/svg">
<path d="M15.3262 3.27051C16.4019 3.29791 17.2655 4.17847 17.2656 5.26074V15.2783L17.2646 15.3301L17.25 15.5254C17.1304 16.4918 16.3188 17.2433 15.3262 17.2686L15.2744 17.2695H5.25684L5.05664 17.2598C4.13374 17.1677 3.39639 16.4452 3.28125 15.5293L3.2666 15.3301L3.26562 15.2783V5.26074C3.26575 4.23008 4.04901 3.38244 5.05273 3.28027L5.25684 3.26953H15.2744L15.3262 3.27051ZM5.25684 4.26953C4.70954 4.26953 4.26576 4.71348 4.26562 5.26074V15.2656L4.2666 15.3164C4.28632 15.8459 4.72218 16.2695 5.25684 16.2695H15.2617L15.3125 16.2686C15.8294 16.2493 16.2444 15.8333 16.2637 15.3164L16.2656 15.2783V5.26074C16.2655 4.72619 15.8419 4.28923 15.3125 4.26953V4.27051L15.2617 4.26953H5.25684ZM7.74414 5.86816C8.28838 5.86816 8.69981 5.90528 8.97754 5.97852C9.25796 6.05177 9.50464 6.19018 9.71777 6.39355C10.0908 6.74611 10.2773 7.19062 10.2773 7.72754C10.2773 8.30259 10.078 8.75837 9.67969 9.09473C9.28134 9.43102 8.74439 9.59961 8.06836 9.59961H7.25781V11.8682H6.27734V5.86816H7.74414ZM7.25781 8.7207H7.98047C8.8806 8.72059 9.33097 8.38558 9.33105 7.71582C9.33105 7.06753 8.86607 6.74316 7.9375 6.74316H7.25781V8.7207Z" fill="white"/>
</svg>
