<svg width="20" height="20" viewBox="0 0 20 20" fill="none" xmlns="http://www.w3.org/2000/svg">
<path d="M3.45923 12.1436C4.65271 12.1436 4.91547 12.1356 4.88989 12.0928C4.87414 12.0653 4.78708 11.9392 4.70044 11.8174L4.54321 11.5938H2.63208V7.85938H2.0022V12.1436H3.45923ZM7.31958 10.6582L5.61841 7.85938H5.28735C5.10222 7.85938 4.96014 7.871 4.96802 7.88672C4.99559 7.93388 5.7992 9.25031 6.2522 9.98145L6.64966 10.6299V12.1436H7.31958V10.6582ZM7.51685 10.2959C7.52869 10.2958 7.56448 10.2492 7.59985 10.1865C7.68256 10.045 8.3871 8.88916 8.71802 8.35059C8.86376 8.11082 8.99038 7.90637 9.0022 7.88672C9.00949 7.87104 8.87148 7.85938 8.69067 7.85938H8.35962L7.97388 8.49609C7.76118 8.84983 7.50112 9.27436 7.39478 9.44336C7.28845 9.61234 7.20142 9.76551 7.20142 9.78516C7.20149 9.8285 7.48928 10.2959 7.51685 10.2959ZM10.2424 10.583L10.2542 9.01855L10.4905 9.32129C10.6205 9.48638 11.184 10.1861 11.7473 10.8818L12.7629 12.1436H13.3069V11.9746C13.3069 11.782 13.3854 11.8921 12.0461 10.2334C11.6483 9.73814 11.1011 9.05773 10.8293 8.72363C10.0655 7.77674 10.1596 7.85933 9.8606 7.85938H9.60474V12.1436H10.2346L10.2424 10.583ZM13.2717 11.2588C13.2914 11.2784 13.3069 10.5439 13.3069 9.57715V7.85938H12.677V10.5283L12.9563 10.874C13.1133 11.0621 13.2552 11.2343 13.2717 11.2588ZM15.3518 11.2988C15.6827 10.835 15.9659 10.4531 15.9856 10.4531C16.0016 10.4535 16.222 10.7403 16.4778 11.0938C16.7338 11.4436 17.0093 11.8255 17.0959 11.9355L17.2502 12.1436H18.0022L17.8762 11.9746C17.8093 11.8842 17.0968 10.9208 16.2893 9.83594L14.8235 7.85938H14.4573C14.1738 7.85938 14.0988 7.87092 14.1184 7.90625C14.1381 7.93376 14.3904 8.28365 14.6819 8.68457C14.9732 9.08528 15.2961 9.53305 15.4065 9.68262L15.5999 9.9541L15.4856 10.1035C14.946 10.8307 14.0316 12.0848 14.0237 12.1123C14.018 12.1279 14.1748 12.1435 14.3782 12.1436H14.7444L15.3518 11.2988ZM16.8713 9.25098C17.0447 9.01514 17.3289 8.62549 17.5022 8.38965C17.6794 8.14997 17.837 7.93376 17.8528 7.90625C17.876 7.87102 17.7968 7.85938 17.5256 7.85938H17.1711L16.7258 8.47656C16.4817 8.81449 16.265 9.117 16.2493 9.14844C16.2178 9.19957 16.2769 9.30994 16.4895 9.58496L16.5647 9.6748L16.8713 9.25098Z" fill="white"/>
</svg>
