<svg width="20" height="20" viewBox="0 0 20 20" fill="none" xmlns="http://www.w3.org/2000/svg">
<path d="M17.086 6.57122C17.086 6.31856 17.2887 6.11389 17.5433 6.11389C17.7953 6.11389 18 6.32189 18 6.57122V13.4286C18 13.6812 17.7973 13.8859 17.5427 13.8859C17.29 13.8859 17.0853 13.6779 17.0853 13.4286L17.086 6.57122ZM3.37133 8.85723C4.12867 8.85723 4.74267 9.47123 4.74267 10.2286C4.74267 10.9859 4.12867 11.5999 3.37133 11.5999C2.614 11.5999 2 10.9859 2 10.2286C2 9.47123 2.614 8.85723 3.37133 8.85723ZM8.4 8.85723C9.15733 8.85723 9.77133 9.47123 9.77133 10.2286C9.77133 10.9859 9.15733 11.5999 8.4 11.5999C7.64267 11.5999 7.02867 10.9859 7.02867 10.2286C7.02867 9.47123 7.64267 8.85723 8.4 8.85723ZM13.4287 8.85723C14.186 8.85723 14.8 9.47123 14.8 10.2286C14.8 10.9859 14.186 11.5999 13.4287 11.5999C12.6713 11.5999 12.0573 10.9859 12.0573 10.2286C12.0573 9.47123 12.6713 8.85723 13.4287 8.85723Z" fill="white"/>
</svg>
