<svg width="20" height="20" viewBox="0 0 20 20" fill="none" xmlns="http://www.w3.org/2000/svg">
<path d="M9.95541 3C9.47911 2.99949 9.01686 3.16135 8.64493 3.4589C8.273 3.75644 8.01361 4.17188 7.90956 4.63668C7.80551 5.10148 7.86302 5.58786 8.07259 6.01559C8.28215 6.44331 8.63127 6.78681 9.06233 6.98942C9.08566 7.2665 9.16733 8.24708 9.24608 9.24925C9.22174 9.25351 9.19721 9.25662 9.17258 9.25858C9.02675 9.26792 8.8815 9.24283 8.73625 9.2545C8.54958 9.2685 8.39208 9.36942 8.20308 9.36942C8.02925 9.36942 7.84841 9.36592 7.68975 9.44875C7.42958 9.58408 7.04458 9.49892 6.82991 9.72117C6.65608 9.90083 6.32883 9.81042 6.1305 9.99825C6.07916 10.0467 6.07158 10.1278 6.00625 10.1499C5.93275 10.175 5.85633 10.1908 5.78283 10.2158C5.63875 10.2643 5.48533 10.3477 5.42875 10.4993C5.39316 10.5962 5.44158 10.609 5.34358 10.6493C5.27486 10.6757 5.21009 10.7114 5.15108 10.7554C5.04491 10.8377 5.01633 10.9514 5.00058 11.0868C4.99941 11.0967 5.00233 11.2705 5.00233 11.2699C4.95048 11.3113 4.90677 11.3619 4.87341 11.4193C4.79583 11.5563 4.811 11.7016 4.86816 11.8439C4.93058 11.9979 4.98366 12.0563 4.99008 12.2149C4.98308 12.2908 5.01925 12.3701 5.04725 12.4383C5.15925 12.7125 5.22633 12.9254 5.532 12.954L6.39533 15.2663C6.82933 16.4254 8.39616 17 9.97058 17C11.5572 17 13.1486 16.4161 13.5896 15.2582L14.4774 12.9237C14.6682 12.8887 14.8292 12.8198 14.9009 12.6098C14.9511 12.4996 15.0024 12.3806 15.0187 12.2598C15.0258 12.2115 15.0239 12.1622 15.0129 12.1146C15.0491 12.0679 15.0847 12.0271 15.1103 11.9728C15.2334 11.7133 15.2048 11.4105 14.954 11.2437C15.0205 11.0063 14.9458 10.8383 14.7294 10.7128C14.6197 10.6493 14.5602 10.6598 14.527 10.5402C14.4961 10.4293 14.4453 10.3424 14.3479 10.2853C14.2225 10.2118 14.0807 10.1978 13.9489 10.1435C13.8947 10.0023 13.7564 9.91892 13.6193 9.874C13.5056 9.83667 13.3872 9.83142 13.2728 9.8005C13.1544 9.769 13.0879 9.65933 12.9672 9.615C12.8359 9.56775 12.6971 9.56308 12.56 9.54908C12.4124 9.53333 12.3092 9.44408 12.1697 9.40733C12.0222 9.36883 11.8769 9.37817 11.7276 9.36942C11.5771 9.36067 11.4499 9.28192 11.3017 9.26325C11.1839 9.24808 11.0667 9.258 10.9482 9.26267C10.8552 9.26337 10.7624 9.25299 10.6717 9.23175C10.7511 8.22783 10.8269 7.25367 10.8467 6.99C11.278 6.78766 11.6273 6.44437 11.8372 6.01675C12.047 5.58914 12.1048 5.10277 12.001 4.63789C11.8972 4.173 11.6381 3.75739 11.2663 3.45962C10.8945 3.16186 10.4317 2.99973 9.95541 3ZM10.5096 3.48183C10.6799 3.47775 10.9086 3.574 11.0982 3.784C11.4003 4.11825 11.4423 4.51725 11.2918 4.59892C11.1396 4.6835 10.8596 4.51433 10.5994 4.29033C10.3439 4.064 10.1788 3.78692 10.2867 3.59442C10.3264 3.52267 10.4075 3.48358 10.5096 3.48183ZM9.2805 7.0775C9.71771 7.22648 10.192 7.22648 10.6292 7.0775C10.5142 8.55917 10.3614 10.5017 10.3457 10.6242C10.3375 10.6726 10.2885 10.7268 10.2185 10.7653C10.1344 10.8066 10.0415 10.827 9.94783 10.8248C9.93208 10.8248 9.5605 10.8219 9.55116 10.5863C9.5325 10.105 9.35166 7.9245 9.2805 7.0775ZM10.6636 9.32683C10.7085 9.33675 10.7546 9.3455 10.8018 9.35017C10.978 9.36475 11.1501 9.32217 11.3262 9.35892C11.4062 9.37525 11.4721 9.41783 11.5508 9.43708C11.6488 9.46042 11.7486 9.4645 11.8489 9.46217C11.9399 9.45969 12.0308 9.46989 12.119 9.4925C12.2147 9.51817 12.2782 9.5835 12.3698 9.6115C12.5752 9.67333 12.8324 9.62317 13.0086 9.75967C13.043 9.78592 13.0552 9.82558 13.0932 9.846C13.1328 9.867 13.1766 9.88158 13.2203 9.89383C13.2962 9.91425 13.3749 9.92067 13.4513 9.937C13.5394 9.95567 13.6327 9.98483 13.7022 10.0408C13.7394 10.0687 13.7645 10.1099 13.7722 10.1558C13.7774 10.1978 13.8235 10.2141 13.8632 10.2316C13.9886 10.2864 14.1274 10.2958 14.2464 10.3669C14.3002 10.3961 14.3424 10.4428 14.366 10.4993L14.3695 10.511L14.3707 10.5145L14.3765 10.5402C14.3788 10.56 14.3847 10.6172 14.3922 10.6697C14.4255 10.693 14.4622 10.7123 14.5007 10.7274C14.6057 10.7688 14.7772 10.8482 14.814 10.9608C14.8146 10.9621 14.8152 10.9635 14.8157 10.9648L14.8181 10.9783C14.8242 11.002 14.824 11.0269 14.8175 11.0506C14.8058 11.0943 14.779 11.1894 14.7621 11.2641C14.8233 11.309 14.8951 11.3417 14.947 11.3983C14.9738 11.4274 14.9942 11.4624 15.0053 11.4986L15.0059 11.4992L15.0071 11.5033L15.0112 11.5208C15.038 11.6287 14.9872 11.8299 14.9318 11.8918C14.8928 11.9382 14.8573 11.9876 14.8257 12.0393C14.8425 12.0692 14.8532 12.1021 14.8572 12.1362L14.8583 12.1467V12.156L14.8577 12.1729L14.8566 12.1799L14.8548 12.1904C14.8328 12.2974 14.7976 12.4013 14.7498 12.4996C14.6798 12.7253 14.415 12.6787 14.2458 12.7376C14.2295 12.8274 14.1502 13.2101 14.0802 13.3005C13.9419 13.4784 13.7109 13.465 13.5149 13.458C13.4145 13.4535 13.3143 13.4712 13.2215 13.5099C13.1784 13.528 13.1389 13.5537 13.1048 13.5858C13.0593 13.6295 13.0523 13.6762 13.0342 13.7339C12.9712 13.9393 12.7601 14.0326 12.5705 14.0507C12.4124 14.0653 12.2736 14.0174 12.1202 13.9912C11.9694 13.964 11.8143 13.9757 11.6692 14.025C11.5995 14.0474 11.5354 14.0846 11.4814 14.1341C11.4312 14.1819 11.3916 14.235 11.3338 14.2741C11.2065 14.3572 11.0571 14.4001 10.9051 14.3972C10.7528 14.3972 10.5988 14.3587 10.4652 14.2805C10.3319 14.2073 10.1816 14.1705 10.0295 14.1738C9.88075 14.1738 9.725 14.2029 9.59375 14.2805C9.45976 14.3587 9.30729 14.3996 9.15216 14.3989C8.95558 14.3989 8.74733 14.3336 8.612 14.1773C8.50583 14.0542 8.34541 14.0023 8.192 13.9859C7.9715 13.9626 7.77316 14.0577 7.55616 14.0577C7.36366 14.0577 7.14025 13.9923 7.03758 13.8063C6.9985 13.7345 6.9985 13.6505 6.93841 13.5922C6.85966 13.5152 6.74591 13.4802 6.6415 13.4673C6.435 13.4417 6.232 13.507 6.04066 13.3857C6.0019 13.3616 5.96835 13.33 5.94201 13.2927C5.91566 13.2554 5.89704 13.2132 5.88725 13.1687C5.87383 13.1197 5.79333 12.8408 5.78225 12.7819C5.76533 12.6944 5.49991 12.7539 5.41066 12.7032C5.33016 12.6565 5.28933 12.534 5.26308 12.4763C5.23741 12.4191 5.15808 12.24 5.15225 12.1846L5.15575 12.1817C5.15516 12.1747 5.15341 12.1683 5.15341 12.1607C5.15267 12.1001 5.17427 12.0413 5.21408 11.9956C5.16818 11.966 5.1287 11.9275 5.098 11.8824C5.07233 11.8328 4.94925 11.6176 4.98716 11.5091L4.99008 11.5068C5.00838 11.4461 5.04507 11.3927 5.09508 11.3539C5.13533 11.3207 5.18841 11.2956 5.23333 11.2641C5.2212 11.2545 5.20988 11.244 5.1995 11.2326C5.14116 11.1533 5.15225 10.9835 5.20766 10.9024L5.21466 10.8908L5.21583 10.889L5.21758 10.8878C5.22257 10.8803 5.22823 10.8733 5.2345 10.8668C5.30275 10.7945 5.39725 10.7589 5.48941 10.7222C5.5278 10.7075 5.56439 10.6885 5.5985 10.6656C5.60375 10.6143 5.60025 10.5553 5.60433 10.5221C5.60839 10.4818 5.62782 10.4446 5.65858 10.4183C5.75191 10.3191 5.96308 10.2841 6.071 10.2456C6.1167 10.2312 6.15996 10.2099 6.19933 10.1826C6.22266 10.1651 6.22033 10.105 6.24016 10.0776C6.29266 10.0041 6.39125 9.96675 6.47816 9.94342C6.57558 9.91717 6.67766 9.9125 6.7745 9.88508C6.82262 9.87357 6.86853 9.85425 6.91041 9.82792C6.9425 9.80517 6.95825 9.762 6.99558 9.73808C7.184 9.6185 7.42725 9.67042 7.63316 9.59983C7.70608 9.57475 7.75625 9.5205 7.83208 9.49658C7.93475 9.46392 8.04791 9.454 8.15583 9.45925C8.2515 9.46392 8.35066 9.454 8.44341 9.43008C8.52625 9.40967 8.59508 9.36592 8.68141 9.35075C8.87216 9.3175 9.06175 9.36825 9.25308 9.33908C9.27816 9.6605 9.3015 9.96967 9.31725 10.1995C8.92641 10.2987 8.661 10.4883 8.661 10.707C8.661 11.0296 9.23441 11.2903 9.94141 11.2903C10.6484 11.2903 11.2218 11.0296 11.2218 10.707C11.2218 10.4935 10.9681 10.3086 10.5918 10.2065C10.6117 9.97083 10.6338 9.70133 10.6636 9.32683ZM12.9182 10.5244C12.7327 10.5244 12.553 10.5588 12.3984 10.6236C12.1797 10.7152 12.0484 10.861 12.0286 11.0337C12.0231 11.083 12.0275 11.133 12.0414 11.1807L12.0531 11.4193L12.0589 11.5359L12.0601 11.5517C11.9994 11.501 11.9311 11.4603 11.8577 11.4309C11.6925 11.3637 11.5156 11.33 11.3373 11.3318C11.1512 11.3318 10.9716 11.3656 10.817 11.4303C10.5982 11.5219 10.467 11.6678 10.4477 11.8404C10.442 11.891 10.4466 11.9422 10.4612 11.9909L10.4728 12.2254L10.4787 12.3427C10.4767 12.3979 10.4915 12.4524 10.5212 12.499L10.5364 12.5247C10.6047 12.6495 10.7324 12.751 10.9039 12.8169C11.0392 12.8694 11.1915 12.8968 11.3437 12.8968C11.5421 12.8968 11.7299 12.8513 11.8862 12.765C12.0752 12.6612 12.1837 12.5107 12.1931 12.3421C12.1935 12.3276 12.1947 12.3132 12.1966 12.2989C12.1989 12.2814 12.2012 12.2651 12.203 12.2295L12.2164 11.9868C12.226 11.954 12.2311 11.9201 12.2316 11.8859C12.2316 11.8766 12.2298 11.8673 12.2292 11.8573C12.2969 11.9192 12.3827 11.9711 12.4847 12.0102C12.6207 12.0627 12.7723 12.0901 12.9252 12.0901C13.1235 12.0901 13.3107 12.0446 13.4677 11.9583C13.6567 11.8538 13.7652 11.7039 13.7739 11.5353C13.7751 11.5108 13.7762 11.5027 13.7774 11.4922C13.781 11.469 13.7832 11.4456 13.7838 11.4222L13.7972 11.183C13.807 11.1493 13.8121 11.1143 13.8124 11.0792C13.813 10.9048 13.7004 10.7525 13.4957 10.6504C13.3148 10.5662 13.1176 10.5232 12.9182 10.5244ZM12.9182 10.6819C13.0916 10.6803 13.2632 10.7167 13.421 10.7887C13.5167 10.8365 13.6555 10.9304 13.6549 11.0792C13.6549 11.1317 13.6357 11.1813 13.6012 11.2273L13.5231 11.295C13.4846 11.328 13.442 11.3561 13.3965 11.3784C13.3907 11.3808 13.386 11.3843 13.3802 11.386C13.2341 11.4448 13.0779 11.4743 12.9205 11.4729C12.7496 11.4729 12.5874 11.4403 12.4497 11.3796L12.4352 11.3738C12.3918 11.3515 12.3512 11.3241 12.3144 11.2921L12.2374 11.2256C12.1978 11.1765 12.179 11.1139 12.1849 11.0512C12.1983 10.938 12.2957 10.8377 12.4591 10.7688C12.5944 10.7117 12.7537 10.6819 12.9182 10.6819ZM12.2112 11.4204C12.2543 11.4554 12.3045 11.4858 12.3605 11.512C12.3704 11.5184 12.3821 11.5219 12.392 11.526C12.5483 11.6007 12.7303 11.6415 12.9205 11.6415C13.1112 11.6415 13.295 11.6018 13.4525 11.5272L13.4659 11.5196C13.5228 11.4942 13.5765 11.4621 13.6257 11.4239C13.6222 11.4706 13.6193 11.4688 13.6164 11.5272C13.6094 11.6602 13.5009 11.7599 13.3918 11.82C13.248 11.8956 13.0876 11.9343 12.9252 11.9326C12.7941 11.933 12.664 11.9094 12.5413 11.8632C12.4293 11.82 12.3144 11.75 12.2555 11.6415C12.2211 11.5814 12.2199 11.5948 12.2164 11.5283C12.2147 11.4924 12.213 11.4564 12.2112 11.4204ZM11.3373 11.4887C11.5108 11.4872 11.6824 11.5238 11.8402 11.596C11.9358 11.6427 12.0741 11.7372 12.0735 11.8859C12.0724 11.9401 12.0533 11.9925 12.0192 12.0347L11.9422 12.1018C11.9044 12.134 11.8626 12.1614 11.818 12.1834C11.6668 12.248 11.504 12.2807 11.3397 12.2797C11.1791 12.2813 11.0199 12.2502 10.8718 12.1881L10.8543 12.1805C10.811 12.1585 10.7704 12.1312 10.7336 12.0994L10.656 12.0318C10.6168 11.9829 10.5982 11.9208 10.6041 11.8585C10.6169 11.7448 10.7149 11.6444 10.8782 11.5756C11.024 11.5166 11.1801 11.487 11.3373 11.4887ZM10.6303 12.2272C10.677 12.2645 10.7312 12.2983 10.7937 12.3263L10.8129 12.3339C10.9692 12.408 11.1495 12.4483 11.3397 12.4483C11.5304 12.4483 11.7142 12.4092 11.8717 12.3339L11.8862 12.3258C11.9463 12.2983 11.9994 12.2663 12.0443 12.2307C12.0414 12.2773 12.0385 12.2762 12.035 12.3339C12.0286 12.4669 11.9201 12.5673 11.8104 12.6268C11.6667 12.7027 11.5063 12.7414 11.3437 12.7393C11.2128 12.74 11.0829 12.7165 10.9605 12.6699C10.8485 12.6268 10.7336 12.5568 10.6741 12.4483C10.6402 12.3876 10.6391 12.4016 10.6356 12.3351L10.6303 12.2272ZM5.92866 13.5671C5.98525 13.6038 6.04825 13.6313 6.11416 13.6488C6.35216 13.7129 6.729 13.5718 6.83516 13.85C6.9565 14.1656 7.331 14.2823 7.64075 14.2572C7.89158 14.2368 8.25908 14.0787 8.46325 14.3108C8.69891 14.5792 9.10025 14.6468 9.4345 14.5588C9.74075 14.4783 9.96533 14.2922 10.2967 14.4199C10.6624 14.5599 11.0002 14.6848 11.3776 14.4794C11.643 14.3353 11.741 14.1341 12.0863 14.1924C12.3908 14.2443 12.6813 14.3091 12.9631 14.1318C13.1684 14.0034 13.1742 13.7059 13.4198 13.6768C13.6357 13.6511 13.8462 13.7024 14.0516 13.5957H14.0527L14.0317 13.6505L13.4408 15.2022C13.2495 15.7056 12.8009 16.1262 12.1441 16.4196C11.5327 16.692 10.7604 16.8425 9.96941 16.8425C9.18366 16.8425 8.42008 16.6938 7.81925 16.4243C7.17175 16.1338 6.73075 15.7143 6.54291 15.2109L5.92866 13.5671Z" fill="white"/>
</svg>
