<svg width="20" height="20" viewBox="0 0 20 20" fill="none" xmlns="http://www.w3.org/2000/svg">
<path d="M6.99 6.36011L7.9 7.48011H6.08L5.66 9.16011H4.54L4.96 7.48011H3.84L3 10.8401H5.24L4.96 11.9601H6.92L5.45 13.6401H7.095L8.46 11.9601H11.54L12.905 13.6401H14.55L13.08 11.9601H15.04L14.76 10.8401H17L16.16 7.48011H15.04L15.46 9.16011H14.34L13.92 7.48011H12.1L13.01 6.36011H11.82L10.84 7.48011H9.16L8.18 6.36011H6.99ZM7.13 8.60011H8.25V9.72011H7.13V8.60011ZM11.7529 8.60011H12.8729V9.72011H11.7529V8.60011Z" fill="white"/>
</svg>
