<svg width="20" height="20" viewBox="0 0 20 20" fill="none" xmlns="http://www.w3.org/2000/svg">
<g clip-path="url(#clip0_267_63)">
<path d="M6.44055 11.0148C7.97945 12.4898 9.57578 12.918 11.1477 12.6475C10.8899 12.46 10.7671 12.2249 10.6645 12.0341C12.4206 13.0359 13.2988 11.7892 13.8402 11.3877C13.6539 11.2366 13.4266 11.3549 13.0516 10.8991C13.5316 10.9642 13.8437 10.9398 14.286 10.9389C14.5626 10.6818 14.9821 10.48 15.2413 10.1732C15.5591 9.79703 15.9627 9.28187 16.296 8.85273C16.0832 8.72266 16.0412 8.60781 15.9609 8.44562C16.1522 8.49435 16.3491 8.51775 16.5466 8.51523C16.8081 8.01883 17.2227 7.70664 17.5019 7.57773C16.3394 7.17391 14.8499 7.22922 13.772 7.44976C13.4125 7.7575 13.4235 8.15687 13.3066 8.81547C13.0804 8.52086 12.9789 8.15125 13.1125 7.64055C12.3536 7.87891 11.6144 8.2007 10.9016 8.53516C10.6258 8.66406 9.94773 9.14851 9.55023 9.30297C9.36273 9.58328 9.2057 9.85234 9.0768 10.1104C9.06906 9.8732 9.03156 9.64164 9.05031 9.39555C7.74531 9.59851 7.03234 9.9482 6.21836 10.6705C4.47461 10.6741 2.52109 9.92734 2.53633 9.65781L2.5 10.289C2.5 10.289 4.67547 11.114 6.44383 11.0148H6.44148H6.44055Z" fill="white"/>
</g>
<defs>
<clipPath id="clip0_267_63">
<rect width="15" height="15" fill="white" transform="translate(2.5 2.5)"/>
</clipPath>
</defs>
</svg>
