<svg width="20" height="20" viewBox="0 0 20 20" fill="none" xmlns="http://www.w3.org/2000/svg">
<path d="M7.9812 12.9794H6.62964L6.2019 11.5428H4.20874L3.78101 12.9794H2.4646L4.4314 6.94031H6.03979L7.9812 12.9794ZM11.4187 7.98621H10.6492V11.9325H11.4187V12.9794H8.57983V11.9325H9.34937V7.98621H8.57983V6.93933H11.4187V7.98621ZM14.7527 8.98132H14.7791L15.9587 6.93933H17.3611L15.5222 9.88171L17.4646 12.9794H15.9597L14.6677 10.7557H14.6423L13.3845 12.9794H11.9822L13.8982 9.85535L12.0759 6.93933H13.5896L14.7527 8.98132ZM4.51636 10.4276H5.8855L5.21851 8.13464H5.17554L4.51636 10.4276Z" fill="white"/>
</svg>
