<svg width="20" height="20" viewBox="0 0 20 20" fill="none" xmlns="http://www.w3.org/2000/svg">
<path d="M15.841 5.20333C15.8405 5.12883 15.7925 5.10983 15.721 5.10883H15.596V5.43833H15.65V5.29733H15.701L15.786 5.43833H15.847L15.755 5.29333C15.806 5.28733 15.8425 5.26083 15.841 5.20333ZM15.65 5.25133V5.15483H15.715C15.745 5.15383 15.7875 5.16033 15.7865 5.19933C15.789 5.24433 15.7465 5.25283 15.71 5.25083H15.65V5.25133ZM14.9255 4.74533C15.5115 5.33083 13.887 7.90482 13.6125 8.17982C13.338 8.45382 12.6405 8.20182 12.055 7.61582C11.469 7.03032 11.217 6.33282 11.4915 6.05833C11.766 5.78333 14.34 4.15933 14.9255 4.74533ZM4.82605 7.30532C4.31305 6.40932 3.72805 5.10783 4.13805 4.69783C4.54305 4.29283 5.81554 4.85733 6.71004 5.36483C5.93035 5.84481 5.28279 6.5118 4.82605 7.30532ZM14.301 7.51432C14.7505 8.31031 14.9862 9.20917 14.985 10.1233C14.985 13.0603 12.604 15.4413 9.66653 15.4413C6.72954 15.4413 4.34855 13.0603 4.34855 10.1233C4.34855 7.18582 6.72954 4.80533 9.66653 4.80533C10.552 4.80533 11.387 5.02183 12.121 5.40483C11.9405 5.50533 11.776 5.60383 11.6365 5.69183C11.4225 5.65333 11.2475 5.68333 11.1375 5.79283C10.9365 5.99383 11.003 6.41532 11.269 6.89282C11.4055 7.16232 11.6195 7.45482 11.894 7.72982C11.9455 7.78182 11.998 7.83082 12.0515 7.87832C12.811 8.60131 13.654 8.93381 13.966 8.62131C14.0995 8.48782 14.1145 8.25732 14.032 7.97782C14.1155 7.84282 14.207 7.68582 14.301 7.51432ZM15.708 4.97033C15.547 4.97033 15.416 5.10333 15.416 5.26783C15.416 5.43233 15.5465 5.56533 15.708 5.56533C15.8695 5.56533 16 5.43233 16 5.26783C16 5.10333 15.8695 4.97033 15.708 4.97033ZM15.708 5.51383C15.582 5.51383 15.4795 5.40383 15.4795 5.26783C15.4795 5.13183 15.5815 5.02183 15.708 5.02183C15.834 5.02183 15.9365 5.13183 15.9365 5.26783C15.9365 5.40383 15.8345 5.51383 15.708 5.51383Z" fill="white"/>
</svg>
