<svg width="20" height="20" viewBox="0 0 20 20" fill="none" xmlns="http://www.w3.org/2000/svg">
<path d="M10.2713 11.3505C10.3558 11.3221 10.4493 11.3517 10.5018 11.4237L12.0701 13.5858C12.1542 13.7017 12.1342 13.8632 12.0242 13.9549L9.78301 15.826C9.92093 15.519 9.99771 15.1847 10.0047 14.8436L10.0262 13.8133L9.95781 13.8114L9.88945 13.8104L9.86797 14.8417C9.85905 15.2748 9.73143 15.6956 9.50371 16.0594L9.27226 16.2518C8.98523 16.4912 8.6245 16.625 8.25078 16.6307L5.83379 16.6678C5.6659 16.6701 5.56738 16.4797 5.66582 16.3436L7.51054 13.8036C7.54914 13.7507 7.61108 13.7194 7.67656 13.7196L9.87383 13.7274L9.86699 11.6337C9.86674 11.5457 9.92327 11.4673 10.0066 11.4393L10.2713 11.3505ZM13.4178 9.62682C13.554 9.58299 13.7015 9.65125 13.7547 9.78405L14.8367 12.496C14.5879 12.2695 14.2944 12.093 13.9725 11.9803L12.9988 11.6395L12.9764 11.704L12.9529 11.7684L13.9266 12.1092C14.3355 12.2523 14.6955 12.5044 14.9705 12.8339L15.0818 13.1141C15.2202 13.4614 15.2355 13.8459 15.1248 14.203L14.409 16.5116C14.359 16.672 14.1474 16.7069 14.0486 16.5712L12.2078 14.0282C12.1695 13.9751 12.159 13.9067 12.1795 13.8446L12.8699 11.7587L10.8777 11.1132C10.7942 11.086 10.7369 11.0086 10.7361 10.9208L10.7342 10.6415C10.7335 10.5524 10.7902 10.4728 10.8748 10.4452L13.4178 9.62682ZM3.2664 8.32897L6.25761 9.2821C6.31996 9.30212 6.36813 9.35167 6.38847 9.41393L7.07207 11.5018L9.05742 10.8387C9.14085 10.8109 9.23316 10.8397 9.28594 10.91L9.4539 11.1337C9.50699 11.2048 9.50841 11.3026 9.45683 11.3749L7.89531 13.5428C7.81166 13.659 7.65267 13.6916 7.53105 13.6161L5.05058 12.0751C5.38535 12.1096 5.72649 12.0779 6.05254 11.9774L7.03789 11.6737L7.01836 11.6092L6.99785 11.5428L6.0125 11.8465C5.59834 11.9742 5.15905 11.9857 4.74199 11.8837L4.48613 11.7245C4.16876 11.5272 3.92834 11.2268 3.80547 10.8739L3.01152 8.58971C2.95676 8.43109 3.10641 8.27833 3.2664 8.32897ZM9.8748 3.37292C10.0093 3.27262 10.2006 3.36824 10.201 3.536V6.67565C10.2009 6.74114 10.1691 6.80236 10.116 6.84069L8.33379 8.12585L9.56914 9.81628C9.62102 9.88726 9.62205 9.98388 9.57109 10.0555L9.40898 10.2831C9.3573 10.3557 9.26425 10.3867 9.17949 10.3592L6.63945 9.53112C6.50332 9.48672 6.42473 9.34477 6.45976 9.20592L7.17363 6.37487C7.24243 6.70435 7.37626 7.01955 7.57109 7.29967L8.15996 8.14635L8.21562 8.10729L8.27226 8.06823L7.6834 7.22155C7.43594 6.86577 7.29203 6.45066 7.2625 6.02233L7.33672 5.73034C7.42828 5.36791 7.64118 5.04742 7.94023 4.82311L9.8748 3.37292ZM13.8865 6.60143C14.2595 6.57622 14.6304 6.67954 14.9363 6.8944L16.9148 8.28503C17.0516 8.38193 17.0195 8.59313 16.8602 8.64538L13.8748 9.61706C13.8126 9.63713 13.745 9.6263 13.6922 9.58776L11.9178 8.29089L10.6932 9.9901C10.6417 10.0612 10.5504 10.0914 10.4666 10.0653L10.2 9.98132C10.1149 9.95465 10.0566 9.87611 10.0564 9.78698L10.0574 7.1151C10.0576 6.97216 10.1677 6.85345 10.3103 6.84362L13.2234 6.64538C12.9315 6.81283 12.6736 7.03842 12.4676 7.31042L11.8445 8.13268L11.8992 8.17272L11.9539 8.21471L12.576 7.39245C12.8376 7.04699 13.1886 6.78169 13.5867 6.62096L13.8865 6.60143Z" fill="white"/>
</svg>
