<svg width="20" height="20" viewBox="0 0 20 20" fill="none" xmlns="http://www.w3.org/2000/svg">
<path d="M3.49676 11.5364C3.4671 11.4099 3.61776 11.3303 3.70961 11.4221L8.57793 16.2905C8.66979 16.3823 8.59013 16.533 8.46367 16.5033C6.00691 15.927 4.07308 13.9932 3.49676 11.5364ZM3.33363 9.58525C3.33127 9.62302 3.34548 9.6599 3.37224 9.68666L10.3134 16.6278C10.3402 16.6546 10.3771 16.6688 10.4148 16.6664C10.7307 16.6468 11.0407 16.6051 11.3431 16.543C11.4451 16.5221 11.4805 16.3968 11.4069 16.3232L3.67683 8.59317C3.60325 8.51959 3.47801 8.555 3.45708 8.65693C3.39496 8.95941 3.3533 9.26936 3.33363 9.58525ZM3.89483 7.29409C3.87263 7.34393 3.88394 7.40217 3.92252 7.44076L12.5593 16.0776C12.5979 16.1161 12.6561 16.1274 12.706 16.1052C12.9441 15.9992 13.1749 15.8796 13.3974 15.7474C13.471 15.7036 13.4824 15.6025 13.4218 15.542L4.45813 6.57827C4.39758 6.51772 4.29643 6.52908 4.2527 6.60269C4.12052 6.82515 4.00091 7.05595 3.89483 7.29409ZM5.0212 5.74324C4.97185 5.69389 4.9688 5.61475 5.01529 5.56269C6.23731 4.19462 8.01489 3.33337 9.99363 3.33337C13.6791 3.33337 16.6667 6.32101 16.6667 10.0065C16.6667 11.9852 15.8055 13.7628 14.4374 14.9848C14.3853 15.0313 14.3062 15.0282 14.2568 14.9789L5.0212 5.74324Z" fill="white"/>
</svg>
