<svg width="20" height="20" viewBox="0 0 20 20" fill="none" xmlns="http://www.w3.org/2000/svg">
<g clip-path="url(#clip0_318_615)">
<path d="M4.08554 3H5.09412V5.06967H7.34637V3H8.36079V8.18175H7.35046V5.996H5.09412V8.18117H4.08379L4.08554 3ZM11.0815 3H12.0766L13.7152 5.74167H13.7735L15.4121 3H16.4149V8.18175H15.4121V5.62675L15.4705 4.75817H15.4121L14.0506 7.08158H13.4445L12.0755 4.75817H12.0171L12.0755 5.62675V8.18175H11.0803L11.0815 3ZM13.8243 15.628C13.5966 15.629 13.3699 15.5974 13.1511 15.5341C12.9405 15.473 12.7415 15.3776 12.562 15.2517C12.3829 15.1257 12.2254 14.9717 12.0953 14.7956C11.9573 14.6014 11.8513 14.3863 11.7815 14.1586L12.7533 13.7969C12.817 14.0439 12.9466 14.2689 13.1284 14.4479C13.3204 14.6219 13.5735 14.7129 13.8325 14.7011C13.9354 14.7015 14.0381 14.6893 14.1381 14.6649C14.2325 14.6391 14.3227 14.5998 14.4059 14.5483C14.484 14.4989 14.5495 14.4319 14.5972 14.3528C14.6442 14.2716 14.668 14.1789 14.666 14.0851C14.6674 13.9953 14.6491 13.9063 14.6124 13.8243C14.5694 13.7381 14.5064 13.6635 14.4286 13.6067C14.3279 13.5277 14.2173 13.462 14.0996 13.4113C13.9378 13.3369 13.7718 13.2717 13.6026 13.2159L13.266 13.0992C13.11 13.0476 12.959 12.9822 12.8145 12.9038C12.6665 12.8224 12.5293 12.7227 12.4062 12.6069C12.2826 12.4895 12.1791 12.3525 12.1 12.2015C12.021 12.0341 11.9811 11.851 11.9833 11.666C11.9816 11.471 12.0235 11.2781 12.1058 11.1013C12.192 10.9236 12.3144 10.7659 12.4651 10.6382C12.6295 10.4996 12.8191 10.3941 13.0234 10.3272C13.2573 10.2473 13.5031 10.2079 13.7502 10.2106C13.9919 10.2052 14.2327 10.2419 14.4619 10.3191C14.6474 10.3769 14.8211 10.4676 14.9746 10.5868C15.1089 10.6843 15.2254 10.8043 15.3188 10.9415C15.3975 11.0562 15.4618 11.1803 15.5101 11.3107L14.6001 11.6724C14.543 11.5189 14.4452 11.3838 14.3172 11.2816C14.1614 11.1575 13.9654 11.0952 13.7665 11.1066C13.5693 11.0991 13.3744 11.1522 13.2083 11.2588C13.1407 11.2975 13.0845 11.3533 13.0456 11.4208C13.0066 11.4882 12.9863 11.5648 12.9866 11.6427C12.9879 11.7213 13.008 11.7984 13.0453 11.8676C13.0825 11.9368 13.1358 11.9961 13.2007 12.0405C13.4105 12.1783 13.64 12.2834 13.8815 12.352L14.2256 12.4605C14.4316 12.5271 14.6313 12.6118 14.8224 12.7137C14.9954 12.7976 15.1532 12.91 15.289 13.0462C15.4191 13.1728 15.5208 13.3257 15.5871 13.4947C15.6617 13.6759 15.698 13.8705 15.6939 14.0664C15.7001 14.3113 15.6396 14.5533 15.5189 14.7664C15.4103 14.9556 15.2615 15.1187 15.0831 15.2442C14.8993 15.3721 14.6949 15.4676 14.4788 15.5265C14.2648 15.5877 14.0434 15.6193 13.8208 15.6204L13.8243 15.628ZM6.22462 15.628C5.87401 15.632 5.52624 15.5648 5.20237 15.4304C4.8785 15.2961 4.58527 15.0974 4.34046 14.8463C4.10267 14.5965 3.91355 14.3045 3.78279 13.9853C3.64989 13.6464 3.58277 13.2853 3.58504 12.9213C3.58231 12.5597 3.64946 12.201 3.78279 11.8649C3.91111 11.5443 4.10051 11.2517 4.34046 11.0033C4.57649 10.7568 4.85954 10.56 5.17287 10.4247C5.50473 10.2833 5.86216 10.2118 6.22287 10.2147C6.58176 10.2112 6.93741 10.2827 7.26704 10.4247C7.58338 10.5586 7.86917 10.7555 8.10704 11.0033C8.3463 11.2509 8.53354 11.5438 8.65771 11.8649C8.79552 12.1999 8.86513 12.5591 8.86246 12.9213C8.86466 13.286 8.79509 13.6475 8.65771 13.9853C8.53115 14.305 8.34419 14.5974 8.10704 14.8463C7.86113 15.0959 7.5677 15.2936 7.24409 15.4279C6.92047 15.5622 6.57323 15.6302 6.22287 15.628H6.22462ZM6.22462 14.7017C6.44997 14.7037 6.67333 14.6594 6.88087 14.5716C7.08244 14.4884 7.26502 14.3652 7.41754 14.2093C7.57538 14.051 7.69802 13.8612 7.77746 13.6522C7.86893 13.4196 7.91449 13.1713 7.91162 12.9213C7.91491 12.6737 7.86932 12.4279 7.77746 12.198C7.69935 11.9862 7.5766 11.7936 7.41754 11.6333C7.26499 11.4777 7.08241 11.3546 6.88087 11.2717C6.67334 11.1838 6.44997 11.1396 6.22462 11.1416C6.00186 11.1393 5.78089 11.1816 5.57479 11.2662C5.36869 11.3508 5.18164 11.4758 5.02471 11.6339C4.86887 11.7967 4.74658 11.9886 4.66479 12.1986C4.57758 12.4296 4.53445 12.675 4.53762 12.9219C4.53486 13.1713 4.57797 13.419 4.66479 13.6528C4.74779 13.86 4.87 14.0491 5.02471 14.2099C5.18169 14.3679 5.36876 14.4929 5.57486 14.5773C5.78096 14.6618 6.0019 14.7041 6.22462 14.7017ZM4.30137 16.118H8.09304V17H4.30137V16.118Z" fill="white"/>
</g>
<defs>
<clipPath id="clip0_318_615">
<rect width="14" height="14" fill="white" transform="translate(3 3)"/>
</clipPath>
</defs>
</svg>
