<svg width="20" height="20" viewBox="0 0 20 20" fill="none" xmlns="http://www.w3.org/2000/svg">
<path d="M10.0005 3.99902C6.68745 3.99902 4.003 6.68397 4.001 9.99602H4V14.6403H4.001C4.00166 15.0014 4.14558 15.3475 4.40116 15.6026C4.65675 15.8577 5.00311 16.001 5.36423 16.001H10.0025C13.3161 15.999 16 13.3146 16 10.0015C16 6.68697 13.3146 3.99902 10 3.99902H10.0005ZM11.2162 6.46944C12.2239 6.46944 13.175 7.24106 13.175 8.30524C13.175 8.40376 13.1755 8.50277 13.16 8.61479C13.1533 8.68199 13.1331 8.74715 13.1006 8.80634C13.0681 8.86554 13.024 8.91755 12.9709 8.95927C12.9178 9.00098 12.8568 9.03152 12.7916 9.04907C12.7264 9.06661 12.6583 9.0708 12.5914 9.06137C12.5246 9.05173 12.4604 9.02868 12.4027 8.99361C12.345 8.95854 12.295 8.91217 12.2557 8.85729C12.2164 8.80241 12.1885 8.74015 12.1739 8.67424C12.1592 8.60834 12.158 8.54015 12.1704 8.47377C12.1762 8.41779 12.1783 8.3615 12.1769 8.30524C12.1769 7.70164 11.6833 7.4691 11.2167 7.4691C10.7496 7.4691 10.3291 7.86117 10.3281 8.30524C10.3361 8.81883 10.3281 9.32841 10.3281 9.8405L11.1942 9.8345C11.8703 9.82049 11.8783 10.8392 11.2022 10.8337L10.3281 10.8402C10.3261 11.2532 10.3311 11.1787 10.3291 11.3868C10.3291 11.3868 10.3366 11.8918 10.3211 12.2749C10.2165 13.4001 9.25888 14.2982 8.10869 14.2982C6.88948 14.2982 5.88431 13.3016 5.88431 12.0794C5.92082 10.8217 6.92349 9.833 8.1862 9.8445L8.89082 9.8395V10.8377L8.1862 10.8442H8.1827C7.48858 10.8642 6.89398 11.3362 6.88248 12.0794C6.88241 12.2401 6.91413 12.3993 6.97581 12.5477C7.03749 12.6962 7.12791 12.8309 7.24187 12.9443C7.35583 13.0576 7.49109 13.1473 7.63985 13.2082C7.78861 13.2691 7.94795 13.3 8.10869 13.2991C8.7868 13.2991 9.32939 12.8055 9.32939 12.0804L9.32889 8.30124C9.32889 8.23123 9.33139 8.17522 9.33889 8.09771C9.45391 7.17355 10.2805 6.46944 11.2162 6.46944Z" fill="white"/>
</svg>
