<svg width="20" height="20" viewBox="0 0 20 20" fill="none" xmlns="http://www.w3.org/2000/svg">
<path d="M12.0737 3.87482C12.2645 3.86486 12.4538 3.91777 12.6118 4.02521C12.7696 4.13257 12.8878 4.2887 12.9487 4.46954L16.4487 14.9695C16.4941 15.1035 16.5059 15.2468 16.4839 15.3865C16.4619 15.5262 16.407 15.6588 16.3228 15.7723C16.2385 15.8857 16.1277 15.9764 16.0005 16.0379C15.8732 16.0993 15.7326 16.1295 15.5913 16.1248H11.4966C11.3083 16.1274 11.1237 16.0693 10.9712 15.9588L8.34619 13.9725L7.81299 15.5301C7.75479 15.7024 7.64393 15.8522 7.49658 15.9588C7.34916 16.0655 7.17168 16.1235 6.98975 16.1248H4.42627C4.2835 16.1324 4.1409 16.1049 4.01123 16.0447C3.88162 15.9845 3.76843 15.893 3.68213 15.7791C3.59606 15.6653 3.53899 15.5323 3.51611 15.3914C3.49326 15.2503 3.50532 15.1049 3.55127 14.9695L7.09521 4.46954C7.15395 4.29591 7.2655 4.1446 7.41455 4.0379C7.56368 3.93119 7.74289 3.87435 7.92627 3.87482H12.0737ZM9.02881 11.575L8.9585 11.7586H6.3335L6.4126 11.8201L11.356 15.4861C11.4056 15.5259 11.4681 15.5477 11.5317 15.5477C11.5819 15.556 11.6333 15.5511 11.6812 15.534C11.7292 15.5167 11.7727 15.4876 11.8062 15.449C11.8395 15.4103 11.8624 15.3633 11.8726 15.3133C11.8827 15.2634 11.8794 15.2114 11.8638 15.1629L9.90381 9.36115L9.02881 11.575ZM8.81885 4.46954L12.3628 14.9695C12.4282 15.1564 12.4282 15.3607 12.3628 15.5477H15.6177C15.6629 15.5466 15.7074 15.5352 15.7476 15.5145C15.7877 15.4937 15.8221 15.4637 15.8491 15.4276C15.8761 15.3912 15.8945 15.349 15.9028 15.3045C15.9111 15.2602 15.9098 15.2142 15.8979 15.1707L12.354 4.67072C12.3339 4.6124 12.2956 4.56218 12.2456 4.52618C12.1954 4.49016 12.1355 4.46985 12.0737 4.46954H8.81885Z" fill="white"/>
</svg>
