<svg width="20" height="20" viewBox="0 0 20 20" fill="none" xmlns="http://www.w3.org/2000/svg">
<path d="M11.1568 9.4623H12.3928C12.4215 9.4623 12.449 9.45095 12.4694 9.43073C12.4897 9.4105 12.5012 9.38306 12.5013 9.35438V8.25363C12.5013 8.22486 12.4899 8.19726 12.4696 8.17691C12.4492 8.15656 12.4216 8.14513 12.3928 8.14513H11.1568C11.1281 8.14513 11.1007 8.1565 11.0804 8.17674C11.0602 8.19698 11.0488 8.22443 11.0488 8.25305V9.35438C11.0488 9.41388 11.0973 9.4623 11.1568 9.4623ZM9.43359 6.2948H10.6691C10.6979 6.2948 10.7255 6.28337 10.7458 6.26302C10.7662 6.24267 10.7776 6.21508 10.7776 6.1863V5.08497C10.7774 5.05629 10.7659 5.02884 10.7456 5.00862C10.7253 4.9884 10.6978 4.97705 10.6691 4.97705H9.43359C9.40497 4.97705 9.37752 4.98842 9.35728 5.00866C9.33704 5.0289 9.32567 5.05635 9.32567 5.08497V6.1863C9.32567 6.2458 9.37351 6.2948 9.43359 6.2948ZM9.43359 7.87855H10.6691C10.6978 7.8784 10.7253 7.86691 10.7456 7.8466C10.766 7.82629 10.7774 7.79878 10.7776 7.77005V6.6693C10.7774 6.64062 10.7659 6.61318 10.7456 6.59296C10.7253 6.57273 10.6978 6.56138 10.6691 6.56138H9.43359C9.40497 6.56138 9.37752 6.57275 9.35728 6.59299C9.33704 6.61323 9.32567 6.64068 9.32567 6.6693V7.77005C9.32567 7.82955 9.37351 7.87797 9.43359 7.87855ZM7.72442 7.87855H8.96109C8.98966 7.87824 9.01696 7.86667 9.03706 7.84636C9.05715 7.82605 9.06842 7.79862 9.06842 7.77005V6.6693C9.06842 6.64068 9.05705 6.61323 9.03681 6.59299C9.01658 6.57275 8.98913 6.56138 8.96051 6.56138H7.72501C7.69639 6.56138 7.66894 6.57275 7.6487 6.59299C7.62846 6.61323 7.61709 6.64068 7.61709 6.6693V7.77005C7.61709 7.82955 7.66551 7.87797 7.72501 7.87855M5.99601 7.87855H7.23209C7.26077 7.87839 7.28821 7.8669 7.30843 7.84656C7.32866 7.82623 7.34001 7.79872 7.34001 7.77005V6.6693C7.34001 6.64068 7.32864 6.61323 7.3084 6.59299C7.28816 6.57275 7.26071 6.56138 7.23209 6.56138H5.99601C5.96733 6.56138 5.93982 6.57273 5.91949 6.59296C5.89916 6.61318 5.88766 6.64062 5.88751 6.6693V7.77005C5.88751 7.82955 5.93651 7.87797 5.99601 7.87855ZM9.43359 9.4623H10.6691C10.6978 9.4623 10.7253 9.45095 10.7456 9.43073C10.7659 9.4105 10.7774 9.38306 10.7776 9.35438V8.25363C10.7776 8.22486 10.7662 8.19726 10.7458 8.17691C10.7255 8.15656 10.6979 8.14513 10.6691 8.14513H9.43359C9.40497 8.14513 9.37752 8.1565 9.35728 8.17674C9.33704 8.19698 9.32567 8.22443 9.32567 8.25305V9.35438C9.32567 9.41388 9.37351 9.4623 9.43359 9.4623ZM7.72442 9.4623H8.96109C8.98961 9.46214 9.01691 9.45071 9.03702 9.43048C9.05713 9.41026 9.06842 9.3829 9.06842 9.35438V8.25363C9.0685 8.23946 9.06578 8.22541 9.06043 8.21229C9.05508 8.19917 9.04719 8.18723 9.03723 8.17715C9.02726 8.16708 9.01541 8.15906 9.00234 8.15357C8.98928 8.14808 8.97526 8.14521 8.96109 8.14513H7.72442C7.6959 8.14529 7.6686 8.15672 7.64849 8.17695C7.62838 8.19717 7.61709 8.22453 7.61709 8.25305V9.35438C7.61709 9.41388 7.66551 9.4623 7.72501 9.4623M5.99601 9.4623H7.23209C7.26071 9.4623 7.28816 9.45093 7.3084 9.43069C7.32864 9.41045 7.34001 9.383 7.34001 9.35438V8.25363C7.34008 8.23946 7.33737 8.22541 7.33202 8.21229C7.32666 8.19917 7.31878 8.18723 7.30881 8.17715C7.29884 8.16708 7.28699 8.15906 7.27393 8.15357C7.26086 8.14808 7.24685 8.14521 7.23267 8.14513H5.99601C5.96723 8.14513 5.93963 8.15656 5.91929 8.17691C5.89894 8.19726 5.88751 8.22486 5.88751 8.25363V9.35438C5.88751 9.41388 5.93651 9.4623 5.99601 9.4623ZM4.29268 9.4623H5.52934C5.55786 9.46214 5.58516 9.45071 5.60527 9.43048C5.62539 9.41026 5.63668 9.3829 5.63667 9.35438V8.25363C5.63675 8.23946 5.63404 8.22541 5.62868 8.21229C5.62333 8.19917 5.61545 8.18723 5.60548 8.17715C5.59551 8.16708 5.58366 8.15906 5.5706 8.15357C5.55753 8.14808 5.54351 8.14521 5.52934 8.14513H4.29268C4.26416 8.14529 4.23686 8.15672 4.21674 8.17695C4.19663 8.19717 4.18534 8.22453 4.18534 8.25305V9.35438C4.18534 9.41388 4.23259 9.4623 4.29268 9.4623ZM16.8617 8.7693C16.8238 8.73955 16.4697 8.4718 15.7219 8.4718C15.5248 8.47238 15.3276 8.4893 15.1328 8.52255C14.9881 7.53088 14.1685 7.04672 14.1318 7.02572L13.9311 6.90963L13.7993 7.10038C13.6336 7.35588 13.5134 7.63822 13.4423 7.93455C13.3081 8.50038 13.3898 9.03238 13.6773 9.4868C13.3303 9.68046 12.7732 9.72771 12.66 9.7318H3.43809C3.32231 9.73195 3.2113 9.77793 3.12932 9.8597C3.04733 9.94146 3.00106 10.0523 3.00059 10.1681C2.98979 10.976 3.12659 11.779 3.40426 12.5376C3.72218 13.3706 4.19468 13.9843 4.81009 14.36C5.49842 14.7817 6.61842 15.0232 7.88717 15.0232C8.46059 15.025 9.03226 14.973 9.59634 14.868C10.3797 14.7241 11.1334 14.4503 11.8264 14.0578C12.3981 13.727 12.9114 13.3065 13.3489 12.8118C14.0793 11.9846 14.5144 11.0635 14.8382 10.2451H14.9671C15.7674 10.2451 16.2592 9.92488 16.5304 9.65655C16.7107 9.48563 16.8512 9.27738 16.9428 9.04638L17 8.87838L16.8617 8.7693Z" fill="white"/>
</svg>
