<svg width="20" height="20" viewBox="0 0 20 20" fill="none" xmlns="http://www.w3.org/2000/svg">
<path d="M7.00872 8.97042C6.99377 9.45516 7.23508 9.66871 7.24148 9.80537C7.23867 9.83316 7.22926 9.85986 7.21403 9.88326C7.1988 9.90667 7.17819 9.92609 7.15393 9.93991L6.8806 10.1321C6.84534 10.1566 6.80389 10.1706 6.76101 10.1727C6.75247 10.1727 6.58591 10.2111 6.32325 9.626C6.16327 9.82604 5.95962 9.98682 5.72791 10.096C5.4962 10.2052 5.24258 10.2599 4.98646 10.256C4.63838 10.2752 3.69666 10.0595 3.74577 9.05584C3.7116 8.23796 4.47396 7.72973 5.2598 7.77244C5.41141 7.77244 5.72105 7.78098 6.26345 7.90697V7.57384C6.32111 7.00795 5.94954 6.57018 5.30678 6.63638C5.25553 6.63638 4.8925 6.62571 4.32875 6.85206C4.17072 6.92467 4.1515 6.91186 4.09812 6.91186C3.9401 6.91186 4.00416 6.45274 4.03619 6.39508C4.14723 6.25841 4.80281 6.00216 5.44345 6.00643C5.87305 5.96861 6.3003 6.10131 6.63288 6.37586C6.76827 6.52713 6.87157 6.70428 6.93654 6.89661C7.0015 7.08894 7.02679 7.29245 7.01086 7.49483V8.97469L7.00872 8.97042ZM5.1637 9.6623C5.85558 9.65162 6.15028 9.23521 6.21647 9.01099C6.26986 8.79531 6.26132 8.66078 6.26132 8.42588C6.05418 8.37677 5.75735 8.32124 5.41568 8.32124C5.0911 8.29776 4.50172 8.44083 4.52521 9.01099C4.49958 9.36974 4.76224 9.68152 5.16584 9.6623H5.1637ZM8.81317 10.1556C8.64447 10.1705 8.56759 10.051 8.54197 9.9335L7.47852 6.41643C7.45716 6.35664 7.44435 6.29471 7.43795 6.23279C7.43583 6.21987 7.43631 6.20666 7.43937 6.19393C7.44243 6.1812 7.448 6.16921 7.45576 6.15867C7.46352 6.14812 7.47331 6.13923 7.48455 6.13253C7.49579 6.12582 7.50826 6.12143 7.52123 6.11961C7.5255 6.11961 7.47638 6.11961 7.99743 6.11961C8.18535 6.10039 8.24514 6.24773 8.2665 6.34169L9.02885 9.34839L9.73781 6.34169C9.74849 6.27336 9.79974 6.10466 10.0111 6.12388H10.3784C10.4254 6.11961 10.6155 6.1132 10.6496 6.34596L11.3629 9.3911L12.1466 6.34596C12.1573 6.29898 12.2042 6.10252 12.4178 6.12388H12.8385C12.8577 6.12174 12.9709 6.10679 12.9516 6.30753C12.9431 6.3481 13.0243 6.07903 11.8241 9.93564C11.7985 10.0531 11.7216 10.1727 11.5529 10.1577H11.1536C10.9208 10.1833 10.8867 9.95058 10.8824 9.92709L10.1756 6.99941L9.47515 9.92496C9.47088 9.94845 9.43885 10.1791 9.20395 10.1556H8.81317ZM14.6536 10.2752C14.5276 10.2752 13.9297 10.2688 13.4279 10.0125C13.3781 9.99139 13.3357 9.95596 13.306 9.91073C13.2764 9.86549 13.2608 9.81248 13.2613 9.75839V9.52777C13.2613 9.34626 13.3937 9.38042 13.4492 9.40178C13.6627 9.48933 13.8016 9.55339 14.0642 9.60678C14.8479 9.76694 15.1917 9.55766 15.275 9.51068C15.5569 9.34412 15.5782 8.96188 15.3882 8.76328C15.164 8.57536 15.0572 8.56896 14.2543 8.31484C14.156 8.28708 13.3211 8.02442 13.3189 7.19587C13.3061 6.59367 13.8549 5.99575 14.8031 6.00002C15.0743 6.00002 15.7939 6.08758 15.9904 6.33315C16.0203 6.378 16.0331 6.43138 16.031 6.48263V6.69831C16.031 6.79227 15.9968 6.84139 15.9263 6.84139C15.7619 6.82217 15.4693 6.60222 14.8757 6.61076C14.7283 6.60222 14.0236 6.62998 14.0557 7.14462C14.0471 7.55035 14.6237 7.70197 14.6899 7.71905C15.4693 7.95395 15.7299 7.99239 16.0374 8.35114C16.4025 8.82734 16.2061 9.38256 16.1313 9.53417C15.7234 10.335 14.6707 10.2688 14.6515 10.2688L14.6536 10.2752ZM15.512 12.5152C14.0172 13.6193 11.8455 14.2086 9.99193 14.2086C7.49049 14.2249 5.07346 13.3048 3.21618 11.629C3.07738 11.503 3.1991 11.3301 3.36993 11.4262C5.43048 12.6047 7.7634 13.2238 10.1371 13.2221C11.9099 13.2123 13.6632 12.8523 15.2964 12.1629C15.5483 12.0561 15.7619 12.3295 15.512 12.5131V12.5152ZM16.1356 11.8041C15.9434 11.5586 14.8693 11.6888 14.3888 11.7465C14.2436 11.7636 14.2201 11.6376 14.3504 11.5436C15.2067 10.9414 16.6118 11.1144 16.7719 11.3173C16.9342 11.5201 16.7271 12.9274 15.9263 13.6C15.8025 13.7047 15.685 13.6492 15.7405 13.5125C15.9199 13.0576 16.3256 12.0497 16.1335 11.8041H16.1356Z" fill="white"/>
</svg>
