<svg width="20" height="20" viewBox="0 0 20 20" fill="none" xmlns="http://www.w3.org/2000/svg">
<g clip-path="url(#clip0_322_127)">
<path d="M11.1439 8.25571H10.6539V7.37021H9.93407V9.50696H6.3384C6.53674 9.80854 6.65224 10.0798 6.65224 10.179C6.65224 10.4473 5.80932 11.9634 4.78732 11.9634C3.46724 11.999 2.56599 10.4665 3.21757 9.33196C3.37058 9.04889 3.59721 8.81241 3.87351 8.64751C4.14982 8.48261 4.46555 8.39541 4.78732 8.39513C5.39399 8.39513 5.93707 8.92888 6.2789 9.41888V6.83646C6.27952 6.25345 6.51144 5.6945 6.92374 5.2823C7.33605 4.87011 7.89506 4.63834 8.47807 4.63788H14.8014C16.0147 4.63788 17.0006 5.62488 17.0006 6.83646V13.1627C17 13.7457 16.768 14.3047 16.3557 14.7169C15.9434 15.1291 15.3844 15.3608 14.8014 15.3613H13.8681V13.2082H9.4114V15.3619H8.47807C7.89506 15.3614 7.33605 15.1296 6.92374 14.7175C6.51144 14.3053 6.27952 13.7463 6.2789 13.1633V11.1741H13.3454V7.37079H12.4179V7.89171H11.9279V7.37079H11.1439V8.25513V8.25571ZM5.33624 9.33196C4.95007 8.92188 4.41574 9.01463 4.04765 9.33196C2.81974 10.5301 4.82815 12.5712 5.97382 10.176C5.81044 9.86072 5.59487 9.57533 5.33624 9.33196Z" fill="white"/>
</g>
<defs>
<clipPath id="clip0_322_127">
<rect width="14" height="14" fill="white" transform="translate(3.00049 2.99988)"/>
</clipPath>
</defs>
</svg>
