<svg width="20" height="20" viewBox="0 0 20 20" fill="none" xmlns="http://www.w3.org/2000/svg">
<path d="M14.7099 8.72527C14.159 6.59718 12.2577 5.02002 10 5.02002C7.74228 5.02002 5.84105 6.59718 5.29012 8.72527C4.16667 9.71909 3.36728 11.0262 3 12.4737C3.79938 12.1929 4.62037 11.966 5.46296 11.8148C6.17592 13.6728 7.93673 14.9799 10 14.9799C12.0741 14.9799 13.8349 13.6728 14.537 11.8148C15.4444 11.9876 16.2654 12.2037 17 12.4737C16.6327 11.0262 15.8333 9.71909 14.7099 8.72527ZM8.49846 8.63885C8.28241 9.34101 7.64506 9.75151 7.08333 9.56786C6.5108 9.38422 6.22994 8.68206 6.43518 7.9799C6.64043 7.27774 7.28858 6.86724 7.85031 7.05089C8.41204 7.22373 8.7037 7.94749 8.49846 8.63885ZM12.8951 9.56786C12.3225 9.75151 11.696 9.33021 11.4799 8.63885C11.2639 7.93669 11.5556 7.23453 12.1281 7.05089C12.7006 6.86724 13.3272 7.28854 13.5432 7.9799C13.7701 8.68206 13.4784 9.38422 12.8951 9.56786Z" fill="white"/>
</svg>
