<svg width="20" height="20" viewBox="0 0 20 20" fill="none" xmlns="http://www.w3.org/2000/svg">
<path d="M10.1953 1.86621L17.0488 5.83789L17.1729 5.90918V6.42871L13.7148 8.42676V11.3711L16.6699 9.66699L16.7939 9.5957L16.918 9.66602L17.25 9.85254V14.1367L17.2188 14.1934L17.1543 14.3086L17.1211 14.3691L17.0605 14.4033L10.208 18.3613L10.1504 18.3955H9.87598L9.81738 18.3623L2.95215 14.417L2.8916 14.3818L2.8584 14.3213L2.79395 14.2061L2.7627 14.1494V14.085L2.75 6.16895V6.10449L2.78125 6.04785L2.8457 5.93262L2.87891 5.87207L2.93848 5.83691L9.80469 1.86621L9.8623 1.83301H10.1377L10.1953 1.86621ZM3.92188 14.083L9.62793 17.3672V14.1895L6.67578 12.4902L3.92188 14.083ZM10.3975 14.1904V17.3662L16.4814 13.8496V10.6748L10.3975 14.1904ZM7.44629 12.0469L10.0059 13.5137L12.5654 12.0469L10.0059 10.5684L7.44629 12.0469ZM3.53125 13.4199L6.27246 11.834V8.41406L3.51855 6.83105L3.53125 13.4199ZM10.3848 9.89355L12.9453 11.3828V8.42676L10.3848 6.94727V9.89355ZM7.05469 8.42676V11.3711L9.61523 9.8916V6.94727L7.05469 8.42676ZM3.91113 6.16797L6.6748 7.75L9.61523 6.0498V2.87402L3.91113 6.16797ZM10.3848 6.0498L13.3359 7.75L16.0889 6.15625L10.3848 2.87305V6.0498Z" fill="white"/>
</svg>
