<svg width="20" height="20" viewBox="0 0 20 20" fill="none" xmlns="http://www.w3.org/2000/svg">
<path d="M7.24854 14.6444H6.6499L6.27686 12.3094L5.13135 14.8221L4.01904 12.3065L3.60303 14.6444H2.99951L3.81396 10.4852L5.14209 13.4921L6.51709 10.4852L7.24854 14.6444ZM8.65186 10.7762C8.91035 10.7763 9.11645 10.7958 9.27002 10.8358C9.42523 10.8759 9.55673 10.9439 9.66357 11.0389C9.77211 11.1375 9.8589 11.2602 9.92236 11.4071C9.98748 11.5557 10.02 11.7063 10.02 11.8583C10.02 12.1355 9.91367 12.3703 9.70166 12.5624C9.90687 12.6325 10.0685 12.7554 10.187 12.9305C10.3073 13.1042 10.3677 13.3065 10.3677 13.537C10.3677 13.8392 10.2611 14.0948 10.0474 14.3036C9.91875 14.4322 9.77411 14.522 9.61377 14.5721C9.4384 14.6206 9.21846 14.6444 8.95459 14.6444H8.0708V10.7762H8.65186ZM13.2417 11.3251H11.6909V12.2548H13.1968V12.8026H11.6909V14.0956H13.2417V14.6444H11.1069V10.7762H13.2417V11.3251ZM14.8198 10.7762C15.2089 10.7762 15.5162 10.8147 15.7417 10.8915C15.9838 10.9666 16.2038 11.094 16.4009 11.2743C16.8 11.6383 16.9994 12.1171 16.9995 12.7098C16.9995 13.3044 16.7914 13.7857 16.3755 14.1532C16.1667 14.3369 15.9481 14.4652 15.7192 14.537C15.5055 14.6088 15.2024 14.6444 14.8101 14.6444H14.0083V10.7762H14.8198ZM8.65381 14.0956H9.01514C9.27893 14.0956 9.47262 14.0438 9.59619 13.9403C9.72643 13.8284 9.79149 13.6865 9.7915 13.5145C9.7915 13.3476 9.72915 13.2072 9.604 13.0936C9.48208 12.9817 9.26371 12.9257 8.94971 12.9257H8.65381V14.0956ZM14.5923 14.0956H14.855C15.1172 14.0956 15.3356 14.0677 15.5093 14.0126C15.6827 13.9541 15.8398 13.862 15.98 13.7352C16.2673 13.473 16.4106 13.1307 16.4106 12.7098C16.4105 12.2858 16.2687 11.9414 15.9849 11.6776C15.7293 11.4422 15.3526 11.3251 14.855 11.3251H14.5923V14.0956ZM8.65381 12.4374H8.8374C9.05417 12.4373 9.21281 12.3898 9.31299 12.2948C9.41487 12.1979 9.46631 12.0551 9.46631 11.868C9.46623 11.6863 9.41438 11.5484 9.31104 11.455C9.20753 11.3598 9.05683 11.3124 8.85986 11.3124H8.65381V12.4374ZM4.89014 5.17761C5.34324 5.17761 5.75005 5.36404 6.10986 5.73718V5.28503H7.01318V9.17957H6.10986V8.77136C5.73949 9.11776 5.34087 9.29178 4.91455 9.29187C4.37616 9.29187 3.93043 9.09702 3.57861 8.70789C3.22951 8.31078 3.05519 7.81488 3.05518 7.22058C3.05518 6.63705 3.22966 6.15067 3.57861 5.7616C3.92775 5.37248 4.36511 5.17763 4.89014 5.17761ZM9.95166 5.17761C10.1887 5.17763 10.4365 5.25466 10.6948 5.40906L10.2837 6.23328C10.1131 6.11068 9.94627 6.04871 9.78369 6.04871C9.29338 6.04871 9.04844 6.41938 9.04834 7.16003V9.17957H8.14893V5.28503H9.04834V5.63367C9.21359 5.46042 9.35986 5.34119 9.48779 5.27722C9.61838 5.21061 9.77312 5.17761 9.95166 5.17761ZM15.3647 5.17761C16.2415 5.17761 16.6801 5.70912 16.6802 6.77234V9.17957H15.7769V7.01648C15.7768 6.64338 15.7317 6.37906 15.6411 6.22449C15.5479 6.0674 15.3942 5.9892 15.1812 5.98914C14.9333 5.98914 14.7518 6.08284 14.6372 6.26941C14.5254 6.456 14.4692 6.75594 14.4692 7.16882V9.17957H13.5659V7.0282C13.5659 6.33562 13.3658 5.9893 12.9663 5.98914C12.7131 5.98914 12.5279 6.08408 12.4106 6.27332C12.2961 6.46256 12.2388 6.76113 12.2388 7.16882V9.17957H11.3394V5.28503H12.2388V5.64539C12.412 5.46421 12.5596 5.34117 12.6821 5.27722C12.8127 5.21061 12.9771 5.17761 13.1743 5.17761C13.6138 5.17773 13.9615 5.36934 14.2173 5.75281C14.4998 5.36916 14.8824 5.17762 15.3647 5.17761ZM5.05811 5.98914C4.74905 5.98914 4.49057 6.10632 4.28271 6.3407C4.07749 6.57791 3.9751 6.87143 3.9751 7.22058C3.97511 7.59368 4.07502 7.89719 4.2749 8.13171C4.48013 8.36892 4.73845 8.48816 5.05029 8.48816C5.38332 8.48812 5.65273 8.37351 5.85791 8.14441C6.06314 7.9072 6.16553 7.60526 6.16553 7.24011C6.16546 6.87514 6.06307 6.57392 5.85791 6.33679C5.65268 6.10491 5.38594 5.98914 5.05811 5.98914Z" fill="white"/>
</svg>
