<svg width="20" height="20" viewBox="0 0 20 20" fill="none" xmlns="http://www.w3.org/2000/svg">
<path d="M8.96988 3.99967C8.75859 4.00076 8.5478 4.02017 8.33987 4.05767C6.16787 4.45517 4.63986 6.33518 4.50936 7.57318C4.44636 8.18069 4.77436 8.63569 4.95436 8.83619C5.44286 9.37869 6.41637 9.79319 7.04187 10.1367C6.13687 10.9082 5.72186 11.2847 5.31336 11.7137C4.70136 12.3557 4.27136 13.0622 4.26986 13.5687C4.26986 13.7312 4.24336 14.2512 4.45536 14.6622C4.53536 14.8167 4.76186 15.3312 5.44536 15.7167C5.88236 15.9637 6.50487 16.0542 7.11387 15.9672C8.99988 15.6982 11.5254 14.0987 13.3274 12.6092C14.4759 11.6592 15.3159 10.7397 15.5584 10.2872C15.7534 9.92169 15.7754 9.26569 15.6619 8.85419C15.3394 7.68568 12.7184 5.29168 10.5759 4.32867C10.0698 4.10681 9.52244 3.99468 8.96988 3.99967ZM8.96588 4.03367C9.54508 4.02689 10.1178 4.1562 10.6379 4.41117C12.3679 5.26118 15.2919 7.65218 15.5074 8.85419C15.7744 10.3402 10.5419 14.3627 7.35887 14.9902C6.12387 15.2327 5.07086 15.2992 4.59036 13.9952C4.17436 12.8642 4.98186 12.0372 6.17037 10.9502C6.65454 10.5104 7.14799 10.081 7.65037 9.66219C7.68287 9.62769 4.79736 8.63269 4.70536 7.49068C4.61036 6.31668 6.46887 4.14967 8.84838 4.03767C8.88838 4.03567 8.92688 4.03417 8.96588 4.03367ZM8.90988 4.29367C8.82534 4.29522 8.74093 4.30055 8.65687 4.30967C7.48837 4.43217 7.26437 4.58317 6.20537 5.38418C5.85036 5.65268 5.19736 6.30618 5.03036 7.08068C4.96636 7.37568 5.04236 7.63068 5.25436 7.80968C5.93436 8.38169 7.07387 8.84569 8.00887 9.29469C8.28237 9.42619 8.10137 9.66469 7.65987 10.0472C6.54637 11.0112 5.03986 12.1852 4.93486 13.0802C4.88536 13.5012 5.02986 14.0742 5.54136 14.3672C6.13887 14.7097 7.37937 14.4862 8.20787 14.1777C9.41888 13.7267 11.0089 12.7317 12.2714 11.7537C13.5839 10.7367 14.8049 9.44519 14.8654 9.23469C14.9394 8.97619 14.9319 8.73669 14.7884 8.46169C14.5644 8.03069 14.2639 7.71018 13.9414 7.35168C13.0754 6.43918 12.1599 5.63668 11.0644 5.02268C10.3469 4.62067 9.70838 4.28167 8.90988 4.29367ZM9.44738 6.10518C9.72038 6.10518 10.0354 6.19168 10.3739 6.35518C11.2179 6.76368 12.0849 7.83569 10.3664 8.45269C9.89888 8.62069 8.41637 8.04069 8.46137 7.24918C8.50637 6.46418 8.88838 6.10468 9.44738 6.10518ZM9.58988 6.78868C9.43138 6.78768 9.30238 6.82818 9.24288 6.92018C8.96438 7.35068 9.09138 7.65618 9.34888 7.85119C9.44488 7.62268 10.4269 7.87269 10.4229 8.08719C10.4326 8.08278 10.4418 8.07742 10.4504 8.07119C11.3024 7.43018 10.2139 6.79268 9.58988 6.78868Z" fill="white"/>
</svg>
