<svg width="20" height="20" viewBox="0 0 20 20" fill="none" xmlns="http://www.w3.org/2000/svg">
<path d="M7.676 4.79639L6.994 4.79739L6.66 5.37539L7.4385 6.73189L5.87 6.72789L5.21 7.89789H11.055L10.3785 6.73189L8.7825 6.72889L7.6755 4.79639H7.676ZM10.7635 4.79639L9.42 4.80889L12.343 9.87239L13.0135 8.70239L12.2185 7.31989L13.3385 5.39489L12.997 4.80389H12.329L11.544 6.15639L10.7635 4.79639ZM14.207 6.89389L11.284 11.9564L12.632 11.9524L13.4325 10.5724L15.659 10.5804L16 9.98889L15.667 9.41039L14.102 9.40639L14.889 8.05039L14.207 6.89389ZM8.716 8.04339L7.368 8.04739L6.5675 9.42739L4.341 9.41939L4 10.0104L4.333 10.5889L5.898 10.5929L5.1105 11.9479L5.793 13.1054L8.716 8.04339ZM7.665 10.1254L7.662 10.1304L7.661 10.1284L6.99 11.2984L7.785 12.6809L6.665 14.6059L7.007 15.1969H7.675L7.677 15.1939L8.461 13.8449L9.24 15.2049L10.584 15.1919L10.582 15.1889H10.587L7.665 10.1254ZM8.94 12.0904L9.617 13.2564L11.213 13.2594L12.3205 15.1919L13.002 15.1909L13.336 14.6129L12.5575 13.2564L14.126 13.2604L14.786 12.0904H8.94Z" fill="white"/>
</svg>
