<svg width="20" height="20" viewBox="0 0 20 20" fill="none" xmlns="http://www.w3.org/2000/svg">
<g clip-path="url(#clip0_318_155)">
<path d="M12.6709 4.00005C12.1861 4.00355 11.7223 4.1986 11.3807 4.54268C11.0391 4.88676 10.8474 5.35195 10.8474 5.8368C10.8474 6.07802 10.8949 6.31688 10.9872 6.53974C11.0795 6.7626 11.2147 6.9651 11.3853 7.13566C11.5559 7.30623 11.7584 7.44151 11.9813 7.5338C12.2041 7.62608 12.443 7.67355 12.6842 7.6735C12.926 7.67354 13.1654 7.62584 13.3887 7.53314C13.612 7.44043 13.8148 7.30455 13.9855 7.13329C14.1562 6.96203 14.2914 6.75875 14.3833 6.53512C14.4752 6.31149 14.5221 6.07191 14.5212 5.83012C14.5204 5.58834 14.4718 5.3491 14.3782 5.12614C14.2847 4.90318 14.148 4.70089 13.9761 4.53086C13.8042 4.36083 13.6004 4.22642 13.3765 4.13533C13.1525 4.04424 12.9127 3.99827 12.6709 4.00005ZM6.31164 4.08C6.13122 4.07989 5.95254 4.11535 5.78583 4.18435C5.61912 4.25334 5.46764 4.35452 5.34006 4.48209C5.21247 4.60967 5.11129 4.76114 5.04228 4.92784C4.97327 5.09455 4.9378 5.27323 4.93789 5.45365V14.5371C4.9352 14.7192 4.96874 14.9 5.03656 15.069C5.10438 15.238 5.20513 15.3919 5.33294 15.5216C5.46075 15.6513 5.61308 15.7543 5.78107 15.8246C5.94905 15.8949 6.12934 15.9311 6.31144 15.9311C6.49355 15.9311 6.67384 15.8949 6.84182 15.8246C7.00981 15.7543 7.16213 15.6513 7.28995 15.5216C7.41776 15.3919 7.51851 15.238 7.58633 15.069C7.65415 14.9 7.68769 14.7192 7.68499 14.5371V5.45355C7.68474 5.08937 7.53998 4.74018 7.28248 4.48265C7.02499 4.22512 6.67582 4.0803 6.31164 4.08ZM9.78634 7.6839C9.53662 7.68373 9.29165 7.7521 9.0781 7.88155C8.86455 8.011 8.69062 8.19657 8.57526 8.41805C8.4599 8.63953 8.40753 8.88842 8.42385 9.1376C8.44018 9.38679 8.52457 9.62672 8.66784 9.83125L12.5732 15.4083C12.6753 15.5568 12.8057 15.6836 12.9571 15.7813C13.1084 15.8791 13.2776 15.946 13.4549 15.978C13.6322 16.0101 13.8141 16.0067 13.9901 15.968C14.1661 15.9294 14.3327 15.8563 14.4803 15.753C14.6279 15.6496 14.7535 15.518 14.85 15.3659C14.9465 15.2137 15.0119 15.0439 15.0424 14.8663C15.0729 14.6888 15.0679 14.5069 15.0278 14.3313C14.9877 14.1556 14.9131 13.9896 14.8085 13.8429L10.9031 8.26555C10.7774 8.08603 10.6102 7.93944 10.4158 7.83818C10.2214 7.73693 10.0055 7.68404 9.78634 7.6839Z" fill="white"/>
</g>
<defs>
<clipPath id="clip0_318_155">
<rect width="12" height="12" fill="white" transform="translate(4 4)"/>
</clipPath>
</defs>
</svg>
