<svg width="20" height="20" viewBox="0 0 20 20" fill="none" xmlns="http://www.w3.org/2000/svg">
<path d="M14.5266 8.17932C14.9796 8.03323 15.4649 8.28036 15.6105 8.73107C15.756 9.1817 15.5068 9.66565 15.0539 9.81213C14.9896 9.83262 14.9229 9.84516 14.8557 9.85022L13.9318 12.7213C14.4081 12.9731 14.7907 13.402 14.9689 13.9537C15.333 15.0807 14.7091 16.2909 13.5764 16.6569C12.6627 16.9519 11.6968 16.608 11.1662 15.8727L11.7433 15.4791C12.1039 15.9668 12.7507 16.1932 13.3625 15.9957C14.1281 15.7484 14.55 14.9303 14.3039 14.1686C14.1267 13.6201 13.6054 13.2471 13.0676 13.1754L14.2316 9.651C14.1094 9.54848 14.0191 9.41312 13.9699 9.26135C13.8243 8.81056 14.0734 8.32571 14.5266 8.17932ZM5.8078 13.693C5.45655 14.1892 5.4427 14.8745 5.82147 15.3922C6.29564 16.0401 7.20572 16.1808 7.8537 15.7067C8.32025 15.3653 8.51271 14.753 8.41327 14.2203L12.1301 14.2106C12.1896 14.062 12.29 13.933 12.4191 13.8385C12.8026 13.5582 13.3408 13.6416 13.6213 14.025C13.9018 14.4085 13.8182 14.9466 13.4348 15.2272C13.0514 15.5076 12.5132 15.4248 12.2326 15.0416C12.1931 14.9872 12.1598 14.9279 12.134 14.8658L9.11444 14.8961C9.0235 15.4275 8.73427 15.9257 8.26483 16.2692C7.30607 16.9705 5.9604 16.7621 5.25897 15.8033C4.69329 15.0301 4.7197 14.0048 5.25409 13.2692L5.8078 13.693ZM3.40839 7.59338C3.96974 6.82416 4.95282 6.54266 5.81659 6.83068L5.58417 7.484C5.00438 7.29836 4.34871 7.49041 3.97284 8.00549C3.50263 8.65007 3.64814 9.5576 4.29804 10.0319C4.7661 10.3733 5.40805 10.3727 5.88397 10.1188L7.03534 13.65C7.1951 13.6623 7.3483 13.7186 7.47772 13.8131C7.86222 14.0938 7.94825 14.6299 7.67011 15.0113C7.39175 15.3928 6.85458 15.4747 6.46991 15.194C6.08531 14.9133 5.99922 14.3772 6.27753 13.9957C6.31718 13.9418 6.36311 13.8924 6.41425 13.8492L5.45624 10.9879C4.90247 11.0635 4.34077 10.9216 3.88983 10.5914C2.92813 9.8897 2.71255 8.54712 3.40839 7.59338ZM10.0207 4.61877C10.4985 4.61893 10.8857 5.00629 10.8859 5.484C10.8859 5.55328 10.8769 5.6207 10.8615 5.68518L13.3312 7.45373C13.7206 7.07645 14.2511 6.84347 14.8361 6.84338C16.0312 6.84338 17.0001 7.81252 17.0002 9.00744C17.0002 9.97145 16.3701 10.7881 15.4992 11.068L15.301 10.3951C15.8811 10.2011 16.299 9.65291 16.299 9.00744C16.2989 8.19979 15.6438 7.54553 14.8361 7.54553C14.2546 7.54572 13.7348 7.92804 13.4992 8.41955L10.4758 6.21936C10.3435 6.30153 10.1879 6.35016 10.0207 6.35022C9.54267 6.35022 9.15448 5.96208 9.15448 5.484C9.15473 5.00619 9.54282 4.61877 10.0207 4.61877ZM7.89862 4.74182C8.25947 3.60582 9.47262 2.97785 10.6086 3.3385C11.5249 3.62957 12.1113 4.47496 12.1144 5.38732L11.4152 5.37268C11.4058 4.7627 11.011 4.19945 10.3976 4.00451C9.62968 3.76056 8.80952 4.18583 8.56561 4.95373C8.38998 5.50659 8.59627 6.11635 8.99237 6.48889L5.98847 8.69885C6.02824 8.8544 6.02338 9.01847 5.97479 9.1715C5.83032 9.62567 5.34508 9.87623 4.89081 9.73205C4.43642 9.58773 4.18491 9.10252 4.32929 8.64807C4.47372 8.19381 4.95892 7.9422 5.41327 8.08654C5.47754 8.10721 5.53914 8.13551 5.59686 8.17053L8.02362 6.35705C7.81264 5.93333 7.73949 5.4401 7.84296 4.9508L7.89862 4.74182Z" fill="white"/>
</svg>
