<svg width="20" height="20" viewBox="0 0 20 20" fill="none" xmlns="http://www.w3.org/2000/svg">
<path d="M5.14092 6.58166C5.14092 6.58166 4.06177 7.61414 4.00344 8.70496V8.90912C4.05011 9.78994 4.7151 10.3091 4.7151 10.3091C5.78258 11.3533 8.36671 12.6657 8.97337 12.9632C8.97337 12.9632 9.00837 12.9807 9.0317 12.9574L9.04337 12.9341V12.9107C7.38672 9.29995 5.14092 6.58166 5.14092 6.58166ZM8.62921 13.8499C8.61754 13.8032 8.57087 13.8032 8.57087 13.8032L4.26594 13.9549C4.7326 14.789 5.52009 15.4307 6.34257 15.2382C6.90256 15.0924 8.18588 14.1999 8.60587 13.8966C8.64087 13.8674 8.62921 13.8441 8.62921 13.8441V13.8499ZM8.67587 13.3949C6.7859 12.1174 3.12262 10.1633 3.12262 10.1633C3.03512 10.4316 3.00596 10.6883 3.00012 10.9216V10.9624C3.00012 11.5866 3.23345 12.0241 3.23345 12.0241C3.70011 13.0099 4.59843 13.3074 4.59843 13.3074C5.00676 13.4824 5.41509 13.4882 5.41509 13.4882C5.48509 13.4999 7.98172 13.4882 8.64671 13.4882C8.67587 13.4882 8.69337 13.4591 8.69337 13.4591V13.4241C8.69337 13.4066 8.67587 13.3949 8.67587 13.3949ZM8.28504 4.86085C7.87146 4.96645 7.50265 5.20192 7.23281 5.53266C6.96297 5.86339 6.80633 6.27196 6.7859 6.69832V6.93749C6.8034 7.28748 6.87923 7.54998 6.87923 7.54998C7.26423 9.24162 9.13087 12.0124 9.53336 12.5957C9.56253 12.6249 9.59169 12.6132 9.59169 12.6132C9.60289 12.6084 9.6123 12.6002 9.61858 12.5897C9.62485 12.5792 9.62769 12.5671 9.62669 12.5549C10.245 6.37166 8.9792 4.72668 8.9792 4.72668C8.79254 4.73835 8.28504 4.86085 8.28504 4.86085ZM13.1261 6.185C13.1261 6.185 12.8402 5.13501 11.7027 4.85502C11.7027 4.85502 11.3702 4.77335 11.0203 4.72668C11.0203 4.72668 9.74861 6.36583 10.3669 12.5607C10.3728 12.6016 10.4019 12.6074 10.4019 12.6074C10.4428 12.6249 10.4603 12.5899 10.4603 12.5899C10.8803 11.9891 12.7352 9.22995 13.1144 7.54998C13.1144 7.54998 13.3244 6.73332 13.1261 6.185ZM11.4227 13.8091C11.4227 13.8091 11.3819 13.8091 11.3702 13.8382C11.3702 13.8382 11.3644 13.8791 11.3877 13.8966C11.7961 14.194 13.0502 15.0632 13.651 15.2382C13.651 15.2382 13.7444 15.2674 13.9019 15.2732H13.9835C14.386 15.2615 15.0919 15.0574 15.7335 13.9549L11.4169 13.8091H11.4227ZM15.9902 8.90329C16.0718 7.70164 14.8585 6.58749 14.8585 6.58166C14.8585 6.58166 12.6127 9.29995 10.9678 12.8816C10.9678 12.8816 10.9503 12.9282 10.9794 12.9574L11.0028 12.9632H11.0378C11.6561 12.6541 14.2227 11.3474 15.2844 10.3149C15.2844 10.3149 15.9552 9.77244 15.9902 8.90329ZM16.8768 10.1516C16.8768 10.1516 13.2136 12.1174 11.3236 13.3891C11.3236 13.3891 11.2944 13.4124 11.3061 13.4532C11.3061 13.4532 11.3236 13.4882 11.3469 13.4882C12.0236 13.4882 14.5902 13.4882 14.6544 13.4766C14.6544 13.4766 14.9869 13.4649 15.3952 13.3074C15.3952 13.3074 16.3052 13.0157 16.7777 11.9832C16.7777 11.9832 17.2035 11.1374 16.8768 10.1516Z" fill="white"/>
</svg>
