<svg width="20" height="20" viewBox="0 0 20 20" fill="none" xmlns="http://www.w3.org/2000/svg">
<path d="M9.9775 4.24501C8.3901 4.25096 6.86975 4.88573 5.7494 6.0103C4.62904 7.13487 3.99999 8.6576 4 10.245C3.99998 11.3721 4.31743 12.4765 4.916 13.4315L9.919 6.96401C9.9272 6.95336 9.93901 6.94451 9.95323 6.93836C9.96745 6.93221 9.98358 6.92897 10 6.92897C10.0164 6.92897 10.0326 6.93221 10.0468 6.93836C10.061 6.94451 10.0728 6.95336 10.081 6.96401L15.084 13.4315C15.6826 12.4765 16 11.3721 16 10.245C16 8.65371 15.3679 7.12758 14.2426 6.00236C13.1174 4.87715 11.5913 4.24501 10 4.24501C9.9925 4.24499 9.985 4.24499 9.9775 4.24501ZM10.165 7.47851L12.373 15.755C13.4104 15.3086 14.3006 14.5784 14.9415 13.6485L10.165 7.47851Z" fill="white"/>
</svg>
