<svg width="20" height="20" viewBox="0 0 20 20" fill="none" xmlns="http://www.w3.org/2000/svg">
<path d="M8.208 14.567C7.72365 14.567 7.2611 14.287 7.05125 13.8163L4.10965 7.20964C3.8256 6.57134 4.1124 5.82334 4.7507 5.53924C5.38905 5.25519 6.13705 5.54199 6.4211 6.18029L9.3627 12.7869C9.64675 13.4253 9.35995 14.1733 8.72165 14.4573C8.56002 14.5295 8.38501 14.5669 8.208 14.567ZM11.8056 14.5854C11.3601 14.5854 10.935 14.3279 10.7422 13.8946L7.695 7.05094C7.4335 6.46369 7.69775 5.77634 8.2843 5.51474C8.8708 5.25384 9.5589 5.51744 9.8205 6.10399L12.8677 12.9484C13.1293 13.5356 12.865 14.223 12.2784 14.4846C12.1297 14.5512 11.9685 14.5855 11.8056 14.5854ZM16 6.59724C16 6.90583 15.8774 7.20177 15.6592 7.41996C15.441 7.63816 15.145 7.76074 14.8364 7.76074C14.5279 7.76074 14.2319 7.63816 14.0137 7.41996C13.7955 7.20177 13.6729 6.90583 13.6729 6.59724C13.6729 6.28866 13.7955 5.99271 14.0137 5.77451C14.2319 5.5563 14.5278 5.43371 14.8364 5.43369C14.9892 5.43369 15.1405 5.46378 15.2817 5.52224C15.4228 5.58071 15.5511 5.66641 15.6592 5.77445C15.7672 5.88249 15.8529 6.01076 15.9114 6.15193C15.9699 6.29309 16 6.44444 16 6.59724ZM14.694 9.15524C14.6941 9.31869 14.6619 9.48054 14.5993 9.63155C14.5368 9.78255 14.4451 9.91976 14.3295 10.0353C14.214 10.1509 14.0768 10.2426 13.9257 10.3051C13.7747 10.3677 13.6129 10.3999 13.4494 10.3999C13.286 10.3999 13.1242 10.3677 12.9731 10.3052C12.8221 10.2426 12.6849 10.1509 12.5694 10.0354C12.4538 9.9198 12.3621 9.7826 12.2995 9.63159C12.237 9.48059 12.2048 9.31874 12.2048 9.15529C12.2048 8.99184 12.237 8.82999 12.2995 8.67898C12.3621 8.52797 12.4538 8.39076 12.5693 8.27518C12.6849 8.1596 12.8221 8.06792 12.9731 8.00537C13.1241 7.94283 13.286 7.91064 13.4494 7.91064C13.6129 7.91064 13.7747 7.94284 13.9257 8.00539C14.0768 8.06794 14.214 8.15962 14.3295 8.2752C14.4451 8.39077 14.5368 8.52798 14.5993 8.67899C14.6619 8.83 14.6941 8.9918 14.694 9.15524Z" fill="white"/>
</svg>
