<svg width="20" height="20" viewBox="0 0 20 20" fill="none" xmlns="http://www.w3.org/2000/svg">
<path d="M6.13448 11.7583C6.13375 12.1295 5.98607 12.4853 5.72373 12.748C5.46138 13.0106 5.10572 13.1587 4.73449 13.1599C4.36306 13.159 4.00711 13.0111 3.74453 12.7484C3.48194 12.4857 3.33411 12.1297 3.33337 11.7583C3.3344 11.3871 3.48238 11.0314 3.74495 10.769C4.00752 10.5067 4.3633 10.359 4.73449 10.3583H6.13448V11.7583ZM6.8406 11.7583C6.84162 11.3872 6.98953 11.0316 7.25198 10.7692C7.51443 10.5069 7.87007 10.3591 8.24115 10.3583C8.61224 10.3591 8.96788 10.5069 9.23033 10.7692C9.49277 11.0316 9.64068 11.3872 9.64171 11.7583V15.2655C9.64083 15.6367 9.493 15.9925 9.23056 16.255C8.96811 16.5176 8.61238 16.6656 8.24115 16.6666C7.86992 16.6656 7.5142 16.5176 7.25175 16.255C6.9893 15.9925 6.84148 15.6367 6.8406 15.2655V11.7583ZM8.24115 6.13436C7.87011 6.13334 7.51456 5.98553 7.25214 5.72321C6.98972 5.4609 6.84177 5.1054 6.8406 4.73436C6.84148 4.36313 6.9893 4.00735 7.25175 3.7448C7.5142 3.48224 7.86992 3.33428 8.24115 3.33325C8.61238 3.33428 8.96811 3.48224 9.23056 3.7448C9.493 4.00735 9.64083 4.36313 9.64171 4.73436V6.13436H8.24115ZM8.24115 6.84047C8.61229 6.8415 8.96793 6.98939 9.23036 7.25182C9.49279 7.51425 9.64068 7.86989 9.64171 8.24103C9.64068 8.61216 9.49279 8.9678 9.23036 9.23024C8.96793 9.49267 8.61229 9.64056 8.24115 9.64158H4.73449C4.36325 9.6407 4.00747 9.49288 3.74492 9.23043C3.48236 8.96798 3.3344 8.61226 3.33337 8.24103C3.3344 7.8698 3.48236 7.51407 3.74492 7.25163C4.00747 6.98918 4.36325 6.84135 4.73449 6.84047H8.24115ZM13.8645 8.24103C13.8655 7.8698 14.0135 7.51407 14.276 7.25163C14.5386 6.98918 14.8944 6.84135 15.2656 6.84047C15.6368 6.84135 15.9926 6.98918 16.2552 7.25163C16.5177 7.51407 16.6657 7.8698 16.6667 8.24103C16.6657 8.61226 16.5177 8.96798 16.2552 9.23043C15.9926 9.49288 15.6368 9.6407 15.2656 9.64158H13.8645V8.24103ZM13.16 8.24103C13.159 8.61236 13.011 8.96816 12.7483 9.23063C12.4856 9.49309 12.1297 9.64085 11.7584 9.64158C11.3873 9.64056 11.0317 9.49265 10.7694 9.2302C10.507 8.96776 10.3593 8.61211 10.3584 8.24103V4.73436C10.3591 4.36318 10.5068 4.0074 10.7692 3.74483C11.0315 3.48226 11.3872 3.33428 11.7584 3.33325C12.1298 3.33399 12.4858 3.48182 12.7485 3.7444C13.0112 4.00699 13.1592 4.36294 13.16 4.73436V8.24103ZM11.7584 13.8644C12.1298 13.8651 12.4858 14.0129 12.7485 14.2755C13.0112 14.5381 13.1592 14.8941 13.16 15.2655C13.1592 15.6369 13.0112 15.9928 12.7485 16.2554C12.4858 16.518 12.1298 16.6659 11.7584 16.6666C11.3872 16.6656 11.0315 16.5176 10.7692 16.255C10.5068 15.9924 10.3591 15.6367 10.3584 15.2655V13.8644H11.7584ZM11.7584 13.1599C11.3871 13.1589 11.0313 13.0108 10.769 12.7481C10.5066 12.4855 10.359 12.1295 10.3584 11.7583C10.3593 11.3872 10.507 11.0316 10.7694 10.7693C11.0318 10.5069 11.3873 10.3591 11.7584 10.3583H15.2656C15.6368 10.359 15.9926 10.5067 16.2551 10.769C16.5177 11.0314 16.6657 11.3871 16.6667 11.7583C16.666 12.1297 16.5181 12.4857 16.2556 12.7484C15.993 13.0111 15.637 13.159 15.2656 13.1599H11.7584Z" fill="white"/>
</svg>
