<svg width="20" height="20" viewBox="0 0 20 20" fill="none" xmlns="http://www.w3.org/2000/svg">
<path d="M10.038 4.0329L8.4415 5.6399H5.674V8.3569L4 10.0049L5.6745 11.6539V14.3489H8.3615L10.004 15.9669L11.6465 14.3489H14.3615V11.6619L16 10.0129L14.384 8.3869V5.6604H11.655L10.038 4.0329ZM10.038 4.4074L11.283 5.6604H10.438V8.8809L10.038 9.2834L9.633 8.8759V5.6399H8.8135L10.038 4.4074ZM5.938 5.9029H8.1795L7.2425 6.8459L9.369 8.9854V9.3124H8.97L6.837 7.2114L5.938 8.0964V5.9029ZM8.5515 5.9029H9.369V8.6104L7.6145 6.8454L8.5515 5.9029ZM10.7025 5.9244H11.546L12.461 6.8454L10.7025 8.6149V5.9244ZM11.918 5.9244H14.12V8.1214L13.205 7.2004L11.0845 9.3339H10.7025V8.9889L12.833 6.8454L11.918 5.9244ZM13.205 7.5744L14.12 8.4959V9.3339H11.4565L13.205 7.5744ZM6.8375 7.5809L8.595 9.3119H5.938V8.4669L6.8375 7.5809ZM5.674 8.7269V9.5754H8.8625L9.298 10.0044L8.907 10.3894H5.675V11.2824L4.3765 10.0049L5.674 8.7269ZM14.384 8.7609L15.628 10.0124L14.3615 11.2874V10.3894H11.1565L10.7815 10.0124L11.194 9.5974H14.384V8.7609ZM9.633 9.2499L10.038 9.6574L10.131 9.5634L10.438 9.2544V9.5974H10.822L10.4095 10.0124L10.7845 10.3894H10.425V10.7934L10.004 10.3784L9.6335 10.7434V10.3899H9.2835L9.674 10.0049L9.58 9.9119L9.239 9.5759H9.633V9.2499ZM5.938 10.6534H8.639L6.8375 12.4284L5.9385 11.5424L5.938 10.6534ZM9.015 10.6534H9.369V11.0034L7.167 13.1724L8.093 14.0844H5.938V11.9134L6.837 12.7984L9.015 10.6534ZM10.689 10.6534H11.0465L13.205 12.8249L13.298 12.7314L14.0975 11.9264V14.0844H11.9145L12.841 13.1719L12.747 13.0794L10.689 11.0524V10.6534ZM11.419 10.6534H14.0975V11.5524L13.205 12.4504L11.419 10.6534ZM10.004 10.7489L10.425 11.1634V14.3484H11.2705L10.0045 15.5959L8.738 14.3484H9.633V11.1149L10.004 10.7489ZM9.369 11.3744V14.0844H8.4695L7.5435 13.1729L9.369 11.3744ZM10.689 11.4229L12.465 13.1724L11.5385 14.0849H10.6885L10.689 11.4229Z" fill="white"/>
</svg>
