<svg width="20" height="20" viewBox="0 0 20 20" fill="none" xmlns="http://www.w3.org/2000/svg">
<path fill-rule="evenodd" clip-rule="evenodd" d="M8.64987 3.5C8.55108 3.5 8.46155 3.55818 8.42142 3.64847L8.2538 4.02561C8.41689 4.00868 8.58243 4 8.75 4H11.25C11.4176 4 11.5831 4.00868 11.7462 4.02561L11.5786 3.64847C11.5385 3.55818 11.4489 3.5 11.3501 3.5H8.64987ZM13.6706 4.66218L12.9493 3.03926C12.6684 2.40728 12.0417 2 11.3501 2H8.64987C7.95829 2 7.33158 2.40728 7.0507 3.03926L7.73606 3.34386L7.0507 3.03926L6.3294 4.66218C4.93481 5.48977 4 7.01072 4 8.75V11.25C4 12.9893 4.93481 14.5102 6.3294 15.3378L7.0507 16.9607C7.33158 17.5927 7.95829 18 8.64987 18H11.3501C12.0417 18 12.6684 17.5927 12.9493 16.9607L13.6706 15.3378C15.0652 14.5102 16 12.9893 16 11.25V8.75C16 7.01072 15.0652 5.48977 13.6706 4.66218ZM11.7462 15.9744C11.5831 15.9913 11.4176 16 11.25 16H8.75C8.58243 16 8.41689 15.9913 8.2538 15.9744L8.42142 16.3515C8.46155 16.4418 8.55108 16.5 8.64987 16.5H11.3501C11.4489 16.5 11.5385 16.4418 11.5786 16.3515L11.7462 15.9744ZM8.75 5.5C6.95507 5.5 5.5 6.95507 5.5 8.75V11.25C5.5 13.0449 6.95507 14.5 8.75 14.5H11.25C13.0449 14.5 14.5 13.0449 14.5 11.25V8.75C14.5 6.95507 13.0449 5.5 11.25 5.5H8.75Z" fill="white"/>
</svg>
