<svg width="20" height="20" viewBox="0 0 20 20" fill="none" xmlns="http://www.w3.org/2000/svg">
<path d="M8.96661 11.7126C9.21112 11.7126 9.44561 11.6155 9.61851 11.4426C9.7914 11.2697 9.88853 11.0352 9.88853 10.7907V9.20512C9.88853 9.13212 9.90292 9.05984 9.93087 8.99241C9.95883 8.92497 9.9998 8.86371 10.0515 8.81213C10.1031 8.76054 10.1644 8.71964 10.2319 8.69177C10.2993 8.6639 10.3716 8.6496 10.4446 8.64968H12.234C12.2405 8.64951 12.2466 8.64681 12.2512 8.64216C12.2557 8.63752 12.2582 8.63129 12.2582 8.6248V8.3074C12.2582 8.30099 12.2556 8.29483 12.2511 8.29029C12.2466 8.28575 12.2404 8.28321 12.234 8.2832H10.0781C9.95703 8.28311 9.83707 8.3069 9.72514 8.35319C9.61321 8.39948 9.5115 8.46737 9.42582 8.55299C9.34015 8.6386 9.27218 8.74026 9.2258 8.85216C9.17943 8.96405 9.15556 9.08399 9.15556 9.20511V10.7921C9.15556 10.9394 9.09706 11.0808 8.99292 11.1851C8.88877 11.2893 8.7475 11.348 8.60013 11.3482H6.83566C6.83248 11.3482 6.82933 11.3488 6.82639 11.35C6.82346 11.3512 6.82079 11.353 6.81854 11.3553C6.81629 11.3575 6.81451 11.3602 6.81329 11.3631C6.81208 11.3661 6.81145 11.3692 6.81145 11.3724V11.6898C6.81145 11.6962 6.814 11.7023 6.81854 11.7069C6.82308 11.7114 6.82924 11.714 6.83566 11.714L8.96661 11.7126ZM12.9965 9.5716V8.3074C12.9965 8.30099 12.9991 8.29483 13.0036 8.29029C13.0082 8.28575 13.0143 8.28321 13.0207 8.2832H17.8926C17.899 8.2832 17.9053 8.28573 17.9099 8.29025C17.9146 8.29477 17.9173 8.30092 17.9174 8.3074V8.6248C17.9173 8.63134 17.9146 8.63757 17.91 8.6422C17.9053 8.64683 17.8991 8.64951 17.8926 8.64968H13.753C13.7466 8.64968 13.7405 8.65223 13.7359 8.65677C13.7314 8.66131 13.7288 8.66746 13.7288 8.67388V9.49762C13.7287 9.5324 13.7354 9.56688 13.7486 9.59906C13.7618 9.63124 13.7812 9.66049 13.8058 9.68512C13.8304 9.70974 13.8596 9.72927 13.8917 9.74256C13.9239 9.75585 13.9583 9.76265 13.9931 9.76256H17.0749C17.3246 9.77569 17.5598 9.88414 17.7319 10.0656C17.904 10.247 18 10.4875 18 10.7376C18 10.9877 17.904 11.2282 17.7319 11.4096C17.5598 11.591 17.3246 11.6995 17.0749 11.7126H13.0207C13.0143 11.7126 13.0082 11.7101 13.0036 11.7055C12.9991 11.701 12.9965 11.6948 12.9965 11.6884V11.3724C12.9965 11.3692 12.9972 11.3661 12.9984 11.3631C12.9996 11.3602 13.0014 11.3575 13.0036 11.3553C13.0059 11.353 13.0085 11.3512 13.0115 11.35C13.0144 11.3488 13.0176 11.3482 13.0207 11.3482H16.7077C16.7896 11.3506 16.8711 11.3365 16.9474 11.3067C17.0237 11.277 17.0932 11.2322 17.1518 11.1751C17.2105 11.1179 17.257 11.0495 17.2887 10.974C17.3203 10.8985 17.3365 10.8174 17.3362 10.7355C17.3359 10.6536 17.3191 10.5726 17.2868 10.4974C17.2546 10.4221 17.2075 10.3541 17.1484 10.2974C17.0894 10.2407 17.0195 10.1964 16.943 10.1673C16.8665 10.1381 16.7848 10.1247 16.703 10.1277H13.552C13.479 10.1277 13.4067 10.1133 13.3393 10.0854C13.2718 10.0574 13.2106 10.0164 13.159 9.96478C13.1074 9.91313 13.0665 9.85182 13.0386 9.78435C13.0108 9.71689 12.9965 9.6446 12.9965 9.5716ZM5.76581 9.76256C5.91339 9.76256 6.05492 9.70393 6.15927 9.59958C6.26362 9.49523 6.32225 9.3537 6.32225 9.20612C6.32225 9.05854 6.26362 8.91701 6.15927 8.81265C6.05492 8.7083 5.91339 8.64968 5.76581 8.64968H2.02436C2.01788 8.6495 2.01172 8.64681 2.0072 8.64216C2.00268 8.63751 2.00015 8.63128 2.00015 8.6248V8.3074C2.00015 8.30422 2.00078 8.30108 2.00199 8.29814C2.00321 8.2952 2.005 8.29254 2.00724 8.29029C2.00949 8.28804 2.01216 8.28626 2.0151 8.28504C2.01804 8.28383 2.02118 8.2832 2.02436 8.2832H6.12624C6.36647 8.28976 6.59467 8.3898 6.76228 8.56204C6.92988 8.73428 7.02366 8.96512 7.02366 9.20545C7.02366 9.44578 6.92988 9.67662 6.76228 9.84886C6.59467 10.0211 6.36647 10.1211 6.12624 10.1277H3.28854C3.21554 10.1277 3.14326 10.1421 3.07583 10.17C3.00839 10.198 2.94713 10.239 2.89555 10.2906C2.84396 10.3423 2.80306 10.4036 2.77519 10.471C2.74732 10.5385 2.73302 10.6108 2.7331 10.6838V11.6925C2.7331 11.6989 2.73055 11.705 2.72601 11.7096C2.72147 11.7141 2.71532 11.7167 2.7089 11.7167H2.02436C2.02094 11.7167 2.01756 11.716 2.01443 11.7146C2.0113 11.7132 2.0085 11.7112 2.00622 11.7087C2.00393 11.7061 2.00221 11.7031 2.00116 11.6999C2.00011 11.6966 1.99977 11.6932 2.00015 11.6898V10.6811C2.00104 10.4371 2.09865 10.2033 2.2716 10.0312C2.44454 9.85897 2.6787 9.76238 2.92274 9.76256H5.76581Z" fill="white"/>
</svg>
