<svg width="20" height="20" viewBox="0 0 20 20" fill="none" xmlns="http://www.w3.org/2000/svg">
<path d="M14.6431 10.5975L14.7056 10.1313C15.1989 10.4313 15.3609 10.6116 15.4109 10.6892C15.3276 10.7053 15.1182 10.7131 14.6431 10.5975ZM13.5106 14.7586C13.5089 14.7712 13.508 14.7839 13.508 14.7966C13.508 14.8404 13.4002 15.0076 12.9225 15.1967C12.6786 15.2899 12.4282 15.3651 12.1734 15.4217C11.4415 15.591 10.5439 15.6843 9.64535 15.6843C7.24286 15.6843 5.78428 15.0675 5.78428 14.7966C5.78426 14.7839 5.78339 14.7712 5.78167 14.7586L4.69191 6.66714C4.76223 6.70777 4.83776 6.74736 4.91694 6.78539C4.93882 6.7958 4.96174 6.80518 4.98362 6.81508C5.05343 6.84738 5.12531 6.87863 5.20085 6.90884L5.29409 6.94479C5.37431 6.975 5.45766 7.00417 5.54309 7.0323C5.56549 7.03907 5.58685 7.04741 5.61081 7.0547C5.71864 7.08856 5.83116 7.12086 5.94733 7.15211L6.03901 7.17504C6.13017 7.19796 6.2229 7.22036 6.31718 7.24119C6.46301 7.2734 6.60941 7.30292 6.75632 7.32975L6.81935 7.34173C6.95062 7.36517 7.08398 7.38601 7.21942 7.40528C7.2564 7.41101 7.29443 7.4157 7.33194 7.42091C7.43612 7.43498 7.54031 7.44852 7.64658 7.46102L7.7716 7.47509C7.89922 7.48863 8.02685 7.50113 8.15708 7.51155L8.19927 7.51624C8.34253 7.5277 8.48682 7.53708 8.63164 7.54541L8.75301 7.55166C8.86241 7.55687 8.97284 7.56104 9.08276 7.56468C9.56806 7.58068 10.0538 7.57616 10.5387 7.55114L10.6596 7.54541C10.8044 7.53708 10.9487 7.5277 11.092 7.51624L11.1336 7.51207C11.2639 7.50165 11.3925 7.48863 11.5202 7.47457L11.6441 7.46102C11.7509 7.44852 11.8567 7.43498 11.9614 7.42091C11.9978 7.4157 12.0348 7.41101 12.0713 7.40528C12.2072 7.38601 12.3416 7.36465 12.4734 7.34173L12.5313 7.33131C12.6433 7.31047 12.7537 7.2886 12.8615 7.2662L12.972 7.24171C13.0689 7.22036 13.1637 7.19743 13.2564 7.17399L13.3429 7.15211C13.4601 7.12086 13.5741 7.08856 13.6835 7.05366C13.7044 7.04741 13.7237 7.04012 13.7434 7.03387C13.8298 7.00594 13.9154 6.97589 14.0003 6.94375C14.0305 6.93281 14.0596 6.92083 14.0888 6.90936C14.167 6.87811 14.2414 6.84685 14.3128 6.81299C14.3326 6.80414 14.354 6.79528 14.3732 6.78591C14.4529 6.74788 14.5295 6.70777 14.6004 6.66714L14.0919 10.4412C12.7959 10.0349 11.068 9.24726 10.2835 8.87845C10.2828 8.72849 10.2228 8.58489 10.1166 8.479C10.0104 8.37311 9.86668 8.31352 9.71672 8.31325C9.40417 8.31325 9.14996 8.56798 9.14996 8.88001C9.14996 9.19257 9.40417 9.4473 9.71672 9.4473C9.81882 9.4473 9.91363 9.41812 9.99645 9.3702C10.8924 9.79319 12.6761 10.6032 14.0154 11.0111L13.5106 14.7586ZM9.64535 4.31569C12.6026 4.31569 14.6858 5.232 14.7243 5.74094L14.717 5.7998C14.7118 5.81699 14.7009 5.8347 14.692 5.85241C14.6842 5.867 14.6785 5.88211 14.6676 5.89773C14.6551 5.91493 14.6373 5.93316 14.6207 5.95087C14.6061 5.9665 14.5941 5.98212 14.5769 5.99775C14.5571 6.01598 14.5316 6.03422 14.5076 6.05245C14.4868 6.06808 14.4691 6.0837 14.4456 6.09985C14.418 6.11861 14.3852 6.13684 14.3534 6.15559C14.3274 6.17122 14.304 6.18685 14.2753 6.20247C14.2399 6.22123 14.1987 6.2405 14.1597 6.25978C14.1289 6.27436 14.1003 6.28947 14.0675 6.30405C14.0237 6.32385 13.9753 6.3426 13.9279 6.36188C13.8924 6.37594 13.8601 6.39001 13.8221 6.40459C13.7716 6.42334 13.7153 6.4421 13.6606 6.46033C13.6215 6.47387 13.5835 6.48794 13.5418 6.50148C13.484 6.51972 13.4205 6.53743 13.3595 6.55514C13.3152 6.56764 13.2736 6.58118 13.2277 6.59317C13.1631 6.61088 13.0933 6.62703 13.0251 6.64422C12.9766 6.65568 12.9308 6.66818 12.8803 6.67964C12.8079 6.69631 12.7308 6.71141 12.6547 6.72704C12.6037 6.73746 12.5552 6.7484 12.5021 6.7583C12.4213 6.77393 12.3354 6.78799 12.251 6.80206C12.1989 6.81143 12.1479 6.82081 12.0937 6.82914C12.0072 6.84269 11.9155 6.85415 11.8254 6.86665C11.7681 6.87394 11.7145 6.88228 11.6561 6.88957C11.5618 6.90155 11.4623 6.91093 11.3644 6.92083C11.3071 6.92708 11.2508 6.93385 11.1914 6.93958C11.0935 6.94791 10.9904 6.95469 10.8893 6.96198C10.8258 6.96667 10.7643 6.9724 10.6997 6.97656C10.5919 6.98282 10.4799 6.98698 10.3689 6.99115C10.3064 6.99375 10.247 6.9974 10.1845 6.99948C9.82532 7.00992 9.46591 7.00992 9.10672 6.99948C9.04421 6.9974 8.98482 6.99375 8.92335 6.99115C8.81188 6.98698 8.69936 6.98282 8.59153 6.97656C8.52797 6.9724 8.46755 6.96615 8.404 6.9625C8.30242 6.95469 8.19875 6.94791 8.09978 6.93958C8.04248 6.93437 7.98778 6.92708 7.931 6.92135C7.83202 6.91093 7.73096 6.90155 7.63512 6.89009L7.47102 6.86717C7.37934 6.85467 7.2861 6.84321 7.19754 6.82914C7.14545 6.82133 7.09752 6.81195 7.04647 6.8031C6.95948 6.78851 6.87196 6.77445 6.78914 6.7583C6.73913 6.74892 6.69381 6.7385 6.64536 6.72913C6.5667 6.71246 6.48648 6.69683 6.41095 6.67964C6.36407 6.66922 6.32083 6.65724 6.27551 6.6463C6.20362 6.62859 6.13121 6.6114 6.06349 6.59317C6.02078 6.58171 5.98171 6.5692 5.94108 6.55722C5.87688 6.53951 5.81297 6.52076 5.74938 6.50096C5.71031 6.48846 5.67593 6.47544 5.63842 6.46293C5.58112 6.44366 5.52226 6.42387 5.46912 6.40407C5.43422 6.39105 5.40401 6.3775 5.37119 6.36396C5.32118 6.34416 5.26961 6.32437 5.22429 6.30405C5.19303 6.28999 5.16699 6.27592 5.13782 6.26238C5.09614 6.24206 5.05343 6.22227 5.01644 6.20195C4.98935 6.18737 4.96747 6.1733 4.94247 6.1582C4.90965 6.1384 4.87475 6.11913 4.8461 6.09933C4.8237 6.08422 4.80703 6.06912 4.78724 6.05453C4.76223 6.03526 4.73618 6.0165 4.71483 5.99723C4.69816 5.98212 4.6867 5.96754 4.67315 5.95191C4.65596 5.93368 4.63721 5.91545 4.62471 5.89773C4.61429 5.88211 4.60856 5.86752 4.60075 5.85294C4.59137 5.8347 4.58043 5.81751 4.57522 5.7998L4.56741 5.74094C4.607 5.232 6.68964 4.31569 9.64535 4.31569ZM15.9912 10.6314C15.9298 10.3042 15.5536 9.95884 14.7879 9.52283L15.2895 5.79303C15.2913 5.78043 15.2922 5.76772 15.2921 5.755C15.2927 4.57251 12.3166 3.74893 9.64587 3.74893C6.97563 3.74893 4.00012 4.57251 4.00012 5.755C4.00021 5.76755 4.00108 5.78007 4.00273 5.79251L5.21752 14.8185C5.2545 15.8614 7.94506 16.2511 9.64535 16.2511C10.5856 16.2511 11.5285 16.1531 12.301 15.9744C12.6125 15.9026 12.8912 15.8182 13.1303 15.7244C13.745 15.4811 14.0622 15.1759 14.0748 14.8185L14.567 11.1627C14.8572 11.2309 15.0963 11.2653 15.2906 11.2653C15.5719 11.2653 15.7605 11.1939 15.8813 11.0502C15.9299 10.9931 15.9649 10.9258 15.9839 10.8533C16.0028 10.7808 16.0057 10.7049 15.9912 10.6314Z" fill="white"/>
</svg>
