<svg width="20" height="20" viewBox="0 0 20 20" fill="none" xmlns="http://www.w3.org/2000/svg">
<path d="M9.98949 4C6.83899 4 4.25549 6.43 4.01099 9.5185L7.22699 10.8475C7.49949 10.662 7.82849 10.5525 8.18299 10.5525C8.21449 10.5525 8.24549 10.5545 8.27699 10.5555L9.70749 8.4845V8.455C9.70749 7.2075 10.7215 6.193 11.9695 6.193C13.2165 6.193 14.2315 7.2085 14.2315 8.4565C14.2315 9.7045 13.2165 10.719 11.9695 10.719H11.917L9.87899 12.1745C9.87899 12.2005 9.88099 12.227 9.88099 12.254C9.88099 13.1915 9.12349 13.952 8.18599 13.952C7.36849 13.952 6.67799 13.3655 6.52049 12.5885L4.21799 11.635C4.93099 14.1535 7.24299 16 9.98949 16C13.303 16 15.989 13.3135 15.989 10C15.989 6.6865 13.3025 4 9.98949 4ZM7.76999 13.105L7.03349 12.8C7.16449 13.0715 7.39049 13.2995 7.69049 13.425C8.33899 13.6945 9.08699 13.387 9.35649 12.7375C9.48799 12.4225 9.48849 12.078 9.35899 11.763C9.22949 11.448 8.98399 11.2025 8.67049 11.0715C8.35849 10.9415 8.02549 10.947 7.73149 11.0565L8.49299 11.3715C8.97099 11.5715 9.19749 12.1215 8.99749 12.599C8.79899 13.0775 8.24849 13.304 7.76999 13.105ZM13.4775 8.4535C13.4775 7.6225 12.801 6.946 11.97 6.946C11.1375 6.946 10.4625 7.6225 10.4625 8.4535C10.4625 9.286 11.1375 9.961 11.97 9.961C12.8015 9.961 13.4775 9.286 13.4775 8.4535ZM10.841 8.451C10.841 7.825 11.3475 7.318 11.9735 7.318C12.598 7.318 13.1065 7.825 13.1065 8.451C13.1065 9.0765 12.598 9.5835 11.9735 9.5835C11.347 9.5835 10.841 9.0765 10.841 8.451Z" fill="white"/>
</svg>
