<svg width="20" height="20" viewBox="0 0 20 20" fill="none" xmlns="http://www.w3.org/2000/svg">
<path d="M12.7625 10.9562C12.6636 10.9562 12.5669 10.9268 12.4847 10.8719C12.4025 10.817 12.3384 10.7389 12.3006 10.6475C12.2627 10.5561 12.2528 10.4556 12.2721 10.3586C12.2914 10.2616 12.339 10.1725 12.4089 10.1026C12.4789 10.0327 12.568 9.98507 12.665 9.96577C12.7619 9.94648 12.8625 9.95638 12.9538 9.99423C13.0452 10.0321 13.1233 10.0962 13.1782 10.1784C13.2332 10.2606 13.2625 10.3573 13.2625 10.4562C13.2625 10.5888 13.2098 10.716 13.1161 10.8097C13.0223 10.9035 12.8951 10.9562 12.7625 10.9562ZM7.23958 10.9562C7.14069 10.9562 7.04402 10.9268 6.9618 10.8719C6.87957 10.817 6.81549 10.7389 6.77764 10.6475C6.7398 10.5561 6.7299 10.4556 6.74919 10.3586C6.76848 10.2616 6.8161 10.1725 6.88603 10.1026C6.95596 10.0327 7.04505 9.98507 7.14204 9.96577C7.23903 9.94648 7.33956 9.95638 7.43093 9.99423C7.52229 10.0321 7.60038 10.0962 7.65532 10.1784C7.71026 10.2606 7.73958 10.3573 7.73958 10.4562C7.73958 10.5888 7.6869 10.716 7.59314 10.8097C7.49937 10.9035 7.37219 10.9562 7.23958 10.9562ZM12.9417 7.94575L13.9396 6.21658C13.9547 6.19287 13.9648 6.16636 13.9693 6.13863C13.9739 6.1109 13.9728 6.08254 13.9661 6.05525C13.9594 6.02796 13.9473 6.00231 13.9304 5.97983C13.9136 5.95735 13.8924 5.93851 13.868 5.92445C13.8437 5.91039 13.8168 5.90139 13.7889 5.898C13.761 5.89462 13.7327 5.89691 13.7057 5.90473C13.6787 5.91256 13.6536 5.92577 13.6319 5.94356C13.6101 5.96135 13.5922 5.98335 13.5792 6.00825L12.5688 7.76033C11.7609 7.39799 10.8854 7.21067 10 7.21067C9.11457 7.21067 8.23915 7.39799 7.43125 7.76033L6.42083 6.01033C6.40781 5.98544 6.38988 5.96343 6.36813 5.94564C6.34639 5.92785 6.32126 5.91465 6.29428 5.90682C6.26729 5.89899 6.239 5.8967 6.21111 5.90009C6.18322 5.90348 6.1563 5.91247 6.13197 5.92653C6.10765 5.94059 6.08642 5.95943 6.06956 5.98191C6.0527 6.00439 6.04057 6.03005 6.03388 6.05734C6.0272 6.08463 6.0261 6.11299 6.03066 6.14071C6.03522 6.16844 6.04534 6.19495 6.06042 6.21867L7.05833 7.94783C5.34375 8.87908 4.17083 10.6166 4 12.6666H16C15.8292 10.6145 14.6563 8.87908 12.9396 7.94575" fill="white"/>
</svg>
