<svg width="20" height="20" viewBox="0 0 20 20" fill="none" xmlns="http://www.w3.org/2000/svg">
<path d="M13.0215 10.6185L8.568 13.586C8.44637 13.6678 8.30306 13.7113 8.1565 13.711C8.03509 13.7118 7.91542 13.682 7.8085 13.6245C7.68996 13.5613 7.59084 13.4671 7.52179 13.3519C7.45273 13.2367 7.41633 13.1048 7.4165 12.9705V10C7.40952 9.89864 7.42346 9.79693 7.45746 9.70119C7.49145 9.60545 7.54476 9.51772 7.61409 9.44345C7.68342 9.36919 7.76728 9.30997 7.86046 9.26948C7.95364 9.229 8.05416 9.2081 8.15575 9.2081C8.25735 9.2081 8.35786 9.229 8.45104 9.26948C8.54423 9.30997 8.62809 9.36919 8.69742 9.44345C8.76674 9.51772 8.82006 9.60545 8.85405 9.70119C8.88804 9.79693 8.90198 9.89864 8.895 10V11.5815L11.2685 10L7.739 7.652C7.65755 7.59776 7.58758 7.52802 7.53308 7.44674C7.47858 7.36546 7.44063 7.27424 7.42138 7.1783C7.40214 7.08235 7.40198 6.98356 7.42092 6.88755C7.43986 6.79154 7.47752 6.7002 7.53175 6.61875C7.58599 6.5373 7.65574 6.46733 7.73701 6.41283C7.81829 6.35833 7.90951 6.32038 8.00546 6.30113C8.1014 6.28189 8.2002 6.28173 8.29621 6.30067C8.39221 6.3196 8.48355 6.35726 8.565 6.4115L13.0215 9.3815C13.1228 9.44979 13.2057 9.5419 13.2631 9.64974C13.3204 9.75759 13.3504 9.87786 13.3504 10C13.3504 10.1221 13.3204 10.2424 13.2631 10.3503C13.2057 10.4581 13.1228 10.5502 13.0215 10.6185ZM10 4C8.81332 4 7.65328 4.35189 6.66658 5.01118C5.67989 5.67047 4.91085 6.60754 4.45673 7.7039C4.0026 8.80026 3.88378 10.0067 4.11529 11.1705C4.3468 12.3344 4.91825 13.4035 5.75736 14.2426C6.59648 15.0818 7.66558 15.6532 8.82946 15.8847C9.99335 16.1162 11.1997 15.9974 12.2961 15.5433C13.3925 15.0892 14.3295 14.3201 14.9888 13.3334C15.6481 12.3467 16 11.1867 16 10C15.9984 8.40919 15.3658 6.88399 14.2409 5.75911C13.116 4.63424 11.5908 4.00159 10 4Z" fill="white"/>
</svg>
