<svg width="20" height="20" viewBox="0 0 20 20" fill="none" xmlns="http://www.w3.org/2000/svg">
<path d="M7.57502 11.6201H6.18002C6.12698 11.6201 6.07611 11.6411 6.0386 11.6786C6.00109 11.7162 5.98002 11.767 5.98002 11.8201V12.8201C5.98002 12.9251 6.07002 13.0201 6.18002 13.0201H7.58002V13.6801H5.83002C5.55002 13.6801 5.32002 13.4501 5.32002 13.1651V11.4701C5.32002 11.1901 5.55002 10.9601 5.83502 10.9601H7.57502V11.6201ZM8.08002 9.77007C8.08002 10.0601 7.84502 10.2951 7.55502 10.2951H5.31502V9.62007H7.20502C7.25807 9.62007 7.30894 9.59899 7.34644 9.56149C7.38395 9.52398 7.40502 9.47311 7.40502 9.42007V7.19506C7.40502 7.1688 7.39985 7.14279 7.3898 7.11852C7.37975 7.09426 7.36502 7.07221 7.34644 7.05364C7.32787 7.03507 7.30582 7.02033 7.28156 7.01028C7.25729 7.00023 7.23129 6.99506 7.20502 6.99506H6.19502C6.16834 6.99439 6.14179 6.99907 6.11695 7.00882C6.0921 7.01858 6.06946 7.0332 6.05035 7.05184C6.03125 7.07048 6.01607 7.09275 6.00571 7.11735C5.99535 7.14195 5.99001 7.16837 5.99002 7.19506V8.20506C5.99002 8.32006 6.08002 8.40506 6.19002 8.40506H7.00002V9.08006H5.84002C5.55002 9.08006 5.31502 8.85006 5.31502 8.56006V6.84006C5.31502 6.55506 5.55002 6.32006 5.84002 6.32006H7.55002C7.84002 6.32006 8.07502 6.55506 8.07502 6.84006V9.77007H8.08002ZM14.68 13.6801H14.02V11.6201H13.555C13.502 11.6201 13.4511 11.6411 13.4136 11.6786C13.3761 11.7162 13.355 11.767 13.355 11.8201V13.6801H12.69V11.6201H12.225C12.172 11.6201 12.1211 11.6411 12.0836 11.6786C12.0461 11.7162 12.025 11.767 12.025 11.8201V13.6801H11.36V11.4701C11.36 11.1901 11.59 10.9601 11.875 10.9601H14.68V13.6801ZM14.685 9.77007C14.685 10.0601 14.45 10.2951 14.16 10.2951H11.92V9.62007H13.81C13.8631 9.62007 13.914 9.59899 13.9515 9.56149C13.989 9.52398 14.01 9.47311 14.01 9.42007V7.19506C14.01 7.14202 13.989 7.09115 13.9515 7.05364C13.914 7.01613 13.8631 6.99506 13.81 6.99506H12.795C12.7688 6.99506 12.7428 7.00023 12.7185 7.01028C12.6942 7.02033 12.6722 7.03507 12.6536 7.05364C12.635 7.07221 12.6203 7.09426 12.6103 7.11852C12.6002 7.14279 12.595 7.1688 12.595 7.19506V8.20506C12.595 8.32006 12.685 8.40506 12.795 8.40506H13.605V9.08006H12.45C12.16 9.08006 11.925 8.85006 11.925 8.56006V6.84006C11.925 6.55506 12.16 6.32006 12.45 6.32006H14.165C14.455 6.32006 14.69 6.55506 14.69 6.84006V9.77007H14.685ZM10.86 6.32006H9.14003C8.85003 6.32006 8.62003 6.55506 8.62003 6.84006V8.56006C8.62003 8.85006 8.85003 9.08006 9.14003 9.08006H10.86C11.145 9.08006 11.38 8.85006 11.38 8.56006V6.84006C11.38 6.55506 11.145 6.32006 10.86 6.32006ZM10.71 7.19506V8.20506C10.71 8.25811 10.689 8.30898 10.6515 8.34648C10.6139 8.38399 10.5631 8.40506 10.51 8.40506H9.49503C9.44198 8.40506 9.39111 8.38399 9.35361 8.34648C9.3161 8.30898 9.29503 8.25811 9.29503 8.20506V7.20006C9.29503 7.09006 9.38003 7.00006 9.49503 7.00006H10.5C10.615 7.00006 10.7 7.09006 10.7 7.20006L10.71 7.19506ZM10.315 10.9601H8.62003C8.33502 10.9601 8.10502 11.1901 8.10502 11.4701V13.1651C8.10502 13.4501 8.33502 13.6801 8.62003 13.6801H10.315C10.6 13.6801 10.83 13.4501 10.83 13.1651V11.4701C10.83 11.1901 10.6 10.9601 10.315 10.9601ZM10.165 11.8201V12.8201C10.165 12.8731 10.144 12.924 10.1065 12.9615C10.0689 12.999 10.0181 13.0201 9.96503 13.0201V13.0151H8.97003C8.91698 13.0151 8.86611 12.994 8.8286 12.9565C8.7911 12.919 8.77003 12.8681 8.77003 12.8151V11.8201C8.77003 11.7101 8.86003 11.6201 8.97003 11.6201H9.97003C10.08 11.6201 10.17 11.7101 10.17 11.8201H10.165ZM15.745 4.55005C15.6641 4.46775 15.5676 4.40238 15.4612 4.35774C15.3547 4.31311 15.2405 4.2901 15.125 4.29005H4.87502C4.75992 4.28939 4.64584 4.31157 4.53938 4.35531C4.43292 4.39905 4.3362 4.46347 4.25482 4.54486C4.17343 4.62624 4.10901 4.72296 4.06527 4.82942C4.02153 4.93588 3.99935 5.04996 4.00001 5.16506V14.8351C3.99935 14.9502 4.02153 15.0643 4.06527 15.1707C4.10901 15.2772 4.17343 15.3739 4.25482 15.4553C4.3362 15.5367 4.43292 15.6011 4.53938 15.6448C4.64584 15.6886 4.75992 15.7107 4.87502 15.7101H15.125C15.2401 15.7107 15.3542 15.6886 15.4607 15.6448C15.5671 15.6011 15.6639 15.5367 15.7452 15.4553C15.8266 15.3739 15.8911 15.2772 15.9348 15.1707C15.9785 15.0643 16.0007 14.9502 16 14.8351V5.16506C16 4.92506 15.9 4.70505 15.745 4.54505M15.745 14.8351C15.7457 14.9167 15.7301 14.9976 15.6992 15.0731C15.6683 15.1487 15.6226 15.2173 15.5649 15.275C15.5072 15.3327 15.4386 15.3783 15.3631 15.4092C15.2876 15.4402 15.2066 15.4557 15.125 15.4551H4.87502C4.79299 15.4564 4.71153 15.4413 4.63543 15.4107C4.55932 15.3801 4.49011 15.3345 4.43187 15.2768C4.37363 15.219 4.32754 15.1502 4.29631 15.0743C4.26508 14.9984 4.24934 14.9171 4.25002 14.8351V5.16506C4.24935 5.08345 4.26493 5.00253 4.29585 4.92701C4.32677 4.85148 4.37242 4.78287 4.43012 4.72516C4.48783 4.66746 4.55644 4.62181 4.63197 4.59089C4.70749 4.55997 4.78841 4.54439 4.87002 4.54505H15.12C15.2845 4.54505 15.4422 4.61038 15.5584 4.72665C15.6747 4.84292 15.74 5.00062 15.74 5.16506V14.8351H15.745Z" fill="white"/>
</svg>
