<svg width="20" height="20" viewBox="0 0 20 20" fill="none" xmlns="http://www.w3.org/2000/svg">
<path d="M8.45755 10C8.45755 9.19575 9.10949 8.55041 9.90715 8.55041C10.7053 8.55041 11.3573 9.20235 11.3573 10C11.3573 10.7982 10.7053 11.4501 9.90715 11.4501C9.11 11.4501 8.45755 10.7982 8.45755 10ZM9.90715 3.9071C7.06227 3.9071 4.67944 5.85683 4.00312 8.48948C3.99805 8.50776 3.99805 8.52502 3.99805 8.55041C3.99805 8.70933 4.126 8.84287 4.29 8.84287H6.74493C6.86171 8.84287 6.96479 8.77686 7.00744 8.67379C7.51365 7.57707 8.62206 6.80936 9.90766 6.80936C11.6675 6.80936 13.0993 8.24119 13.0993 10.0015C13.0993 11.7634 11.6675 13.1952 9.90563 13.1952C8.62104 13.1952 7.51213 12.4336 7.00642 11.3303C6.95717 11.2338 6.85917 11.1597 6.74392 11.1597H4.29C4.13158 11.1597 3.99805 11.2882 3.99805 11.4522C3.99805 11.4709 4.00516 11.4887 4.00516 11.5131C4.67538 14.1432 7.06176 16.0929 9.90715 16.0929C13.2704 16.0929 16.0001 13.3638 16.0001 10C16.0001 6.63724 13.2704 3.9071 9.90715 3.9071Z" fill="white"/>
</svg>
