<svg width="20" height="20" viewBox="0 0 20 20" fill="none" xmlns="http://www.w3.org/2000/svg">
<path d="M15.4668 6.22778L10.5326 3.37939C10.3706 3.28591 10.1868 3.23669 9.99971 3.23669C9.81265 3.23669 9.62887 3.28591 9.46684 3.37939L4.53259 6.22722C4.37064 6.32085 4.23617 6.45545 4.14269 6.61749C4.0492 6.77953 3.99999 6.96331 4 7.15038V12.8483C4 13.2287 4.20289 13.581 4.53259 13.7709L9.4674 16.6204C9.62937 16.7138 9.81304 16.7629 10 16.7629C10.187 16.7629 10.3706 16.7138 10.5326 16.6204L15.4674 13.7715C15.7971 13.581 16 13.2293 16 12.8483V7.15095C16 6.77052 15.7965 6.41828 15.4668 6.22778ZM11.2681 10.5973L9.12361 12.7412L8.3622 11.9798L10.5061 9.83533L8.3622 7.6903L9.12305 6.92945L11.2675 9.07392L12.0289 9.83477L11.2681 10.5973Z" fill="white"/>
</svg>
