<svg width="20" height="20" viewBox="0 0 20 20" fill="none" xmlns="http://www.w3.org/2000/svg">
<path d="M5.17542 3.0127C5.23454 2.98338 5.32884 3.01276 5.38733 3.0293C5.39638 3.03176 5.40562 3.0337 5.41467 3.03613C5.43881 3.04267 5.46286 3.04991 5.48694 3.05664C5.50706 3.06225 5.52734 3.06773 5.54749 3.07324C5.60861 3.08996 5.67007 3.10689 5.73108 3.12402C5.74437 3.12776 5.75782 3.13104 5.77112 3.13477C6.52186 3.3454 6.52237 3.3458 6.76331 3.45996C6.77047 3.46334 6.77742 3.46722 6.78479 3.4707C6.90164 3.53022 7.00114 3.63118 7.09631 3.71973C7.11358 3.73577 7.13144 3.7519 7.14905 3.76758C7.21382 3.82562 7.27801 3.88477 7.3385 3.94727C7.3513 3.95969 7.365 3.97082 7.37854 3.98242C7.41894 4.01747 7.45528 4.05668 7.4928 4.09473C7.52653 4.12873 7.56166 4.16149 7.59827 4.19238C7.6038 4.19712 7.60917 4.20215 7.61487 4.20703C7.65358 4.23911 7.69336 4.26926 7.73401 4.29883C7.82553 4.36558 7.91234 4.43699 7.99475 4.51465C8.01012 4.52899 8.02596 4.54359 8.04163 4.55762C8.08317 4.59561 8.12383 4.63508 8.1637 4.6748C8.16832 4.6794 8.1686 4.67974 8.17346 4.68457C8.21167 4.72258 8.24876 4.76182 8.28381 4.80273C8.29354 4.81347 8.30333 4.82427 8.31311 4.83496C8.33916 4.86383 8.36386 4.89359 8.38831 4.92383C8.40074 4.93917 8.41376 4.95455 8.42639 4.96973C8.47931 5.03358 8.52809 5.09949 8.57483 5.16797C8.57812 5.17277 8.58218 5.17767 8.58557 5.18262C8.91083 5.65915 9.13129 6.18928 9.22522 6.75879C9.22608 6.7639 9.22727 6.76915 9.22815 6.77441C9.22976 6.78412 9.23054 6.79398 9.23206 6.80371C9.24188 6.8626 9.26828 6.91351 9.31604 6.9502C9.35473 6.97522 9.39165 6.99267 9.43811 6.99414C9.44894 6.99447 9.44954 6.9938 9.46057 6.99414C9.4683 6.99434 9.47605 6.99491 9.48401 6.99512C9.49201 6.99532 9.50018 6.99588 9.50842 6.99609L9.61194 6.99805C9.63716 6.99881 9.66288 6.99946 9.68811 7C9.69581 7.00027 9.70361 7.0007 9.71155 7.00098C9.79459 7.00228 9.85608 6.97653 9.91663 6.9209C9.97428 6.86067 9.99746 6.77274 10.0143 6.69336C10.0157 6.68674 10.0157 6.68651 10.0172 6.67969C10.0486 6.5293 10.0379 6.3718 10.026 6.21973C10.0204 6.14138 10.0193 6.0629 10.0192 5.98438V5.89453C10.0196 5.84686 10.0191 5.84618 10.0338 5.82617C10.0557 5.81706 10.0663 5.81866 10.0885 5.82715C10.2814 5.94548 10.3895 6.24869 10.4479 6.45605V6.47656H10.4615C10.4622 6.4727 10.4628 6.46881 10.4635 6.46484C10.472 6.41856 10.486 6.37442 10.5016 6.33008C10.5038 6.32364 10.5062 6.31718 10.5084 6.31055C10.5455 6.20421 10.5453 6.20368 10.5836 6.17188C10.606 6.17035 10.6189 6.17435 10.6364 6.18848C10.751 6.30819 10.7424 6.53076 10.7467 6.68652C10.7469 6.69307 10.7475 6.70028 10.7477 6.70703C10.754 6.95314 10.7068 7.19529 10.6451 7.43262C10.6437 7.43845 10.6418 7.4442 10.6403 7.4502C10.6014 7.60248 10.5232 7.75634 10.3854 7.83984C10.3319 7.86896 10.2706 7.88747 10.2096 7.8877H10.0748C10.0518 7.88777 10.0286 7.88855 10.0055 7.88867C9.92705 7.88909 9.84858 7.88942 9.77014 7.88965C9.72671 7.88977 9.68271 7.88937 9.63928 7.88965C9.61651 7.88979 9.5937 7.89061 9.57092 7.89062H9.47131C9.39899 7.8914 9.33679 7.90678 9.28088 7.9541C9.22962 8.00812 9.21705 8.07264 9.20276 8.14355C9.16085 8.34908 9.10255 8.55382 9.02307 8.74805C9.01997 8.75563 9.0165 8.76367 9.01331 8.77148C8.84045 9.19001 8.60376 9.56866 8.30334 9.90723C8.29914 9.91199 8.29498 9.91697 8.29065 9.92188C8.25215 9.96508 8.21156 10.0061 8.17053 10.0469C8.16459 10.0528 8.15907 10.0593 8.15295 10.0654C8.1185 10.0998 8.08261 10.1325 8.04553 10.1641C8.03796 10.1707 8.03064 10.178 8.02307 10.1846C7.97294 10.2279 7.92139 10.2702 7.86877 10.3105C7.85963 10.3176 7.85054 10.325 7.84143 10.332C7.57274 10.5396 7.26332 10.7382 6.93909 10.8447C6.90485 10.8561 6.87061 10.868 6.83655 10.8799C6.61119 10.958 6.39183 11.0235 6.15393 11.0518C6.14339 11.053 6.14297 11.0525 6.13245 11.0537C6.11926 11.0552 6.10561 11.0573 6.09241 11.0586C6.04838 11.0635 6.02268 11.0737 5.99084 11.1055C5.97938 11.1266 5.97704 11.144 5.9762 11.168C5.9855 11.1944 5.99894 11.2042 6.02307 11.2168C6.05281 11.2308 6.07815 11.2367 6.11096 11.2363C6.11756 11.2363 6.12468 11.2364 6.13147 11.2363C6.1387 11.2362 6.14648 11.2355 6.15393 11.2354C6.16922 11.2352 6.18454 11.2355 6.19983 11.2354C6.2241 11.2351 6.2488 11.2347 6.27307 11.2344C6.45525 11.2321 6.61432 11.2509 6.75354 11.3809C6.8499 11.4835 6.9156 11.6294 6.91174 11.7715C6.9082 11.8242 6.89971 11.8809 6.8717 11.9268C6.84958 11.946 6.83383 11.9529 6.80432 11.9541C6.74455 11.9423 6.71591 11.9101 6.68127 11.8613C6.57222 11.7145 6.41211 11.6253 6.23206 11.5967C6.00283 11.5683 5.78045 11.6176 5.56116 11.6807C5.40784 11.7242 5.40728 11.7237 5.33752 11.6963C5.30885 11.6697 5.29851 11.6369 5.29651 11.5986C5.29652 11.5793 5.29701 11.5594 5.29749 11.54C5.2985 11.4246 5.28775 11.316 5.20374 11.2275C5.15906 11.1923 5.09677 11.1602 5.03967 11.1543C5.03335 11.1536 5.02665 11.1531 5.02014 11.1523C4.73303 11.1371 4.40309 11.2986 4.15686 11.4326C4.14835 11.4372 4.14822 11.4375 4.13928 11.4424C4.04817 11.492 3.96215 11.547 3.87854 11.6084C3.87434 11.6115 3.87017 11.615 3.86584 11.6182C3.74446 11.7078 3.62059 11.8111 3.52307 11.9268C3.50698 11.9454 3.48999 11.9633 3.47229 11.9805C3.43997 12.0125 3.4115 12.0473 3.38342 12.083C3.38016 12.0872 3.37702 12.0914 3.37366 12.0957C3.33544 12.1444 3.29875 12.1943 3.26428 12.2451L3.15686 12.417C3.0619 12.5833 2.98325 12.7539 2.92834 12.9375C2.92629 12.9442 2.9246 12.9511 2.92249 12.958C2.84302 13.2201 2.80549 13.4873 2.8053 13.7607C2.80529 13.768 2.8053 13.7757 2.8053 13.7832C2.80542 13.9022 2.80908 14.0189 2.82678 14.1367C2.82791 14.1443 2.82953 14.1524 2.83069 14.1602C2.90274 14.6218 3.1019 15.0643 3.39514 15.4277C3.40324 15.4378 3.41152 15.4479 3.41956 15.458C3.45201 15.4983 3.48591 15.5373 3.52112 15.5752C3.53788 15.5933 3.55452 15.6115 3.57092 15.6299C3.60978 15.673 3.65088 15.7141 3.69495 15.752C3.71075 15.7657 3.72635 15.7799 3.74182 15.7939C3.77728 15.8258 3.81389 15.8561 3.8512 15.8857C3.85778 15.891 3.85844 15.8914 3.86487 15.8965C3.93283 15.9506 4.00209 16.0028 4.07581 16.0488C4.07992 16.0514 4.08426 16.054 4.0885 16.0566C4.26593 16.1665 4.45824 16.2634 4.65686 16.3281C4.67288 16.3335 4.68885 16.3389 4.70471 16.3447C4.96755 16.4393 5.25019 16.4736 5.52795 16.4824C5.54125 16.4829 5.54176 16.483 5.5553 16.4834C6.19809 16.4931 6.84701 16.2757 7.39417 15.8457C7.40105 15.8402 7.40856 15.8348 7.41565 15.8291C7.43368 15.8145 7.45155 15.799 7.46936 15.7842C7.47559 15.7792 7.4815 15.7737 7.48792 15.7686C7.54657 15.7207 7.60032 15.6676 7.65393 15.6143C7.65951 15.6087 7.66018 15.6089 7.66565 15.6035C7.71407 15.5555 7.75902 15.5057 7.80139 15.4521C7.80882 15.4431 7.81636 15.4338 7.82385 15.4248C7.87629 15.3615 7.92496 15.2963 7.97131 15.2285C7.97417 15.2244 7.97715 15.2201 7.9801 15.2158C8.27157 14.7907 8.43165 14.3299 8.52405 13.8271C8.531 13.7894 8.53811 13.7516 8.54553 13.7139C8.54715 13.7056 8.54875 13.6969 8.55042 13.6885C8.55472 13.6693 8.55441 13.6687 8.56116 13.6553H8.57483C8.57478 13.6488 8.57491 13.6422 8.57483 13.6357H8.5885C8.59965 13.6748 8.60433 13.7094 8.60413 13.75V13.8418C8.60177 14.4478 8.4333 15.0543 8.01135 15.6689C8.0062 15.674 8.00103 15.6793 7.99573 15.6846C7.99492 15.6854 7.99359 15.6857 7.9928 15.6865C7.98782 15.7036 7.97933 15.7166 7.96643 15.7324C7.96308 15.7366 7.95913 15.7408 7.95569 15.7451C7.89574 15.8194 7.83228 15.8911 7.76721 15.9609C7.75923 15.9695 7.75078 15.9777 7.7428 15.9863C7.73439 15.9954 7.72582 16.0046 7.71741 16.0137C7.71355 16.0178 7.70967 16.0221 7.70569 16.0264C7.68146 16.0523 7.65671 16.0776 7.63147 16.1025C7.62662 16.1009 7.62175 16.0993 7.61682 16.0977C7.61429 16.1 7.61253 16.1032 7.60999 16.1055C7.61223 16.1066 7.61379 16.1074 7.6178 16.1094C7.58532 16.1427 7.55156 16.1738 7.51624 16.2041C7.50935 16.2101 7.50261 16.2166 7.49573 16.2227C7.43707 16.2739 7.37608 16.3214 7.31311 16.3672C7.30892 16.3703 7.30473 16.3738 7.30042 16.377C7.255 16.4101 7.20852 16.442 7.16077 16.4717C7.13688 16.487 7.11335 16.5028 7.09045 16.5195C7.07453 16.5298 7.05942 16.5375 7.04163 16.5439C7.04942 16.5354 7.05852 16.5281 7.06702 16.5205C7.05665 16.5277 7.04544 16.5334 7.03479 16.54V16.5576C6.98947 16.5816 6.98917 16.5814 6.96936 16.5918C6.94244 16.606 6.91509 16.6203 6.88831 16.6348C6.76881 16.699 6.64651 16.755 6.51917 16.8018C6.51289 16.8041 6.51279 16.8043 6.50647 16.8066C6.45915 16.824 6.41246 16.8392 6.36292 16.8486C6.36633 16.8447 6.37028 16.8419 6.37366 16.8389C6.37135 16.8397 6.36913 16.8409 6.36682 16.8418C6.36569 16.8422 6.36404 16.8424 6.36292 16.8428V16.8555C6.26299 16.8842 6.16284 16.9117 6.06116 16.9336C6.04928 16.9362 6.04889 16.9358 6.03674 16.9385C6.00211 16.9457 5.97072 16.9511 5.93518 16.9502C5.93596 16.9486 5.93636 16.9469 5.93713 16.9453L5.93518 16.9463V16.957C5.83384 16.9709 5.7325 16.9841 5.63049 16.9922C5.62384 16.9927 5.61683 16.9936 5.60999 16.9941C5.57364 16.9968 5.53705 16.9986 5.50061 16.998C5.50198 16.9953 5.50313 16.992 5.50452 16.9893C5.49313 16.9896 5.48172 16.99 5.47034 16.9902C5.48042 16.9904 5.49053 16.991 5.50061 16.9912V16.998C5.07946 17.0025 5.07896 17.0022 4.9176 16.9775C4.91327 16.9769 4.90839 16.9763 4.90393 16.9756C4.82899 16.9641 4.75362 16.9516 4.67932 16.9365V16.9238H4.67639C4.67736 16.9258 4.67833 16.9277 4.67932 16.9297C4.41967 16.9075 4.15339 16.7888 3.91956 16.6787V16.667L3.9176 16.666C3.9126 16.6685 3.91195 16.6688 3.90588 16.6719C3.89451 16.6679 3.89433 16.668 3.88049 16.6611C3.87518 16.6585 3.86937 16.656 3.86389 16.6533L3.82874 16.6357C3.78093 16.6112 3.73357 16.5847 3.68713 16.5576C3.68068 16.5539 3.67425 16.5497 3.6676 16.5459C3.66164 16.5424 3.65519 16.5388 3.64905 16.5352C3.64382 16.5321 3.63881 16.5286 3.63342 16.5254C3.62114 16.5161 3.62067 16.5164 3.61389 16.4961C3.60966 16.4935 3.60542 16.4909 3.6012 16.4883C3.60657 16.4926 3.60933 16.4938 3.61389 16.5029C3.58516 16.4928 3.56092 16.4778 3.53577 16.4609C3.53151 16.4581 3.52648 16.4551 3.52209 16.4521C3.51317 16.4462 3.50463 16.4396 3.49573 16.4336C3.4823 16.4246 3.46819 16.4161 3.45471 16.4072C3.39748 16.3691 3.34272 16.3286 3.2887 16.2861C3.27978 16.2793 3.27028 16.2725 3.26135 16.2656C3.21971 16.2333 3.1791 16.1997 3.14026 16.1641C3.12688 16.1518 3.113 16.1398 3.09924 16.1279C3.01011 16.0501 2.9208 15.9684 2.84436 15.8779C2.83161 15.863 2.81764 15.8484 2.80432 15.834C2.76657 15.7921 2.73229 15.7477 2.69788 15.7031C2.69167 15.6951 2.68553 15.6867 2.67932 15.6787C2.59927 15.5755 2.59642 15.5718 2.59631 15.5557C2.593 15.5521 2.59032 15.5477 2.58655 15.5439C2.56495 15.5221 2.54867 15.4982 2.53186 15.4727C2.52841 15.4674 2.52467 15.4624 2.52112 15.457C2.37282 15.2302 2.26026 14.9878 2.16858 14.7334C2.16653 14.7277 2.16483 14.7217 2.16272 14.7158C2.06298 14.4362 1.99915 14.1411 1.97131 13.8457C1.97067 13.8393 1.97002 13.8328 1.96936 13.8262C1.96197 13.7411 1.96342 13.6556 1.9635 13.5703C1.96351 13.562 1.9635 13.5535 1.9635 13.5449C1.96366 13.4254 1.96502 13.3064 1.97815 13.1875C1.97897 13.1795 1.98023 13.1713 1.98108 13.1631C2.03302 12.6663 2.19067 12.1862 2.44299 11.7549C2.4529 11.7378 2.46264 11.7203 2.47229 11.7031C2.55558 11.5554 2.65707 11.4197 2.76624 11.29C2.76918 11.2865 2.772 11.2829 2.77502 11.2793C2.82104 11.2247 2.86876 11.1712 2.9176 11.1191C2.93034 11.1055 2.94302 11.0918 2.95569 11.0781C2.99829 11.0323 3.04017 10.9863 3.08752 10.9453C3.10073 10.9337 3.11385 10.9222 3.12659 10.9102C3.17255 10.8666 3.21992 10.8257 3.27014 10.7871C3.29725 10.7663 3.32379 10.7443 3.35022 10.7227C3.38094 10.6975 3.41242 10.6732 3.44495 10.6504C3.50802 10.6052 3.54908 10.5456 3.56702 10.4697C3.56869 10.4456 3.56898 10.4217 3.56799 10.3984L3.56018 10.334C3.55782 10.3288 3.5548 10.3237 3.55237 10.3184C3.52317 10.2568 3.49247 10.2139 3.43811 10.1729C3.38745 10.1337 3.34781 10.081 3.3219 10.0225V10.002C3.32743 10.0091 3.33154 10.0171 3.33655 10.0244C3.33385 10.0171 3.33061 10.0098 3.32874 10.002H3.31506C3.31179 9.99252 3.30852 9.98308 3.3053 9.97363C3.30349 9.96837 3.30228 9.96246 3.30042 9.95703C3.2621 9.83187 3.29091 9.70069 3.34924 9.58789C3.45928 9.38293 3.59366 9.1845 3.74963 9.01172C3.75559 9.00502 3.76223 8.99889 3.76819 8.99219C3.78676 8.97157 3.8057 8.95076 3.82483 8.93066C3.82899 8.92628 3.83324 8.92151 3.83752 8.91699C3.94367 8.806 4.09158 8.66191 4.25549 8.65723C4.28386 8.65736 4.28409 8.65752 4.29944 8.67285C4.30825 8.72029 4.29164 8.76038 4.27209 8.80273C4.26943 8.80872 4.26702 8.81513 4.26428 8.82129C4.23935 8.87671 4.21222 8.93143 4.1842 8.98535C4.18934 8.98239 4.19454 8.97864 4.19983 8.97559C4.37839 8.87633 4.59247 8.77857 4.80042 8.7793C4.8065 8.77919 4.8127 8.77941 4.81897 8.7793C4.85422 8.77927 4.88086 8.78099 4.91077 8.80176C4.92003 8.81648 4.91926 8.81693 4.92346 8.8291C4.9223 8.83082 4.92072 8.83228 4.91956 8.83398C4.92081 8.83649 4.92118 8.8382 4.92346 8.84277C4.88517 8.90479 4.8396 8.95798 4.78381 9.00488C4.75874 9.02718 4.73501 9.05123 4.71155 9.0752C4.69088 9.09616 4.66958 9.11588 4.64612 9.13379C4.6417 9.13158 4.637 9.12923 4.63245 9.12695C4.62973 9.12905 4.62739 9.13171 4.62463 9.13379C4.62447 9.14767 4.62402 9.1494 4.61292 9.16113C4.60715 9.16609 4.60127 9.17165 4.59534 9.17676C4.5891 9.18219 4.58223 9.18776 4.57581 9.19336C4.56521 9.20241 4.55419 9.21168 4.54358 9.2207C4.5008 9.25743 4.46112 9.29782 4.42151 9.33789C4.4126 9.3468 4.40309 9.35536 4.39417 9.36426C4.39418 9.36054 4.39543 9.357 4.39612 9.35352C4.38151 9.37455 4.36774 9.39656 4.35413 9.41992C4.34792 9.43044 4.34117 9.44088 4.33459 9.45117C4.28884 9.52279 4.25658 9.60451 4.26526 9.69043C4.27752 9.74059 4.29922 9.78019 4.33362 9.81836C4.33675 9.82188 4.34016 9.82548 4.34338 9.8291C4.41264 9.90587 4.49025 9.9687 4.59827 9.97559C4.62236 9.97611 4.64644 9.97661 4.67053 9.97656H5.14514C5.1894 9.97668 5.23369 9.97756 5.27795 9.97754C5.30441 9.97753 5.33157 9.97744 5.35803 9.97754C5.48159 9.97794 5.60277 9.9725 5.72522 9.9541C5.73919 9.95208 5.75324 9.95026 5.76721 9.94824C6.21738 9.88279 6.64684 9.68444 6.99573 9.39453C7.0066 9.38556 7.0179 9.37693 7.02893 9.36816C7.06979 9.33552 7.10683 9.30025 7.14319 9.2627C7.16409 9.24167 7.18552 9.22097 7.20667 9.2002C7.29126 9.11693 7.29091 9.11648 7.36682 9.02539C7.37294 9.01754 7.37925 9.0098 7.38538 9.00195C7.49536 8.85974 7.59529 8.70284 7.66565 8.53711C7.66838 8.53068 7.67162 8.5242 7.67444 8.51758C7.71473 8.42225 7.75206 8.32638 7.78284 8.22754C7.78726 8.21349 7.79274 8.19949 7.79749 8.18555C7.82 8.11571 7.82144 8.06058 7.79065 7.99316C7.77204 7.9589 7.75134 7.93683 7.72034 7.91406C7.71734 7.91085 7.71365 7.90761 7.71057 7.9043L7.70862 7.90332L7.65881 7.88672C7.62709 7.87781 7.59488 7.87773 7.56213 7.87793H7.42737C7.3945 7.87794 7.3616 7.87882 7.32874 7.87891H7.0592C6.97864 7.87896 6.89837 7.87952 6.81799 7.88574C6.75708 7.88967 6.70353 7.87765 6.65002 7.84863C6.64586 7.84646 6.64162 7.84403 6.63733 7.8418C6.62727 7.83654 6.61705 7.83155 6.60706 7.82617V7.82031C6.60099 7.81788 6.59473 7.81581 6.5885 7.81348C6.54984 7.79839 6.51529 7.77768 6.4801 7.75586C6.47342 7.75175 6.46648 7.7474 6.45959 7.74316C6.28679 7.63589 6.12612 7.51521 5.9762 7.37793C5.97247 7.37455 5.96831 7.37164 5.96448 7.36816C5.872 7.28415 5.87174 7.28376 5.83362 7.23633C5.83089 7.23304 5.82764 7.22897 5.82483 7.22559C5.74808 7.1332 5.66634 7.02329 5.6676 6.89844C5.67078 6.88391 5.67071 6.88365 5.69104 6.87012C5.79794 6.87663 5.89788 6.94245 5.98987 6.99219C5.98523 6.96986 5.97669 6.951 5.96643 6.93066C5.88048 6.75771 5.79286 6.5684 5.79065 6.37207C5.79045 6.3659 5.78988 6.3589 5.78967 6.35254C5.78932 6.31154 5.79413 6.28562 5.81995 6.25293C5.83899 6.24631 5.84909 6.24419 5.8678 6.25195C5.90876 6.28068 5.94416 6.31391 5.97913 6.34961C5.98473 6.35527 5.99093 6.36038 5.9967 6.36621C6.02991 6.40005 6.06131 6.4343 6.09045 6.47168C6.1129 6.49934 6.13736 6.5258 6.16174 6.55176C6.18443 6.57593 6.20645 6.60091 6.22815 6.62598C6.25642 6.65819 6.28587 6.68933 6.31506 6.7207C6.31944 6.72553 6.32422 6.73038 6.32874 6.73535C6.47442 6.88968 6.70428 6.99246 6.91565 7.00098C6.95763 7.00205 6.99964 7.00203 7.04163 7.00195H7.53186C7.59531 7.00123 7.64877 6.98091 7.69495 6.9375C7.7136 6.91699 7.72698 6.89456 7.73987 6.87012C7.74406 6.86216 7.74439 6.86162 7.74866 6.85352C7.77271 6.76914 7.74682 6.70149 7.71448 6.62305C7.7112 6.61509 7.70809 6.60683 7.70471 6.59863C7.63284 6.42698 7.54417 6.27015 7.4303 6.12305C7.41663 6.10525 7.40356 6.08643 7.39026 6.06836C7.30073 5.94932 7.19753 5.83261 7.08362 5.73633C7.07185 5.72638 7.05999 5.71627 7.04846 5.70605C6.91913 5.59201 6.77323 5.49304 6.61682 5.41992C6.59776 5.41094 6.57814 5.40181 6.5592 5.39258C6.45487 5.34237 6.34878 5.29994 6.23987 5.26074C6.1669 5.23445 6.09506 5.20731 6.02795 5.16797C6.02271 5.16491 6.01773 5.16135 6.01233 5.1582C5.93598 5.11278 5.86496 5.05893 5.79944 4.99902C5.79069 4.99138 5.78185 4.98319 5.77307 4.97559C5.76863 4.97168 5.76398 4.96789 5.7594 4.96387C5.74974 4.9554 5.73988 4.94682 5.7301 4.93848C5.67466 4.89021 5.62552 4.83624 5.57581 4.78223C5.56932 4.77525 5.56276 4.76772 5.55627 4.76074C5.52355 4.72525 5.49187 4.68891 5.46155 4.65137C5.44573 4.63233 5.42949 4.6139 5.41272 4.5957C5.38517 4.56577 5.35918 4.53457 5.33362 4.50293C5.31648 4.48192 5.29851 4.46103 5.28088 4.44043C5.25231 4.40692 5.22492 4.37264 5.19788 4.33789C5.1728 4.30579 5.14673 4.27451 5.12073 4.24316C5.08222 4.1967 5.04454 4.14916 5.00745 4.10156C4.99562 4.08642 4.98321 4.07173 4.97131 4.05664C4.93125 4.00582 4.89183 3.95446 4.85217 3.90332C4.83805 3.88512 4.82362 3.8666 4.8092 3.84863C4.77231 3.8024 4.73843 3.76012 4.73108 3.7002C4.7368 3.65607 4.75935 3.61898 4.78284 3.58203C4.78524 3.57819 4.78817 3.57427 4.79065 3.57031C4.79666 3.56072 4.80217 3.55058 4.80823 3.54102C4.81548 3.54427 4.82089 3.55006 4.82678 3.55371C4.82303 3.54957 4.81881 3.54516 4.81506 3.54102C4.82525 3.51211 4.84094 3.48809 4.85803 3.46289C4.86092 3.45858 4.86384 3.45366 4.86682 3.44922C4.87643 3.4349 4.88647 3.42054 4.89612 3.40625C4.90277 3.39635 4.90901 3.38588 4.91565 3.37598C4.9294 3.3555 4.94387 3.33492 4.95764 3.31445C4.98735 3.27028 5.01698 3.22594 5.04651 3.18164C5.06083 3.16017 5.07515 3.13865 5.08948 3.11719C5.09421 3.1101 5.09925 3.103 5.10413 3.0957C5.10745 3.09072 5.11047 3.08521 5.11389 3.08008C5.13204 3.08474 5.14898 3.09364 5.16663 3.09961C5.15143 3.09305 5.13581 3.08693 5.12073 3.08008C5.13049 3.04623 5.14798 3.03325 5.17542 3.0127ZM7.31018 11.5947H7.52991C7.54331 11.6317 7.55152 11.6697 7.56018 11.708C7.56184 11.7153 7.56433 11.723 7.56604 11.7305C7.57152 11.7545 7.57622 11.7787 7.58167 11.8027C7.58557 11.8199 7.59045 11.8373 7.59436 11.8545C7.60481 11.9004 7.61519 11.9463 7.62561 11.9922C7.63209 12.0208 7.63865 12.0496 7.64514 12.0781C7.66251 12.1546 7.67956 12.2312 7.6969 12.3076C7.72021 12.4104 7.74365 12.5135 7.76721 12.6162C7.87205 13.0734 7.87186 13.0736 7.90686 13.2979C7.91007 13.3184 7.91337 13.3389 7.91663 13.3594C7.94755 13.5547 7.9755 13.7508 7.99866 13.9473C8.00784 13.8847 8.01549 13.8216 8.02307 13.7588C8.02524 13.741 8.02773 13.7228 8.02991 13.7051C8.03045 13.7006 8.0313 13.696 8.03186 13.6914C8.05003 13.5431 8.06884 13.3948 8.09143 13.2471C8.09233 13.2412 8.09246 13.2346 8.09338 13.2285C8.11823 13.0655 8.15131 12.9035 8.18518 12.7422C8.18865 12.7256 8.19245 12.709 8.19592 12.6924C8.20424 12.6526 8.21199 12.6121 8.22034 12.5723L8.24963 12.4355C8.25439 12.4128 8.25855 12.3899 8.26331 12.3672C8.26422 12.3628 8.26529 12.358 8.26624 12.3535C8.27186 12.3266 8.27721 12.2993 8.28284 12.2725C8.30319 12.1753 8.32432 12.0777 8.34436 11.9805C8.35047 11.9508 8.35678 11.9212 8.36292 11.8916C8.3674 11.87 8.37119 11.8478 8.37561 11.8262C8.3803 11.8032 8.38548 11.7798 8.39026 11.7568C8.39152 11.7505 8.39286 11.7438 8.39417 11.7373C8.40245 11.698 8.41173 11.6638 8.44006 11.6338C8.52799 11.5803 8.67186 11.6011 8.77112 11.6016H8.90784C8.90357 11.6493 8.89456 11.6947 8.88342 11.7412C8.88071 11.7527 8.88031 11.753 8.87756 11.7646C8.8726 11.7857 8.86793 11.8071 8.86292 11.8281C8.85748 11.851 8.85171 11.8746 8.84631 11.8975C8.83704 11.9368 8.82731 11.9763 8.81799 12.0156C8.80456 12.0722 8.79132 12.1289 8.77795 12.1855C8.73586 12.3638 8.69423 12.5425 8.65198 12.7207C8.63306 12.8005 8.61323 12.8801 8.59436 12.96C8.58199 13.0123 8.5697 13.0649 8.55725 13.1172C8.54956 13.1495 8.54243 13.1825 8.53479 13.2148C8.53128 13.2297 8.52759 13.245 8.52405 13.2598C8.50765 13.3285 8.49194 13.3967 8.48303 13.4668C8.47957 13.4932 8.47341 13.519 8.46741 13.5449C8.46626 13.55 8.46566 13.5553 8.46448 13.5605C8.46076 13.5769 8.45657 13.5931 8.45276 13.6094C8.45143 13.6151 8.45022 13.6211 8.44885 13.627C8.31862 14.1848 8.10351 14.7357 7.49084 15.584C7.48222 15.5935 7.47385 15.6035 7.46545 15.6133C7.43438 15.6493 7.40154 15.6833 7.3678 15.7168C7.36017 15.7245 7.3598 15.7248 7.35217 15.7324C7.3199 15.7646 7.28623 15.7956 7.25159 15.8252C7.24508 15.8309 7.23876 15.8369 7.23206 15.8428C7.13452 15.9269 7.02949 16.0023 6.91956 16.0693C6.91165 16.0742 6.91104 16.0742 6.90295 16.0791C6.53933 16.2985 6.12194 16.403 5.69885 16.4033C5.69282 16.4033 5.68651 16.4033 5.6803 16.4033C5.51296 16.4033 5.34723 16.3889 5.18225 16.3604V16.3535C5.19852 16.3545 5.21481 16.3555 5.23108 16.3564C5.23774 16.3568 5.2383 16.357 5.24475 16.3574C5.27167 16.3591 5.29896 16.3617 5.32581 16.3643C5.90426 16.4177 6.49378 16.2617 6.94592 15.8926C6.9496 15.8896 6.95385 15.8868 6.95764 15.8838C7.0603 15.8006 7.15725 15.7063 7.23792 15.6016C7.24357 15.5948 7.24967 15.588 7.25549 15.5811C7.44119 15.3599 7.58156 15.0927 7.6842 14.8242C7.69317 14.8011 7.70204 14.7778 7.71155 14.7549C7.71747 14.7398 7.72423 14.725 7.7301 14.71C7.73295 14.7034 7.73499 14.6963 7.73792 14.6895C7.75367 14.6471 7.75406 14.6138 7.74377 14.5703C7.74255 14.5649 7.74112 14.5593 7.73987 14.5537C7.73555 14.5346 7.73165 14.5152 7.72717 14.4961C7.72377 14.4814 7.71983 14.4668 7.71643 14.4521C7.70539 14.4047 7.69448 14.357 7.68323 14.3096C7.67743 14.2851 7.67143 14.2608 7.66565 14.2363C7.65573 14.1944 7.64531 14.1523 7.63538 14.1104C7.61973 14.0443 7.60413 13.9781 7.5885 13.9121C7.58326 13.89 7.57811 13.8678 7.57288 13.8457C7.57157 13.8402 7.57032 13.8338 7.56897 13.8281C7.55975 13.7892 7.55085 13.7499 7.54163 13.7109C7.49983 13.5345 7.4573 13.3581 7.41565 13.1816C7.4054 13.1382 7.39563 13.0942 7.38538 13.0508C7.38373 13.0438 7.38219 13.0365 7.38049 13.0293C7.37714 13.0151 7.3731 13.0005 7.36975 12.9863C7.36484 12.9655 7.36001 12.9446 7.3551 12.9238C7.33283 12.8295 7.31098 12.735 7.2887 12.6406C7.28642 12.631 7.28608 12.6307 7.28381 12.6211C7.26738 12.5515 7.25044 12.4817 7.23401 12.4121C7.22974 12.394 7.22558 12.3755 7.22131 12.3574C7.21855 12.3457 7.21626 12.3339 7.2135 12.3223C7.19515 12.2446 7.17615 12.1665 7.15784 12.0889C7.14826 12.0483 7.1391 12.0074 7.12952 11.9668C7.1219 11.9345 7.11368 11.9024 7.10608 11.8701C7.10148 11.8506 7.09702 11.831 7.09241 11.8115C7.08928 11.7983 7.08674 11.7847 7.08362 11.7715C7.08087 11.7598 7.0805 11.7597 7.07776 11.748C7.07619 11.7414 7.07449 11.7344 7.07288 11.7275C7.06869 11.7099 7.06897 11.7091 7.06213 11.6895C7.05968 11.6661 7.05722 11.6439 7.06897 11.623C7.13197 11.5865 7.21832 11.5934 7.2887 11.5938C7.29913 11.5938 7.29956 11.5947 7.31018 11.5947ZM17.4244 10.5576V11.6016H18.0289C18.0289 11.9532 18.0286 11.9537 17.9879 12.002C17.9775 12.0071 17.9667 12.0084 17.9557 12.0088H17.4244C17.4252 12.2229 17.4266 12.4372 17.4274 12.6514V12.7432C17.4277 12.8245 17.4281 12.906 17.4283 12.9873C17.4286 13.071 17.429 13.1546 17.4293 13.2383C17.4295 13.2853 17.4292 13.3329 17.4293 13.3799C17.4295 13.6076 17.4295 13.608 17.4342 13.8359C17.4346 13.8467 17.4348 13.8472 17.4352 13.8584C17.4389 13.9515 17.4492 14.0622 17.5201 14.1299C17.5982 14.1783 17.6919 14.1712 17.7789 14.1523C17.8499 14.1348 17.9193 14.108 17.9879 14.083C18.0491 14.3219 18.0493 14.3223 18.0055 14.4209C17.9835 14.4573 17.9567 14.481 17.9205 14.5029C17.9155 14.506 17.9101 14.5095 17.9049 14.5127C17.7978 14.5717 17.6684 14.5804 17.5485 14.5801C17.5339 14.5801 17.5191 14.5799 17.5045 14.5801C17.363 14.5807 17.232 14.5492 17.1256 14.4512C16.9396 14.2552 16.9621 13.9235 16.9625 13.6738V13.0586C16.9626 12.9699 16.9635 12.8807 16.9635 12.792V12.0088H16.5631C16.5628 11.9694 16.5624 11.9293 16.5621 11.8887C16.562 11.8765 16.5623 11.8641 16.5621 11.8516C16.5611 11.6803 16.5611 11.6803 16.5973 11.6221C16.6293 11.5946 16.6657 11.599 16.7057 11.5996C16.7128 11.5996 16.7199 11.5996 16.7272 11.5996C16.7499 11.5997 16.7728 11.6003 16.7955 11.6006C16.811 11.6007 16.8269 11.6005 16.8424 11.6006C16.8804 11.6008 16.9186 11.6011 16.9567 11.6016C16.9566 11.5971 16.9567 11.5925 16.9567 11.5879C16.9562 11.4735 16.9559 11.3585 16.9557 11.2441C16.9556 11.1888 16.9549 11.1334 16.9547 11.0781V10.7852C16.9547 10.7723 16.9538 10.759 16.9537 10.7461C16.9539 10.6944 16.9552 10.6423 16.9918 10.6025C17.1164 10.5306 17.2939 10.5576 17.4244 10.5576ZM12.2487 11.5459C12.4669 11.5212 12.7116 11.5405 12.8844 11.6895C12.8916 11.6951 12.892 11.6956 12.899 11.7012C13.065 11.8369 13.1263 12.0733 13.1481 12.2764C13.1527 12.3265 13.1547 12.3766 13.1559 12.4268V12.6016C13.1519 12.815 13.1334 13.0253 13.0953 13.2354C12.899 13.2725 12.7018 13.2937 12.5026 13.3076C12.4968 13.308 12.4909 13.3092 12.485 13.3096C12.3324 13.3201 12.1799 13.3248 12.027 13.3242C12.0114 13.3242 11.9948 13.3242 11.9791 13.3242C11.9417 13.3241 11.9042 13.3234 11.8668 13.3232C11.8679 13.328 11.8687 13.333 11.8698 13.3379C11.8732 13.3565 11.8745 13.3747 11.8756 13.3936C11.8896 13.6115 11.9112 13.8586 12.0836 14.0137C12.2124 14.1175 12.4067 14.1153 12.5631 14.0996C12.7243 14.08 12.8803 14.0292 13.0231 13.9521C13.0355 13.9456 13.0484 13.9394 13.0612 13.9336C13.0678 13.9358 13.0748 13.9381 13.0817 13.9404C13.1141 14.0255 13.1166 14.1297 13.1178 14.2197C13.1179 14.2249 13.1177 14.2301 13.1178 14.2354C13.1177 14.2931 13.0942 14.3394 13.0543 14.3809C12.8571 14.5465 12.5621 14.5721 12.3151 14.5723C12.3096 14.5723 12.304 14.5723 12.2985 14.5723C12.0678 14.5721 11.8397 14.5272 11.6696 14.3604C11.379 14.06 11.3655 13.5561 11.3707 13.1631C11.371 13.1488 11.3704 13.1344 11.3707 13.1201C11.3709 13.1124 11.3716 13.1046 11.3717 13.0967C11.3795 12.676 11.4103 12.1597 11.6969 11.8252C11.6998 11.8218 11.7027 11.818 11.7057 11.8145C11.8407 11.6548 12.0271 11.5721 12.233 11.5479C12.2381 11.5472 12.2434 11.5465 12.2487 11.5459ZM13.7379 11.5947H13.903C13.916 11.6367 13.9241 11.6795 13.9323 11.7227C13.9345 11.7345 13.9348 11.7349 13.9371 11.7471C13.9413 11.7688 13.9447 11.7907 13.9489 11.8125C13.9515 11.8264 13.954 11.8406 13.9567 11.8545C13.969 11.9193 13.9816 11.984 13.9938 12.0488C13.9967 12.0643 13.9996 12.0802 14.0026 12.0957C14.0983 12.6045 14.1811 13.1138 14.2633 13.7617C14.2648 13.7741 14.2647 13.7745 14.2662 13.7871C14.2691 13.8099 14.2723 13.8327 14.275 13.8555C14.2758 13.8621 14.2761 13.8691 14.277 13.876C14.2806 13.9067 14.2838 13.9368 14.2828 13.9678H14.317C14.318 13.9595 14.3189 13.9509 14.3199 13.9424C14.3373 13.7975 14.3581 13.6531 14.3795 13.5088C14.3812 13.4978 14.3818 13.4976 14.3834 13.4863C14.4348 13.1401 14.4921 12.7945 14.5494 12.4492C14.5529 12.4285 14.5558 12.4075 14.5592 12.3867C14.5725 12.3063 14.5858 12.2259 14.5992 12.1455C14.6034 12.1208 14.6078 12.096 14.6119 12.0713C14.6241 11.9984 14.6363 11.9254 14.649 11.8525C14.6503 11.8452 14.6516 11.8377 14.653 11.8301C14.6562 11.8116 14.6602 11.7928 14.6637 11.7744C14.6649 11.7672 14.6644 11.7668 14.6656 11.7598C14.6722 11.7275 14.6852 11.7101 14.7106 11.6895C14.7321 11.6824 14.7475 11.6826 14.7701 11.6826H15.1383C15.1719 11.8552 15.2044 12.0283 15.236 12.2012C15.2385 12.2151 15.2403 12.2292 15.2428 12.2432C15.2577 12.3245 15.2729 12.4059 15.2877 12.4873C15.299 12.5492 15.3106 12.6119 15.3219 12.6738C15.3227 12.6783 15.323 12.6829 15.3239 12.6875C15.3474 12.8163 15.373 12.9449 15.399 13.0732C15.4239 13.1955 15.4462 13.3181 15.4655 13.4414C15.4683 13.4591 15.4705 13.4775 15.4733 13.4951C15.4903 13.603 15.507 13.7111 15.5221 13.8193C15.5229 13.8254 15.5241 13.8316 15.525 13.8379C15.5274 13.8548 15.5296 13.8718 15.5319 13.8887C15.5325 13.8935 15.5331 13.8984 15.5338 13.9033C15.5367 13.925 15.5387 13.9459 15.5387 13.9678H15.5651C15.5653 13.9611 15.5658 13.9541 15.566 13.9473C15.5703 13.852 15.5814 13.7577 15.5924 13.6631C15.5939 13.6499 15.5938 13.6492 15.5953 13.6357C15.6125 13.4878 15.6314 13.34 15.651 13.1924C15.653 13.1773 15.6549 13.1615 15.6569 13.1465C15.7015 12.806 15.7577 12.4673 15.8209 12.1299C15.828 12.0921 15.8354 12.0544 15.8424 12.0166C15.8501 11.9748 15.858 11.9325 15.8658 11.8906C15.8691 11.8734 15.8724 11.8561 15.8756 11.8389C15.8801 11.8147 15.8847 11.7897 15.8893 11.7656C15.8905 11.7589 15.8919 11.7521 15.8932 11.7451C15.9094 11.6599 15.909 11.659 15.9362 11.6299C16.0243 11.5847 16.1503 11.6011 16.2467 11.6016H16.3727C16.3687 11.6585 16.3581 11.7138 16.3463 11.7695C16.3442 11.7795 16.3425 11.7899 16.3405 11.7998C16.3348 11.8269 16.3286 11.8538 16.3229 11.8809C16.3168 11.9098 16.3104 11.9388 16.3043 11.9678C16.2926 12.0239 16.2809 12.0806 16.2692 12.1367C16.2597 12.1819 16.2503 12.2272 16.2408 12.2725C16.2395 12.2789 16.2383 12.2863 16.2369 12.293C16.2342 12.3059 16.2309 12.3191 16.2281 12.332C16.2011 12.4613 16.1742 12.5905 16.1471 12.7197L16.1393 12.7568C16.1284 12.8089 16.118 12.861 16.1071 12.9131C16.0368 13.2485 15.9655 13.584 15.8932 13.9189C15.8888 13.9393 15.8839 13.9601 15.8795 13.9805C15.8508 14.1137 15.8219 14.2472 15.7906 14.3799C15.7877 14.3925 15.7848 14.4053 15.7819 14.418C15.7778 14.4354 15.7733 14.4533 15.7692 14.4707C15.768 14.4758 15.7665 14.4811 15.7653 14.4863C15.7567 14.5217 15.7569 14.522 15.7418 14.5371C15.7235 14.5399 15.7232 14.5395 15.6998 14.541C15.6915 14.5416 15.6831 14.5424 15.6744 14.543C15.6652 14.5435 15.6553 14.5444 15.6461 14.5449C15.6416 14.5452 15.6371 14.5456 15.6324 14.5459C15.3947 14.5603 15.3943 14.5599 15.3268 14.502C15.216 14.3958 15.1893 14.2591 15.1608 14.1143C15.1578 14.0993 15.154 14.0843 15.151 14.0693C15.1431 14.0297 15.1354 13.9899 15.1276 13.9502C15.1227 13.9256 15.1178 13.9006 15.1129 13.876C15.0665 13.6408 15.0221 13.4054 14.9889 13.168C14.9877 13.1598 14.9862 13.151 14.985 13.1426C14.9606 12.969 14.9379 12.7952 14.9176 12.6211C14.9168 12.6141 14.9165 12.6135 14.9156 12.6064C14.91 12.5584 14.9056 12.5113 14.9069 12.4629H14.8932C14.8934 12.4709 14.894 12.479 14.8942 12.4873C14.8941 12.529 14.8887 12.57 14.8834 12.6113C14.8824 12.6197 14.8816 12.6281 14.8805 12.6367C14.8776 12.6598 14.8746 12.6839 14.8717 12.707C14.8699 12.7214 14.8677 12.7357 14.8658 12.75C14.849 12.8829 14.8312 13.0159 14.8121 13.1484C14.8112 13.1551 14.8102 13.1621 14.8092 13.1689C14.7653 13.4762 14.7079 13.7814 14.6481 14.0859C14.6406 14.124 14.633 14.1622 14.6256 14.2002C14.6184 14.2376 14.6105 14.2752 14.6031 14.3125C14.5988 14.3345 14.5947 14.3569 14.5905 14.3789C14.5858 14.4029 14.5815 14.4272 14.5768 14.4512C14.5754 14.4583 14.5733 14.4653 14.5719 14.4727C14.5706 14.4791 14.5693 14.4856 14.568 14.4922C14.5669 14.4979 14.5662 14.5039 14.5651 14.5098C14.561 14.5234 14.561 14.5236 14.5475 14.5371C14.527 14.5393 14.5065 14.5402 14.486 14.541C14.4799 14.5413 14.4737 14.5417 14.4674 14.542C14.4544 14.5426 14.4414 14.5434 14.4283 14.5439C14.4086 14.5447 14.3885 14.545 14.3688 14.5459C14.3096 14.5485 14.2503 14.5512 14.191 14.5518C14.1822 14.5518 14.1728 14.5517 14.1637 14.5518C14.1182 14.549 14.0885 14.5335 14.0573 14.501C13.9804 14.404 13.9603 14.2766 13.9332 14.1592C13.9302 14.1461 13.9265 14.1332 13.9235 14.1201C13.8797 13.9332 13.838 13.7451 13.7965 13.5576C13.7905 13.5303 13.784 13.5029 13.778 13.4756C13.708 13.1602 13.6393 12.8441 13.5709 12.5283C13.5531 12.446 13.5343 12.3635 13.5162 12.2812C13.5021 12.2168 13.4883 12.1523 13.4742 12.0879C13.4658 12.0493 13.4573 12.0103 13.4489 11.9717C13.441 11.936 13.4332 11.9 13.4254 11.8643C13.4226 11.8511 13.4195 11.8373 13.4166 11.8242C13.4127 11.8063 13.4088 11.7884 13.4049 11.7705C13.4032 11.7628 13.4028 11.7628 13.401 11.7549C13.3815 11.6627 13.3815 11.6622 13.403 11.625C13.4709 11.5852 13.569 11.5933 13.6451 11.5938C13.6524 11.5938 13.6601 11.5937 13.6676 11.5938C13.6909 11.5938 13.7146 11.5946 13.7379 11.5947ZM5.72327 11.7744C5.9413 11.7369 6.21096 11.7318 6.40295 11.8594C6.53506 11.957 6.58068 12.1049 6.60413 12.2607C6.62412 12.4072 6.62174 12.5567 6.6217 12.7041V14.085C6.62177 14.1302 6.62273 14.1755 6.62268 14.2207V14.3867C6.62231 14.4672 6.62225 14.4678 6.59534 14.4951C6.5167 14.5374 6.39249 14.5183 6.30627 14.5176C6.29016 14.5175 6.27356 14.5176 6.25745 14.5176C6.21799 14.5174 6.17776 14.5169 6.13831 14.5166C6.1383 14.5124 6.13831 14.5082 6.13831 14.5039C6.13776 14.2483 6.13706 13.9919 6.13635 13.7363V13.626C6.13608 13.5271 6.13558 13.428 6.13538 13.3291C6.13516 13.2277 6.13568 13.1259 6.13538 13.0244C6.13519 12.9619 6.1345 12.8994 6.1344 12.8369V12.6338C6.14191 12.4293 6.14145 12.4291 6.06409 12.2461C6.0015 12.1864 5.92185 12.1774 5.8385 12.1777C5.7187 12.1811 5.60642 12.213 5.49963 12.2666C5.49484 12.269 5.48992 12.2719 5.48499 12.2744C5.48134 12.2762 5.47701 12.2774 5.47327 12.2793C5.47326 12.2837 5.47328 12.2884 5.47327 12.293C5.47272 12.563 5.47202 12.8335 5.47131 13.1035V13.2207C5.47104 13.3251 5.47054 13.4297 5.47034 13.5342C5.47013 13.6413 5.47065 13.7484 5.47034 13.8555C5.47015 13.9217 5.46946 13.9885 5.46936 14.0547V14.2695C5.46935 14.2978 5.46851 14.3263 5.46838 14.3545C5.4684 14.3625 5.46837 14.3706 5.46838 14.3789C5.46789 14.4529 5.46859 14.4538 5.45374 14.4893C5.39738 14.5237 5.32519 14.5179 5.26135 14.5176C5.25367 14.5176 5.24583 14.5176 5.23792 14.5176C5.21351 14.5175 5.18908 14.5167 5.16467 14.5166H4.99182C4.99181 14.5122 4.99183 14.5075 4.99182 14.5029C4.99127 14.2413 4.99058 13.9794 4.98987 13.7178V13.6045C4.9896 13.5033 4.9891 13.402 4.98889 13.3008C4.98868 13.197 4.98822 13.0931 4.98792 12.9893C4.98773 12.9253 4.98801 12.8608 4.98792 12.7969C4.98784 12.7529 4.9871 12.7081 4.98694 12.6641V12.4814C4.98638 12.399 4.98214 12.3061 4.92834 12.2393C4.83732 12.1676 4.71553 12.1719 4.6051 12.1846C4.50306 12.198 4.41136 12.2333 4.31995 12.2793C4.31994 12.2837 4.31996 12.2884 4.31995 12.293C4.3194 12.564 4.3187 12.8354 4.31799 13.1064V13.2236C4.31772 13.3284 4.31722 13.4333 4.31702 13.5381C4.31681 13.6457 4.31635 13.7537 4.31604 13.8613C4.31585 13.9277 4.31614 13.9942 4.31604 14.0605C4.31597 14.1061 4.31522 14.1517 4.31506 14.1973V14.4297C4.31306 14.4516 4.30825 14.469 4.29944 14.4893C4.19729 14.5657 3.86717 14.5238 3.83167 14.5234V11.9473C4.02949 11.8682 4.02979 11.8679 4.0885 11.8506C4.09553 11.8485 4.10275 11.8469 4.10999 11.8447C4.24312 11.8057 4.3782 11.7785 4.51624 11.7646C4.52557 11.7637 4.52627 11.7637 4.53577 11.7627C4.5914 11.7575 4.64691 11.7559 4.70276 11.7559C4.70749 11.7559 4.71253 11.7559 4.71741 11.7559C4.895 11.7561 5.07603 11.7832 5.21545 11.9023C5.22955 11.9148 5.23007 11.9143 5.24963 11.9268C5.26627 11.92 5.28171 11.9127 5.29749 11.9043C5.4249 11.8409 5.56488 11.8028 5.70471 11.7783C5.71076 11.7772 5.71704 11.7755 5.72327 11.7744ZM9.17249 11.7441C9.58016 11.5405 10.358 11.3797 10.7389 11.709C10.8779 11.8412 10.9192 12.0427 10.9244 12.2275V13.8555C10.9244 13.9182 10.9253 13.9812 10.9254 14.0439V14.4443C10.9236 14.4629 10.9203 14.4739 10.9098 14.4893C10.845 14.5205 10.7743 14.5179 10.7037 14.5176C10.696 14.5176 10.6882 14.5176 10.6803 14.5176C10.6559 14.5175 10.6315 14.5167 10.6071 14.5166H10.4352C10.4352 14.5121 10.4342 14.5076 10.4342 14.5029C10.4337 14.2296 10.4339 13.9559 10.4332 13.6826C10.4331 13.6498 10.4323 13.6168 10.4323 13.584V13.2471C10.432 13.1385 10.4316 13.0295 10.4313 12.9209C10.4311 12.8542 10.4304 12.7874 10.4303 12.7207V12.5029C10.4399 12.2601 10.4395 12.2598 10.3395 12.0488C10.3361 12.0452 10.3322 12.0418 10.3287 12.0381C10.2542 11.966 10.1438 11.9716 10.0475 11.9727C9.92384 11.9761 9.79574 12.0062 9.68616 12.0645C9.67493 12.0697 9.67433 12.0693 9.66077 12.0693C9.66078 12.0744 9.66075 12.0797 9.66077 12.085C9.66153 12.3857 9.66237 12.6865 9.66272 12.9873V13.1172C9.66287 13.2336 9.66338 13.3504 9.6637 13.4668C9.66401 13.5862 9.6646 13.7058 9.66467 13.8252V14.3662C9.66466 14.3756 9.66555 14.3851 9.66565 14.3945C9.66639 14.4666 9.66614 14.467 9.64905 14.498C9.53813 14.5582 9.20694 14.5236 9.17932 14.5234C9.17708 13.6063 9.17479 12.6891 9.17249 11.7441ZM12.3346 11.9717C12.2269 11.9716 12.1397 12.0238 12.0709 12.1045C11.9416 12.2789 11.9051 12.5079 11.8785 12.7178C11.8775 12.7262 11.8757 12.7345 11.8746 12.7432C11.8665 12.812 11.863 12.881 11.86 12.9502C12.1286 12.9528 12.3976 12.9496 12.6608 12.8896C12.6641 12.8722 12.6673 12.8544 12.6705 12.8369C12.6719 12.8299 12.6721 12.8295 12.6735 12.8223C12.6895 12.734 12.689 12.6451 12.6891 12.5557C12.6891 12.5495 12.6891 12.5434 12.6891 12.5371C12.6905 12.2726 12.6905 12.2719 12.5739 12.043C12.5107 11.9851 12.4353 11.9724 12.3522 11.9727C12.3464 11.9725 12.3406 11.9718 12.3346 11.9717ZM7.51624 5.10352V5.10059C7.52295 5.10059 7.5264 5.10085 7.52991 5.10254V5.10059C7.52586 5.09998 7.52138 5.09926 7.51721 5.09863C7.51398 5.09753 7.51186 5.09493 7.5094 5.09375C7.51161 5.09705 7.51402 5.10022 7.51624 5.10352ZM5.50549 4.3457C5.50731 4.35191 5.50862 4.35823 5.51038 4.36426C5.51245 4.37137 5.51519 4.37883 5.51721 4.38574C5.51933 4.39295 5.52102 4.40022 5.52307 4.40723C5.53714 4.4556 5.55204 4.50393 5.56799 4.55176H5.72424C5.72424 4.54507 5.72413 4.54475 5.71545 4.53418L5.69202 4.50684C5.68707 4.50127 5.68218 4.49565 5.67737 4.49023C5.64919 4.45781 5.61986 4.42585 5.59045 4.39453C5.58616 4.38997 5.58194 4.38529 5.57776 4.38086C5.55027 4.35155 5.52239 4.32215 5.49377 4.29395C5.49703 4.31128 5.5009 4.32866 5.50549 4.3457ZM6.05725 3.46094V3.4668C6.09066 3.48088 6.12441 3.49475 6.15784 3.50879C6.17146 3.51451 6.18523 3.52064 6.19885 3.52637C6.21887 3.5348 6.23937 3.54335 6.2594 3.55176C6.26591 3.55449 6.27261 3.55788 6.27893 3.56055C6.32195 3.57872 6.36524 3.59531 6.40979 3.60938C6.40912 3.60803 6.40847 3.60673 6.40784 3.60547C6.41117 3.60692 6.41425 3.60895 6.4176 3.61035C6.40527 3.59975 6.3979 3.58627 6.38831 3.57031C6.37816 3.5511 6.36474 3.52389 6.32874 3.45996H6.12366C6.08052 3.45452 6.03854 3.4477 5.9967 3.43652C6.01683 3.44474 6.03715 3.45261 6.05725 3.46094Z" fill="white"/>
</svg>
