<svg width="20" height="20" viewBox="0 0 20 20" fill="none" xmlns="http://www.w3.org/2000/svg">
<path d="M12.4889 3.74805C13.3234 3.74805 13.9999 4.42461 13.9999 5.25919C13.9999 6.09377 13.3234 6.77028 12.4889 6.77028C11.9234 6.77028 11.4305 6.45977 11.1714 5.99989H10.474C9.25895 5.99989 8.27167 6.97508 8.25203 8.18546L8.25167 9.28866C8.8755 8.81938 9.6322 8.56025 10.4127 8.54859L10.474 8.54807L11.1714 8.54817C11.4305 8.08829 11.9234 7.77773 12.4889 7.77773C13.3234 7.77773 13.9999 8.45429 13.9999 9.28887C13.9999 10.1234 13.3234 10.8 12.4889 10.8C11.9234 10.8 11.4305 10.4894 11.1714 10.0296H10.474C9.25895 10.0296 8.27167 11.0048 8.25203 12.2151L8.25167 13.4233C8.71155 13.6824 9.02211 14.1753 9.02211 14.7408C9.02211 15.5754 8.34555 16.2519 7.51097 16.2519C6.67644 16.2519 5.99988 15.5753 5.99988 14.7408C5.99988 14.1753 6.31039 13.6824 6.77032 13.4233L6.77022 8.22219C6.77022 6.19708 8.39546 4.55163 10.4127 4.51896L10.474 4.51844H11.1714C11.4305 4.05866 11.9234 3.74805 12.4889 3.74805ZM7.51097 14.1185C7.16732 14.1185 6.88875 14.3971 6.88875 14.7408C6.88875 15.0844 7.16732 15.363 7.51097 15.363C7.85462 15.363 8.13324 15.0844 8.13324 14.7408C8.13324 14.3971 7.85462 14.1185 7.51097 14.1185ZM12.4889 8.66665C12.1452 8.66665 11.8666 8.94522 11.8666 9.28887C11.8666 9.63252 12.1452 9.91109 12.4889 9.91109C12.8325 9.91109 13.1111 9.63252 13.1111 9.28887C13.1111 8.94522 12.8325 8.66665 12.4889 8.66665ZM12.4889 4.63697C12.1452 4.63697 11.8666 4.91554 11.8666 5.25919C11.8666 5.60284 12.1452 5.88141 12.4889 5.88141C12.8325 5.88141 13.1111 5.60284 13.1111 5.25919C13.1111 4.91554 12.8325 4.63697 12.4889 4.63697Z" fill="white"/>
</svg>
