<svg width="20" height="20" viewBox="0 0 20 20" fill="none" xmlns="http://www.w3.org/2000/svg">
<path d="M12.8241 12.3131C12.8241 12.4074 12.8616 12.4979 12.9283 12.5646C12.995 12.6313 13.0855 12.6688 13.1798 12.6688C13.2742 12.6688 13.3647 12.6313 13.4314 12.5646C13.4981 12.4979 13.5356 12.4074 13.5356 12.3131C13.5356 12.2187 13.4981 12.1283 13.4314 12.0616C13.3647 11.9949 13.2742 11.9574 13.1798 11.9574C13.0855 11.9574 12.995 11.9949 12.9283 12.0616C12.8616 12.1283 12.8241 12.2187 12.8241 12.3131ZM8.10308 14.4303H11.8874C12.0373 14.4303 12.1492 14.3179 12.1592 14.1685V11.5832C12.1492 11.4423 12.0278 11.3209 11.8874 11.3299H8.10308C8.03247 11.3294 7.96445 11.3565 7.91364 11.4056C7.86283 11.4546 7.83327 11.5216 7.83131 11.5922V14.168C7.83131 14.3184 7.95321 14.4303 8.10308 14.4303ZM14.6231 12.6693C14.671 12.6694 14.7184 12.66 14.7627 12.6417C14.8069 12.6234 14.8471 12.5966 14.881 12.5628C14.9149 12.529 14.9417 12.4888 14.9601 12.4446C14.9784 12.4004 14.9878 12.353 14.9878 12.3051C14.9879 12.2329 14.9666 12.1624 14.9266 12.1023C14.8866 12.0423 14.8297 11.9955 14.7631 11.9678C14.6964 11.9401 14.6231 11.9328 14.5523 11.9468C14.4815 11.9609 14.4165 11.9956 14.3654 12.0465C14.3144 12.0975 14.2796 12.1625 14.2655 12.2333C14.2514 12.304 14.2586 12.3774 14.2862 12.444C14.3138 12.5107 14.3605 12.5677 14.4205 12.6078C14.4805 12.6479 14.551 12.6693 14.6231 12.6693ZM13.9022 12.6598C13.8543 12.658 13.8065 12.666 13.7617 12.6831C13.7169 12.7002 13.676 12.7262 13.6415 12.7595C13.607 12.7928 13.5795 12.8328 13.5608 12.8769C13.5421 12.9211 13.5324 12.9685 13.5325 13.0165C13.5325 13.0645 13.5422 13.1119 13.561 13.1561C13.5798 13.2002 13.6073 13.2401 13.6419 13.2733C13.6764 13.3066 13.7174 13.3325 13.7622 13.3496C13.807 13.3667 13.8548 13.3745 13.9027 13.3727C13.995 13.3692 14.0822 13.3301 14.1462 13.2635C14.2102 13.197 14.2459 13.1083 14.2459 13.016C14.2458 12.9237 14.21 12.835 14.1459 12.7686C14.0818 12.7022 13.9945 12.6632 13.9022 12.6598ZM13.546 11.5922C13.546 11.6865 13.5835 11.777 13.6502 11.8437C13.7169 11.9104 13.8074 11.9479 13.9017 11.9479C13.9961 11.9479 14.0866 11.9104 14.1533 11.8437C14.22 11.777 14.2575 11.6865 14.2575 11.5922C14.2575 11.4978 14.22 11.4074 14.1533 11.3407C14.0866 11.274 13.9961 11.2365 13.9017 11.2365C13.8074 11.2365 13.7169 11.274 13.6502 11.3407C13.5835 11.4074 13.546 11.4978 13.546 11.5922ZM5.27394 12.3041C5.27394 12.5227 5.36079 12.7324 5.51537 12.887C5.66996 13.0416 5.87963 13.1284 6.09825 13.1284C6.31687 13.1284 6.52654 13.0416 6.68113 12.887C6.83572 12.7324 6.92256 12.5227 6.92256 12.3041C6.92256 12.0855 6.83572 11.8758 6.68113 11.7212C6.52654 11.5666 6.31687 11.4798 6.09825 11.4798C5.87963 11.4798 5.66996 11.5666 5.51537 11.7212C5.36079 11.8758 5.27394 12.0855 5.27394 12.3041ZM14.6321 4.00501H5.36786C5.00631 4.00395 4.65914 4.14649 4.40264 4.4013C4.14615 4.6561 4.00132 5.00233 4 5.36388V14.6272C4.00949 15.386 4.61848 15.995 5.36786 15.995H14.6231C14.9852 15.9954 15.3329 15.853 15.5907 15.5987C15.8484 15.3444 15.9955 14.9987 16 14.6367V5.37237C15.9905 4.614 15.3815 4.00501 14.6321 4.00501ZM15.5878 14.6367C15.5868 14.8897 15.4858 15.132 15.3069 15.3109C15.128 15.4898 14.8857 15.5908 14.6326 15.5919H5.36786C5.11476 15.5909 4.87228 15.49 4.69327 15.3111C4.51425 15.1322 4.41321 14.8897 4.41216 14.6367V10.4122H15.5873L15.5878 14.6367ZM15.5878 9.79369H4.41216V5.37237C4.41308 5.11919 4.51406 4.87663 4.69309 4.6976C4.87212 4.51857 5.11468 4.41759 5.36786 4.41667H14.6321C15.1562 4.41667 15.5873 4.84781 15.5873 5.37237L15.5878 9.79369ZM12.7022 5.55972H7.26928C7.1194 5.55972 6.9975 5.69111 6.9975 5.84098V8.5762C6.9975 8.72608 7.11041 8.85747 7.26928 8.85747H12.7022C12.7387 8.85721 12.7747 8.8497 12.8082 8.83535C12.8416 8.82101 12.8719 8.80013 12.8972 8.77394C12.9225 8.74774 12.9424 8.71676 12.9556 8.68281C12.9687 8.64885 12.975 8.61261 12.974 8.5762V5.83149C12.9741 5.79578 12.9671 5.76041 12.9535 5.72741C12.9398 5.6944 12.9198 5.66442 12.8946 5.63917C12.8693 5.61392 12.8393 5.5939 12.8063 5.58027C12.7733 5.56663 12.738 5.55965 12.7022 5.55972Z" fill="white"/>
</svg>
