<svg width="20" height="20" viewBox="0 0 20 20" fill="none" xmlns="http://www.w3.org/2000/svg">
<path d="M17.121 9.55089C17.0966 9.26184 17.048 8.9788 16.981 8.69575C16.9506 8.55117 16.9019 8.41265 16.8654 8.26812L16.7985 8.06939L16.7619 7.973L16.7193 7.86465C16.6159 7.59963 16.488 7.3467 16.342 7.09977C16.0841 6.65682 15.769 6.2498 15.4047 5.88923L15.35 5.83509L15.3256 5.80492L15.283 5.7688C15.2464 5.73268 15.21 5.70258 15.1734 5.66646C15.1369 5.63629 15.1004 5.60018 15.07 5.57007C15.0274 5.53389 14.9908 5.50379 14.9482 5.47368L14.8509 5.39538L14.8022 5.35926L14.79 5.34724L14.7596 5.32314L14.7535 5.31713L14.7291 5.29905C14.6683 5.25686 14.6135 5.22074 14.5587 5.18463C14.4613 5.11834 14.3883 5.06414 14.3335 5.02802C14.3944 4.79918 14.4431 4.56427 14.4796 4.32942C14.5405 3.97409 14.79 3.23938 14.2788 3.02857C13.798 2.82983 13.1711 3.73317 13.1711 3.73317C11.9113 5.18463 11.1504 6.99136 10.9801 8.89448C11.2966 8.96071 11.6009 9.09922 11.8565 9.29796H11.8625C12.4894 8.68367 13.0251 7.98508 13.4511 7.22627C13.8589 7.47914 14.218 7.80437 14.504 8.18982L14.5466 8.24402L14.5892 8.31031L14.6744 8.44276C14.7231 8.52707 14.7779 8.60537 14.8205 8.69575C15.0092 9.04502 15.143 9.41844 15.2222 9.80383C15.2587 9.98453 15.283 10.1652 15.2952 10.3519C15.3074 10.5183 15.3074 10.6854 15.2952 10.8518C15.2891 10.9903 15.2708 11.1349 15.2465 11.2734C15.2307 11.383 15.2084 11.4916 15.1796 11.5985C15.1309 11.7732 15.1004 11.8756 15.1004 11.8756C15.1004 11.8756 15.143 11.7792 15.2161 11.6106C15.2465 11.5263 15.2891 11.4178 15.3256 11.2914C15.3682 11.1529 15.4048 11.0084 15.4291 10.8698C15.4595 10.7012 15.4839 10.5265 15.4961 10.3519C15.5082 10.1574 15.5082 9.96225 15.4961 9.76771C15.4839 9.55696 15.4534 9.34615 15.4108 9.14141C15.3629 8.92711 15.3019 8.71593 15.2282 8.50904C15.1918 8.4067 15.143 8.29823 15.0944 8.19583L15.0274 8.05731L14.9909 7.98508L14.9726 7.90677C14.8692 7.71405 14.7475 7.53341 14.6135 7.35877C14.3823 7.05157 14.1084 6.78055 13.8041 6.53969C13.8954 6.33489 13.9867 6.12414 14.0597 5.90732L14.0962 5.92541L14.2788 6.02174L14.3032 6.03376L14.3093 6.03983C14.3336 6.05786 14.2727 6.01573 14.2788 6.02174L14.291 6.02775L14.3397 6.05786L14.4432 6.12414L14.4979 6.16026L14.5283 6.17834L14.5405 6.19036H14.5466C14.5527 6.19637 14.5162 6.16627 14.5283 6.17834L14.5345 6.18429C14.5709 6.21446 14.6075 6.23856 14.6501 6.26867L14.7718 6.35899L14.7901 6.37107C14.7657 6.35298 14.7839 6.365 14.7779 6.35899H14.7839L14.7901 6.365L14.8205 6.38909L14.8814 6.43729C15.4314 6.88563 15.8848 7.44085 16.2142 8.06939L16.2568 8.1537L16.2994 8.25009L16.3907 8.43675C16.4394 8.55723 16.4942 8.67766 16.5307 8.8041C16.7072 9.30397 16.8107 9.834 16.8289 10.364C16.835 10.4904 16.835 10.6168 16.835 10.7433C16.835 10.8698 16.8229 10.9903 16.8168 11.1047C16.7985 11.3275 16.762 11.5444 16.7133 11.7672C16.6707 11.9539 16.622 12.1346 16.5611 12.3152C16.5124 12.4778 16.4516 12.6164 16.409 12.7308C16.3603 12.8452 16.3177 12.9295 16.2934 12.9897C16.2629 13.05 16.2508 13.0801 16.2508 13.0801C16.2508 13.0801 16.269 13.05 16.3055 12.9958C16.336 12.9416 16.3907 12.8573 16.4516 12.7489C16.5063 12.6405 16.5794 12.5079 16.6464 12.3514C16.7255 12.1767 16.7985 11.9961 16.8533 11.8094C16.9263 11.5925 16.9811 11.3697 17.0298 11.1409C17.0541 11.0204 17.0785 10.8939 17.0907 10.7674C17.1091 10.6376 17.1213 10.507 17.1271 10.376C17.1454 10.105 17.1453 9.82799 17.121 9.55089ZM9.50816 9.96692C8.65024 9.7142 7.75985 9.5889 6.8655 9.59504C6.88954 9.11684 7.00997 8.65047 7.21465 8.21951L7.24476 8.16049L7.28087 8.08968L7.35311 7.95384C7.40124 7.87119 7.44337 7.78855 7.50359 7.71179C7.72029 7.38716 7.98518 7.09786 8.28614 6.84993C8.42459 6.73188 8.57507 6.62561 8.73162 6.53112C8.87007 6.44259 9.02055 6.36583 9.17103 6.29502C9.29889 6.23578 9.42946 6.18257 9.5623 6.13556C9.68273 6.08838 9.79108 6.06476 9.87534 6.04114C10.0499 5.99984 10.1583 5.97622 10.1583 5.97622C10.1583 5.97622 10.0559 5.98217 9.86933 6.00573C9.77906 6.01751 9.66464 6.02935 9.53827 6.05887C9.39629 6.08801 9.25569 6.12347 9.11688 6.16513C8.95433 6.21827 8.79177 6.27729 8.62928 6.34816C8.44869 6.42491 8.28013 6.51934 8.11757 6.61966C7.93699 6.73188 7.76842 6.84993 7.60587 6.98571C7.43736 7.12738 7.28088 7.27494 7.13641 7.44029C7.06411 7.51705 6.99188 7.61147 6.91965 7.70001L6.82939 7.82395L6.78726 7.88892L6.73906 7.95973C6.6247 8.13686 6.51635 8.32578 6.43204 8.52058C6.26933 8.86919 6.15588 9.23874 6.09497 9.6186V9.63634C5.87827 9.65401 5.66157 9.68352 5.44481 9.71898V9.60682V9.37067C5.45088 9.34115 5.43886 9.41196 5.43886 9.40607V9.3884C5.43886 9.37067 5.44481 9.35293 5.44481 9.32931C5.45088 9.28802 5.45088 9.25256 5.45689 9.21126C5.45689 9.18764 5.46284 9.16997 5.46284 9.14635V9.09316C5.46284 9.08732 5.45689 9.13451 5.45689 9.11089V9.105C5.46284 9.0637 5.46891 9.01646 5.47492 8.96922C5.48093 8.92203 5.48699 8.87479 5.49901 8.8276V8.80981C5.493 8.83939 5.49901 8.81576 5.493 8.82165V8.80392L5.49895 8.76852L5.51103 8.69176C5.66157 8.01286 5.93241 7.36353 6.32369 6.7909L6.37784 6.71415L6.43811 6.63144L6.56449 6.46621C6.6488 6.37172 6.72704 6.26551 6.82332 6.17108C7.17853 5.78731 7.59385 5.45083 8.05141 5.18516C8.15856 5.12034 8.26907 5.06123 8.38247 5.00809C8.49076 4.949 8.60518 4.90182 8.70752 4.85458C8.9122 4.76604 9.12283 4.69517 9.33358 4.63026C9.51417 4.57713 9.70076 4.53577 9.88741 4.50037C10.0559 4.46497 10.2004 4.45313 10.3208 4.43545C10.4412 4.42361 10.5375 4.41772 10.6037 4.41183H10.7001L10.5977 4.40588C10.5315 4.40588 10.4352 4.39999 10.3148 4.39999C10.1944 4.40594 10.0439 4.39999 9.86933 4.41772C9.67672 4.43545 9.48406 4.45908 9.29747 4.49448C9.06869 4.53577 8.84598 4.58891 8.62928 4.65977C8.5094 4.69674 8.39091 4.73808 8.27406 4.78371C8.15369 4.82506 8.03332 4.8782 7.91289 4.93722C7.66007 5.05527 7.41927 5.18516 7.18454 5.33272C6.94375 5.48623 6.71497 5.66337 6.49826 5.85222C6.38997 5.94082 6.28156 6.05298 6.17922 6.15329L6.04077 6.30681L5.96853 6.38356L5.8963 6.4721C5.71571 6.68463 5.54715 6.91484 5.40268 7.151C5.13784 7.57601 4.92715 8.03649 4.78269 8.51469L4.75859 8.5855L4.74657 8.62096L4.73449 8.67409L4.69837 8.8157C4.68636 8.86295 4.67428 8.9043 4.66226 8.95154C4.65024 9.00468 4.64423 9.05186 4.63215 9.09911C4.6262 9.14046 4.61412 9.18181 4.60811 9.21715C4.60204 9.23489 4.60204 9.25262 4.59603 9.27624V9.29397L4.59008 9.32931V9.36477C4.58401 9.43558 4.578 9.50056 4.56593 9.56547C4.5479 9.74849 4.53588 9.86654 4.52981 9.91968C4.31918 9.97281 4.10843 10.0377 3.9038 10.1086C3.9038 10.1086 2.80215 10.3624 2.86237 10.8938C2.92258 11.3955 4.00615 11.4959 4.00615 11.4959C5.87827 11.8737 7.82263 11.6671 9.56837 10.9055C9.47805 10.5985 9.45395 10.2798 9.50816 9.96692ZM12.1327 11.12C11.9158 11.3633 11.6508 11.5517 11.3496 11.6733V11.6794C11.5785 12.561 11.9339 13.3999 12.4038 14.1781C11.9881 14.397 11.5424 14.5429 11.0785 14.6037L11.0123 14.6097L10.9339 14.6159L10.7773 14.628C10.6809 14.628 10.5845 14.6341 10.4881 14.628C10.0905 14.6219 9.69904 14.5551 9.32549 14.4274C9.1508 14.3726 8.9761 14.2997 8.81349 14.2207C8.66289 14.1477 8.51831 14.0687 8.37973 13.9775C8.25924 13.8985 8.14482 13.8194 8.03641 13.7282C7.93395 13.6492 7.85565 13.5702 7.78336 13.5093C7.65085 13.3817 7.57856 13.3026 7.57856 13.3026C7.57856 13.3026 7.63877 13.3877 7.75325 13.5337C7.81346 13.6066 7.88576 13.6918 7.97614 13.783C8.07854 13.8924 8.18094 13.9896 8.29542 14.0869C8.42793 14.2025 8.5665 14.3058 8.71109 14.403C8.8737 14.5125 9.04239 14.6097 9.21708 14.6949C9.40385 14.7861 9.60264 14.8651 9.80138 14.932C10.0122 14.9989 10.2231 15.0475 10.44 15.084C10.5484 15.1022 10.6629 15.1144 10.7774 15.1266L10.9339 15.1387L11.0123 15.1448H11.1026C11.3195 15.1448 11.5364 15.1326 11.7532 15.1022C12.1206 15.0536 12.4821 14.9563 12.8315 14.8165C12.964 14.9989 13.1026 15.1752 13.2472 15.3454C13.2412 15.3515 13.2351 15.3515 13.2291 15.3575L13.0544 15.467L13.0303 15.4792L13.0243 15.4852C12.9942 15.4974 13.0604 15.467 13.0544 15.4731H13.0484L13.0363 15.4792C13.0183 15.4852 13.0002 15.4974 12.9822 15.5035L12.8737 15.5582L12.8134 15.5886L12.7833 15.6069L12.7713 15.6129H12.7652C12.7593 15.6129 12.8014 15.5947 12.7833 15.6069L12.7773 15.6129L12.6508 15.6677C12.6086 15.6859 12.5604 15.7041 12.5182 15.7284L12.5002 15.7345C12.5303 15.7223 12.5062 15.7345 12.5122 15.7284H12.5062L12.5002 15.7345L12.464 15.7467L12.3917 15.777C11.732 16.0337 11.027 16.1537 10.3195 16.1297L10.2291 16.1236L10.1267 16.1175L9.91586 16.0993C9.78936 16.081 9.65685 16.0689 9.52434 16.0385C9.0002 15.9412 8.49421 15.771 8.01832 15.5217C7.90385 15.4609 7.79544 15.4001 7.68697 15.3393C7.57856 15.2785 7.48217 15.2056 7.37976 15.1387C7.19906 15.011 7.0183 14.8712 6.85568 14.7253C6.7111 14.5976 6.57859 14.4638 6.45203 14.324C6.3316 14.2025 6.24723 14.0808 6.16893 13.9836C6.09063 13.8863 6.04243 13.8073 6.00025 13.7525L5.94003 13.6674C5.94003 13.6674 5.95806 13.6978 5.98823 13.7525C6.02434 13.8073 6.06653 13.8985 6.13281 14.0018C6.19904 14.1052 6.2774 14.2328 6.38581 14.3727C6.50023 14.5307 6.62679 14.6827 6.75328 14.8225C6.90989 14.9928 7.0725 15.1569 7.24726 15.3029C7.34365 15.3819 7.44004 15.467 7.54238 15.54C7.64484 15.619 7.75325 15.698 7.86773 15.771C8.10182 15.922 8.34527 16.0581 8.59661 16.1783C8.86169 16.2999 9.13271 16.4032 9.40986 16.4823C9.54838 16.5248 9.69904 16.5552 9.84362 16.5917L10.0484 16.6282L10.1508 16.6464L10.2652 16.6647C10.5484 16.7012 10.8315 16.7195 11.1147 16.7195C11.6267 16.7133 12.1327 16.6403 12.6267 16.5066L12.699 16.4884L12.7351 16.4762L12.7893 16.458C12.8375 16.4397 12.8857 16.4276 12.9279 16.4093L13.0604 16.3668L13.205 16.3121C13.2472 16.2938 13.2833 16.2817 13.3195 16.2695C13.3376 16.2634 13.3556 16.2574 13.3737 16.2452L13.3857 16.2391H13.3917L13.4279 16.2209L13.4339 16.2148L13.458 16.2026L13.6387 16.1114C13.7351 16.0628 13.8074 16.0263 13.8676 16.002C14.0242 16.154 14.1809 16.2999 14.3496 16.4337C14.3496 16.4337 15.1387 17.2544 15.5724 16.92C15.9821 16.6039 15.5122 15.6069 15.5122 15.6069C14.8857 13.8073 13.699 12.2265 12.1327 11.12ZM12.1001 10.2801C12.1 10.5771 11.982 10.862 11.772 11.072C11.562 11.282 11.2771 11.4 10.9801 11.4C10.683 11.4 10.3982 11.2821 10.1881 11.072C9.97807 10.862 9.86006 10.5771 9.86004 10.2801C9.86004 9.98302 9.97805 9.69813 10.1881 9.48809C10.3981 9.27804 10.683 9.16003 10.9801 9.16003C11.2771 9.16005 11.562 9.27806 11.772 9.48811C11.9821 9.69815 12.1001 9.98303 12.1001 10.2801Z" fill="white"/>
</svg>
