<svg width="20" height="20" viewBox="0 0 20 20" fill="none" xmlns="http://www.w3.org/2000/svg">
<path d="M7.15162 9.46527C7.10994 9.41102 7.05501 9.3684 6.9921 9.34152C6.92919 9.31464 6.86042 9.3044 6.79241 9.31179C6.72439 9.31918 6.65943 9.34394 6.60376 9.3837C6.54808 9.42346 6.50358 9.47688 6.47453 9.53882L3.03947 16.4054C3.00808 16.4681 2.99325 16.5377 2.99638 16.6077C2.99952 16.6776 3.02052 16.7457 3.05738 16.8052C3.09425 16.8648 3.14575 16.9139 3.20699 16.948C3.26822 16.982 3.33715 16.9998 3.4072 16.9996H8.18768C8.26445 17.0015 8.34009 16.9809 8.40539 16.9405C8.47068 16.9001 8.52281 16.8415 8.55541 16.772C9.5868 14.6415 8.96166 11.4002 7.15103 9.4641L7.15162 9.46527ZM9.66969 3.22088C8.81405 4.5374 8.31541 6.05377 8.2227 7.62117C8.12998 9.18858 8.44639 10.7532 9.14086 12.1614L11.4465 16.7726C11.4806 16.8406 11.5329 16.8978 11.5976 16.9378C11.6624 16.9778 11.7369 16.999 11.813 16.999H16.5935C16.6635 16.9992 16.7323 16.9814 16.7935 16.9474C16.8546 16.9134 16.9061 16.8643 16.9429 16.8048C16.9798 16.7453 17.0008 16.6774 17.004 16.6075C17.0072 16.5376 16.9925 16.468 16.9612 16.4054L10.3678 3.21738C10.3358 3.15188 10.2859 3.09674 10.224 3.05829C10.1621 3.01984 10.0905 2.99964 10.0176 3C9.94474 3.00037 9.87342 3.02129 9.81187 3.06036C9.75032 3.09943 9.70104 3.15507 9.66969 3.22088Z" fill="white"/>
</svg>
