<svg width="20" height="20" viewBox="0 0 20 20" fill="none" xmlns="http://www.w3.org/2000/svg">
<path d="M2.50049 10C2.50049 8.45436 2.96876 7.01637 3.771 5.82227L4.18604 6.10156L4.60107 6.37988C3.90614 7.41427 3.50049 8.65913 3.50049 10C3.50049 13.5899 6.41064 16.5 10.0005 16.5C13.5903 16.5 16.5005 13.5899 16.5005 10C16.5005 6.57843 13.8567 3.77588 10.5005 3.52051V3.75977H9.50049V2.5H10.0005C14.1426 2.5 17.5005 5.85786 17.5005 10C17.5005 14.1421 14.1426 17.5 10.0005 17.5C5.85835 17.5 2.50049 14.1421 2.50049 10ZM10.5005 4.38184V9.7002H9.50049V4.38184H10.5005Z" fill="white"/>
</svg>
