<svg width="20" height="20" viewBox="0 0 20 20" fill="none" xmlns="http://www.w3.org/2000/svg">
<path d="M16.5221 8.84349L13.9402 6.24822C12.9479 5.20579 11.552 4.5542 10.0003 4.5542C8.44864 4.5542 7.0527 5.20637 6.06044 6.24763L3.47917 8.84466C3.17275 9.15118 3.00061 9.56685 3.00061 10.0003C3.00061 10.4337 3.17275 10.8493 3.47917 11.1559L6.12869 13.8264C7.1157 14.8245 8.48539 15.444 10.0003 15.444C11.5153 15.444 12.8849 14.8245 13.8719 13.8258L16.5221 11.1547C16.8285 10.8482 17.0006 10.4325 17.0006 9.99909C17.0006 9.56568 16.8285 9.15001 16.5221 8.84349ZM10.0003 14.3071C8.85793 14.3071 7.76233 13.8532 6.95454 13.0455C6.14675 12.2377 5.69294 11.1421 5.69294 9.99967C5.69294 8.85729 6.14675 7.76169 6.95454 6.9539C7.76233 6.14611 8.85793 5.69229 10.0003 5.69229C11.1427 5.69229 12.2383 6.14611 13.0461 6.9539C13.8539 7.76169 14.3077 8.85729 14.3077 9.99967C14.3077 11.1421 13.8539 12.2377 13.0461 13.0455C12.2383 13.8532 11.1427 14.3071 10.0003 14.3071ZM12.1301 9.89001L12.7128 9.2985L12.4521 8.69883H11.622L11.356 8.43632L11.3338 7.59806L10.7458 7.34665L10.1567 7.92882H9.79265L9.18189 7.34198L8.58572 7.58406L8.60614 8.40424L8.34713 8.66266L7.50479 8.65449L7.26621 9.25125L7.86938 9.84042L7.87288 10.2097L7.29187 10.7971L7.54854 11.3985L8.38155 11.3974L8.64755 11.6616L8.65689 12.4911L9.27989 12.7519L9.84282 12.1633L10.2138 12.1691L10.8135 12.7589L11.4225 12.5121L11.3974 11.6902L11.6553 11.4335L12.4894 11.4411L12.7362 10.8403L12.1353 10.2569L12.1301 9.89001ZM9.96298 10.9435C9.84367 10.9466 9.72494 10.9257 9.61382 10.8821C9.50269 10.8386 9.40141 10.7732 9.31594 10.6899C9.23047 10.6066 9.16254 10.507 9.11616 10.397C9.06978 10.2871 9.04589 10.1689 9.04589 10.0495C9.04589 9.93019 9.06978 9.81204 9.11616 9.70206C9.16254 9.59208 9.23047 9.4925 9.31594 9.40919C9.40141 9.32587 9.50269 9.26051 9.61382 9.21696C9.72494 9.1734 9.84367 9.15253 9.96298 9.15558C10.1961 9.16154 10.4177 9.25834 10.5805 9.42534C10.7433 9.59234 10.8344 9.81633 10.8344 10.0495C10.8344 10.2828 10.7433 10.5068 10.5805 10.6738C10.4177 10.8408 10.1961 10.9376 9.96298 10.9435Z" fill="white"/>
</svg>
