<svg width="20" height="20" viewBox="0 0 20 20" fill="none" xmlns="http://www.w3.org/2000/svg">
<path d="M4.57593 2.47815C4.65314 2.60044 4.69891 2.75138 4.74683 2.88831C4.76311 2.912 4.78015 2.93537 4.79761 2.95862C4.86883 3.05216 4.94877 3.13947 5.03101 3.22327C5.22344 3.41962 5.43697 3.59136 5.66577 3.74377C5.81029 3.83772 5.95979 3.92384 6.10522 4.01624C6.09627 4.0109 6.0871 4.00595 6.07788 4.00061C6.09325 4.00964 6.10869 4.01853 6.12378 4.02795C6.10696 3.95446 6.09511 3.87979 6.08374 3.8053C6.07754 3.76072 6.07468 3.71556 6.07495 3.67053C6.0746 3.66765 6.07441 3.6661 6.07397 3.66272C6.07279 3.6518 6.03145 3.45194 6.12476 3.53284C6.23296 3.62718 6.30799 3.79109 6.3728 3.9137C6.48951 4.13491 6.59303 4.36362 6.68433 4.59631C6.6793 4.58291 6.64396 4.49017 6.73315 4.70178C6.74247 4.71788 6.75192 4.73359 6.75952 4.7467C6.78863 4.79292 6.81766 4.83952 6.84741 4.88538C6.88621 4.94503 6.92529 5.00509 6.96655 5.06311C6.9696 5.06741 6.97361 5.07338 6.97827 5.07971C6.99477 5.10192 7.01131 5.12427 7.02808 5.14612C7.12598 5.27447 7.22848 5.39992 7.33276 5.52307C7.53036 5.75648 7.7371 5.98458 7.948 6.20569C8.04849 6.31108 8.1514 6.41386 8.25562 6.51526C8.30785 6.56603 8.36077 6.61667 8.41382 6.66663C8.43245 6.68408 8.45164 6.70102 8.47046 6.71838C8.47409 6.72156 8.538 6.77993 8.54761 6.7887C9.4606 7.61363 10.4757 8.30061 11.49 8.99182C11.61 9.07377 11.7284 9.159 11.8464 9.24377C11.9093 9.28889 11.9611 9.36893 12.0046 9.45081C12.0449 9.31896 12.0981 9.18992 12.1599 9.06799C12.2753 8.84021 12.4312 8.64323 12.5974 8.45374C12.699 8.33797 12.8094 8.22259 12.9275 8.12268C12.9285 8.11967 12.9287 8.11618 12.9314 8.11389C13.2417 7.85576 13.5895 7.65401 13.99 7.59827C14.131 7.57851 14.2756 7.57447 14.4158 7.58264C14.6477 7.59613 14.8668 7.65483 15.0828 7.72424C15.2335 7.7726 15.3886 7.82929 15.5261 7.90393C15.5976 7.94269 15.6756 7.98395 15.7195 8.05237C15.7254 8.06139 15.7314 8.06886 15.7351 8.07971C15.7394 8.09216 15.5693 8.05474 15.5564 8.05237C15.4198 8.01741 15.4368 8.01932 15.4167 8.01917C15.384 8.01862 15.3509 8.01642 15.3181 8.01624C15.2661 8.01615 15.2139 8.0195 15.1619 8.02405C14.8817 8.06023 14.61 8.16649 14.3679 8.31995C14.2489 8.40006 14.1366 8.4891 14.0291 8.58362C14.0254 8.58687 14.0215 8.58997 14.0173 8.59241C13.9608 8.65172 13.8866 8.70155 13.7986 8.73401C13.7207 8.76278 13.642 8.77357 13.5681 8.77014C13.5397 8.83422 13.5105 8.89781 13.4832 8.96252C13.3913 9.18044 13.3104 9.40302 13.2566 9.6344H13.2595C13.2672 9.64824 13.2692 9.64953 13.2625 9.63635C13.3355 9.71019 13.371 9.81672 13.407 9.90979C13.4506 10.0232 13.4777 10.144 13.491 10.2672C13.5269 10.5992 13.4465 10.9584 13.3591 11.3033C13.3243 11.4403 13.2863 11.5775 13.2419 11.7145C13.2147 11.7985 13.1844 11.882 13.1492 11.9655C13.1401 11.9865 13.0854 12.1153 13.0642 12.1676C12.9854 12.362 12.8815 12.5552 12.7664 12.7428C12.607 13.0023 12.4425 13.263 12.2537 13.5133C12.1553 13.6436 12.0556 13.792 11.9167 13.902C11.8401 13.9628 11.9216 13.8229 11.9216 13.8229C11.9903 13.6868 12.0743 13.5521 12.158 13.4196C12.1637 13.4103 12.1698 13.4013 12.1755 13.3922C12.1844 13.3676 12.1934 13.3426 12.2019 13.318C12.2132 13.2847 12.221 13.2508 12.2302 13.2174C11.8616 13.782 11.391 14.2772 10.8699 14.7076C10.8624 14.7188 10.8549 14.7305 10.8474 14.7418C10.2482 15.6395 9.50502 16.4771 8.6189 17.1012C8.53597 17.1597 8.02082 17.5073 7.99487 17.4537C7.97038 17.4019 8.0725 17.2813 8.09253 17.2535C8.09702 17.2473 8.10258 17.2413 8.10718 17.235C8.11146 17.2283 8.11559 17.2209 8.11987 17.2145C8.21518 17.0712 8.33001 16.9398 8.448 16.8151C8.58361 16.6716 8.73502 16.5122 8.90894 16.4108C8.91879 16.404 8.92795 16.398 8.93628 16.3932C8.96504 16.374 8.99372 16.3542 9.02222 16.3346C9.10821 16.275 9.19336 16.2143 9.27808 16.153C9.30387 16.1298 9.32988 16.1062 9.35522 16.0826C9.35998 16.078 9.3652 16.0736 9.36987 16.069C9.40138 16.0371 9.43248 16.0045 9.46362 15.9723C9.466 15.9696 9.46898 15.9672 9.47144 15.9645C9.50549 15.9268 9.53887 15.8886 9.57202 15.8502C9.58642 15.8326 9.60077 15.8145 9.61499 15.7965C9.64799 15.7553 9.68046 15.7136 9.71265 15.6715C9.72386 15.6567 9.74683 15.6244 9.76538 15.5992C9.80713 15.5403 9.84877 15.4809 9.88843 15.4205C9.14141 15.8986 8.3248 16.2881 7.46948 16.5114C7.37137 16.537 6.76739 16.6818 6.76147 16.6227C6.7561 16.5653 6.8956 16.4873 6.92358 16.4684C6.93017 16.464 6.93752 16.4601 6.94409 16.4557C6.95021 16.4514 6.95663 16.4462 6.96265 16.442C7.10216 16.3413 7.25565 16.2579 7.40991 16.1823C7.58689 16.0956 7.78487 15.9994 7.98315 15.9655C7.99496 15.9625 8.00575 15.961 8.01538 15.9596C8.04886 15.9518 8.08258 15.9434 8.11597 15.9352C8.21702 15.9098 8.31811 15.8827 8.4187 15.8551C8.45161 15.8421 8.48461 15.8286 8.51733 15.8151C8.52296 15.8126 8.52929 15.8107 8.53491 15.8082C8.57425 15.7902 8.61303 15.7711 8.6521 15.7526C8.65641 15.7504 8.66136 15.7479 8.66577 15.7457C8.71098 15.7222 8.75676 15.6981 8.80151 15.6735C8.82079 15.6621 8.83994 15.6508 8.85913 15.6393C8.90465 15.6122 8.9499 15.5846 8.99487 15.5563C9.00715 15.5485 9.03047 15.5335 9.05249 15.5192C9.13941 15.4607 9.22558 15.4006 9.30933 15.3375C9.35135 15.3057 9.39383 15.2726 9.4353 15.2399C9.45388 15.2246 9.47248 15.2096 9.49097 15.194C9.58057 15.1194 9.6677 15.0412 9.75366 14.9625C9.80208 14.9183 9.84909 14.8725 9.89624 14.8268C9.33417 15.1023 8.73106 15.2999 8.11694 15.4C7.93147 15.4303 7.74558 15.4534 7.55737 15.4557C7.45519 15.457 7.30961 15.4649 7.21362 15.4147C7.13232 15.3719 7.24058 15.314 7.27319 15.2985C7.39963 15.2392 7.5413 15.2121 7.67749 15.1852C7.69098 15.182 7.70502 15.1794 7.71851 15.1764C7.75829 15.1672 7.79814 15.1572 7.83765 15.1471C7.87736 15.1368 7.91707 15.1266 7.95679 15.1158C7.97465 15.111 7.99273 15.1054 8.0105 15.1002C8.18606 15.0457 8.35898 14.9813 8.52808 14.9098C8.53079 14.9087 8.53172 14.9079 8.53394 14.9069C8.55053 14.8996 8.56724 14.8919 8.58374 14.8844C8.63046 14.863 8.6773 14.8416 8.72339 14.819C8.80884 14.7769 8.89253 14.7301 8.97534 14.6832C9.14185 14.5896 9.30346 14.4872 9.46069 14.3785C9.46245 14.3774 9.46317 14.3766 9.4646 14.3756C9.48347 14.3623 9.50237 14.3483 9.52124 14.3346C9.55627 14.309 9.59125 14.2828 9.62573 14.2565C9.70135 14.1987 9.77549 14.1391 9.84839 14.0778C9.99281 13.9565 10.1306 13.827 10.2625 13.692C10.4167 13.5342 10.5544 13.3638 10.6833 13.1871C10.6907 13.1397 10.6982 13.0919 10.7058 13.0446C10.7397 12.8349 10.786 12.6251 10.8484 12.4215C10.6765 12.44 10.4956 12.4519 10.323 12.4391C10.2305 12.4322 10.131 12.4257 10.0515 12.3746C10.0437 12.3698 10.0353 12.366 10.0281 12.359C10.0221 12.3483 10.1994 12.312 10.2166 12.3082C10.3691 12.2826 10.3505 12.2887 10.3708 12.2799C10.403 12.2662 10.4355 12.2539 10.4675 12.2399C10.5144 12.219 10.5604 12.1952 10.6052 12.1705C10.7899 12.0584 10.9513 11.9129 11.0857 11.7448C11.0949 11.7229 11.1046 11.7011 11.114 11.6793C11.0945 11.6896 11.0754 11.7011 11.0554 11.7106C10.8579 11.8045 10.6402 11.8626 10.4226 11.9117C10.1931 11.9635 9.96093 12.0122 9.72437 12.0397C9.62938 12.0507 9.52527 12.0659 9.42847 12.0446C9.43503 12.0394 9.44241 12.0339 9.44897 12.0289C9.5767 11.9691 9.73227 11.9423 9.87378 11.9117C9.89878 11.8988 9.92364 11.8849 9.948 11.8707C10.0464 11.8136 10.1383 11.7472 10.2273 11.6783C10.3757 11.5634 10.5108 11.4366 10.6365 11.3014C10.4243 11.3488 10.208 11.3637 9.98999 11.3668C9.81739 11.3689 9.63616 11.3635 9.46558 11.3346C9.37325 11.3189 9.27283 11.3045 9.198 11.2448C9.19412 11.242 9.18634 11.2362 9.17944 11.2281C9.16993 11.2158 9.39103 11.1925 9.37183 11.194C9.52611 11.1828 9.50717 11.1871 9.52808 11.1803C9.56135 11.1696 9.59548 11.1612 9.62866 11.15C9.691 11.1293 9.76701 11.0979 9.74487 11.108C9.95716 11.0096 10.1444 10.8663 10.3044 10.6969C10.2517 10.7083 10.1992 10.7212 10.1462 10.7291C9.90034 10.7661 9.6545 10.752 9.40796 10.7262C9.23595 10.7082 9.05665 10.6824 8.89038 10.6334C8.80293 10.6078 8.70831 10.5816 8.64136 10.5172C8.63334 10.5098 8.62535 10.5036 8.6189 10.4938C8.61064 10.4816 8.80049 10.4834 8.81421 10.483C8.96837 10.4901 8.94878 10.4922 8.97046 10.4879C9.00447 10.4812 9.0389 10.4764 9.073 10.4694C9.13718 10.4561 9.21696 10.4336 9.19409 10.441C9.42731 10.3647 9.64 10.2376 9.82495 10.0778C9.7843 10.0852 9.74351 10.0937 9.70288 10.1012C9.5193 10.1348 9.33212 10.1576 9.14526 10.149C8.9213 10.1388 8.70042 10.0873 8.48511 10.028C8.25768 9.96517 8.02954 9.898 7.8103 9.81018C7.72236 9.77513 7.62445 9.73989 7.55347 9.67542C7.56191 9.67396 7.57032 9.67199 7.57886 9.67053C7.72347 9.67782 7.87284 9.72827 8.01245 9.76819C8.0413 9.76846 8.07052 9.76733 8.09937 9.76624C8.21705 9.76213 8.33489 9.74684 8.45093 9.72815C8.68213 9.69051 8.90663 9.6293 9.12671 9.55139C9.11697 9.55124 9.10719 9.5527 9.09741 9.55237C8.94722 9.54718 8.79509 9.52412 8.64917 9.48889C8.4075 9.43039 8.18419 9.32535 7.96558 9.20862C7.81316 9.12712 7.65688 9.03511 7.52124 8.92737C7.44909 8.87009 7.3702 8.80951 7.33276 8.72327C7.32872 8.7144 7.32422 8.70627 7.32202 8.69592C7.31914 8.68137 7.49626 8.75513 7.50757 8.7594C7.64685 8.82341 7.62914 8.81784 7.65015 8.8219C7.68444 8.82861 7.71831 8.83719 7.75269 8.84338C7.80133 8.8524 7.86028 8.86055 7.87573 8.86292C8.08925 8.87773 8.30189 8.84858 8.50659 8.78967C8.36237 8.78888 8.21745 8.7716 8.073 8.73206C7.92788 8.69231 7.78513 8.63516 7.65112 8.56702C7.42956 8.45428 7.23711 8.30044 7.05151 8.13635C6.92198 8.02177 6.79214 7.89559 6.6853 7.7594C6.62837 7.68698 6.56524 7.61045 6.54858 7.51819C6.54665 7.50836 6.54437 7.49879 6.54468 7.48792C6.54892 7.4752 6.72469 7.60413 6.70972 7.59241C6.8315 7.68785 6.81457 7.67802 6.83472 7.68713C6.8664 7.70152 6.89749 7.71804 6.92944 7.73206C6.97421 7.75184 7.02856 7.77283 7.0437 7.77893C7.33787 7.87081 7.65183 7.87908 7.95386 7.82288C7.77762 7.78767 7.60439 7.73999 7.4314 7.69202C7.25145 7.64234 7.07231 7.58204 6.90796 7.4928C6.71069 7.38573 6.53479 7.24276 6.36694 7.09534C6.18965 6.93955 6.01322 6.77985 5.85425 6.6051C5.79041 6.53508 5.71805 6.46082 5.68237 6.3717C5.69034 6.37412 5.69872 6.37612 5.70679 6.37854C5.83348 6.44812 5.94642 6.55816 6.05444 6.65491C6.08036 6.66782 6.10699 6.68028 6.13354 6.69202C6.2412 6.73978 6.35407 6.77743 6.46655 6.81116C6.61443 6.85547 6.76437 6.88889 6.91577 6.91467C6.8804 6.90172 6.84411 6.89146 6.80933 6.87756C6.61753 6.80108 6.43576 6.69107 6.26831 6.57092C6.09433 6.44618 5.93805 6.3082 5.78491 6.15881C5.72342 6.09887 5.66653 6.03332 5.60913 5.96936C5.59801 5.95696 5.58757 5.94395 5.5769 5.93127C5.52431 5.86811 5.47093 5.80508 5.4187 5.74182C5.33435 5.63349 5.25974 5.51858 5.19214 5.39905C5.18595 5.39085 5.18089 5.38197 5.17651 5.37268C5.17588 5.37145 5.17429 5.37009 5.17358 5.36877L5.17554 5.37073C5.17165 5.36215 5.16709 5.35373 5.16479 5.34436C5.17713 5.34691 5.18798 5.3511 5.198 5.35803C5.18984 5.35525 5.18183 5.35202 5.17358 5.34924C5.31831 5.39489 5.44593 5.51053 5.56226 5.60217C5.62997 5.65549 5.6927 5.71599 5.75659 5.77405C5.75886 5.77613 5.76116 5.7788 5.76343 5.78088C5.7806 5.79267 5.79775 5.8046 5.81519 5.81604C5.81828 5.81795 5.82185 5.81999 5.82495 5.8219C5.84434 5.83313 5.8638 5.84432 5.88354 5.8551C5.9657 5.89973 6.05206 5.93752 6.1394 5.97131C6.29054 6.02181 6.44677 6.05304 6.6062 6.06116C6.61727 6.06171 6.62836 6.06008 6.6394 6.06018C6.59206 6.04361 6.54478 6.02657 6.4978 6.00842C6.30264 5.93313 6.11745 5.83476 5.9314 5.73987C5.76521 5.65495 5.60189 5.56041 5.45874 5.44006C5.28718 5.29575 5.14339 5.12013 5.00854 4.94202C4.86598 4.75379 4.72494 4.56209 4.60425 4.35901C4.55567 4.27754 4.50031 4.18984 4.48315 4.09534C4.49073 4.09948 4.49804 4.10397 4.50562 4.10803C4.61585 4.20171 4.70431 4.33161 4.79077 4.44788C4.81351 4.46579 4.83726 4.48281 4.86108 4.49963C4.95706 4.5679 5.05921 4.62754 5.16284 4.68323C5.17245 4.68838 5.18249 4.69281 5.19214 4.69788C5.1332 4.64241 5.07623 4.58504 5.02222 4.526C4.87773 4.36803 4.75281 4.20089 4.63354 4.02307C4.58569 3.9517 4.54385 3.87577 4.50073 3.80139C4.49245 3.78692 4.48406 3.7721 4.47632 3.75745C4.43787 3.68501 4.40014 3.6122 4.36206 3.53967C4.30164 3.41618 4.25137 3.2881 4.20972 3.15686C4.2058 3.14802 4.20223 3.1389 4.19995 3.12952L4.19897 3.12659C4.19688 3.11739 4.19446 3.10792 4.19409 3.09827C4.20585 3.10337 4.21589 3.10993 4.22437 3.11877C4.21688 3.11445 4.20947 3.10952 4.2019 3.1051C4.33413 3.17943 4.43502 3.31954 4.53003 3.43323C4.58498 3.49901 4.63418 3.57048 4.68433 3.64026C4.68615 3.64272 4.68836 3.64561 4.69019 3.64807C4.70481 3.66343 4.71914 3.67898 4.73413 3.69397C4.73672 3.69656 4.73935 3.69919 4.74194 3.70178C4.75872 3.71682 4.77559 3.73212 4.79272 3.7467C4.86346 3.80692 4.93939 3.86116 5.01733 3.91174C4.93282 3.75606 4.86716 3.58964 4.80737 3.42346C4.72732 3.20152 4.64942 2.97736 4.59448 2.74768C4.57224 2.65561 4.54561 2.55485 4.55737 2.45959C4.56347 2.46569 4.56992 2.47206 4.57593 2.47815ZM10.0515 12.3746C10.0586 12.379 10.0655 12.3849 10.074 12.3903C10.0657 12.3849 10.0568 12.379 10.0486 12.3737L10.0515 12.3746ZM8.64136 10.5172C8.64633 10.5218 8.6512 10.5272 8.65698 10.5328C8.6499 10.5258 8.64257 10.5194 8.6355 10.5123C8.63728 10.5141 8.63953 10.5155 8.64136 10.5172ZM15.7253 8.06018C15.7237 8.05738 15.7212 8.05508 15.7195 8.05237C15.7167 8.04808 15.7148 8.04281 15.7117 8.03772C15.7163 8.04512 15.721 8.05269 15.7253 8.06018Z" fill="white"/>
</svg>
