<svg width="20" height="20" viewBox="0 0 20 20" fill="none" xmlns="http://www.w3.org/2000/svg">
<path d="M5.87064 8.37813C5.95264 8.16563 6.04664 7.96114 6.15714 7.76864C6.05064 7.67064 5.78465 7.46214 5.80115 7.44564C7.18812 5.78468 8.99659 5.28568 10.5961 5.57568C10.9236 5.62068 11.251 5.69868 11.574 5.81717C13.8655 6.66816 15.023 9.19211 14.164 11.4591C14.0782 11.6807 13.9755 11.8955 13.857 12.1016C13.984 12.2116 14.262 12.4166 14.246 12.4331C12.7075 14.2535 10.6576 14.675 8.95159 14.168C8.78575 14.1264 8.62192 14.0772 8.4606 14.0205C6.17364 13.1695 5.01166 10.6451 5.87064 8.37813ZM13.6855 4.4917C13.395 4.76969 13.047 5.10519 12.8755 5.25669C12.5989 5.10014 12.3101 4.96605 12.012 4.85569C9.40958 3.89021 6.66863 4.98269 5.15866 7.01565C4.36917 8.18263 3.90268 9.6186 4.01718 11.0956C4.01718 11.0956 4.02168 13.8735 6.58713 15.5105C6.79563 15.2235 7.06112 14.8555 7.23712 14.618C7.52777 14.7858 7.8316 14.9296 8.1456 15.048C11.0915 16.14 14.3565 14.745 15.424 11.9341C15.424 11.9341 16.2055 10.2201 15.948 8.34613C15.948 8.34613 15.7475 5.81717 13.6855 4.4917Z" fill="white"/>
</svg>
