<svg width="20" height="20" viewBox="0 0 20 20" fill="none" xmlns="http://www.w3.org/2000/svg">
<path d="M12.2413 8.28862H10.1427C9.496 8.28862 9.17867 8.68862 9.17867 9.20862V10.7853C9.17867 11.1073 9.02667 11.3386 8.70533 11.3386H6.86933C6.86315 11.3386 6.85721 11.3411 6.85283 11.3455C6.84846 11.3498 6.846 11.3558 6.846 11.362V11.6753C6.846 11.6886 6.85267 11.6966 6.866 11.6966H8.93933C9.586 11.6966 9.906 11.2986 9.906 10.7786V9.20329C9.906 8.88062 10.0553 8.64862 10.3793 8.64862H12.2333C12.2467 8.64862 12.26 8.63929 12.26 8.62662V8.30995C12.26 8.29662 12.2467 8.28662 12.2333 8.28662L12.2413 8.28862ZM6.064 8.28862H2.02533C2.01067 8.28862 2 8.29995 2 8.31195V8.62995C2 8.64329 2.01067 8.65395 2.02533 8.65395H5.82133C6.14133 8.65395 6.29467 8.88529 6.29467 9.20729C6.29467 9.52929 6.14267 9.76062 5.82133 9.76062H2.81867C2.352 9.76062 2.00067 10.1513 2.00067 10.6706V11.6793C2.00067 11.6926 2.014 11.704 2.02733 11.704H2.714C2.72733 11.704 2.74067 11.6933 2.74067 11.6793V10.6706C2.74067 10.3506 2.92733 10.124 3.194 10.124H6.06667C6.71333 10.124 7.02933 9.72795 7.02933 9.20795C7.02933 8.68929 6.714 8.28795 6.068 8.28795L6.064 8.28862ZM17.6993 9.95395C17.6944 9.94897 17.6917 9.94227 17.6917 9.93529C17.6917 9.92831 17.6944 9.92161 17.6993 9.91662C17.8993 9.74995 17.9993 9.49862 17.9993 9.20862C17.9993 8.68995 17.6833 8.28862 17.0353 8.28862H12.9973C12.984 8.28862 12.9733 8.30062 12.9733 8.31395V8.63062C12.9733 8.64395 12.9867 8.65729 13 8.65729H16.8C17.12 8.65729 17.2767 8.89062 17.2767 9.21062C17.2767 9.53062 17.1233 9.76395 16.802 9.76395H13.002C12.9887 9.76395 12.978 9.77729 12.978 9.79062V10.1106C12.978 10.124 12.9887 10.1326 13.0027 10.1326H16.8027C17.2227 10.1373 17.276 10.546 17.276 10.7526V10.7926C17.276 11.116 17.1227 11.348 16.8027 11.348H13.0027C12.9893 11.348 12.9787 11.358 12.9787 11.3706V11.6886C12.9787 11.702 12.9887 11.7133 13.0027 11.7133H17.036C17.6847 11.7133 18 11.2833 18 10.7933V10.7553C18 10.442 17.9 10.1446 17.7 9.96195L17.6993 9.95395Z" fill="white"/>
</svg>
