<svg width="20" height="20" viewBox="0 0 20 20" fill="none" xmlns="http://www.w3.org/2000/svg">
<path d="M12.2272 9.99988C12.2272 10.2925 12.1695 10.5823 12.0575 10.8526C11.9456 11.123 11.7814 11.3686 11.5745 11.5755C11.3676 11.7825 11.1219 11.9466 10.8516 12.0586C10.5812 12.1706 10.2915 12.2282 9.99883 12.2282C9.40784 12.2282 8.84106 11.9934 8.42316 11.5755C8.00527 11.1577 7.7705 10.5909 7.7705 9.99988C7.7705 9.40889 8.00527 8.8421 8.42316 8.42421C8.84106 8.00631 9.40784 7.77154 9.99883 7.77154C10.5898 7.77154 11.1566 8.00631 11.5745 8.42421C11.9924 8.8421 12.2272 9.40889 12.2272 9.99988ZM14.0816 15.6757L12.4914 14.0861C11.7413 14.545 10.8794 14.7886 10 14.7902C8.72952 14.7902 7.51108 14.2855 6.61272 13.3872C5.71436 12.4888 5.20967 11.2704 5.20967 9.99988C5.2118 9.12081 5.45579 8.25928 5.91492 7.50963L4.32242 5.91713C3.46502 7.10602 3.00247 8.53407 3 9.99988C3 13.8656 6.13425 16.9999 10 16.9999C11.4656 16.9967 12.8932 16.5335 14.0816 15.6757ZM10 2.99988C8.5344 3.0031 7.10677 3.46625 5.91842 4.32404L7.50917 5.91304C8.25916 5.45443 9.1209 5.21105 10 5.20954C11.2705 5.20954 12.4889 5.71424 13.3873 6.6126C14.2856 7.51096 14.7903 8.7294 14.7903 9.99988C14.7882 10.8789 14.5442 11.7405 14.0851 12.4901L15.6776 14.0826C16.535 12.8937 16.9975 11.4657 17 9.99988C17 6.13413 13.8657 2.99988 10 2.99988Z" fill="white"/>
</svg>
