<svg width="20" height="20" viewBox="0 0 20 20" fill="none" xmlns="http://www.w3.org/2000/svg">
<path d="M7.435 4C5.5405 4 4 5.55518 4 7.46522C4 9.37629 5.541 10.9304 7.435 10.9304H8.6495V9.14074H7.4345C6.5195 9.14074 5.775 8.38901 5.775 7.46522C5.775 6.54144 6.519 5.79073 7.435 5.79073C7.802 5.79073 8.1235 5.88803 8.399 6.08108L9.654 4.81471C9.03 4.27191 8.29 4.00051 7.435 4.00051V4ZM10.011 5.14244C9.978 5.13988 9.9405 5.18341 9.836 5.27149C9.83115 5.27572 9.82648 5.28016 9.822 5.2848L8.861 6.24853C8.6995 6.40983 8.716 6.35248 8.828 6.53324C8.99971 6.79899 9.09214 7.1102 9.094 7.42886V12.545C9.094 14.4551 10.642 16 12.548 16C14.4535 16 16 14.4551 16 12.545C16 10.636 14.4535 9.0885 12.548 9.0885H10.88V7.42886C10.88 6.66331 10.624 5.89161 10.162 5.29965C10.0745 5.1957 10.045 5.14603 10.012 5.14244H10.011ZM12.634 10.8823C13.515 10.9274 14.218 11.6514 14.218 12.545C14.218 13.4678 13.468 14.2164 12.547 14.2164C11.626 14.2164 10.8795 13.4601 10.8795 12.5368V10.8885H12.634V10.8823Z" fill="white"/>
</svg>
