<svg width="20" height="20" viewBox="0 0 20 20" fill="none" xmlns="http://www.w3.org/2000/svg">
<path d="M6.78796 9.13086C7.05893 8.84652 7.49244 8.88847 7.77722 9.0625C8.61044 9.5167 9.08894 9.66581 9.99988 9.66992C10.942 9.67414 11.3921 9.50151 12.2255 9.07031C12.5102 8.88852 12.9019 8.84661 13.1727 9.13086C13.8953 10.0487 14.4501 11.0146 14.4501 12.2227C14.4499 14.8408 12.4632 17 9.99988 17C7.53657 16.9999 5.54981 14.8407 5.54968 12.2227C5.54968 11.0148 6.1041 10.0173 6.78796 9.13086ZM12.618 9.86621C11.7538 10.3438 10.9844 10.5859 9.99988 10.5859C9.01638 10.5859 8.24629 10.3437 7.38269 9.86621C6.91009 10.5317 6.40027 11.3572 6.40027 12.2227C6.4004 14.3692 8.04806 16.0838 9.99988 16.084C11.9517 16.084 13.5339 14.3693 13.5341 12.2227C13.5341 11.356 13.0896 10.5311 12.618 9.86621ZM8.99597 6.83105C9.43335 6.83105 9.78939 7.18663 9.78992 7.62305C9.78969 8.0606 9.43473 8.41632 8.99792 8.41699H8.99695C8.56023 8.41699 8.20444 8.06141 8.20398 7.625C8.20336 7.18725 8.559 6.83166 8.99597 6.83105ZM11.1385 6.35547C11.5467 6.35572 11.8784 6.68745 11.8788 7.09473C11.8785 7.50299 11.5473 7.8345 11.1395 7.83496C10.7319 7.83496 10.3988 7.50394 10.3983 7.09668C10.3977 6.68817 10.7305 6.3558 11.1385 6.35547ZM9.86902 5.06152C10.0441 5.06159 10.212 5.13111 10.3358 5.25488C10.4596 5.37868 10.5291 5.54662 10.5292 5.72168C10.5292 5.89691 10.4597 6.06555 10.3358 6.18945C10.212 6.31322 10.0441 6.38275 9.86902 6.38281C9.69379 6.38281 9.52515 6.31336 9.40125 6.18945C9.27741 6.06556 9.20789 5.89685 9.20789 5.72168C9.20801 5.54669 9.27754 5.37866 9.40125 5.25488C9.52515 5.13098 9.69379 5.06152 9.86902 5.06152ZM10.9257 4.00391C11.0055 4.00391 11.0853 4.02023 11.1591 4.05078C11.2326 4.0813 11.299 4.12634 11.3553 4.18262C11.4118 4.23906 11.4566 4.30614 11.4872 4.37988C11.5177 4.45359 11.5341 4.53253 11.5341 4.6123C11.534 4.69207 11.5177 4.77103 11.4872 4.84473C11.4566 4.91843 11.4118 4.98558 11.3553 5.04199C11.299 5.09823 11.2326 5.14333 11.1591 5.17383C11.0853 5.20437 11.0055 5.21973 10.9257 5.21973C10.846 5.21968 10.7669 5.20433 10.6932 5.17383C10.6195 5.14328 10.5524 5.0984 10.496 5.04199C10.4396 4.98557 10.3947 4.91842 10.3641 4.84473C10.3336 4.77107 10.3183 4.69202 10.3182 4.6123C10.3182 4.53263 10.3337 4.45351 10.3641 4.37988C10.3946 4.30625 10.4397 4.239 10.496 4.18262C10.5524 4.12623 10.6196 4.08133 10.6932 4.05078C10.7669 4.02028 10.846 4.00395 10.9257 4.00391ZM9.63171 3C9.70098 3.00006 9.76987 3.01353 9.83386 3.04004C9.89791 3.0666 9.95573 3.10624 10.0048 3.15527C10.0538 3.20433 10.0935 3.26209 10.12 3.32617C10.1465 3.39022 10.16 3.459 10.16 3.52832C10.16 3.59757 10.1464 3.66647 10.12 3.73047C10.0934 3.7946 10.0538 3.85326 10.0048 3.90234C9.9558 3.95126 9.89778 3.99007 9.83386 4.0166C9.76987 4.04311 9.70098 4.05658 9.63171 4.05664C9.5623 4.05664 9.49272 4.04316 9.42859 4.0166C9.36469 3.99006 9.30663 3.95126 9.25769 3.90234C9.20861 3.85326 9.17 3.7946 9.14343 3.73047C9.11691 3.66638 9.10242 3.59768 9.10242 3.52832C9.10245 3.45899 9.1169 3.39023 9.14343 3.32617C9.16996 3.26222 9.20875 3.20425 9.25769 3.15527C9.3067 3.10627 9.36458 3.0666 9.42859 3.04004C9.49272 3.01348 9.5623 3 9.63171 3Z" fill="white"/>
</svg>
