<svg width="20" height="20" viewBox="0 0 20 20" fill="none" xmlns="http://www.w3.org/2000/svg">
<path d="M13.8594 13.3199H11.2568L9.91504 11.692L11.2119 10.109L13.8594 13.3199ZM8.47461 13.2311H5.87207L11.167 6.76917H13.7695L8.47461 13.2311ZM16.9102 9.28186H13.9482V9.73108H15.7881C16.4571 9.73108 16.9999 10.273 17 10.942C17 11.6111 16.4572 12.1539 15.7881 12.1539H14.1631C13.5491 12.1538 13.0518 11.6557 13.0518 11.0416V10.8971H13.9482V11.0416C13.9483 11.16 14.0447 11.2563 14.1631 11.2565H15.7881C15.9616 11.2565 16.1025 11.1155 16.1025 10.942C16.1024 10.7686 15.9615 10.6285 15.7881 10.6285H13.0518V8.3844H16.9102V9.28186ZM5.7373 8.29456C6.45593 8.29462 7.03809 8.87768 7.03809 9.59631C7.03793 10.3148 6.45583 10.897 5.7373 10.8971H3.89746V12.0641H3V9.99963H5.7373C5.96019 9.99957 6.14047 9.81918 6.14062 9.59631C6.14062 9.37332 5.96029 9.19208 5.7373 9.19202H3.89746V9.73108H3V8.29456H5.7373ZM9.72656 8.30725L8.42871 9.89026L5.78223 6.67932H8.38477L9.72656 8.30725Z" fill="white"/>
</svg>
