<svg width="20" height="20" viewBox="0 0 20 20" fill="none" xmlns="http://www.w3.org/2000/svg">
<path d="M5.565 4.66906C5.04 4.98006 4.01 6.16406 4 6.47506V6.99006C4 7.64156 4.61 8.21506 5.1625 8.21506C5.8275 8.21506 6.3805 7.66406 6.3805 7.01006C6.3805 7.66406 6.9155 8.21506 7.5805 8.21506C8.2445 8.21506 8.7615 7.66406 8.7615 7.01006C8.7615 7.66406 9.33 8.21506 9.9945 8.21506H10.0065C10.6715 8.21506 11.2395 7.66406 11.2395 7.01006C11.2395 7.66406 11.7565 8.21506 12.421 8.21506C13.086 8.21506 13.621 7.66406 13.621 7.01006C13.621 7.66406 14.174 8.21506 14.8385 8.21506C15.39 8.21506 16 7.64106 16 6.99006V6.47506C15.99 6.16506 14.959 4.98006 14.435 4.66906C12.8085 4.61206 11.681 4.60206 10 4.60256C8.319 4.60256 6.0275 4.62906 5.565 4.66906ZM8.753 7.90756C8.68941 8.01831 8.61065 8.11962 8.519 8.20856C8.269 8.45356 7.924 8.60606 7.5455 8.60606C7.18101 8.60622 6.83098 8.46351 6.5705 8.20856C6.4795 8.11956 6.4105 8.02356 6.3475 7.91356C6.284 8.02456 6.196 8.11956 6.1045 8.20856C5.84396 8.46342 5.49397 8.60611 5.1295 8.60606C5.0835 8.60606 5.036 8.59356 4.9975 8.58006C4.944 9.13656 4.9215 9.66806 4.9135 10.0551V10.0576L4.9105 10.6411C4.9205 11.8081 4.7955 14.4231 5.4255 15.0661C6.4015 15.2931 8.198 15.3971 10.0005 15.3976C11.803 15.3976 13.5995 15.2926 14.5755 15.0656C15.2055 14.4236 15.0805 11.8086 15.0905 10.6416L15.0875 10.0581V10.0561C15.0795 9.66856 15.0575 9.13706 15.0035 8.58106C14.965 8.59406 14.9175 8.60706 14.872 8.60706C14.5075 8.60711 14.1575 8.46442 13.897 8.20956C13.805 8.12056 13.717 8.02556 13.654 7.91456C13.5905 8.02456 13.5215 8.12056 13.4305 8.20956C13.1699 8.46433 12.8199 8.60685 12.4555 8.60656C12.0755 8.60656 11.7325 8.45506 11.4815 8.21006C11.3899 8.12112 11.3111 8.01981 11.2475 7.90906C11.1847 8.01966 11.1068 8.12096 11.016 8.21006C10.7554 8.46478 10.4054 8.6073 10.041 8.60706H9.961C9.59666 8.60743 9.24667 8.4651 8.986 8.21056C8.89505 8.1215 8.81696 8.02019 8.754 7.90956L8.753 7.90756ZM7.751 9.20356C8.1485 9.20456 8.501 9.20356 8.9375 9.68006C9.281 9.64406 9.6405 9.62606 10 9.62656C10.36 9.62656 10.719 9.64406 11.0625 9.68006C11.499 9.20356 11.8515 9.20506 12.2485 9.20356C12.4365 9.20356 13.1865 9.20356 13.7085 10.6706L14.27 12.6846C14.686 14.1821 14.137 14.2186 13.452 14.2196C12.437 14.1821 11.874 13.4446 11.874 12.7071C11.312 12.7991 10.656 12.8451 10 12.8456C9.344 12.8456 8.688 12.7991 8.126 12.7071C8.126 13.4446 7.5635 14.1821 6.548 14.2201C5.863 14.2181 5.314 14.1816 5.73 12.6841L6.291 10.6706C6.8135 9.20356 7.5635 9.20356 7.751 9.20356ZM10 10.3571C9.999 10.3581 8.93 11.3391 8.7385 11.6881L9.4385 11.6601V12.2701C9.4385 12.2981 9.7185 12.2866 10 12.2736C10.281 12.2866 10.562 12.2986 10.562 12.2696V11.6596L11.262 11.6871C11.069 11.3386 10 10.3571 10 10.3571Z" fill="white"/>
</svg>
