<svg width="20" height="20" viewBox="0 0 20 20" fill="none" xmlns="http://www.w3.org/2000/svg">
<path d="M9.99988 5.7959L10.0341 5.7832L13.1669 6.69336L13.1981 6.72852L11.8905 6.96094L9.995 6.50391L6.21863 7.4082V14.2627L5.01257 14.5537L5.01062 14.5469L4.96277 7.28809L5.01257 7.23438L5.03894 7.20117L9.96863 5.78027L9.99988 5.7959ZM14.9969 5.4209L15.0272 12.707L14.9882 12.7471L14.9354 12.8486L9.99988 14.1846L6.80261 13.2529L8.10925 13.0195L10.0057 13.4775L13.7811 12.5732V5.71875L14.9882 5.4082L14.9969 5.4209Z" fill="white" fill-opacity="0.5"/>
<path d="M15.993 5.89355V14.0879L9.99988 16.9814L6.80261 15.4277V13.2529H6.80652L9.99207 14.1787L9.99988 14.1846L14.9882 12.7471V5.4082L15.993 5.89355ZM13.1981 4.55371V6.72852L9.99988 5.7959L5.01257 7.23438V14.5537L4.00671 14.0879V5.89355L9.99988 3L13.1981 4.55371ZM12.1522 8.53418V11.4473L9.99988 11.6992L7.84851 11.4473V8.53418L9.99988 8.28223L12.1522 8.53418Z" fill="white"/>
</svg>
