<svg width="20" height="20" viewBox="0 0 20 20" fill="none" xmlns="http://www.w3.org/2000/svg">
<path d="M10 4C13.3 4 16 6.7 16 10C16 13.3 13.3 16 10 16C6.7 16 4 13.3 4 10C4 6.7 6.7 4 10 4ZM11.47 11.17C12.13 10.33 12.04 9.13 11.2 8.5C10.39 7.87 9.19 8.02 8.5 8.86C7.84 9.7 7.93 10.9 8.77 11.53C9.61 12.16 10.81 12.01 11.47 11.17ZM8.26 15.07C8.62 15.22 9.4 15.37 9.79 15.37L12.4 11.59C13.24 10.33 13.03 8.62 11.86 7.69C10.81 6.85 9.34 6.88 8.29 7.69L4.66 10.48C4.75 11.44 5.02 11.92 5.02 11.95L7.09 9.7C6.94 10.69 7.3 11.71 8.14 12.34C8.86 12.91 9.73 13.06 10.57 12.88L8.26 15.07Z" fill="white"/>
</svg>
