<svg width="20" height="20" viewBox="0 0 20 20" fill="none" xmlns="http://www.w3.org/2000/svg">
<path d="M12.1124 13.5231C11.4288 13.7352 10.7172 13.8434 10.0014 13.8441C9.28548 13.8434 8.5737 13.7352 7.8899 13.5231C7.1099 13.2706 6.6274 12.4901 6.7884 11.6871C7.0864 10.2181 7.8439 8.93306 8.92241 7.94606C9.21795 7.66942 9.60761 7.5155 10.0124 7.5155C10.4172 7.5155 10.8069 7.66942 11.1024 7.94606C12.1584 8.91006 12.9159 10.2181 13.2374 11.6871C13.3749 12.4901 12.9159 13.2936 12.1124 13.5231ZM15.8995 12.7881L11.4469 5.10004C11.3822 4.98056 11.286 4.88107 11.1688 4.81233C11.0516 4.74359 10.9178 4.70821 10.7819 4.71003H9.24391C9.10796 4.70812 8.97407 4.74345 8.85676 4.8122C8.73945 4.88095 8.64319 4.98049 8.57841 5.10004L4.10338 12.7886C3.96538 13.0411 3.96538 13.3391 4.10338 13.5686L4.88338 14.9001C5.02138 15.1521 5.27339 15.2901 5.54889 15.2901H14.4305C14.706 15.2901 14.9585 15.1521 15.096 14.9001L15.8765 13.5686C16.037 13.3161 16.037 13.0176 15.8995 12.7881Z" fill="white"/>
</svg>
