<svg width="20" height="20" viewBox="0 0 20 20" fill="none" xmlns="http://www.w3.org/2000/svg">
<path d="M4.21643 7.03155L7.34827 7.77374C7.45597 7.79942 7.53489 7.89178 7.54261 8.00225L8.12171 16.3274C8.12652 16.4004 8.0688 16.462 7.99573 16.4622H7.83948C7.65923 16.4622 7.50293 16.336 7.46643 16.1595L6.00354 9.04913C5.98787 8.97382 5.92778 8.91593 5.85218 8.90167L4.50257 8.64678C4.37905 8.62348 4.28087 8.52901 4.25257 8.40655L3.98792 7.25909C3.95646 7.12198 4.07951 6.99932 4.21643 7.03155ZM15.8776 7.03155C16.0146 6.9991 16.1384 7.12194 16.1071 7.25909L15.8424 8.40655C15.8142 8.52897 15.7158 8.62339 15.5924 8.64678L14.2418 8.90167C14.1664 8.91603 14.1071 8.97399 14.0914 9.04913L12.6276 16.1595C12.5911 16.3358 12.4356 16.4621 12.2555 16.4622H12.0992C12.026 16.4622 11.9675 16.4005 11.9723 16.3274L12.5524 8.00225C12.5601 7.89167 12.6388 7.79929 12.7467 7.77374L15.8776 7.03155ZM16.7692 3.54229C16.9052 3.51264 17.0258 3.63413 16.9948 3.76983L16.7282 4.92706C16.7004 5.04718 16.6046 5.14088 16.484 5.16631L10.9635 6.3294C10.8804 6.34708 10.8188 6.41842 10.8131 6.50323L10.3717 13.138C10.3586 13.3335 10.1956 13.4856 9.99964 13.4856C9.80369 13.4856 9.64169 13.3335 9.62854 13.138L9.18616 6.50323C9.1805 6.41838 9.11893 6.34705 9.03577 6.3294L3.51526 5.16631C3.39463 5.14088 3.29982 5.04718 3.2721 4.92706L3.00452 3.76983C2.97352 3.63403 3.09493 3.51237 3.23108 3.54229L9.56507 4.93389C9.85136 4.99674 10.1479 4.99673 10.4342 4.93389L16.7692 3.54229Z" fill="white"/>
</svg>
