<svg width="20" height="20" viewBox="0 0 20 20" fill="none" xmlns="http://www.w3.org/2000/svg">
<path d="M6.25867 5.35999C7.3221 5.35999 8.12854 5.75775 8.67859 6.55237C9.2377 7.34692 9.51741 8.4958 9.51746 9.99963C9.51746 11.5037 9.23781 12.6533 8.67859 13.4479C8.12854 14.2425 7.3221 14.6403 6.25867 14.6403C5.20441 14.6403 4.39796 14.2425 3.83875 13.4479C3.27953 12.6533 2.99988 11.5037 2.99988 9.99963C2.99992 8.49582 3.27965 7.34692 3.83875 6.55237C4.39796 5.75775 5.20441 5.35999 6.25867 5.35999ZM16.9999 8.68323L14.5985 11.2428L16.9999 13.8024L16.2753 14.483L13.9169 11.9694L11.5594 14.483L10.8339 13.8024L13.2352 11.2428L10.8339 8.68323L11.5594 8.00256L13.9169 10.5153L16.2753 8.00256L16.9999 8.68323ZM4.48523 12.526C4.8611 13.2731 5.45207 13.6471 6.25867 13.6471C6.99207 13.6471 7.54686 13.3391 7.92273 12.7242C8.29852 12.1094 8.48621 11.2009 8.48621 9.99963C8.48619 9.69706 8.47268 9.41803 8.44519 9.16272C8.42686 8.89803 8.3943 8.65232 8.34851 8.42542L4.48523 12.526ZM6.25867 6.35315C5.52528 6.35316 4.97047 6.66112 4.5946 7.276C4.21893 7.89082 4.03117 8.79867 4.03113 9.99963C4.03113 10.2929 4.04014 10.5727 4.05847 10.8375C4.08596 11.1022 4.12302 11.3479 4.16882 11.5748L8.03308 7.47424C7.65721 6.72692 7.06541 6.35315 6.25867 6.35315Z" fill="white"/>
</svg>
