<svg width="20" height="20" viewBox="0 0 20 20" fill="none" xmlns="http://www.w3.org/2000/svg">
<g clip-path="url(#clip0_318_397)">
<path d="M10.7572 4.06457C10.7572 4.6339 10.2847 5.10582 9.71533 5.10582C9.14833 5.10582 8.67467 4.63332 8.67467 4.06457C8.67467 3.49698 9.14892 3.02332 9.71533 3.02332C10.2847 3.02332 10.7572 3.49757 10.7572 4.06457ZM9.71533 5.95632C9.10167 5.95632 8.62858 6.42882 8.62858 7.04482C8.62858 7.65907 9.10108 8.13273 9.7165 8.13273C10.3307 8.13273 10.8044 7.65965 10.8044 7.04482C10.8044 6.42998 10.3232 5.95632 9.71067 5.95632H9.71533ZM9.71533 8.8899C9.10167 8.8899 8.58075 9.40965 8.58075 10.0245C8.58075 10.6393 9.10225 11.1591 9.7165 11.1591C10.3307 11.1591 10.8517 10.6393 10.8517 10.0245C10.8517 9.40965 10.3302 8.8899 9.7165 8.8899H9.71533ZM9.71533 11.869C9.10167 11.869 8.62858 12.3415 8.62858 12.9563C8.62858 13.5711 9.10108 14.0448 9.7165 14.0448C10.3307 14.0448 10.8044 13.5717 10.8044 12.9563C10.8044 12.3893 10.3232 11.869 9.71067 11.869H9.71533ZM9.71533 14.8971C9.14833 14.8971 8.67467 15.369 8.67467 15.9377C8.67467 16.5036 9.14892 16.9766 9.71533 16.9766C10.2852 16.9766 10.7572 16.5047 10.7572 15.936C10.7572 15.3684 10.2847 14.8971 9.71533 14.8971ZM12.6017 5.8134C11.939 5.8134 11.372 6.38332 11.372 7.04482C11.372 7.70632 11.9396 8.2739 12.6017 8.2739C13.2637 8.2739 13.8302 7.70515 13.8302 7.04482C13.8302 6.38273 13.2632 5.81457 12.6017 5.81457V5.8134ZM12.6017 8.74757C11.8923 8.74757 11.3242 9.31515 11.3242 10.0251C11.3242 10.7344 11.8929 11.3008 12.6017 11.3008C13.3104 11.3008 13.8786 10.7344 13.8786 10.0239C13.8786 9.31457 13.3104 8.74757 12.6017 8.74757ZM12.6017 11.7272C11.939 11.7272 11.372 12.2966 11.372 12.9563C11.372 13.6184 11.9396 14.1866 12.6017 14.1866C13.2637 14.1866 13.8302 13.6172 13.8302 12.9563C13.8302 12.2954 13.2637 11.7272 12.6017 11.7272ZM15.5802 8.60465C14.8242 8.60465 14.1627 9.22007 14.1627 10.0245C14.1627 10.7811 14.7757 11.4437 15.5802 11.4437C16.3857 11.4437 17 10.8225 17 10.0181C16.9522 9.2119 16.3379 8.59998 15.5802 8.59998V8.60465ZM6.7835 6.09865C6.26317 6.09865 5.8385 6.52448 5.8385 7.0454C5.8385 7.56515 6.26375 7.9904 6.7835 7.9904C7.30442 7.9904 7.72792 7.56515 7.72792 7.0454C7.72792 6.52448 7.30383 6.1004 6.7835 6.1004V6.09865ZM6.7835 9.03107C6.21592 9.03107 5.79008 9.45632 5.79008 10.0245C5.79008 10.5932 6.21067 11.0179 6.77883 11.0179C7.347 11.0179 7.76758 10.5921 7.76758 10.0245C7.76758 9.45573 7.33883 9.03107 6.77008 9.03107H6.7835ZM6.7835 12.0101C6.26317 12.0101 5.8385 12.4366 5.8385 12.9551C5.8385 13.4772 6.26375 13.9019 6.7835 13.9019C7.30442 13.9019 7.72792 13.4731 7.72792 12.9481C7.72792 12.4231 7.30383 12.0031 6.7835 12.0031V12.0101ZM3.85225 9.1734C3.378 9.1734 3 9.55023 3 10.0245C3 10.497 3.378 10.8756 3.85167 10.8756C4.32417 10.8756 4.70275 10.4976 4.70275 10.0245C4.70275 9.5514 4.32475 9.1734 3.85225 9.1734Z" fill="white"/>
</g>
<defs>
<clipPath id="clip0_318_397">
<rect width="14" height="14" fill="white" transform="translate(3 3)"/>
</clipPath>
</defs>
</svg>
