<svg width="20" height="20" viewBox="0 0 20 20" fill="none" xmlns="http://www.w3.org/2000/svg">
<path d="M16.3192 8.90191L12.88 7.22374C12.8392 7.20332 12.8182 7.16191 12.7972 7.1205L11.0986 3.68133C10.8081 3.08053 10.0627 2.83146 9.46129 3.12136C9.21774 3.24061 9.0209 3.43766 8.90191 3.68133L7.20332 7.1205C7.1807 7.15863 7.15281 7.19338 7.1205 7.22374L3.68133 8.92291C3.08053 9.21281 2.83146 9.95885 3.12136 10.5597C3.24087 10.8032 3.43782 11.0001 3.68133 11.1196L7.1205 12.7972C7.16133 12.8182 7.18233 12.8596 7.20332 12.88L8.92291 16.3192C9.21281 16.92 9.95885 17.1691 10.5597 16.8792C10.8032 16.7599 11.0001 16.5629 11.119 16.3192L12.7972 12.88C12.8182 12.8392 12.8596 12.7972 12.88 12.7972L16.3192 11.0986C16.92 10.8081 17.1691 10.0627 16.8792 9.46188C16.7753 9.21281 16.5683 9.02673 16.3192 8.90191ZM13.7713 9.15098L12.176 10.5392C11.8651 10.8291 11.637 11.2019 11.5542 11.6166L11.14 13.6879C11.119 13.7713 11.0362 13.8337 10.9534 13.8127C10.912 13.8127 10.891 13.7917 10.8706 13.7503L9.48229 12.155C9.19239 11.8441 8.81908 11.6166 8.40493 11.5332L6.33303 11.119C6.25021 11.0986 6.18779 11.0152 6.20879 10.9324C6.20879 10.8916 6.22921 10.8706 6.27062 10.8496L7.86596 9.46129C8.17686 9.17139 8.40493 8.79866 8.48776 8.38393L8.90191 6.31262C8.9229 6.22921 9.00573 6.16679 9.08856 6.18779C9.1197 6.19298 9.14856 6.20741 9.17139 6.22921L10.5597 7.82454C10.8496 8.13544 11.2229 8.36352 11.637 8.44635L13.7089 8.86049C13.7917 8.88149 13.8542 8.96432 13.8332 9.04715C13.8226 9.08682 13.8012 9.12276 13.7713 9.15098Z" fill="white"/>
</svg>
