<svg width="20" height="20" viewBox="0 0 20 20" fill="none" xmlns="http://www.w3.org/2000/svg">
<path d="M9.64417 3.35291C9.05267 4.80366 8.69567 5.75332 8.03708 7.16032C8.44133 7.58849 8.93717 8.08724 9.74217 8.65016C8.8765 8.29432 8.28617 7.93616 7.84517 7.56516C7.00167 9.32449 5.681 11.8305 3 16.6471C5.107 15.4308 6.74033 14.6812 8.26225 14.3942C8.19358 14.0984 8.1601 13.7955 8.1625 13.4918L8.16425 13.4247C8.19808 12.0743 8.89983 11.036 9.73167 11.1072C10.5635 11.1772 11.2098 12.3298 11.1772 13.6791C11.1721 13.9229 11.1436 14.1658 11.092 14.4042C12.597 14.6987 14.214 15.4466 16.2918 16.6465C15.8823 15.8922 15.516 15.2121 15.1666 14.564C14.6165 14.1382 14.0431 13.5828 12.8723 12.9814C13.6773 13.1908 14.2531 13.4317 14.7023 13.7012C11.1498 7.08974 10.8622 6.21124 9.64417 3.35291ZM16.3572 15.46V15.0966H16.2207V15.0476H16.5485V15.0966H16.412V15.46H16.6051V15.0476H16.6879L16.7853 15.3392L16.8052 15.4017C16.812 15.3793 16.8194 15.3571 16.8273 15.3352L16.9265 15.0476H17V15.46H16.9469V15.1141L16.8267 15.46H16.7777L16.6582 15.1088V15.46H16.6051" fill="white"/>
</svg>
