<svg width="20" height="20" viewBox="0 0 20 20" fill="none" xmlns="http://www.w3.org/2000/svg">
<path d="M9.28597 3.28613C8.26629 3.28755 7.26033 3.5212 6.34443 3.96937C5.42852 4.41753 4.62672 5.06843 3.99988 5.87267C4.81898 6.09143 5.39861 6.27942 5.57205 6.33817C5.57485 6.23186 5.59275 5.27905 5.59275 5.27905C5.59275 5.27905 5.59499 5.25667 5.60674 5.24548C5.62129 5.23093 5.64311 5.23541 5.64311 5.23541C5.85851 5.26674 10.4559 5.9482 12.3939 7.07726C12.6329 7.21713 12.7509 7.36651 12.8986 7.51702C13.4346 8.07091 14.1424 10.3749 14.2185 10.8499C14.2213 10.8684 14.1983 10.8891 14.1882 10.8964C14.1315 10.941 14.0731 10.9836 14.0131 11.0239C13.5543 11.3316 12.498 12.0713 11.1429 11.9504C9.92547 11.8425 8.33539 11.1448 6.41801 9.88087C6.60599 10.3229 6.79175 10.7649 6.9775 11.2074C7.25557 11.3518 9.93554 12.7181 11.2582 12.6906C12.3235 12.6683 13.4631 12.1491 13.9191 11.8749C13.9191 11.8749 14.0193 11.8145 14.0629 11.848C14.1105 11.885 14.097 11.9415 14.0859 11.9991C14.0579 12.13 13.9941 12.3684 13.9505 12.482L13.9141 12.5743C13.8621 12.7141 13.8117 12.8439 13.7149 12.924C13.4464 13.1679 13.0178 13.3626 12.3464 13.6541C11.3085 14.1084 9.62446 14.3971 8.06068 14.387C7.50062 14.3747 6.95959 14.3126 6.48459 14.2572C5.50939 14.147 4.71603 14.0575 4.23207 14.4077C4.86112 15.1305 5.63759 15.7103 6.5093 16.1081C7.38102 16.5059 8.32778 16.7124 9.28597 16.714C11.0666 16.714 12.7743 16.0066 14.0334 14.7475C15.2925 13.4884 15.9999 11.7807 15.9999 10C15.9999 8.2194 15.2925 6.51169 14.0334 5.25259C12.7743 3.99349 11.0666 3.28613 9.28597 3.28613ZM10.7832 7.18188C10.5249 7.17241 10.2674 7.21409 10.0253 7.30454C9.78323 7.395 9.56144 7.53242 9.37269 7.70892C9.1835 7.88487 9.03102 8.09653 8.92405 8.3317C8.81707 8.56687 8.75772 8.8209 8.74941 9.07912C8.73247 9.60027 8.92242 10.1069 9.27779 10.4885C9.63315 10.8701 10.1251 11.0956 10.6461 11.1157C10.9048 11.1258 11.163 11.0842 11.4055 10.9933C11.648 10.9024 11.8699 10.7641 12.0583 10.5864C12.2471 10.4105 12.3994 10.1991 12.5063 9.96427C12.6133 9.72943 12.6728 9.47578 12.6815 9.21787C12.6986 8.69641 12.5085 8.1894 12.1527 7.80775C11.797 7.42609 11.3045 7.20142 10.7832 7.18188ZM10.7664 7.76096C11.1303 7.77408 11.4741 7.93101 11.7225 8.19731C11.9709 8.46362 12.1035 8.81756 12.0913 9.18151C12.0858 9.36135 12.0448 9.53832 11.9704 9.70216C11.8961 9.86601 11.79 10.0135 11.6582 10.136C11.5262 10.2592 11.3712 10.3552 11.202 10.4185C11.0328 10.4817 10.8529 10.511 10.6724 10.5047C10.3087 10.4906 9.96544 10.333 9.71759 10.0665C9.46975 9.80001 9.33749 9.44621 9.34975 9.08248C9.36094 8.71601 9.51759 8.37752 9.78447 8.12742C9.91562 8.00406 10.0701 7.9081 10.2388 7.84517C10.4075 7.78225 10.587 7.75362 10.7669 7.76096H10.7664ZM10.9913 8.44913C10.6545 8.44913 10.3831 8.63097 10.3831 8.85588C10.3831 9.07968 10.6545 9.26151 10.9913 9.26151C11.327 9.26151 11.6 9.07912 11.6 8.85588C11.6 8.63097 11.3276 8.44969 10.9913 8.44969V8.44913Z" fill="white"/>
</svg>
