<svg width="20" height="20" viewBox="0 0 20 20" fill="none" xmlns="http://www.w3.org/2000/svg">
<path d="M7.37283 14.7436H12.883C15.5023 14.6797 17.5626 12.4916 17.4987 9.88827C17.4348 7.34882 15.3905 5.32046 12.883 5.25657H7.37283C4.75353 5.19269 2.56545 7.25299 2.50157 9.8723C2.43768 12.4916 4.49799 14.6637 7.11729 14.7276C7.19715 14.7436 7.277 14.7436 7.37283 14.7436ZM12.7552 13.0666H7.48463C5.79167 13.0187 4.46605 11.5972 4.51396 9.90424C4.57785 8.29113 5.87153 6.98148 7.48463 6.93357H12.7552C14.4481 6.88565 15.8696 8.21127 15.9175 9.90424C15.9654 11.5972 14.6398 13.0187 12.9468 13.0666C12.883 13.0666 12.8191 13.0666 12.7552 13.0666Z" fill="white"/>
</svg>
