<svg width="20" height="20" viewBox="0 0 20 20" fill="none" xmlns="http://www.w3.org/2000/svg">
<path fill-rule="evenodd" clip-rule="evenodd" d="M14.7143 11.3235V8.67647C14.7143 7.81484 14.7115 7.51219 14.6813 7.27585C14.511 5.9444 14.0228 5.15546 13.3581 4.66353C12.6521 4.14099 11.5712 3.82353 10 3.82353C8.42881 3.82353 7.34794 4.14099 6.6419 4.66353C5.9772 5.15546 5.48899 5.9444 5.31871 7.27585C5.28849 7.51219 5.28571 7.81484 5.28571 8.67647V11.3235C5.28571 12.1852 5.28849 12.4878 5.31871 12.7241C5.48899 14.0556 5.9772 14.8445 6.6419 15.3365C7.34794 15.859 8.42881 16.1765 10 16.1765C11.5712 16.1765 12.6521 15.859 13.3581 15.3365C14.0228 14.8445 14.511 14.0556 14.6813 12.7241C14.7115 12.4878 14.7143 12.1852 14.7143 11.3235ZM4.044 7.1031C4 7.44712 4 7.85691 4 8.67647V11.3235C4 12.1431 4 12.5529 4.044 12.8969C4.45756 16.1306 6.57143 17.5 10 17.5C13.4286 17.5 15.5424 16.1306 15.956 12.8969C16 12.5529 16 12.1431 16 11.3235V8.67647C16 7.85691 16 7.44712 15.956 7.1031C15.5424 3.86937 13.4286 2.5 10 2.5C6.57143 2.5 4.45756 3.86937 4.044 7.1031Z" fill="white"/>
<path fill-rule="evenodd" clip-rule="evenodd" d="M7.86136 4.48529C7.87735 4.5196 7.95231 4.65531 8.2996 4.82032C8.70159 5.01131 9.30213 5.14706 10 5.14706C10.6979 5.14706 11.2984 5.01131 11.7004 4.82032C12.0477 4.65531 12.1227 4.5196 12.1386 4.48529C12.1227 4.45099 12.0477 4.31527 11.7004 4.15027C11.2984 3.95928 10.6979 3.82353 10 3.82353C9.30213 3.82353 8.70159 3.95928 8.2996 4.15027C7.95231 4.31527 7.87735 4.45099 7.86136 4.48529ZM7.76081 2.94856C8.36704 2.66053 9.15937 2.5 10 2.5C10.8406 2.5 11.633 2.66053 12.2392 2.94856C12.7908 3.21065 13.4286 3.7061 13.4286 4.48529C13.4286 5.26449 12.7908 5.75994 12.2392 6.02203C11.633 6.31006 10.8406 6.47059 10 6.47059C9.15937 6.47059 8.36704 6.31006 7.76081 6.02203C7.20918 5.75994 6.57143 5.26449 6.57143 4.48529C6.57143 3.7061 7.20918 3.21065 7.76081 2.94856Z" fill="white"/>
</svg>
