<svg width="20" height="20" viewBox="0 0 20 20" fill="none" xmlns="http://www.w3.org/2000/svg">
<path d="M15.5648 13.7154L13.0982 12.2929L10.4363 13.8311V16.6784L15.5648 13.7154ZM9.56368 16.6784V13.8295L6.90066 12.2923L4.43521 13.7154L9.56368 16.6784ZM9.99722 13.0748L12.6625 11.536V8.46169L9.99944 6.92565L7.33754 8.46169V11.5377L9.99833 13.0742L9.99722 13.0748ZM4.00056 7.0403V12.9624L6.46712 11.5382V8.46336L4 7.03918L4.00056 7.0403ZM14.917 7.66417L13.5346 8.46336V11.5365L16 12.9607V7.03807L14.917 7.66417ZM4.43521 6.28452L6.90344 7.7087L9.56423 6.17155V3.3232L4.43521 6.28452ZM13.0982 7.7087L15.5659 6.28452L10.4352 3.32153V6.17155L13.0982 7.7087Z" fill="white"/>
</svg>
