<svg width="20" height="20" viewBox="0 0 20 20" fill="none" xmlns="http://www.w3.org/2000/svg">
<path d="M9.9646 2.95959L4.7146 5.57493V11.7288C4.7146 13.1211 5.26772 14.4565 6.25229 15.4411C7.23685 16.4256 8.57221 16.9788 9.9646 16.9788C11.357 16.9788 12.6923 16.4256 13.6769 15.4411C14.6615 14.4565 15.2146 13.1211 15.2146 11.7288V5.57493L9.9646 2.95959ZM12.9527 14.9094L9.9646 13.4208V14.3956L12.1679 15.4932C11.5041 15.8798 10.7503 16.0848 9.98224 16.0877C9.21414 16.0906 8.4588 15.8913 7.79214 15.5098C7.12548 15.1283 6.57097 14.578 6.18435 13.9143C5.79772 13.2506 5.5926 12.4969 5.5896 11.7288V6.11375L9.9646 3.9343L14.3396 6.11375V7.75438L9.9646 5.57488V6.54959L14.3396 8.72904V10.3697L9.9646 8.19021V9.16492L14.3396 11.3443V11.7288C14.3398 12.1262 14.2853 12.5218 14.1777 12.9044L9.9646 10.8055V11.7802L13.8562 13.7189C13.6254 14.1645 13.3198 14.5672 12.9527 14.9094Z" fill="white"/>
</svg>
