<svg width="20" height="20" viewBox="0 0 20 20" fill="none" xmlns="http://www.w3.org/2000/svg">
<path d="M17.0181 10.8872C16.8509 9.73813 16.5963 8.58175 16.4145 7.81085C16.1963 6.89454 15.4181 6.23999 14.48 6.18178C13.5563 6.12358 12.029 6.05819 9.99274 6.05819C7.95637 6.05819 6.42914 6.12364 5.50551 6.18178C4.56732 6.23999 3.7891 6.89454 3.57092 7.81085C3.38912 8.58181 3.13455 9.73813 2.96732 10.8872C2.85091 11.6654 2.7637 12.5745 2.69093 13.6072C2.65461 14.1817 2.84366 14.7344 3.22914 15.1635C3.61456 15.5926 4.1382 15.8472 4.72005 15.869C5.98545 15.9272 7.9273 15.9999 9.99999 15.9999C12.0727 15.9999 14.0145 15.9272 15.2799 15.869C15.8545 15.8399 16.3854 15.5926 16.7708 15.1635C17.1563 14.7345 17.3454 14.1817 17.309 13.6072C17.229 12.5745 17.1345 11.6582 17.0181 10.8872ZM16.0145 14.4944C15.8108 14.7199 15.5345 14.8508 15.229 14.8653C13.9709 14.9235 12.0509 14.9963 9.99274 14.9963C7.93455 14.9963 6.01459 14.9235 4.75637 14.8653C4.45097 14.8508 4.17458 14.7199 3.97097 14.4944C3.76729 14.269 3.66551 13.9781 3.68733 13.6726C3.75278 12.669 3.84005 11.7818 3.9564 11.0327C4.11638 9.91993 4.3637 8.79268 4.5455 8.0436C4.6619 7.55635 5.06914 7.2145 5.57096 7.17818C6.48003 7.11998 7.98544 7.05446 9.99999 7.05446C12.0072 7.05446 13.5199 7.11992 14.4291 7.17812C14.9236 7.20719 15.3381 7.55629 15.4545 8.04354C15.629 8.79262 15.8763 9.91987 16.0436 11.0326C16.1527 11.7817 16.2399 12.669 16.3126 13.6726C16.3126 13.978 16.2109 14.269 16.0145 14.4944ZM9.99267 5.24365C10.3345 5.24365 10.6181 4.96726 10.6181 4.62548C10.6181 4.28358 10.3418 4 9.99267 4C9.65083 4 9.36719 4.27639 9.36719 4.62548C9.36719 4.96001 9.65083 5.24365 9.99267 5.24365ZM13.629 10.0218C13.0763 10.0218 12.6253 10.4727 12.6253 11.0254H14.6326C14.6326 10.4726 14.1889 10.0218 13.629 10.0218ZM6.35637 10.0218C5.80359 10.0218 5.35272 10.4727 5.35272 11.0254H7.35996C7.35996 10.4726 6.91633 10.0218 6.35637 10.0218ZM9.99267 13.6581C10.8872 13.6581 11.6144 12.9308 11.6144 12.0363H8.3636C8.3636 12.9236 9.09087 13.6581 9.99267 13.6581Z" fill="white"/>
</svg>
