<svg width="20" height="20" viewBox="0 0 20 20" fill="none" xmlns="http://www.w3.org/2000/svg">
<path d="M13.3008 10.3301C13.2956 9.37435 13.7279 8.65299 14.6029 8.12174C14.1133 7.42122 13.3737 7.03581 12.3971 6.96029C11.4727 6.88737 10.4622 7.49935 10.0924 7.49935C9.70182 7.49935 8.80599 6.98633 8.10286 6.98633C6.64974 7.00977 5.10547 8.14518 5.10547 10.4551C5.10547 11.1374 5.23047 11.8422 5.48047 12.5697C5.8138 13.5254 7.01693 15.8691 8.27214 15.8301C8.92839 15.8145 9.39193 15.3639 10.2461 15.3639C11.0742 15.3639 11.5039 15.8301 12.2357 15.8301C13.5013 15.8118 14.5898 13.6816 14.9076 12.7233C13.2096 11.9238 13.3008 10.3796 13.3008 10.3301ZM11.8268 6.05404C12.5378 5.21029 12.4727 4.44206 12.4518 4.16602C11.8242 4.20247 11.0977 4.5931 10.6836 5.07487C10.2279 5.59049 9.95964 6.22852 10.0169 6.94727C10.6966 6.99935 11.3164 6.65039 11.8268 6.05404Z" fill="white"/>
</svg>
