<svg width="20" height="20" viewBox="0 0 20 20" fill="none" xmlns="http://www.w3.org/2000/svg">
<path d="M4 4.81873V14.3637C4 14.8137 4.368 15.1817 4.818 15.1817H4.8835C4.84032 14.9112 4.81859 14.6377 4.8185 14.3637C4.81636 13.3627 5.106 12.3827 5.652 11.5437L7.753 15.1817H8.317C8.17925 14.8956 8.11604 14.5792 8.13324 14.2621C8.15044 13.9449 8.24749 13.6373 8.41539 13.3677C8.58328 13.0981 8.81657 12.8753 9.0936 12.72C9.37063 12.5646 9.68241 12.4818 10 12.4792C10.3177 12.4818 10.6295 12.5646 10.9066 12.72C11.1837 12.8753 11.417 13.0982 11.5849 13.3678C11.7528 13.6375 11.8499 13.9452 11.867 14.2624C11.8842 14.5796 11.8209 14.896 11.683 15.1822H12.207C12.3846 14.7064 12.4032 14.1859 12.2602 13.6986C12.1171 13.2114 11.8201 12.7835 11.4135 12.4792H14.8285C15.1641 13.3384 15.2637 14.2716 15.117 15.1822H15.182C15.632 15.1822 16 14.8137 16 14.3637V4.81873H4ZM8.6365 5.90923H11.3635C11.5082 5.90923 11.6469 5.9667 11.7492 6.069C11.8515 6.1713 11.909 6.31005 11.909 6.45473C11.909 6.5994 11.8515 6.73815 11.7492 6.84045C11.6469 6.94275 11.5082 7.00023 11.3635 7.00023H8.6365C8.49182 7.00023 8.35307 6.94275 8.25077 6.84045C8.14847 6.73815 8.091 6.5994 8.091 6.45473C8.091 6.31005 8.14847 6.1713 8.25077 6.069C8.35307 5.9667 8.49182 5.90923 8.6365 5.90923ZM10 9.18223C10.9552 9.18181 11.892 9.44554 12.7067 9.94427C13.5215 10.443 14.1824 11.1573 14.6165 12.0082H10C9.42394 12.0082 8.86784 12.2192 8.43691 12.6015C8.00598 12.9838 7.73011 13.5108 7.6615 14.0827L5.955 11.1252C6.43992 10.5182 7.0554 10.0284 7.7557 9.69198C8.456 9.35559 9.2231 9.18136 10 9.18223Z" fill="white"/>
</svg>
