<svg width="20" height="20" viewBox="0 0 20 20" fill="none" xmlns="http://www.w3.org/2000/svg">
<path d="M3.02625 13.5119C3.06825 13.4442 3.13533 13.4395 3.22925 13.499C5.35025 14.7299 7.65908 15.3459 10.1534 15.3459C11.8171 15.3459 13.4597 15.035 15.0808 14.4155L15.2646 14.3338C15.3451 14.2988 15.4011 14.2755 15.4355 14.258C15.5673 14.2066 15.663 14.2311 15.7417 14.3338C15.8117 14.4353 15.7942 14.5298 15.6717 14.6138C15.5224 14.7246 15.3217 14.853 15.0849 14.9953C14.3592 15.4287 13.5449 15.763 12.6437 16.0021C10.5327 16.5724 8.29491 16.4545 6.25558 15.6655C5.09113 15.2093 4.01822 14.5474 3.08808 13.7114C3.02975 13.6682 3 13.6239 3 13.583C3 13.5556 3.01225 13.5305 3.02975 13.5072L3.02625 13.5119ZM6.85583 9.8847C6.85583 9.29845 6.99992 8.79795 7.28925 8.38145C7.578 7.96729 7.97175 7.65229 8.47925 7.43937C8.94358 7.24395 9.50358 7.10395 10.1779 7.01937C10.4054 6.99254 10.7805 6.95929 11.2979 6.91787V6.70204C11.2979 6.15954 11.2367 5.7932 11.1229 5.60829C10.9467 5.35745 10.6679 5.22912 10.2829 5.22912H10.1768C9.89675 5.25595 9.65408 5.34345 9.44992 5.49745C9.24575 5.65495 9.1145 5.86495 9.05617 6.13679C9.02117 6.31179 8.936 6.40804 8.80242 6.43429L7.33242 6.25054C7.18775 6.21554 7.11542 6.14554 7.11542 6.02304C7.11542 5.9962 7.1195 5.97054 7.12825 5.93554C7.27233 5.18304 7.627 4.62304 8.18992 4.25554C8.75925 3.8962 9.41492 3.68679 10.1674 3.64304H10.4824C11.4449 3.64304 12.2073 3.8962 12.7504 4.39554C12.8292 4.48304 12.9079 4.57054 12.9867 4.67554C13.0567 4.77179 13.1173 4.8587 13.1517 4.93804C13.1955 5.0162 13.2392 5.13054 13.2655 5.27054C13.3005 5.4187 13.3267 5.51554 13.3442 5.56804C13.3617 5.6287 13.3804 5.74304 13.3886 5.92679C13.3944 6.10937 13.4002 6.21437 13.4002 6.24937V9.32937C13.4002 9.5487 13.4352 9.74937 13.4965 9.9337C13.5577 10.1163 13.619 10.2487 13.6802 10.3269L13.9777 10.72C14.0302 10.7994 14.0571 10.8694 14.0571 10.93C14.0571 11 14.0221 11.0619 13.9521 11.1132C13.2521 11.7257 12.8671 12.0582 12.807 12.1107C12.7107 12.1895 12.5882 12.1982 12.4395 12.137C12.3316 12.0467 12.2291 11.9501 12.1327 11.8476L11.9518 11.6452C11.8879 11.5653 11.8263 11.4836 11.7669 11.4002L11.5919 11.1465C11.1194 11.6633 10.6568 11.9865 10.1919 12.1177C9.90375 12.2052 9.55433 12.2501 9.12442 12.2501C8.47692 12.2501 7.93442 12.05 7.51442 11.647C7.09442 11.2445 6.88442 10.6757 6.88442 9.93195L6.85525 9.88762L6.85583 9.8847ZM9.04508 9.6292C9.04508 9.95937 9.12675 10.2242 9.293 10.4249C9.45925 10.6232 9.68675 10.7235 9.96675 10.7235C9.993 10.7235 10.0286 10.7195 10.0805 10.7119C10.133 10.7025 10.1587 10.6985 10.1773 10.6985C10.5355 10.6051 10.8073 10.3759 11.008 10.0113C11.1042 9.84795 11.1742 9.67295 11.218 9.48045C11.2705 9.29379 11.288 9.13629 11.2967 9.01379C11.3055 8.90004 11.3055 8.69879 11.3055 8.42754V8.11254C10.8155 8.11254 10.4398 8.14754 10.1855 8.21754C9.44175 8.42754 9.0655 8.90004 9.0655 9.63504L9.04508 9.62337V9.6292ZM14.3896 13.7283C14.4071 13.6933 14.4333 13.6641 14.4666 13.6291C14.6777 13.4874 14.8831 13.39 15.0791 13.3375C15.387 13.2593 15.7021 13.2124 16.0194 13.1975C16.1011 13.1905 16.1827 13.1975 16.2586 13.215C16.6377 13.25 16.8711 13.313 16.9422 13.4075C16.979 13.46 17 13.5405 17 13.635V13.7225C17 14.02 16.9131 14.37 16.7527 14.7725C16.5905 15.175 16.3653 15.5005 16.0783 15.7525C16.0357 15.7875 15.9967 15.805 15.9634 15.805C15.9459 15.805 15.9284 15.805 15.9109 15.798C15.8584 15.7723 15.8485 15.728 15.8736 15.658C16.1886 14.923 16.3437 14.4079 16.3437 14.118C16.3437 14.0305 16.3262 13.9605 16.293 13.9173C16.2084 13.8205 15.9722 13.7674 15.579 13.7674C15.4372 13.7674 15.2681 13.7767 15.0715 13.7942C14.8597 13.8205 14.6632 13.8467 14.4882 13.873C14.4357 13.873 14.4018 13.8648 14.3832 13.8473C14.3657 13.8298 14.3622 13.8199 14.3715 13.8024C14.3715 13.7925 14.375 13.7849 14.3832 13.7656V13.7306L14.3896 13.7283Z" fill="white"/>
</svg>
