<svg width="20" height="20" viewBox="0 0 20 20" fill="none" xmlns="http://www.w3.org/2000/svg">
<path d="M10.2013 10.7868V9.19544C10.2013 8.87144 10.3527 8.63944 10.676 8.63944H12.6693C12.6807 8.63944 12.6927 8.62744 12.6927 8.61544V8.29877C12.6927 8.2961 12.6927 8.29344 12.6907 8.29077H10.2507C9.72267 8.35744 9.464 8.72611 9.464 9.19544V10.7861C9.464 11.1074 9.30867 11.3401 8.99067 11.3401H6.888C6.876 11.3401 6.864 11.3481 6.864 11.3641V11.6808C6.864 11.6941 6.87067 11.7041 6.87933 11.7074H9.26867C9.89067 11.6908 10.1973 11.2941 10.1973 10.7841L10.2013 10.7868ZM2.016 11.7094H2.716C2.72113 11.7072 2.72546 11.7034 2.72843 11.6987C2.7314 11.6939 2.73288 11.6884 2.73267 11.6828V10.6694C2.73267 10.3448 2.916 10.1208 3.18333 10.1208H6.06533C6.71467 10.1208 7.02867 9.72077 7.02867 9.1981C7.02867 8.7281 6.77133 8.3601 6.242 8.29344H2.004C2.004 8.29544 2 8.29677 2 8.3001V8.61677C2 8.63277 2.00867 8.64077 2.02467 8.64077H5.82267C6.14533 8.64077 6.29733 8.8741 6.29733 9.1961C6.29733 9.51877 6.146 9.75344 5.82267 9.75344H2.81733C2.35067 9.75344 2 10.1481 2 10.6688V11.6814C2 11.6948 2.00667 11.7054 2.01867 11.7081L2.016 11.7094ZM12.6813 11.3428H16.5067C16.518 11.3428 16.5267 11.3508 16.5267 11.3588V11.6808C16.5267 11.6968 16.538 11.7048 16.55 11.7048H17.24C17.252 11.7048 17.264 11.6981 17.264 11.6808V11.3641C17.264 11.3521 17.2773 11.3401 17.2907 11.3401H17.976C17.992 11.3401 18 11.3281 18 11.3161V10.9934C18 10.9814 17.9933 10.9694 17.9767 10.9694H17.29C17.2767 10.9694 17.2653 10.9581 17.2653 10.9461V8.6401C17.2653 8.45144 17.196 8.33144 17.0787 8.29144H16.8787C16.8075 8.31092 16.7394 8.34056 16.6767 8.37944L12.5567 10.9228C12.3967 11.0228 12.3413 11.1348 12.3813 11.2194C12.4133 11.2888 12.5047 11.3408 12.684 11.3408L12.6813 11.3428ZM13.278 10.9181L16.4713 8.94411C16.4913 8.92811 16.5313 8.9321 16.5313 8.9761V10.9501C16.5313 10.9621 16.5207 10.9741 16.5087 10.9741H13.2973C13.2707 10.9741 13.2573 10.9661 13.254 10.9581C13.25 10.9421 13.2573 10.9301 13.278 10.9181Z" fill="white"/>
</svg>
