<svg width="20" height="20" viewBox="0 0 20 20" fill="none" xmlns="http://www.w3.org/2000/svg">
<path d="M12.0045 10.6929C12.793 10.6929 13.9345 10.5299 13.9345 9.59194C13.9367 9.51956 13.93 9.44718 13.9145 9.37644L13.4445 7.33644C13.3365 6.88744 13.2415 6.68394 12.4535 6.28994C11.842 5.97744 10.5095 5.46094 10.1155 5.46094C9.749 5.46094 9.642 5.93394 9.2045 5.93394C8.7835 5.93394 8.471 5.58094 8.077 5.58094C7.6985 5.58094 7.452 5.83844 7.262 6.36894C7.262 6.36894 6.732 7.86394 6.6635 8.08094C6.65261 8.12082 6.64789 8.16213 6.6495 8.20344C6.6495 8.78444 8.938 10.6904 12.0045 10.6904M14.055 9.97294C14.164 10.4889 14.164 10.5429 14.164 10.6114C14.164 11.4939 13.172 11.9839 11.8675 11.9839C8.92 11.9859 6.3375 10.2584 6.3375 9.11694C6.33721 8.9579 6.36954 8.80049 6.4325 8.65444C5.373 8.70744 4 8.89694 4 10.1084C4 12.0929 8.7025 14.5389 12.4255 14.5389C15.2805 14.5389 16 13.2479 16 12.2289C16 11.4264 15.3065 10.5164 14.0565 9.97294" fill="white"/>
</svg>
