<svg width="20" height="20" viewBox="0 0 20 20" fill="none" xmlns="http://www.w3.org/2000/svg">
<path d="M10.9887 3.96387C10.8709 4.23804 10.9036 4.55888 10.8178 4.84413C10.798 4.90946 10.7327 5.1078 10.6382 5.09438C10.4439 5.06638 10.5448 4.69304 10.3202 4.68604L10.3902 5.23089C10.0536 5.27347 10.0997 4.7473 9.96265 4.53379C9.80514 4.28704 9.76723 4.64579 9.77773 4.75546C9.78414 4.82663 9.79873 4.89663 9.80689 4.96722C9.82206 5.08972 9.82556 5.19647 9.80981 5.31897C9.48781 5.31489 9.60564 4.89138 9.36997 4.82663L9.38747 5.33647C9.03047 5.33355 8.8683 5.01155 8.71138 4.73855C8.64604 4.62421 8.55913 4.40371 8.40221 4.47429C8.47571 4.79163 8.64896 5.09497 8.66704 5.42514C8.67113 5.50972 8.59121 5.72614 8.47279 5.68648C8.1992 5.59431 8.23595 5.09847 8.00845 4.96838C7.96178 4.94213 7.88945 4.96488 7.83928 4.96722C7.83928 5.22972 7.95478 5.54822 8.04695 5.79439C8.06679 5.84689 8.1222 6.03356 8.0067 6.02948C7.80078 6.02365 7.74945 5.62406 7.54003 5.67073C7.56569 5.77864 7.62928 5.86615 7.66545 5.96998C7.68703 6.03356 7.72728 6.09773 7.73895 6.16365C7.76461 6.30773 7.58203 6.3194 7.48694 6.29198C7.26294 6.22548 7.10194 6.04231 6.94152 5.8819C6.89718 5.83756 6.77993 5.68123 6.70585 5.75239C6.6236 5.83114 6.78518 5.96998 6.83127 6.02306C6.96777 6.18115 7.11594 6.36665 7.18127 6.56849C7.20986 6.65482 7.21511 6.77849 7.12877 6.83799C7.0436 6.89633 6.90477 6.78958 6.83593 6.74466C6.62476 6.60524 6.41534 6.36315 6.14992 6.35732L6.08751 6.5154L6.25668 6.74407L6.69535 7.237L6.18492 7.02583C6.20534 7.15941 6.52501 7.321 6.46201 7.45867C6.42468 7.54034 6.24034 7.5415 6.16742 7.531C5.90725 7.49367 5.72292 7.3 5.48083 7.23058C5.26733 7.16933 5.30699 7.33558 5.42833 7.43067C5.47033 7.46392 5.51058 7.49892 5.55142 7.53392C5.62433 7.59692 5.69433 7.66167 5.76258 7.72992C5.86934 7.83667 5.96267 7.95043 6.06184 8.06418L5.55142 8.04668V8.08168L6.04434 8.31035L5.95625 8.6621C5.81392 8.6621 5.69842 8.62302 5.56892 8.56702C5.48083 8.52852 5.38808 8.46493 5.28774 8.47193C5.16758 8.4801 5.09641 8.58977 5.17691 8.69185C5.29708 8.84527 5.53858 8.93219 5.692 9.05178C5.75033 9.09728 5.83609 9.17544 5.76959 9.25303C5.63833 9.40703 5.28424 9.20986 5.11158 9.26061V9.29561C5.27199 9.38953 5.601 9.4432 5.69492 9.61587C5.76958 9.75062 5.55958 10.0569 5.41083 10.0452C5.27841 10.0341 5.15649 9.88479 5.05907 9.80604C4.82515 9.6182 4.5749 9.3977 4.3019 9.26761C3.83464 9.04594 3.3703 9.39945 2.99988 9.63045C3.04713 9.77979 3.23438 9.62053 3.35163 9.64737C3.50972 9.68295 3.62989 9.82995 3.73139 9.94662C4.2214 10.5113 4.63149 11.1506 4.81465 11.8827C4.86307 12.0752 4.94532 12.3057 4.80124 12.4783C4.76274 12.525 4.70499 12.5308 4.6624 12.5687C4.63032 12.5979 4.63207 12.6376 4.67582 12.651C4.75632 12.6761 4.87416 12.6387 4.95291 12.6195C5.21133 12.5571 5.5065 12.4177 5.62375 12.1645C5.69667 12.0064 5.72233 11.6996 5.90375 11.6366C5.94342 11.8057 6.13359 12.0292 6.11551 12.1995C6.09859 12.3506 5.93934 12.5262 5.84659 12.6376C5.81334 12.6772 5.734 12.7642 5.78125 12.8213C5.82909 12.8779 5.92709 12.756 5.95625 12.728C6.08984 12.602 6.38209 12.4025 6.46085 12.6918C6.52968 12.9438 6.30859 13.351 6.19834 13.5721C6.16684 13.6333 6.02509 13.8258 6.08051 13.8947C6.14467 13.9734 6.27768 13.7675 6.30626 13.7302C6.41709 13.5849 6.8056 13.1544 7.0121 13.309C7.26352 13.498 7.17661 13.6328 7.08152 13.8888C7.05469 13.9606 6.95552 14.1414 7.02319 14.2097C7.08794 14.2762 7.17369 14.2155 7.20694 14.1525C7.26761 14.0376 7.43036 13.6975 7.59253 13.7844C7.69461 13.8387 7.84978 13.9308 7.90928 14.0323C8.00145 14.191 7.92095 14.5078 7.89645 14.6804C7.88245 14.7796 7.7757 15.0899 7.86437 15.1617C7.94603 15.2276 8.01253 15.0287 8.03703 14.9797C8.12395 14.8076 8.2237 14.6314 8.35204 14.4868C8.39871 14.4349 8.46404 14.3485 8.54279 14.3631C8.95113 14.4395 8.53404 14.8467 8.70204 15.0544C8.73588 15.0964 8.82746 15.0934 8.87705 15.1028L9.08822 14.5574C9.19555 14.5982 9.35364 14.6128 9.43297 14.702C9.49947 14.7767 9.51289 14.9027 9.53214 14.9972C9.58581 15.262 9.61497 15.5199 9.58114 15.7888C9.61439 15.8133 9.66748 15.8693 9.71239 15.8401C9.76898 15.804 9.77656 15.6564 9.79581 15.5951C9.85764 15.4015 9.95273 15.2159 10.0408 15.0322C10.0986 14.9114 10.2567 14.7831 10.3704 14.9494C10.4871 15.1197 10.4404 15.4184 10.5139 15.6132C10.7006 15.521 10.721 15.1319 10.7251 14.9441L10.9672 14.9797L11.113 15.2789L11.3755 16.0355C11.512 15.983 11.4688 15.7217 11.4846 15.5957C11.505 15.4248 11.5447 15.0812 11.6701 14.954C11.7203 14.9033 11.8206 14.8986 11.8859 14.8741C11.9612 15.0561 12.002 15.2626 12.0924 15.437C12.1274 15.5047 12.2079 15.5782 12.289 15.5362C12.3666 15.4965 12.3637 15.4055 12.3538 15.332C12.3293 15.1494 12.2878 14.9704 12.2733 14.786C12.6221 14.7615 12.8274 15.0433 13.0462 15.2789C13.1308 15.3694 13.2043 15.4901 13.3291 15.5251L13.1483 14.9972L13.0479 14.5043C13.1745 14.4518 13.4423 14.1928 13.5759 14.2301C13.7742 14.2867 13.9259 14.8403 14.1726 14.7102C14.2776 14.6548 14.224 14.5603 14.1744 14.4868C14.1009 14.3771 13.8792 14.114 13.9031 13.9769C13.9206 13.8748 14.0921 13.7558 14.1913 13.757C14.4194 13.7605 14.8161 13.9343 14.9479 14.1175L15.1066 14.1C15.0832 13.785 14.6107 13.6409 14.543 13.3253C14.5366 13.2921 14.5374 13.2579 14.5454 13.225C14.5955 13.0226 14.7169 13.1113 14.8429 13.1655C14.882 13.1824 14.9671 13.2256 14.9998 13.1772C15.0348 13.1241 14.9718 13.0535 14.9491 13.0086C14.9012 12.9176 14.8581 12.812 14.8779 12.7093C15.0424 12.7525 15.1433 12.8505 15.2827 12.9427C15.3154 12.9648 15.3877 13.0191 15.4291 12.9893C15.4729 12.9567 15.4081 12.8919 15.3877 12.868C15.3259 12.7962 15.1357 12.623 15.1544 12.518C15.1672 12.4468 15.2868 12.371 15.3352 12.3226C15.4962 12.1616 15.6794 11.9982 15.8106 11.8121H15.8281C16.1385 12.1744 17.1133 11.9207 16.989 11.3723C16.912 11.3834 16.8397 11.4441 16.7603 11.4172C16.4138 11.2976 16.4978 10.7423 16.1093 10.7388C16.0807 10.3771 15.9355 10.0155 15.7599 9.70045C15.6794 9.55637 15.5126 9.42453 15.4536 9.27753C15.4216 9.19586 15.4268 9.06753 15.4233 8.97886C15.6269 8.94736 15.5266 8.74144 15.4525 8.6271C15.3696 8.49993 15.2821 8.34885 15.1754 8.2421C15.0436 8.10968 14.8476 8.02393 14.8645 7.79992C14.8802 7.59167 15.239 7.6185 15.3002 7.43067C15.1935 7.43533 15.0885 7.46159 14.9835 7.47909C14.7215 7.52284 14.676 7.43475 14.7985 7.202C14.9053 6.99841 15.0751 6.84441 15.2244 6.67407C15.2728 6.61982 15.4204 6.49557 15.344 6.41682C15.2816 6.35149 15.1771 6.45065 15.1241 6.48624C14.9298 6.61457 14.7128 6.71024 14.4905 6.77908C14.4246 6.79949 14.2292 6.87591 14.207 6.75866C14.1773 6.59999 14.4771 6.57082 14.4375 6.39232C14.3179 6.4209 14.0816 6.61049 13.9667 6.5224C13.8279 6.4174 14.0315 6.14732 14.0536 6.02306C14.0758 5.89706 13.9743 5.8924 13.9031 5.97056C13.878 5.99856 13.8559 6.0289 13.8331 6.05806C13.7923 6.10882 13.7596 6.15723 13.734 6.21615C13.4458 6.04815 13.9906 5.85273 13.8885 5.69698C13.8518 5.64156 13.7841 5.69698 13.7515 5.72614C13.6832 5.78564 13.4259 6.08198 13.3699 5.8644C13.3081 5.62406 13.4329 5.33472 13.4983 5.1078C13.5146 5.0483 13.591 4.88846 13.5169 4.84588C13.409 4.78405 13.3618 4.99347 13.3361 5.0553C13.2549 5.24336 13.1323 5.41066 12.9774 5.54472C12.9272 5.58964 12.842 5.67598 12.7674 5.65556C12.6583 5.62581 12.6577 5.32305 12.6612 5.23089C12.6629 5.18714 12.6874 5.1113 12.6449 5.07922C12.5889 5.0378 12.5591 5.12122 12.5515 5.16088C12.5235 5.29039 12.443 5.66023 12.2511 5.41756C12.0773 5.19822 12.3462 4.74263 11.9921 4.65046L11.7984 5.26647C11.5663 5.21572 11.6176 4.8838 11.6753 4.70296L11.5698 4.66796C11.552 4.73954 11.5302 4.81005 11.5044 4.87913C11.4111 5.14222 11.2857 5.19355 11.1888 4.89663C11.1147 4.67029 11.141 4.42587 11.1042 4.19254C11.0897 4.09979 11.0809 4.00587 10.9887 3.96387ZM11.0062 4.49179C11.0955 4.70413 11.0016 4.97013 11.1445 5.1778C11.2903 5.39014 11.5622 5.2758 11.7395 5.40939C11.8025 5.45664 11.7523 5.55872 11.7354 5.61822C11.6771 5.82064 11.5733 5.97056 11.4642 6.14615C11.8463 5.95073 11.9746 5.39364 12.0271 5.0028H12.0446C12.0294 5.35047 12.0405 5.69231 12.0446 6.04056C12.0463 6.19807 12.023 6.38007 12.2033 6.40982V5.60131C12.3917 5.65556 12.6746 5.89415 12.8794 5.82356C12.9838 5.78798 13.0789 5.66198 13.1518 5.58381C13.2066 5.52431 13.2539 5.46014 13.2941 5.39014H13.3116L13.2416 5.95306L13.0654 5.91806L13.4522 6.19398L13.6044 6.32582L13.4878 6.49732L12.9774 6.86833C13.3489 6.81349 13.5362 6.53932 13.8045 6.3229C13.717 6.69041 13.5181 7.05908 13.6109 7.44875H13.6284L13.8395 6.60407C13.9994 6.67991 14.0554 6.88174 14.2088 6.97333C14.4322 7.10633 14.7449 6.85433 14.9479 6.78024C14.8155 6.96808 14.6154 7.09991 14.5786 7.34317L14.42 7.27317C14.5576 7.62667 14.7227 7.96734 14.7816 8.34652C14.8359 8.69302 14.7676 9.03661 14.791 9.38486C14.8026 9.54528 14.8686 9.68645 14.8954 9.8422C14.567 9.95362 14.5069 10.4139 14.1913 10.5632C14.2164 10.4535 14.2555 10.3433 14.2555 10.229C14.2555 10.1473 14.217 10.0645 14.238 9.98279C14.2805 9.8212 14.4211 9.68645 14.4783 9.52545C14.567 9.27461 14.5075 9.03836 14.473 8.78635L14.6486 8.80385L14.2065 8.11726L13.9871 7.78301L14.0682 7.55434C13.6237 7.89618 12.9791 8.24735 12.9774 8.89194L13.1354 8.83886L13.1879 9.22619L12.9418 9.2612V9.2962C13.1477 9.35453 13.3629 9.38311 13.5578 9.4747C13.7001 9.5412 13.8576 9.62928 13.9556 9.75412C14.2823 10.1683 14.021 10.8146 13.7748 11.1967C13.6505 11.3892 13.4283 11.5666 13.3466 11.7777C13.5694 11.7241 13.6832 11.5111 13.8086 11.3379C13.8617 11.2638 13.9078 11.1611 13.9982 11.1267C14.1382 11.0742 14.1849 11.3332 14.2146 11.4254C14.2525 11.5421 14.3418 11.7439 14.3196 11.8658C14.2782 12.0997 14.0775 12.252 14.1213 12.5168C14.2181 12.399 14.2479 12.1645 14.4025 12.1073C14.5016 12.0712 14.6049 12.1627 14.7017 12.1773C14.9117 12.2082 15.1276 12.1295 15.2827 11.9872C15.449 11.8337 15.5627 11.587 15.5207 11.3554C15.4956 11.2154 15.4175 11.0777 15.4274 10.9331C15.4344 10.8164 15.5137 10.7219 15.5557 10.6163C15.6566 10.3672 15.6444 10.0843 15.4058 9.9227C15.3425 9.88016 15.2702 9.85263 15.1946 9.8422C15.2139 9.7127 15.3486 9.43036 15.5038 9.59837C15.6135 9.7162 15.673 9.92387 15.7348 10.0709C15.9617 10.6064 15.9635 11.2411 15.6397 11.7421C15.4099 12.098 15.0447 12.3897 14.7367 12.6755L14.6142 12.3232H14.5786C14.5378 12.5332 14.6865 12.7735 14.7723 12.9567C14.5798 12.9129 14.396 12.7146 14.1913 12.7455C14.249 12.8447 14.6276 13.0792 14.3325 13.1853C14.3342 13.2717 14.2683 13.3312 14.2158 13.3965C14.0985 13.5412 13.951 13.757 13.769 13.8188L13.4347 12.9392H13.4172C13.4662 13.3248 13.6004 13.7004 13.773 14.0475C13.8629 14.2266 14.0081 14.4039 14.0682 14.5929C13.9591 14.5002 13.8897 14.352 13.7964 14.2412C13.6297 14.049 13.4436 13.8746 13.241 13.7208C13.1086 13.6176 12.9785 13.5015 12.8012 13.5196C13.0024 13.7004 13.3075 13.7967 13.2883 14.1356C13.2824 14.2319 13.1757 14.2739 13.1004 14.3083C12.9027 14.3987 12.7096 14.4961 12.5019 14.5638C12.4448 14.5824 12.3392 14.6338 12.2791 14.6145C12.2149 14.5929 12.2225 14.4529 12.2155 14.3993C12.1939 14.233 12.2861 13.7996 12.1152 13.7308C12.0405 14.3199 12.1922 14.856 12.2377 15.4376H12.2202C12.121 15.0077 11.9641 14.5288 11.7313 14.1531C11.6672 14.0498 11.5313 13.8048 11.3936 13.8363L11.7553 14.4699L11.7628 14.7382L11.4992 14.7849L10.7426 14.8041C10.77 14.5865 10.8184 14.3689 10.8592 14.1531C10.8674 14.1058 10.9024 13.9629 10.8137 13.9629C10.7321 13.9629 10.7152 14.2009 10.7035 14.2587C10.6405 14.5749 10.5845 14.9039 10.5839 15.227H10.5664C10.5664 14.6944 10.3272 14.2179 10.1091 13.7483C10.0484 13.8387 10.133 13.9682 10.1592 14.065C10.217 14.2814 10.2252 14.4949 10.1971 14.716C9.84014 14.6472 9.45339 14.5539 9.1238 14.3993C9.21072 14.191 9.45981 13.8807 9.45806 13.6602C9.13488 13.9845 8.98905 14.4389 8.82455 14.8572H8.80705L8.87705 14.0125L8.75455 13.2909C8.67754 13.3685 8.71954 13.5237 8.73121 13.6252C8.75046 13.7856 8.73996 14.0265 8.62154 14.1502C8.55621 14.2184 8.48971 14.1583 8.41971 14.1303C8.22429 14.051 8.0802 13.9203 7.90928 13.8013C7.84862 13.7593 7.73836 13.7138 7.74595 13.6252C7.76461 13.3726 8.12862 13.253 8.13795 13.0267C7.71795 13.2075 7.51844 13.6613 7.18769 13.9425C7.29619 13.4846 7.64386 12.9491 7.55753 12.4637C7.46886 12.5127 7.47294 12.6358 7.44961 12.728C7.39709 12.9241 7.32109 13.1131 7.22327 13.2909C6.98994 13.1562 6.80327 12.9275 6.64985 12.7099C6.60726 12.6504 6.51393 12.5582 6.51276 12.4812C6.5116 12.4066 6.59735 12.3214 6.64401 12.2701C6.78635 12.1155 6.95902 11.9988 7.15269 11.9183C7.01444 11.8326 6.74085 12.035 6.58976 12.077C6.69185 11.8611 6.96894 11.65 6.88902 11.3904C6.65976 11.5695 6.50401 11.9562 6.34359 12.2001H6.32609L5.99125 11.461L6.43109 11.6191C6.44451 11.4616 6.22109 11.4015 6.09684 11.3729C6.17034 11.1816 6.37451 11.0357 6.32551 10.81H6.29051C6.23976 10.9733 6.13359 11.2527 5.95625 11.3023L5.90375 11.0211H5.88625C5.81684 11.1687 5.90317 11.2819 5.86292 11.4219C5.84134 11.4948 5.73633 11.4837 5.69958 11.5514C5.65 11.6436 5.64592 11.7672 5.60392 11.8658C5.50358 12.1032 5.31224 12.2777 5.07657 12.3757L5.05499 12.0607L5.32275 11.7602L5.04099 11.9708C5.00482 11.8769 4.92257 11.6996 4.97099 11.6016C5.01357 11.517 5.11916 11.4616 5.18216 11.3904L4.90041 11.531C4.80532 11.2848 4.97916 11.356 5.07657 11.1792C5.00541 11.2201 4.88699 11.2959 4.80182 11.2568C4.69274 11.2072 4.57782 10.8835 4.53115 10.7744L4.82982 10.7219V10.7044C4.68865 10.7219 4.46465 10.7744 4.44307 10.5813H4.81232V10.5638L4.39698 10.5171L4.28381 10.3701L4.03823 10.0534C4.18465 10.0096 4.43665 10.0096 4.58365 10.0534C4.36898 9.82762 3.98631 10.1595 3.80956 9.78912L4.2494 9.70162V9.68412C4.11289 9.68412 3.85856 9.76287 3.73956 9.70045C3.70805 9.68412 3.68472 9.6567 3.66139 9.63045C3.43505 9.37495 3.94139 9.35161 4.10823 9.37378C4.42907 9.41811 4.67699 9.63745 4.90041 9.8597C5.01357 9.97229 5.17633 10.1735 5.34025 10.2068C5.50241 10.2389 5.63775 10.1356 5.76258 10.0534C5.76258 10.177 5.74975 10.2995 5.85009 10.3876C5.85009 10.145 5.853 9.8877 5.89092 9.64853C5.90434 9.55987 5.93934 9.4432 6.04434 9.42686C6.17559 9.40703 6.35409 9.60712 6.44859 9.68353C6.44976 9.54703 6.34651 9.43153 6.26251 9.33178C6.03151 9.05761 5.66458 8.79861 5.34083 8.64519V8.62769C5.82092 8.71052 6.18201 8.99227 6.69535 8.85636V8.82135L6.09684 8.73385C6.12192 8.5466 6.25784 8.30568 6.21526 8.11726C6.15692 7.86059 5.88392 7.74159 5.78009 7.51934C5.95859 7.58817 6.14759 7.68851 6.34359 7.69259C6.45326 7.69551 6.5396 7.63542 6.64226 7.61092C6.92519 7.545 7.0891 7.68267 7.27577 7.87109C7.32711 7.69317 7.18827 7.545 7.08094 7.41375C6.97244 7.28017 6.87677 7.14541 6.74843 7.02933C6.59268 6.88933 6.36226 6.72599 6.27301 6.53349C6.41884 6.56207 6.55885 6.68282 6.67785 6.76799C6.88727 6.91674 7.09494 7.06141 7.32886 7.17108C7.45194 7.22942 7.66603 7.32567 7.7687 7.20258L7.20577 6.99141C7.24661 6.93249 7.30494 6.88174 7.33469 6.81524C7.41519 6.63616 7.27402 6.4839 7.22327 6.3229C7.33119 6.36257 7.42453 6.45532 7.54003 6.47457C7.8107 6.52007 7.9682 6.2004 8.17354 6.09365L8.31412 6.76216C8.43137 6.66416 8.37946 6.47399 8.35962 6.33982C8.30187 5.95248 8.07203 5.61006 8.01545 5.23147H8.03295C8.2552 5.70748 8.52004 6.22082 8.96513 6.5154L8.80355 6.30365L8.52529 5.8819C8.58071 5.86031 8.63496 5.83698 8.68221 5.79906C8.99022 5.55231 8.72771 5.20872 8.68338 4.91413H8.70088C8.73879 5.00455 8.78255 5.0973 8.83796 5.17838C9.09522 5.55056 9.43472 5.49106 9.82731 5.45956L9.72231 6.23423H9.73981C9.79173 6.06915 9.89031 5.93323 9.92531 5.75881C9.98948 5.44147 9.92181 5.12647 9.9154 4.80855H9.9329C9.9609 4.99638 10.0373 5.17605 10.0974 5.35455C10.1919 5.63573 10.2683 5.94373 10.4783 6.16365L10.2852 5.37205C10.8441 5.37147 10.9963 4.99463 11.0062 4.49179ZM10.8482 5.70631L10.5664 6.97333C10.7834 6.84091 10.8289 6.35907 10.8482 6.12865H10.8657C10.9036 6.33165 10.9217 6.53465 11.0045 6.72657C11.0372 6.80241 11.0727 6.90449 11.1649 6.90274L10.9397 6.11115L10.8482 5.70631ZM9.1238 5.93498C9.1273 6.38474 9.34955 6.79424 9.2638 7.2545C9.34897 7.20316 9.3513 7.08241 9.35247 6.99083C9.3548 6.77791 9.31747 6.56907 9.31747 6.35732H9.33497C9.39622 6.56966 9.56247 6.99316 9.80981 7.02583C9.78064 6.91149 9.68673 6.82516 9.62372 6.72657C9.48489 6.5084 9.34839 6.0674 9.1238 5.93498ZM12.7312 6.12865C12.5352 6.43549 12.3018 6.85491 12.0096 7.07891V7.09641C12.2313 7.05675 12.471 6.77616 12.5375 6.56849H12.555C12.5521 6.88116 12.4086 7.21308 12.5375 7.51875H12.555C12.6484 7.202 12.5999 6.82808 12.6804 6.4979C12.7055 6.39465 12.7989 6.22198 12.7312 6.12865ZM11.5692 6.83216C11.4653 7.06666 11.4146 7.28425 11.1993 7.44817V7.48317C11.3539 7.524 11.4618 7.33033 11.4986 7.202H11.5161C11.5313 7.32042 11.5453 7.566 11.6748 7.60684L11.5878 7.202L11.5692 6.83216ZM7.80311 6.84966C7.84103 7.28308 8.42321 7.57534 8.34854 8.04668C8.44187 7.99184 8.41796 7.88976 8.38646 7.79992C8.32112 7.615 8.21262 7.45225 8.13737 7.272C8.30596 7.426 8.55504 7.59984 8.78896 7.50125L8.41971 7.34783L7.80311 6.84966ZM10.2316 6.99083C10.1785 7.16583 10.0291 7.50767 10.091 7.67684H10.126L10.2491 7.2545H10.2666C10.3103 7.41375 10.3558 7.65525 10.5483 7.67684L10.2666 6.99083H10.2316ZM9.05263 7.43067L9.14013 8.16976H9.17572L9.15822 7.64184C9.27314 7.72176 9.42831 7.91834 9.58056 7.85301C9.52222 7.78884 9.43647 7.77776 9.36939 7.72351C9.2603 7.63542 9.20255 7.44234 9.05263 7.43067ZM12.9237 7.53567C12.7382 7.72234 12.583 7.85009 12.3258 7.92301V7.95859C12.478 8.00234 12.6256 7.91776 12.7481 7.83551C12.7277 7.93876 12.5964 8.20885 12.6956 8.27535L12.8642 7.76492L12.9237 7.53567ZM13.8215 7.89967C13.902 7.90551 13.9626 8.00818 14.0099 8.06418C14.1493 8.22693 14.3062 8.3996 14.3669 8.6096C13.9603 8.5256 13.5199 8.58335 13.1174 8.6796C13.2072 8.44335 13.3775 8.1931 13.5753 8.03793C13.6424 7.98426 13.7258 7.89209 13.8215 7.89967ZM9.91481 7.94051L9.80923 8.48652C9.89731 8.41943 9.91831 8.20593 9.93231 8.09918L10.091 8.27535C10.0686 8.14825 10.007 8.03077 9.91481 7.94051ZM11.6392 7.99359L11.3049 8.32785L11.6217 8.09918L11.6742 8.41593C11.736 8.3261 11.7033 8.07876 11.6392 7.99359ZM7.94428 8.03909C7.93235 8.04019 7.9206 8.04273 7.90928 8.04668V8.06418C8.05687 8.21351 8.17937 8.42002 8.27154 8.6096C8.32287 8.71402 8.30829 8.82894 8.41912 8.89136C8.41037 8.68544 8.32229 8.52968 8.24295 8.34593C8.36779 8.41827 8.53463 8.52677 8.68279 8.48593V8.45093C8.48329 8.36227 8.32871 8.28701 8.15487 8.14876C8.0907 8.09743 8.0242 8.03209 7.94428 8.03909ZM6.72977 8.20476C6.74668 8.35352 6.86802 8.40893 6.97594 8.4906C7.12633 8.59953 7.26116 8.72847 7.37669 8.87386C7.45078 8.97069 7.49628 9.13753 7.59253 9.20811C7.57153 8.94911 7.41869 8.6446 7.16961 8.53902V8.52152C7.42278 8.57052 7.67536 8.66502 7.9262 8.55652V8.52152L7.62695 8.50985L6.72977 8.20476ZM14.9123 8.25726C15.085 8.32435 15.2699 8.56177 15.3346 8.73269L14.9473 8.68019L14.9123 8.25726ZM10.6539 8.27476L10.4958 8.5746L10.6714 8.38093L10.777 8.5571L10.6539 8.27476ZM14.1248 8.6901C14.159 8.6906 14.1929 8.69671 14.2251 8.70819C14.438 8.7916 14.3809 9.23319 14.336 9.4012C14.3004 9.5377 14.2368 9.68995 14.1026 9.75354C14.0052 9.57853 13.8605 9.4642 13.6803 9.3802C13.5904 9.33761 13.4411 9.32128 13.3787 9.23844C13.3186 9.15853 13.2574 8.86161 13.339 8.78344C13.4277 8.69769 13.6715 8.71519 13.7859 8.71519C13.881 8.71519 14.0145 8.68544 14.1248 8.6901ZM12.3433 8.69769L12.044 8.92636L12.3083 8.78577L12.2733 8.99694C12.3479 8.94444 12.3753 8.78052 12.3433 8.69769ZM14.9123 8.80269C14.9916 8.80911 15.1281 8.80152 15.1865 8.86102C15.3796 9.05936 15.2711 9.5902 15.0354 9.70103L14.9654 9.29561C14.9841 9.29678 15.0016 9.29561 15.0179 9.29386V9.29561H15.0704L15.0471 9.28803C15.2547 9.23844 15.2191 8.95144 15.0173 8.94386L14.9648 8.92636L14.9934 8.94502L14.9829 8.94561V8.94386H14.9479L14.9537 8.95027C14.9403 8.95319 14.9269 8.95611 14.9123 8.96194V8.80269ZM14.0151 8.87386C13.979 8.91061 13.9265 8.93802 13.8996 8.98294C13.7141 9.30086 14.4165 9.30903 14.2181 8.96544C14.1954 8.92577 14.1551 8.90069 14.1207 8.87386L14.0501 8.90886H14.0151V8.87386ZM10.3197 8.94386C10.3197 9.03369 10.3022 9.12469 10.3897 9.17253V8.99694L10.6014 9.06694L10.3197 8.94386ZM9.34197 8.99402C9.31514 8.99519 9.2883 8.99694 9.2638 8.99694C9.29472 9.11011 9.34372 9.20694 9.43997 9.27811L9.33439 9.04944L9.54556 9.06694C9.50472 8.99286 9.42247 8.99052 9.34197 8.99402ZM11.4916 9.00044C11.4391 9.00627 11.3936 9.09844 11.393 9.19003L11.4805 9.03194L11.5867 9.10194C11.5575 9.02494 11.5231 8.99694 11.4916 9.00044ZM8.66529 9.04944L8.36604 9.10194L8.61279 9.4012L8.47221 9.15503L8.68279 9.12003L8.66529 9.04944ZM7.11652 9.29445C6.93744 9.30203 6.73152 9.50737 6.58918 9.59487V9.62987L7.0996 9.80604C7.0891 9.67245 6.91585 9.63278 6.80035 9.61295L7.15211 9.29561C7.14049 9.29432 7.1282 9.29393 7.11652 9.29445ZM8.04987 9.3312L7.32827 9.52487V9.55987L7.71503 9.6987L7.94428 9.85912C7.9192 9.67245 7.72086 9.64037 7.59194 9.54237C7.75528 9.51145 7.97695 9.50853 8.04987 9.3312ZM9.86231 9.52487C9.78706 9.53653 9.72814 9.59487 9.80923 9.64737L9.86231 9.52487ZM10.4427 9.62987L10.4252 9.75354C10.4801 9.72087 10.4894 9.69228 10.4777 9.63045L10.4427 9.62987ZM11.2343 9.62987C11.1661 9.65028 11.1095 9.6987 11.1818 9.75354L11.2343 9.62987ZM11.8859 9.80604L11.7098 9.85854V9.92912L11.8859 9.80604ZM12.5544 9.82354V10.0347C12.6204 9.97054 12.6204 9.88887 12.5544 9.82354ZM15.0465 9.92795C15.2944 9.93029 15.54 10.1584 15.484 10.422C15.4478 10.5912 15.3428 10.775 15.176 10.8409C15.0891 10.8759 14.8925 10.8642 14.8855 10.7388C14.8796 10.6221 15.1118 10.46 15.1585 10.334C14.833 10.583 14.6335 10.7948 14.1907 10.7388V10.7213C14.4515 10.5282 14.5605 10.1992 14.8085 10.0073C14.8764 9.95439 14.9604 9.92639 15.0465 9.92795ZM9.2463 9.94662C9.16113 9.99096 9.10922 10.0843 9.08763 10.1759L9.2988 10.2284L9.18213 10.1158L9.2463 9.94662ZM6.57168 9.98221L5.90259 10.334C5.92592 10.4652 6.05542 10.3946 6.14934 10.3882C6.28351 10.3795 6.5326 10.4232 6.60668 10.5457L6.72977 10.5282C6.69827 10.3287 6.41126 10.3287 6.25493 10.3165C6.36984 10.1998 6.53493 10.1654 6.57168 9.98221ZM9.9679 10.1228L9.77423 10.3695L10.0204 10.457L9.84423 10.352C9.88098 10.275 10.0251 10.208 9.9679 10.1228ZM8.43662 10.1753L8.22545 10.3695C8.30829 10.397 8.49846 10.5055 8.55971 10.422L8.33104 10.3345L8.43662 10.1753ZM12.9943 10.1753L13.2404 10.3695V10.4045L13.0118 10.5276C13.1277 10.5213 13.2387 10.4782 13.3285 10.4045C13.2912 10.3458 13.2423 10.2953 13.1848 10.256C13.1274 10.2167 13.0625 10.1894 12.9943 10.1759V10.1753ZM7.34577 10.2459C7.23902 10.485 7.0751 10.6793 6.88843 10.8619C6.7811 10.9663 6.61368 11.0637 6.57168 11.2136L7.34577 11.0497L7.75061 10.9681C7.50911 10.7954 7.0856 10.9873 6.85285 11.0906C7.01327 10.7697 7.32711 10.642 7.39828 10.2634L7.38078 10.2459H7.34577ZM10.6714 10.2634C10.5956 10.2885 10.5862 10.3503 10.5664 10.422L10.6714 10.4395V10.2634ZM11.393 10.387L11.4105 10.5807C11.4496 10.5621 11.4841 10.5351 11.5115 10.5017C11.539 10.4682 11.5586 10.429 11.5692 10.387L11.4455 10.4745L11.393 10.387ZM8.94705 10.6332C8.87121 10.6554 8.83038 10.7096 8.91205 10.7563L8.94705 10.6332ZM12.0621 10.7388L12.044 10.985L11.8859 10.88C11.9023 10.9861 11.9769 11.0375 12.0796 11.055L12.0971 10.7388H12.0621ZM8.11987 10.7563C7.99153 10.7966 7.7722 11.16 7.71503 11.2842C7.8317 11.2796 8.23712 11.2947 8.29604 11.2142L7.9087 11.1611L8.11987 10.7563ZM10.2782 10.7907C10.1814 10.7966 10.0875 10.852 9.9854 10.852C9.68964 10.852 9.20372 10.705 8.94996 10.9056C8.71896 11.0888 8.70496 11.3338 8.55971 11.566C8.48912 11.6791 8.36371 11.7556 8.26104 11.8372C8.22312 11.8676 8.1537 11.9113 8.16829 11.9697C8.18579 12.0408 8.30712 12.0787 8.36662 12.1056C8.49962 12.1668 8.64488 12.2147 8.78896 12.2444C8.86538 12.2602 8.9803 12.2572 9.04563 12.3045C9.16463 12.3908 9.12438 12.6854 9.14072 12.8155C9.27314 12.7397 9.44639 12.5122 9.50997 12.3751C9.36939 12.4177 9.30755 12.5559 9.21072 12.6568L9.15822 12.2876C9.56947 12.2514 9.75031 11.8016 9.9924 11.5316C10.14 11.3671 10.3249 11.2953 10.5133 11.1961C10.4025 11.0637 10.2479 11.2037 10.1435 11.2836C9.86406 11.4995 9.70306 11.7596 9.45747 12.0058L9.59806 11.6366H9.58056C9.50414 11.8197 9.41256 12.0157 9.2288 12.1114L9.2988 11.8652H9.2813C9.20722 12.042 9.1238 12.1289 8.92955 12.1289L9.10513 11.7241H9.08763L8.85896 12.1114L8.78896 12.0939L8.96455 11.7596H8.94705C8.85838 11.902 8.76446 12.1038 8.57779 12.0583L8.73529 11.7596C8.64779 11.8285 8.60929 11.993 8.50546 12.0344C8.45821 12.0531 8.36837 12.0187 8.38762 11.9557C8.41212 11.874 8.54629 11.7935 8.59938 11.7241C8.78021 11.4878 8.92605 11.1016 9.19322 10.9564C9.41255 10.8368 9.74564 10.9879 9.9854 10.9856C10.1225 10.9832 10.2788 10.9366 10.3197 10.7913C10.3057 10.7899 10.2916 10.7897 10.2777 10.7907H10.2782ZM5.85009 10.8444L5.83259 10.95L5.90259 10.8444H5.85009ZM14.5273 10.8613C14.6603 10.8636 14.8073 10.8829 14.8831 10.9861C14.9607 11.0911 14.9421 11.2352 14.9823 11.3548C15.0126 11.2288 15.0091 10.7575 15.2606 11.0223C15.4641 11.2364 15.4099 11.7001 15.2098 11.8985C15.0838 12.0227 14.781 12.0986 14.6311 11.9825C14.4019 11.8057 14.343 11.4423 14.2765 11.1786C14.2607 11.1151 14.1866 10.9686 14.2275 10.9097C14.2613 10.8596 14.3494 10.8631 14.4025 10.8619C14.4404 10.8619 14.483 10.8607 14.5273 10.8613ZM16.0732 10.9675C16.4051 11.0276 16.4319 11.4966 16.7247 11.6366V11.6716C16.5585 11.755 16.5031 11.6704 16.3905 11.5485L16.5136 11.7771C16.3777 11.7561 16.3485 11.6243 16.2674 11.5304L16.3899 11.7946C16.1881 11.7946 16.1023 11.7614 16.0207 11.566H16.0032L16.0382 11.7241L15.9133 11.6354L15.9798 11.4079L16.0732 10.9675ZM13.311 10.985C13.2393 11.006 13.2014 11.0462 13.2585 11.1086L13.311 10.985ZM10.8826 11.1261L11.0762 11.3373L11.1637 11.1261L11.0762 11.2667L10.8826 11.1261ZM12.66 11.1261L12.6425 11.3898L12.4663 11.2848C12.4564 11.4003 12.6344 11.5321 12.7306 11.5835L12.6956 11.1261H12.66ZM7.8912 11.4248C7.83637 11.6885 7.64795 11.9259 7.47878 12.1289C7.39828 12.2257 7.27461 12.3232 7.23961 12.4457C7.53128 12.3617 7.8597 12.0653 8.17295 12.0939C8.09245 11.9376 7.7162 12.154 7.57444 12.1814C7.68878 12.0122 7.84453 11.8652 7.91862 11.6716C7.94895 11.5899 7.96878 11.4808 7.8912 11.4248ZM11.9734 11.5835C11.8393 11.6045 11.8463 11.7375 11.8153 11.8471C11.7407 11.7731 11.6648 11.6704 11.5517 11.6891L11.8859 12.0939L11.9734 11.5835ZM10.3372 11.601L10.161 11.7596L10.1435 11.6716H10.091L10.1085 11.9002C10.2111 11.8827 10.3173 11.6978 10.3372 11.601ZM10.8126 11.8827L10.7245 12.1114H10.707L10.5658 11.9177L10.6889 12.3226H10.7064C10.7531 12.2047 10.9193 11.9889 10.8126 11.8827ZM12.7656 11.9877L12.7131 12.0058L12.8181 12.5862C12.7061 12.4882 12.3602 12.0367 12.2202 12.1995C12.5439 12.3027 12.6787 12.6807 12.9593 12.8505L12.8718 12.5162L12.7656 11.9877ZM13.6453 12.1289C13.556 12.3471 13.7736 12.581 13.8565 12.7799C13.6278 12.6621 13.4248 12.4655 13.1524 12.4632V12.5332C13.5444 12.5682 13.7532 12.9689 14.0676 13.1498C14.0647 12.8213 13.783 12.4439 13.6803 12.1289H13.6453ZM10.0735 12.3932L9.94981 12.4107C9.99181 12.5092 10.0647 12.5892 10.0991 12.6918C10.1371 12.8062 10.1126 12.9637 10.2316 13.0261C10.287 12.9024 10.4223 12.7012 10.3897 12.5687C10.2905 12.6183 10.2427 12.7251 10.2321 12.833H10.2141L10.0735 12.3932ZM8.43662 12.4107C8.43662 12.756 8.38996 13.0803 8.29604 13.414C8.41854 13.4181 8.48271 13.2909 8.54863 13.2023C8.67988 13.0278 8.81113 12.8359 9.01763 12.7449V12.7274C8.80821 12.7 8.54688 13.0132 8.47221 13.1848H8.45471C8.51654 12.9456 8.57138 12.6457 8.47221 12.4107H8.43662ZM11.5342 12.4282C11.3918 12.4824 11.428 12.6732 11.428 12.7974L11.0237 12.5162C11.0459 12.588 11.1031 12.6096 11.1567 12.6592C11.2617 12.7566 11.3533 12.9841 11.4986 13.0092L11.5342 12.4282ZM12.4313 12.7624C12.3071 12.9823 12.4879 13.4356 12.5189 13.6777H12.5013C12.4033 13.4706 12.2143 13.2991 12.0615 13.1323C12.0399 13.1089 11.9285 12.9567 11.8888 13.0202C11.8474 13.0868 12.051 13.2448 12.0889 13.2903C12.2295 13.4572 12.3567 13.6456 12.4634 13.8358C12.5247 13.946 12.5784 14.0924 12.695 14.1525C12.6075 13.6987 12.4675 13.2273 12.4663 12.7624H12.4313ZM6.57168 12.9386C6.70177 12.9771 6.77585 13.0663 6.78285 13.2023L6.37801 13.484L6.57168 12.9386ZM9.49247 13.0786L9.47497 13.0967C9.56072 13.3329 9.64589 13.5295 9.68731 13.7833C9.70714 13.9011 9.69489 14.0545 9.79173 14.135C9.89089 13.9472 9.9259 13.7296 10.0163 13.5365C10.0688 13.4257 10.1528 13.3288 10.126 13.2023C9.95681 13.2857 9.85706 13.6613 9.80923 13.8358C9.72173 13.603 9.74856 13.1982 9.49247 13.0786ZM10.6889 13.2553C10.8878 13.6503 11.0354 14.0218 11.1468 14.4512C11.2705 14.3824 11.2536 14.2593 11.2518 14.135C11.2489 13.8451 11.3603 13.5575 11.3405 13.2728C11.2571 13.3008 11.2425 13.386 11.2279 13.4665C11.1929 13.6584 11.1929 13.8568 11.1462 14.0469C11.0512 13.8253 10.9753 13.3008 10.6889 13.2553ZM14.4019 13.3953L14.6661 13.7833L14.2788 13.6071L14.4019 13.3953ZM8.04987 14.1881C8.42729 14.2214 8.16945 14.5684 8.01487 14.7335L8.04987 14.1881ZM12.8893 14.6104L13.0479 15.1034C12.9173 15.0118 12.7633 14.8619 12.6956 14.716L12.8893 14.6104ZM9.67973 14.8759L9.88039 14.9097L9.72173 15.4726H9.70423L9.66922 15.0328L9.67973 14.8759ZM11.3422 14.9774C11.3784 14.9774 11.4128 14.9849 11.4408 15.0083C11.5359 15.0888 11.4018 15.4779 11.3586 15.5782L11.1649 15.0153C11.2151 15.0024 11.2816 14.9785 11.3422 14.9774Z" fill="white"/>
</svg>
