<svg width="20" height="20" viewBox="0 0 20 20" fill="none" xmlns="http://www.w3.org/2000/svg">
<path d="M4.96638 17H4.4287C4.41486 16.9621 4.40198 16.9237 4.3901 16.8851C4.27153 16.4966 4.06253 16.0159 4.00849 15.6286C3.92797 15.0546 4.43863 15.0225 4.7662 14.774C5.27079 14.389 5.66784 14.1761 6.21489 13.829C6.37757 13.7246 6.86672 13.465 6.92131 13.3454C7.03216 13.1074 6.73106 12.7726 6.6511 12.587C6.52702 12.2913 6.46084 12.0405 6.44375 11.75C5.98934 11.6741 5.64137 11.3842 5.42685 11.0587C5.07943 10.5191 4.83899 9.52161 5.13733 8.76269C5.16215 8.7026 5.2774 8.58477 5.2945 8.4926C5.32759 8.31293 5.23659 8.0726 5.22832 7.88126C5.19523 6.89425 5.38494 6.04375 6.01416 5.74625C6.26948 4.6729 7.1794 4.31532 8.03968 3.78215C8.35953 3.58265 8.71467 3.45431 9.08194 3.31139C10.39 2.79981 12.4056 2.89606 13.4903 3.76815C13.9514 4.1374 14.6903 4.91732 14.955 5.48258C15.651 6.97301 15.6002 9.46386 15.1133 11.2775C15.0471 11.523 14.9534 11.8795 14.8194 12.1717C14.7267 12.3759 14.4394 12.7842 14.4747 12.9651C14.51 13.1482 15.1309 13.6476 15.2644 13.7788C15.5037 14.025 15.9592 14.3476 15.9945 14.6538C16.0331 14.9787 15.8578 15.4332 15.7684 15.7476C15.6488 16.1682 15.528 16.5882 15.4078 16.9907H4.96527L4.96638 17ZM11.0898 14.935C10.7893 14.76 10.3393 14.5721 9.95105 14.4934C9.47128 14.3977 9.52091 15.1864 9.53745 15.6566C9.554 16.0317 9.73598 16.4242 9.8187 16.6739C9.86061 16.7888 9.86833 16.9131 9.95987 16.9358C10.1253 16.9755 10.6713 16.7457 10.8284 16.6564C11.1593 16.4651 11.4152 16.1641 11.6964 15.9628C11.7053 15.8637 11.7053 15.7645 11.713 15.6665C11.525 15.5673 11.319 15.5122 11.1091 15.5049C11.2823 15.4174 11.5227 15.4174 11.6799 15.3112L11.6887 15.1987C11.4152 15.1812 11.3082 15.0505 11.1257 14.9443L11.0898 14.935ZM15.2004 16.6471C15.3023 16.3112 15.3879 15.9701 15.4569 15.6251C15.4899 15.4577 15.5754 15.0896 15.555 14.9391C15.5225 14.6713 15.1778 14.473 15.0013 14.3056C14.6793 13.9993 14.4775 13.7368 14.1411 13.4486C14.0038 13.6674 13.7109 13.8074 13.599 13.9818C14.3969 13.5799 14.542 15.5131 14.2282 16.1343C14.2778 16.3262 14.4438 16.3968 14.5116 16.5631L14.4642 16.6599H15.1756C15.1828 16.6599 15.1922 16.6599 15.1999 16.6681L15.2004 16.6471ZM11.542 16.6401C11.5144 16.5969 11.4869 16.5613 11.4593 16.5182L11.2933 16.6319H11.5415L11.542 16.6401ZM13.0696 16.6401C13.074 16.5182 13.0795 16.4044 13.0861 16.2912C12.7938 16.3082 12.6312 16.0112 12.4266 15.9838C12.2479 15.9576 12.0957 16.1944 11.8641 16.0976C11.8117 16.1588 11.7632 16.23 11.7075 16.2819C11.7924 16.3869 11.8701 16.5007 11.9413 16.6226H12.3907C12.3984 16.5269 12.4652 16.4563 12.5562 16.4563C12.6472 16.4563 12.7128 16.5269 12.7128 16.6138H13.0767L13.0696 16.6401ZM14.2365 16.6401C14.0633 16.3607 13.7142 16.1162 13.31 16.3163L13.2935 16.6319H14.2365V16.6401ZM9.54352 16.6401L9.48617 16.4394C9.36209 16.0194 9.28764 15.7044 9.26282 15.4594C8.75879 15.2051 8.22883 14.9519 7.79924 14.6276C7.71652 14.5663 7.18767 13.8401 7.12094 13.8663C6.16195 14.2606 5.26858 14.9513 4.4662 15.607C4.60738 15.9319 4.7309 16.2726 4.84671 16.622H9.5369L9.54352 16.6401ZM14.1014 15.4075C14.0854 15.1088 14.0109 14.4975 13.8367 14.3925C13.4727 14.165 12.8187 14.8475 12.5462 14.9426C12.5711 15.0301 12.6207 15.1007 12.629 15.2226C12.7861 15.1794 12.9846 15.2057 13.1242 15.2762C12.9593 15.2937 12.7773 15.2937 12.6698 15.3719C12.629 15.4857 12.6786 15.6519 12.6538 15.8176C13.0343 15.9325 13.481 15.9943 13.969 16.0112C14.0594 15.8788 14.0931 15.635 14.0854 15.3801L14.1014 15.4075ZM11.8514 15.1975C11.8271 15.4162 11.8768 15.495 11.9176 15.7476C12.6124 15.9757 12.4878 14.7326 11.8431 15.1882L11.8514 15.1975ZM8.21339 14.375C7.96523 14.6416 8.91375 15.0062 9.21374 15.0254C9.21374 14.8562 9.30474 14.6964 9.28819 14.5762C8.92974 14.5074 8.45989 14.5517 8.2156 14.3738L8.21339 14.375ZM11.2823 14.5004C11.2823 14.5255 11.2486 14.5179 11.2448 14.5377C11.5646 14.8008 11.804 14.8557 12.2385 14.8352C12.4337 14.6824 12.608 14.5068 12.8137 14.3645C12.3422 14.4076 11.7488 14.7186 11.2839 14.4986L11.2823 14.5004ZM13.1683 4.16015C12.2826 3.63165 10.7694 3.23206 9.8176 3.73373C9.05658 4.1374 8.01431 4.80707 7.66744 5.65408C7.99832 6.47192 7.5759 7.22092 7.54281 8.05101C7.53289 8.4926 7.74134 8.87935 7.75843 9.35886C7.64814 9.55603 7.30348 9.58053 7.06359 9.56653C6.98308 9.14127 6.84301 8.66294 6.42665 8.61568C5.83989 8.54802 5.4092 9.06136 5.38439 9.59744C5.3513 10.2274 5.84375 11.2681 6.53419 11.1987C6.8033 11.1719 6.86948 10.8837 7.1623 10.8837C7.31947 11.2162 6.9169 11.3212 6.87389 11.5569C6.86506 11.6181 6.90698 11.855 6.93124 11.9681C7.05973 12.5188 7.34153 13.2281 7.61781 13.6481C7.96799 14.1731 8.65677 14.2612 9.39848 14.3137C9.53084 14.0075 10.0189 14.0337 10.3393 14.1119C9.95822 13.9544 9.60253 13.5606 9.30529 13.22C8.96614 12.8256 8.62699 12.3975 8.60989 11.89C9.24683 12.8256 9.76796 13.64 10.926 14.0506C11.8029 14.3569 12.8286 13.9025 13.4981 13.4037C13.7793 13.1943 13.9453 12.8612 14.1433 12.5643C14.8877 11.435 15.2352 9.81678 15.1613 8.2511C15.1282 7.60301 15.1282 6.9555 14.9208 6.52733C14.7063 6.07175 13.9861 5.66924 13.556 6.07175C13.4732 5.62608 13.9034 5.35424 14.408 5.51174C14.044 5.01357 13.6712 4.4279 13.1584 4.12107L13.1683 4.16015ZM10.8714 11.6893C11.2106 12.59 12.3736 12.4844 13.3558 12.461C13.3095 12.5742 13.2146 12.7148 13.0994 12.7615C12.785 12.8968 11.9165 12.9995 11.4797 12.7545C11.2007 12.597 11.0253 12.2452 10.872 12.0387C10.7964 11.9384 10.4336 11.684 10.8654 11.6835L10.8714 11.6893ZM10.9619 11.1818C11.4543 11.4525 12.3516 11.4834 13.0194 11.4618C13.0558 11.6175 13.0558 11.8077 13.0569 11.9944C12.2021 12.041 11.1896 11.817 10.9646 11.1806H10.9619V11.1818ZM14.6429 10.84C14.3821 11.365 14.0115 11.9465 13.2427 11.9646C13.23 11.799 13.2179 11.5359 13.2427 11.4373C13.8295 11.3772 14.1951 11.0605 14.6451 10.844L14.6429 10.84ZM14.285 10.4509C13.7225 10.8359 13.0971 11.253 12.1762 11.1567C11.9826 10.9759 11.9087 10.5734 12.099 10.3062C12.1988 10.4888 12.1321 10.8225 12.4133 10.872C12.9339 10.9683 13.5372 10.5343 13.9188 10.382C14.1504 9.96611 13.8935 9.81269 13.6872 9.54611C13.256 9.0036 12.678 8.3211 12.6935 7.49859C12.8666 7.36792 12.8843 7.70043 12.9091 7.76109C13.1319 8.3211 13.6944 9.02985 14.108 9.51111C14.2072 9.63361 14.3727 9.73861 14.3892 9.81678C14.44 10.0443 14.2492 10.3149 14.274 10.4643L14.285 10.4509ZM6.87389 10.0571C6.70073 9.94978 6.65716 9.47961 6.45036 9.46794C6.15533 9.45044 6.20882 10.0804 6.20993 10.4479C6.00588 10.2554 5.97004 9.65169 6.11949 9.34544C5.94964 9.25794 5.87409 9.44111 5.77868 9.51111C5.9 8.5836 7.06911 9.08294 6.87609 10.0711L6.87389 10.0571ZM5.98162 6.497C5.60387 6.938 5.68383 7.76518 5.7285 8.35668C6.41452 7.89876 7.32664 8.39168 7.31837 9.16986C7.64649 9.16052 7.44134 8.73585 7.38178 8.4611C7.18712 7.56976 7.70825 6.602 7.40439 5.78358C6.81764 5.83258 6.33511 6.08691 5.98272 6.49233L5.98162 6.497ZM11.011 7.14626C11.1803 7.47409 11.2338 7.81593 11.4742 8.0621C11.5817 8.17293 11.7907 8.30943 11.6876 8.61627C11.6628 8.68685 11.4863 8.84435 11.3838 8.87877C11.0121 8.99252 10.1408 8.89627 10.4347 8.40627C10.7452 8.41502 11.1593 8.61627 11.3898 8.38002C11.2167 8.07435 10.9018 7.48751 11.0181 7.13751L11.011 7.14626ZM14.4289 7.13867H14.4664C14.6484 7.52834 14.7973 7.94076 15.0201 8.28493C14.8712 8.65127 13.8879 8.9791 13.9045 8.31818C14.1196 8.21901 14.4835 8.29777 14.6738 8.17235C14.5673 7.84801 14.4091 7.58551 14.4344 7.13926L14.4289 7.13867ZM10.6089 6.19542C9.82477 6.00291 9.43378 6.54075 9.1972 7.10134C8.98544 7.04651 9.06981 6.74259 9.12275 6.58625C9.26338 6.17733 9.82863 5.63366 10.2913 5.70775C10.4893 5.741 10.7589 5.93291 10.6089 6.19425V6.19542ZM8.69978 3.92915C7.8395 4.18582 6.73657 4.84732 6.38364 5.66399C6.65661 5.62316 6.84687 5.47674 7.11708 5.45924C7.21965 5.44991 7.35311 5.50241 7.47057 5.46799C7.70439 5.40733 7.90071 4.84674 8.07828 4.64549C8.24924 4.44424 8.45603 4.35615 8.59666 4.17298C8.68875 4.12048 8.82221 4.12982 8.82827 3.98048C8.78801 3.93673 8.74555 3.90173 8.70033 3.91923L8.69978 3.92915Z" fill="white"/>
</svg>
