<svg width="20" height="20" viewBox="0 0 20 20" fill="none" xmlns="http://www.w3.org/2000/svg">
<path d="M9.96332 7.49938C8.23955 7.73828 6.68039 8.15682 5.4153 8.71981C4.02815 9.33651 3.2236 9.98284 3.0294 10.6347C2.98871 10.7736 2.99056 11.0607 3.0331 11.1848C3.2088 11.6903 3.8284 12.0922 4.8031 12.333C5.06574 12.3978 5.54292 12.4885 5.6206 12.4885C5.71493 12.4885 5.65019 12.457 5.39126 12.3719C5.0195 12.2533 4.8031 12.1459 4.66624 12.0089C4.44984 11.7996 4.49238 11.6255 4.8179 11.3699C5.13602 11.1218 5.65574 10.8144 5.75562 10.8181C5.78891 10.8181 6.65634 11.0199 6.83575 11.0699C6.84684 11.0718 6.80061 11.1125 6.73402 11.1607C6.51763 11.3144 6.49913 11.457 6.67669 11.6218C6.90233 11.8329 7.29628 11.9644 7.91033 12.0367C8.26729 12.0792 9.02375 12.0644 9.45469 12.007C10.1668 11.9144 10.8104 11.7496 11.319 11.5274C11.5243 11.4385 11.6667 11.3551 11.8887 11.1922C12.1421 11.0033 12.2475 10.8366 12.2475 10.6218C12.2475 10.3921 12.0884 10.2254 11.7296 10.0791C11.4023 9.9458 10.9954 9.88469 10.287 9.85876C10.017 9.8495 9.73397 9.83654 9.65814 9.82913C9.31043 9.80135 8.99601 9.72727 8.8092 9.62912L8.72782 9.58652L8.83695 9.56615C9.0108 9.53282 9.53052 9.45504 9.86159 9.41615C10.9491 9.28281 12.0274 9.26984 12.9762 9.37725C13.6864 9.45874 14.0785 9.55319 14.4263 9.72172C14.8812 9.9421 15.0255 10.2199 14.8627 10.5532C14.7888 10.7051 14.5446 10.9496 14.3097 11.1033C13.962 11.3348 13.5181 11.544 12.9096 11.7681C12.6655 11.857 12.5897 11.8959 12.6581 11.8959C12.7265 11.8959 13.962 11.4792 14.319 11.3366C14.7832 11.1514 15.56 10.744 15.9355 10.4903C16.4145 10.1662 16.7918 9.7569 16.9342 9.40503C16.9786 9.29762 16.9897 9.24021 16.9971 9.06983C17.0045 8.89204 16.999 8.84575 16.9657 8.74389C16.8584 8.4198 16.5736 8.15682 16.0686 7.91236C15.7616 7.76421 15.2068 7.58272 15.2068 7.63087C15.2068 7.63828 15.2715 7.67717 15.351 7.71606C15.6155 7.84199 15.7894 8.01422 15.8448 8.19942C15.88 8.31424 15.8596 8.39943 15.7653 8.54017C15.6506 8.71611 15.4657 8.82908 15.1124 8.94205C14.9959 8.97909 14.8313 9.03279 14.7444 9.06057L14.5872 9.11243L14.0083 9.02353C13.6901 8.97538 13.4201 8.93279 13.4109 8.92908C13.4016 8.92538 13.4478 8.89204 13.5126 8.85315C13.5792 8.81611 13.6624 8.7587 13.6975 8.72907C13.9713 8.48832 13.7641 8.12904 13.2647 7.97348C12.6303 7.77717 11.7167 7.72347 10.9251 7.83273C9.88933 7.97718 8.85914 8.39572 8.38936 8.86612C8.20995 9.04576 8.15447 9.15132 8.14522 9.32725C8.13782 9.43281 8.14522 9.46615 8.18591 9.55134C8.28024 9.74394 8.45224 9.85876 8.8425 9.9884C9.13842 10.0884 9.36961 10.1162 10.017 10.1366C10.8677 10.1643 11.3264 10.2199 11.5188 10.318L11.5835 10.3514L11.282 10.4014C9.96886 10.6181 8.406 10.6792 7.28149 10.5606C6.8154 10.5125 6.20505 10.3551 5.91098 10.2106C5.25069 9.88469 5.23959 9.43837 5.87584 8.94205C6.31973 8.59573 7.2223 8.19571 8.12857 7.942C8.65754 7.79569 9.53792 7.61235 10.1982 7.5142C10.3166 7.49568 10.4109 7.47531 10.4054 7.46605C10.3906 7.44382 10.3129 7.44938 9.96332 7.49938Z" fill="white"/>
</svg>
