<svg width="20" height="20" viewBox="0 0 20 20" fill="none" xmlns="http://www.w3.org/2000/svg">
<path d="M17.0874 6.85913C17.5939 6.87201 18.0005 7.28707 18.0005 7.79663V12.2283C17.9879 12.7267 17.5858 13.1287 17.0874 13.1414L17.063 13.1423H2.93799L2.91357 13.1414C2.4072 13.1285 2.00066 12.7143 2.00049 12.2048V7.79663C2.00049 7.27896 2.42032 6.85913 2.93799 6.85913H17.0874ZM2.93799 7.12671C2.56822 7.12671 2.26807 7.42686 2.26807 7.79663V12.2048C2.26824 12.5745 2.56833 12.8738 2.93799 12.8738H17.063C17.4326 12.8738 17.7327 12.5745 17.7329 12.2048V7.79663C17.7329 7.42687 17.4328 7.12671 17.063 7.12671H2.93799ZM3.30322 11.5271C3.28623 11.5805 3.27885 11.6363 3.27881 11.6921C3.27881 11.8041 3.32953 11.8464 3.43408 11.8464H3.56592V11.5291H3.77979V11.8503H4.92139V12.1501H3.77979V12.3591H3.56592V12.1453H3.4292C3.21019 12.1452 3.02979 12.0061 3.02979 11.697C3.02982 11.6001 3.04258 11.537 3.05713 11.4812L3.30322 11.5271ZM16.9712 12.1501H5.52393V11.8503H16.9712V12.1501ZM3.83643 10.6902C3.83652 10.8118 3.88266 10.9405 3.97021 11.0134H4.92139V11.3103H3.56592V11.0789L3.74561 11.0164V11.0066C3.62638 10.9506 3.53857 10.8283 3.53857 10.658C3.53859 10.612 3.54403 10.566 3.55127 10.5369H3.8501C3.84042 10.5854 3.83643 10.6417 3.83643 10.6902ZM12.6499 7.79565C12.8745 7.79566 13.0829 7.83661 13.2729 7.91968C13.4645 8.00155 13.6215 8.12084 13.7417 8.27808L13.7632 8.30737C13.9828 8.61069 14.0884 9.01651 14.0884 9.51538L14.0874 9.59741C14.0794 10.0032 14.0069 10.3413 13.8638 10.6062C13.7099 10.8909 13.4765 11.0866 13.1685 11.1912C13.0014 11.2477 12.8029 11.2751 12.5747 11.2751C12.3437 11.2751 12.1309 11.233 11.938 11.1472C11.7577 11.065 11.6083 10.9484 11.4937 10.7986L11.4712 10.7683C11.2461 10.4531 11.1382 10.0263 11.1382 9.4978C11.1382 8.8736 11.3035 8.40218 11.6519 8.10522C11.8989 7.8955 12.2351 7.79568 12.6499 7.79565ZM15.7046 7.7937C16.1139 7.7937 16.4764 7.88459 16.7886 8.06909L16.8452 8.10229L16.6675 8.68042L16.5757 8.62573C16.4734 8.56414 16.3498 8.51151 16.2046 8.46948C16.061 8.42758 15.9335 8.40698 15.8218 8.40698C15.7034 8.40699 15.6135 8.41219 15.5503 8.42065C15.4888 8.43022 15.431 8.44621 15.3774 8.46948C15.3277 8.49128 15.2945 8.52088 15.2729 8.5564C15.251 8.59246 15.2379 8.64083 15.2378 8.70581C15.2378 8.7799 15.2586 8.82787 15.2915 8.86011C15.3294 8.89483 15.3819 8.92719 15.4517 8.95483L15.4829 8.96655H15.4839L15.4849 8.96753L16.1694 9.22925C16.5437 9.37272 16.7975 9.58044 16.9058 9.86206C16.9501 9.97743 16.9712 10.1142 16.9712 10.2693C16.9712 10.4271 16.9398 10.5739 16.8774 10.7087C16.8148 10.8429 16.7248 10.953 16.6079 11.0359C16.3828 11.1972 16.0816 11.2731 15.7134 11.2732C15.3403 11.2732 14.9781 11.1775 14.6284 10.989L14.5708 10.9587L14.7202 10.3621L14.813 10.406C15.088 10.5371 15.3661 10.6182 15.647 10.6501C15.7024 10.6564 15.7542 10.6589 15.8022 10.6589C15.9618 10.6589 16.066 10.626 16.1294 10.574C16.1896 10.5244 16.226 10.4465 16.2261 10.325C16.2261 10.2169 16.1972 10.1407 16.1499 10.0886C16.0967 10.029 16.0182 9.97745 15.9087 9.93726H15.9067L15.9058 9.93628L15.2036 9.65698C14.9776 9.56802 14.8012 9.44859 14.6812 9.29565C14.5677 9.15111 14.5085 8.98085 14.5015 8.78882L14.5005 8.74976C14.4992 8.43827 14.6131 8.1934 14.8462 8.02905L14.8696 8.01343C15.0942 7.86478 15.3744 7.79376 15.7046 7.7937ZM6.49072 7.85132C6.8843 7.85001 7.19277 7.87894 7.41064 7.94312C7.60693 8.00022 7.76254 8.08825 7.86768 8.21167C7.98863 8.35253 8.04541 8.53115 8.04541 8.73999C8.0454 9.02064 7.95946 9.24318 7.77393 9.39038C7.69641 9.45171 7.50839 9.53346 7.50049 9.53687C7.72832 9.53696 7.89156 9.67936 7.93799 9.823C8.06862 10.2277 8.2251 11.2058 8.2251 11.2058H7.45654L7.23486 10.2292C7.21783 10.1544 7.19452 10.0795 7.15088 10.0164C7.00124 9.80012 6.79538 9.79565 6.50049 9.79565H6.29834V11.2058H5.52393V7.85132H6.49072ZM10.8511 8.4187H9.99854V11.2058H9.22412V8.4187H8.35889V7.85132H10.8511V8.4187ZM12.6167 8.40698C12.5038 8.40698 12.4075 8.42709 12.3267 8.4646C12.2446 8.50332 12.1798 8.55421 12.1304 8.61597C12.0812 8.67779 12.0402 8.75772 12.0083 8.85718C11.951 9.03395 11.9198 9.26075 11.9185 9.53979C11.9185 9.98202 11.9959 10.2794 12.1323 10.4509C12.2406 10.5862 12.397 10.657 12.6128 10.657C12.8034 10.6569 12.9404 10.6055 13.0356 10.5125C13.1133 10.4366 13.1734 10.3445 13.2144 10.2341L13.2485 10.1169C13.2894 9.94461 13.3101 9.77214 13.3101 9.60034C13.3101 9.42385 13.3032 9.28228 13.2905 9.17456C13.278 9.06799 13.255 8.96358 13.2212 8.86206V8.86108C13.1892 8.7602 13.1472 8.67959 13.0981 8.61792V8.61694C13.0502 8.55563 12.9858 8.50521 12.9038 8.46655L12.9028 8.46558C12.8255 8.42747 12.7308 8.40702 12.6167 8.40698ZM4.08447 9.2771C4.15257 9.27711 4.22549 9.27959 4.32275 9.29175V10.1218C4.5808 10.1121 4.70264 9.99953 4.70264 9.75366C4.70256 9.61042 4.63942 9.50357 4.58838 9.44995L4.80518 9.31812C4.88301 9.41789 4.94577 9.55435 4.9458 9.78784C4.9458 10.2017 4.71932 10.4158 4.23975 10.4158C3.77984 10.4157 3.5415 10.1603 3.5415 9.80249C3.54155 9.46661 3.75587 9.2771 4.08447 9.2771ZM4.06006 9.56128C3.87505 9.56128 3.7749 9.64234 3.7749 9.81519C3.77509 9.98295 3.89242 10.1072 4.11377 10.1169V9.56128H4.06006ZM6.29834 9.25269H6.50439C6.82661 9.25268 7.02865 9.20187 7.1333 9.11987C7.17066 9.0905 7.20252 9.05004 7.22803 8.99683C7.25293 8.94345 7.26513 8.88756 7.26514 8.82886C7.26513 8.79506 7.26381 8.7659 7.26123 8.74097L7.25049 8.67847C7.24111 8.64302 7.22742 8.61496 7.21045 8.59351L7.2085 8.59155C7.18861 8.56511 7.16652 8.54238 7.14307 8.52319C7.12389 8.50758 7.09725 8.49228 7.06006 8.48022C7.01715 8.46634 6.97689 8.45566 6.93994 8.44702C6.90623 8.43916 6.86102 8.43226 6.8042 8.42847C6.7073 8.42201 6.60085 8.41871 6.48486 8.4187H6.29834V9.25269ZM4.08447 7.91479C4.15256 7.9148 4.2255 7.91729 4.32275 7.92944V8.75952C4.5808 8.74978 4.70264 8.63723 4.70264 8.39136C4.70254 8.24812 4.63942 8.14124 4.58838 8.08765L4.80518 7.95581C4.88301 8.05558 4.94576 8.19206 4.9458 8.42554C4.9458 8.83938 4.71932 9.05347 4.23975 9.05347C3.77984 9.05336 3.5415 8.79796 3.5415 8.44019C3.54159 8.10436 3.75589 7.91479 4.08447 7.91479ZM4.06006 8.19897C3.87505 8.19897 3.7749 8.28004 3.7749 8.45288C3.77506 8.62068 3.89239 8.74491 4.11377 8.75464V8.19897H4.06006Z" fill="white"/>
</svg>
