<svg width="20" height="20" viewBox="0 0 20 20" fill="none" xmlns="http://www.w3.org/2000/svg">
<path d="M5.08888 8.85433C5.17345 8.91456 5.27618 8.99318 5.45734 8.99318C5.72311 8.99318 6.04334 8.77575 6.04334 8.12937C6.04334 7.67642 5.89227 7.27173 5.46946 7.27173C5.31842 7.27173 5.21573 7.32605 5.08888 7.40445V8.85433ZM5.08888 6.87901C5.25206 6.66158 5.48759 6.35948 6.07348 6.35948C6.99171 6.35948 7.48702 7.17502 7.48702 8.09315C7.48702 9.16844 6.87089 9.89317 6.03123 9.89317C5.46347 9.89317 5.20971 9.57907 5.08888 9.428V10.5989H3.70566V6.43806H5.08888V6.87901Z" fill="white"/>
<path d="M7.73557 5.57544H9.12489V9.74825H7.73557V5.57544Z" fill="white"/>
<path d="M11.5101 8.32868C11.4015 8.30446 11.323 8.28633 11.2082 8.28633C10.8397 8.28633 10.731 8.52798 10.731 8.69105C10.731 8.87244 10.8578 9.04751 11.0813 9.04751C11.2806 9.04751 11.3954 8.9388 11.5101 8.81808V8.32868ZM12.8995 9.74824H11.5101V9.30729C11.3411 9.53082 11.0934 9.84496 10.4893 9.84496C9.7886 9.84496 9.39598 9.34961 9.39598 8.75763C9.39598 8.0268 9.98187 7.61595 10.7068 7.61595C11.0692 7.61595 11.3289 7.70044 11.5101 7.76092C11.5101 7.5675 11.5041 7.29575 11.2686 7.10254C11.0994 6.96351 10.9182 6.9576 10.8216 6.9576C10.3987 6.9576 10.1511 7.20513 9.97589 7.38042L9.56518 7.03597C9.86116 6.70373 10.29 6.26278 11.2686 6.26278C11.927 6.26278 12.2351 6.45617 12.3438 6.52866C12.8934 6.87902 12.8995 7.37429 12.8995 7.73666V9.74824Z" fill="white"/>
<path d="M12.8249 6.43807H14.2866C14.4739 7.04209 14.6853 7.70656 14.7941 8.26232C14.9511 7.69456 14.9933 7.57362 15.3921 6.43807H16.4975L15.2109 9.45223C15.0357 9.84495 14.8062 10.3644 14.3229 10.6725C13.8397 10.9805 13.2537 10.9805 12.8271 10.9744V10.4551C13.5437 10.4066 13.7852 9.98989 14.0812 9.46423L12.8249 6.43807Z" fill="white"/>
<path d="M5.40412 11.8755C5.29541 11.8031 5.19271 11.7367 5.02355 11.7367C4.6974 11.7367 4.43766 12.0447 4.43766 12.6306C4.43766 13.0958 4.62495 13.4581 5.01155 13.4581C5.1806 13.4581 5.2833 13.3979 5.40412 13.3313V11.8755ZM5.40412 10.1603H6.79344V14.2918H5.40412V13.857C5.27129 14.044 5.02355 14.3885 4.40741 14.3885C3.48929 14.3885 3 13.5911 3 12.6487C3 11.6883 3.48929 10.8306 4.43164 10.8306C5.01753 10.8306 5.25305 11.1205 5.40412 11.3078V10.1603Z" fill="white"/>
<path d="M9.18976 12.8723C9.08108 12.848 9.00257 12.8299 8.88777 12.8299C8.5193 12.8299 8.41059 13.0716 8.41059 13.2346C8.41059 13.416 8.5374 13.5911 8.76092 13.5911C8.96022 13.5911 9.07506 13.4824 9.18976 13.3617V12.8723ZM10.5791 14.2918H9.18976V13.8508C9.0207 14.0744 8.77303 14.3885 8.16894 14.3885C7.4682 14.3885 7.07563 13.8932 7.07563 13.3012C7.07563 12.5704 7.66152 12.1595 8.38644 12.1595C8.74881 12.1595 9.00859 12.244 9.18976 12.3045C9.18976 12.1111 9.18374 11.8393 8.94822 11.6461C8.77905 11.5071 8.59785 11.5012 8.50117 11.5012C8.07835 11.5012 7.83068 11.7487 7.6555 11.924L7.24479 11.5795C7.5408 11.2473 7.96964 10.8064 8.94822 10.8064C9.60659 10.8064 9.91472 10.9998 10.0234 11.0722C10.5731 11.4226 10.5791 11.9179 10.5791 12.2802V14.2918Z" fill="white"/>
<path d="M11.1661 10.4621H12.5494V11.2715H13.1233V12.0628H12.5494V13.1803C12.5494 13.3252 12.5494 13.6878 12.9361 13.6878C13.0085 13.6878 13.075 13.6756 13.1475 13.6575L13.3105 14.1045C13.1112 14.2313 12.8212 14.4248 12.3199 14.4248C12.0058 14.4248 11.6736 14.3342 11.444 14.1106C11.1843 13.8509 11.1661 13.5306 11.1661 13.2468V12.0628H10.7976V11.2715H11.1661V10.4621Z" fill="white"/>
<path d="M15.5702 12.2259C15.5581 12.0205 15.534 11.5614 15.093 11.5614C14.6883 11.5614 14.6279 11.9965 14.5977 12.2259H15.5702ZM16.7722 13.5307C16.6092 13.7603 16.1561 14.3885 15.1414 14.3885C13.9695 14.3885 13.2628 13.6454 13.2628 12.6125C13.2628 11.5675 13.9816 10.8186 15.0688 10.8186C15.5219 10.8186 15.8662 10.9454 16.1017 11.0965C16.8992 11.5917 16.8992 12.4796 16.8992 12.9085H14.646C14.6762 13.1019 14.7184 13.3132 14.9601 13.4824C15.1353 13.6092 15.3165 13.6516 15.5219 13.6516C15.9749 13.6516 16.2467 13.3798 16.4099 13.2165L16.7722 13.5307Z" fill="white"/>
<path d="M16.7184 10.5679C16.5869 10.5679 16.477 10.674 16.477 10.81C16.477 10.9468 16.5861 11.0521 16.7192 11.0521C16.8589 11.0521 16.9613 10.94 16.9613 10.8107C16.9613 10.6762 16.8582 10.5679 16.7184 10.5679ZM16.7184 11.0908C16.5724 11.0908 16.4383 10.9764 16.4383 10.81C16.4383 10.6483 16.5677 10.5292 16.7184 10.5292C16.8761 10.5292 17 10.6515 17 10.8108C17 10.9607 16.8817 11.0908 16.7184 11.0908Z" fill="white"/>
<path d="M16.6681 10.7902H16.7367C16.7729 10.7902 16.7878 10.7666 16.7878 10.7406C16.7878 10.7146 16.7729 10.6919 16.7367 10.6919H16.6681V10.7902ZM16.8504 10.9652H16.7896L16.7817 10.8853C16.7794 10.8608 16.7622 10.8431 16.7381 10.8431H16.6681V10.9652H16.6063V10.6404H16.7395C16.8072 10.6404 16.8471 10.6817 16.8471 10.7406C16.8471 10.774 16.8304 10.7967 16.8035 10.8107C16.8258 10.8246 16.8402 10.8487 16.8425 10.8784L16.8504 10.9652Z" fill="white"/>
</svg>
