<svg width="20" height="20" viewBox="0 0 20 20" fill="none" xmlns="http://www.w3.org/2000/svg">
<path d="M7.01747 3.96655C6.21739 3.96655 5.45008 4.28438 4.88434 4.85013C4.3186 5.41587 4.00076 6.18318 4.00076 6.98326C4.00076 7.78334 4.3186 8.55066 4.88434 9.1164C5.45008 9.68214 6.21739 9.99997 7.01747 9.99997C7.81738 9.9997 8.58443 9.68176 9.14996 9.11604C9.71549 8.55033 10.0332 7.78317 10.0332 6.98326C10.0332 6.18336 9.71549 5.4162 9.14996 4.85048C8.58443 4.28477 7.81738 3.96682 7.01747 3.96655ZM11.618 4.00678C11.3973 4.00704 11.1858 4.09488 11.0299 4.251C10.8739 4.40711 10.7863 4.61874 10.7863 4.83939V8.93708C10.7864 9.08316 10.8249 9.22665 10.898 9.35314C10.971 9.47963 11.0761 9.58468 11.2026 9.65773C11.3291 9.73079 11.4725 9.76928 11.6186 9.76934C11.7647 9.7694 11.9082 9.73103 12.0348 9.65808L15.5834 7.60973C15.7101 7.53668 15.8153 7.43156 15.8884 7.30495C15.9615 7.17834 16 7.0347 16 6.88849C16 6.74227 15.9615 6.59863 15.8884 6.47202C15.8153 6.34541 15.7101 6.24029 15.5834 6.16724L15.0585 5.86356L12.0348 4.1189C11.9082 4.04562 11.7642 4.00695 11.618 4.00678ZM13.4154 10.6109C13.3614 10.6108 13.308 10.6214 13.2581 10.642C13.2082 10.6627 13.1629 10.693 13.1248 10.7312C13.0867 10.7694 13.0565 10.8148 13.0359 10.8647C13.0154 10.9147 13.0049 10.9682 13.0051 11.0221V12.2555H11.7713C11.6623 12.2555 11.5577 12.2988 11.4807 12.3759C11.4036 12.4529 11.3603 12.5575 11.3603 12.6665C11.3603 12.7755 11.4036 12.88 11.4807 12.9571C11.5577 13.0342 11.6623 13.0775 11.7713 13.0775H13.0051V14.3108C13.0051 14.4199 13.0484 14.5244 13.1255 14.6015C13.2026 14.6786 13.3072 14.7219 13.4162 14.7219C13.5252 14.7219 13.6297 14.6786 13.7068 14.6015C13.7839 14.5244 13.8272 14.4199 13.8272 14.3108V13.0775H15.06C15.169 13.0775 15.2736 13.0342 15.3507 12.9571C15.4277 12.88 15.471 12.7755 15.471 12.6665C15.471 12.5575 15.4277 12.4529 15.3507 12.3759C15.2736 12.2988 15.169 12.2555 15.06 12.2555H13.8267V11.0221C13.8268 10.9681 13.8162 10.9146 13.7955 10.8647C13.7749 10.8147 13.7446 10.7694 13.7064 10.7312C13.6682 10.693 13.6228 10.6627 13.5729 10.642C13.523 10.6214 13.4694 10.6108 13.4154 10.6109ZM5.40705 10.7541C5.22211 10.7538 5.03892 10.79 4.868 10.8606C4.69707 10.9313 4.54178 11.035 4.41103 11.1658C4.28028 11.2966 4.17664 11.4519 4.10606 11.6229C4.03549 11.7938 3.99936 11.977 3.99976 12.1619V14.6256C3.99976 15.4049 4.62723 16.0334 5.40756 16.0334H7.8712C8.65052 16.0334 9.279 15.4049 9.279 14.6256V12.1619C9.279 11.3826 8.65052 10.7541 7.8712 10.7541H5.40705Z" fill="white"/>
</svg>
