<svg width="20" height="20" viewBox="0 0 20 20" fill="none" xmlns="http://www.w3.org/2000/svg">
<path d="M10 4C8.008 4 6.378 4.1275 5.2465 5.258C4.115 6.388 4 8.0165 4 10.006C4 11.996 4.115 13.6235 5.247 14.7545C6.3785 15.885 8.0085 16 10 16C11.9915 16 13.6215 15.885 14.753 14.7545C15.885 13.6235 16 11.995 16 10.006C16 8.014 15.8835 6.3845 14.749 5.254C13.617 4.126 11.989 4 10 4ZM6.453 7.7025H9.265C10 7.7025 10.7685 7.7365 11.147 8.116C11.52 8.489 11.5605 9.2325 11.562 9.954V12.224C11.5616 12.2438 11.5534 12.2626 11.5392 12.2764C11.5249 12.2902 11.5058 12.2978 11.486 12.2975H10.5125C10.5027 12.2976 10.4929 12.2958 10.4837 12.2922C10.4746 12.2885 10.4662 12.2831 10.4592 12.2762C10.4521 12.2694 10.4465 12.2612 10.4426 12.2521C10.4387 12.2431 10.4366 12.2333 10.4365 12.2235V9.915C10.4355 9.512 10.4125 9.098 10.2045 8.8895C10.0255 8.7095 9.6915 8.669 9.3445 8.6605H7.579C7.55928 8.66036 7.5403 8.668 7.52617 8.68176C7.51204 8.69551 7.50389 8.71428 7.5035 8.734V12.224C7.50337 12.2338 7.5013 12.2436 7.49741 12.2526C7.49352 12.2617 7.48789 12.2699 7.48083 12.2767C7.47377 12.2836 7.46543 12.289 7.45628 12.2927C7.44713 12.2963 7.43735 12.2981 7.4275 12.298H6.453C6.43328 12.298 6.41435 12.2902 6.40032 12.2764C6.38628 12.2625 6.37826 12.2437 6.378 12.224V7.777C6.37813 7.7572 6.38609 7.73825 6.40014 7.72429C6.41419 7.71033 6.4332 7.7025 6.453 7.7025ZM12.5185 7.7025H13.493C13.5129 7.7025 13.532 7.7104 13.546 7.72447C13.5601 7.73853 13.568 7.75761 13.568 7.7775V12.2235C13.5677 12.2432 13.5597 12.262 13.5457 12.2759C13.5316 12.2897 13.5127 12.2975 13.493 12.2975H12.5185C12.4987 12.2976 12.4796 12.2899 12.4655 12.2761C12.4514 12.2622 12.4433 12.2433 12.443 12.2235V7.777C12.4431 7.76715 12.4451 7.75741 12.4489 7.74834C12.4527 7.73926 12.4583 7.73103 12.4653 7.72411C12.4723 7.71719 12.4806 7.71173 12.4898 7.70802C12.4989 7.70431 12.5087 7.70243 12.5185 7.7025ZM8.46 9.474H9.483C9.5245 9.474 9.558 9.507 9.558 9.5475V12.2235C9.55774 12.2432 9.54972 12.262 9.53568 12.2759C9.52165 12.2897 9.50272 12.2975 9.483 12.2975H8.46C8.45015 12.2976 8.44037 12.2958 8.43122 12.2922C8.42207 12.2885 8.41373 12.2831 8.40667 12.2762C8.39961 12.2694 8.39398 12.2612 8.39009 12.2521C8.3862 12.2431 8.38413 12.2333 8.384 12.2235V9.5475C8.38439 9.5277 8.39261 9.50885 8.40685 9.49508C8.42108 9.48131 8.44019 9.47373 8.46 9.474Z" fill="white"/>
</svg>
