<svg width="20" height="20" viewBox="0 0 20 20" fill="none" xmlns="http://www.w3.org/2000/svg">
<path d="M10.5903 3.27718C6.72815 3.09819 3.45226 6.08358 3.27327 9.94477C3.09428 13.8074 6.07967 17.0833 9.94087 17.2623C13.8035 17.4413 17.0794 14.4559 17.2579 10.5947C17.4378 6.73206 14.4515 3.45617 10.5903 3.27718ZM10.5075 5.05941C13.3847 5.19342 15.6101 7.63466 15.4761 10.5119C15.4393 11.2944 15.233 12.028 14.8937 12.6794C13.8628 11.3695 11.5034 8.37359 11.4943 8.36163C10.541 7.20681 9.10239 6.46644 7.49101 6.45448C7.23449 6.45448 6.90714 6.47554 6.64536 6.51622C7.64224 5.55618 9.01625 4.9905 10.508 5.06037V5.05894L10.5075 5.05941ZM10.0237 15.4805C7.14643 15.3465 4.92103 12.9053 5.05503 10.028C5.07848 9.52171 5.17324 9.03499 5.32974 8.5789C5.34696 8.56598 5.35749 8.55928 5.35749 8.55928C6.88848 7.43366 9.04784 7.71889 10.2314 9.22212L13.9581 13.9539C12.9559 14.9574 11.5513 15.5518 10.0232 15.4805H10.0237Z" fill="white"/>
<path d="M7.44747 11.0771C7.89399 11.0771 8.25623 10.7148 8.25623 10.2683C8.25623 9.82174 7.89394 9.45946 7.44742 9.45946C7.00091 9.45946 6.63862 9.82174 6.63862 10.2683C6.63862 10.7148 7.00095 11.0771 7.44747 11.0771Z" fill="white"/>
</svg>
