<svg width="20" height="20" viewBox="0 0 20 20" fill="none" xmlns="http://www.w3.org/2000/svg">
<path d="M10.095 5.1901C9.05091 5.1659 8.02883 5.49221 7.19194 6.11694C6.35504 6.74167 5.75159 7.62878 5.47793 8.63664C5.45043 8.64314 5.50443 8.62664 5.47793 8.63664C3.54041 9.91216 3.51691 12.6917 5.35443 14.1072L5.35743 14.1037L5.35393 14.1187C5.94088 14.5618 6.65704 14.8 7.39245 14.7967H9.97899L9.99399 14.8117H12.59C15.9336 14.8382 17.2781 10.5092 14.5075 8.63664C14.2689 7.75684 13.7787 6.96582 13.097 6.36061L13.0755 6.38211L13.0785 6.35711C12.2526 5.62864 11.196 5.21532 10.095 5.1901ZM9.91598 7.26312C10.538 7.24312 11.175 7.44713 11.659 7.83813C11.9568 8.08671 12.1951 8.39895 12.3562 8.75185C12.5173 9.10474 12.5972 9.48929 12.59 9.87716V10.1362C14.355 10.1012 14.355 12.7672 12.59 12.7327H9.99349L9.98949 12.7372V12.7172H7.39245C7.20847 12.7172 7.02659 12.678 6.85895 12.6022C6.66767 12.5156 6.50074 12.3839 6.37153 12.2184C6.24232 12.0529 6.15517 11.8585 6.11756 11.6519C6.07994 11.4453 6.09298 11.2327 6.15557 11.0323C6.21815 10.8318 6.3284 10.6496 6.47688 10.5011C6.62535 10.3526 6.80762 10.2424 7.00805 10.1798C7.20848 10.1172 7.4211 10.1042 7.62768 10.1418C7.83426 10.1794 8.02863 10.2665 8.19414 10.3958C8.35965 10.525 8.49136 10.6924 8.57797 10.8837L10.0845 9.37765C9.58388 8.7251 8.86214 8.2779 8.05496 8.12013C8.06396 8.11513 8.07496 8.10713 8.08196 8.10863C8.31572 7.85216 8.59859 7.64522 8.9138 7.50007C9.229 7.35492 9.57014 7.27452 9.91698 7.26362L9.91598 7.26312Z" fill="white"/>
</svg>
