<svg width="20" height="20" viewBox="0 0 20 20" fill="none" xmlns="http://www.w3.org/2000/svg">
<path d="M10.0214 15.984C10.2609 15.982 10.4979 15.9695 10.7344 15.937C11.2762 15.8667 11.8056 15.7215 12.3074 15.5055C13.0128 15.2029 13.6559 14.7719 14.2039 14.2345C14.7085 13.7398 15.1216 13.1597 15.4239 12.521C15.6824 11.9714 15.8545 11.3852 15.9339 10.783C16.0084 10.203 16.0014 9.61003 15.9114 9.03353C15.8363 8.55451 15.7031 8.0864 15.5149 7.63953C15.3949 7.35884 15.2521 7.08844 15.0879 6.83103C14.5039 5.91253 13.6574 5.17403 12.6829 4.68103C12.3349 4.50327 11.9714 4.35766 11.5969 4.24603H11.5944C11.6539 4.27753 11.7144 4.31203 11.7669 4.34653C11.8269 4.38353 11.8864 4.41953 11.9424 4.45903C12.2269 4.65005 12.4885 4.87318 12.7219 5.12403C13.2534 5.69653 13.6204 6.39803 13.8309 7.14453C13.9729 7.63553 14.0479 8.14353 14.0784 8.65303C14.1004 9.02453 14.1004 9.39853 14.0549 9.76753C13.9804 10.4025 13.7779 11.0225 13.4409 11.5655C13.1928 11.9701 12.8699 12.3238 12.4894 12.6075C11.8674 13.0715 11.0509 13.3485 10.2714 13.1645C10.1427 13.1343 10.0174 13.091 9.89744 13.0355C9.7607 12.9732 9.63027 12.8978 9.50794 12.8105C9.27627 12.6557 9.06698 12.4698 8.88594 12.258C8.66632 11.9962 8.48932 11.7014 8.36144 11.3845C8.20482 10.9791 8.12119 10.5491 8.11444 10.1145C8.09944 9.47803 8.22694 8.83803 8.54144 8.27953C8.75213 7.90778 9.0348 7.58176 9.37294 7.32053C9.48544 7.23153 9.60494 7.15403 9.72494 7.08103L9.73294 7.07753C9.49682 7.02355 9.25424 7.00335 9.01244 7.01753C8.80353 7.03147 8.59723 7.07179 8.39844 7.13753C8.21894 7.19753 8.04644 7.27253 7.88894 7.36253C7.76101 7.43596 7.63852 7.5185 7.52244 7.60953C7.41694 7.69953 7.31244 7.78953 7.21494 7.88703C6.65344 8.46353 6.33094 9.22803 6.20394 10.015C6.12894 10.5015 6.12894 10.995 6.15844 11.49C6.21094 12.1875 6.35394 12.8835 6.63094 13.521C6.79966 13.915 7.02688 14.2813 7.30494 14.6075C7.73042 15.0989 8.2674 15.4812 8.87094 15.7225C9.209 15.8607 9.56453 15.9516 9.92744 15.9925C9.96444 16 10.0019 16 10.0319 16L10.0214 15.984ZM8.55444 15.785C8.47718 15.7517 8.40203 15.7136 8.32944 15.671C7.95313 15.4681 7.6096 15.2095 7.31044 14.904C6.76344 14.3355 6.39694 13.621 6.18694 12.864C6.04863 12.3456 5.96567 11.814 5.93944 11.278C5.91728 10.931 5.92497 10.5827 5.96244 10.237C6.02994 9.60853 6.20994 8.98653 6.52444 8.44703C6.75046 8.04903 7.05353 7.70007 7.41594 7.42053C7.66399 7.23042 7.93924 7.07872 8.23244 6.97053C8.80017 6.76498 9.42065 6.75705 9.99344 6.94803C10.0079 6.94803 10.0079 6.94803 10.0159 6.96303C10.0234 6.97053 10.0384 6.97053 10.0459 6.97803C10.0684 6.98603 10.0979 7.00053 10.1284 7.01503C10.2479 7.07503 10.3679 7.15053 10.4804 7.22503C10.9339 7.54255 11.2956 7.97407 11.5289 8.47603C11.7389 8.93303 11.8364 9.44303 11.8444 9.94503C11.8514 10.4845 11.7544 11.0235 11.5219 11.518C11.2384 12.1145 10.7778 12.6089 10.2029 12.934C10.2479 12.949 10.2929 12.9565 10.3384 12.9715C10.4509 12.9935 10.5629 13.0085 10.6824 13.0085C11.4164 13.031 12.1284 12.6785 12.6524 12.185C12.7499 12.095 12.8399 11.9975 12.9224 11.8925C13.0349 11.7575 13.1399 11.6225 13.2294 11.481C13.3489 11.2935 13.4469 11.106 13.5364 10.904C13.6509 10.6366 13.7362 10.3577 13.7909 10.072C13.8889 9.57003 13.8964 9.06103 13.8654 8.55903C13.7979 7.54803 13.5289 6.53653 12.9444 5.69703C12.858 5.57263 12.7654 5.45264 12.6669 5.33753C12.503 5.15211 12.3253 4.97929 12.1354 4.82053C11.9236 4.64634 11.6954 4.49312 11.4539 4.36303C11.1815 4.23802 10.8984 4.13795 10.6079 4.06403L10.4579 4.03403C10.3534 4.01903 10.2479 4.01203 10.1409 4.00403C9.97177 3.99653 9.8023 3.9992 9.63344 4.01203C9.28144 4.03453 8.92744 4.09203 8.57744 4.18053C6.89944 4.61353 5.43144 5.78303 4.64994 7.33503C4.40056 7.82944 4.22182 8.35642 4.11894 8.90053C4.00048 9.52283 3.98292 10.1601 4.06694 10.788C4.12694 11.298 4.25394 11.7995 4.45594 12.2765C4.56944 12.5615 4.71144 12.8385 4.86844 13.1005C5.41544 13.992 6.20994 14.7185 7.12344 15.2205C7.46744 15.4155 7.82744 15.5655 8.20194 15.6925C8.31494 15.7295 8.42694 15.7675 8.54644 15.7975L8.55444 15.785Z" fill="white"/>
</svg>
