<svg width="20" height="20" viewBox="0 0 20 20" fill="none" xmlns="http://www.w3.org/2000/svg">
<path d="M5.09086 3.0383C4.29494 3.0383 4.00198 3.33184 4.00198 4.12834V13.7357C4.00158 13.8196 4.00546 13.9034 4.01358 13.9869C4.03157 14.1609 4.03505 14.3292 4.1969 14.5206C4.21256 14.5397 4.37732 14.6627 4.37732 14.6627C4.46608 14.7062 4.52699 14.7381 4.62677 14.7787L9.46206 16.8039C9.71325 16.9194 9.81825 16.9641 10.0004 16.9606H10.0016C10.1837 16.9641 10.2887 16.9194 10.5399 16.8039L15.3752 14.7782C15.475 14.7376 15.5359 14.7062 15.6247 14.6621C15.6247 14.6621 15.7894 14.5397 15.8051 14.5212C15.9675 14.3297 15.9704 14.1609 15.9884 13.9875C15.9965 13.9038 16.0004 13.8198 16 13.7357V4.12834C16 3.33184 15.7065 3.03772 14.9105 3.03772L5.09086 3.0383ZM12.8447 4.84247H13.2392C13.8994 4.84247 14.2185 5.16328 14.2185 5.82635V6.91698H13.4214V5.87276C13.4214 5.6587 13.3228 5.5595 13.118 5.5595H12.9816C12.7687 5.5595 12.6701 5.65812 12.6701 5.87218V9.24267C12.6701 9.45674 12.7687 9.55594 12.9816 9.55594H13.1336C13.3384 9.55594 13.437 9.45674 13.437 9.24267V8.03835H14.2335V9.28154C14.2335 9.9452 13.9075 10.2735 13.2473 10.2735H12.8447C12.1846 10.2735 11.8585 9.9452 11.8585 9.28154V5.83447C11.8585 5.17082 12.1846 4.84305 12.8447 4.84305V4.84247ZM5.7754 4.88888H7.58189V5.62795H6.58757V7.138H7.54361V7.87765H6.58757V9.4869H7.59698V10.2266H5.7754V4.88888ZM7.98914 4.88888H9.26424C9.92442 4.88888 10.2504 5.21607 10.2504 5.87972V7.29811C10.2504 7.96177 9.92442 8.29012 9.26424 8.29012H8.80072V10.2266H7.98856L7.98914 4.88888ZM10.6171 4.88888H11.4292V10.2266H10.6171V4.88888ZM8.8013 5.60533V7.57309H9.13487C9.34024 7.57309 9.43828 7.47389 9.43828 7.25983V5.91859C9.43828 5.70511 9.33966 5.60533 9.13487 5.60533H8.8013ZM6.63166 11.4918C6.74875 11.4923 6.86483 11.5135 6.97451 11.5544C7.07819 11.5962 7.17424 11.6548 7.25877 11.7279L6.99655 12.0446C6.94286 11.9984 6.88266 11.9603 6.81788 11.9315C6.75112 11.9041 6.67945 11.8907 6.60729 11.8921C6.55125 11.8916 6.49579 11.9035 6.44486 11.9269C6.3957 11.9495 6.35153 11.9816 6.31491 12.0214C6.27731 12.0627 6.24761 12.1104 6.22732 12.1624C6.20548 12.2176 6.19445 12.2765 6.19483 12.3359V12.3405C6.19439 12.402 6.2054 12.4629 6.22732 12.5203C6.24739 12.5736 6.27842 12.622 6.3184 12.6625C6.35789 12.7022 6.4048 12.7337 6.45646 12.7553C6.5122 12.7782 6.57198 12.7896 6.63224 12.7889C6.72306 12.7926 6.81292 12.7692 6.89039 12.7216V12.525H6.57249V12.1972H7.31446V12.9253C7.22269 12.9996 7.12021 13.0597 7.01048 13.1034C6.88433 13.1528 6.74972 13.177 6.61426 13.1747C6.49499 13.1761 6.37652 13.155 6.26502 13.1126C6.16215 13.0732 6.06796 13.0141 5.98773 12.9386C5.90888 12.8641 5.8461 12.7743 5.80325 12.6747C5.75794 12.5683 5.73523 12.4538 5.73654 12.3382V12.3335C5.73546 12.22 5.75777 12.1074 5.80209 12.0029C5.84464 11.9031 5.9061 11.8125 5.98309 11.736C6.06177 11.6584 6.15529 11.5974 6.25806 11.5568C6.36844 11.513 6.48626 11.4912 6.60497 11.4924C6.61368 11.4923 6.62238 11.4923 6.63108 11.4924L6.63166 11.4918ZM13.5716 11.4964C13.6921 11.4961 13.8118 11.5145 13.9267 11.551C14.0336 11.5864 14.1332 11.6408 14.2208 11.7117L13.9969 12.0284C13.9274 11.9783 13.8513 11.9382 13.7706 11.9095C13.6984 11.8834 13.6223 11.8697 13.5455 11.8689C13.5031 11.8659 13.4609 11.8765 13.4249 11.899C13.4126 11.907 13.4024 11.9179 13.3953 11.9308C13.3883 11.9436 13.3844 11.958 13.3842 11.9727V11.9774C13.3839 11.9945 13.3883 12.0114 13.397 12.0261C13.4082 12.0424 13.4233 12.0556 13.4411 12.0644C13.4683 12.0787 13.4969 12.0903 13.5264 12.0992C13.5623 12.1108 13.6076 12.1224 13.6633 12.1346C13.7479 12.1526 13.8312 12.1763 13.9127 12.2053C13.9806 12.2289 14.0446 12.2621 14.103 12.304C14.1535 12.3402 14.1946 12.3879 14.2231 12.4432C14.252 12.5042 14.2661 12.5712 14.2643 12.6387V12.6433C14.2657 12.7198 14.2496 12.7956 14.2173 12.8649C14.186 12.9293 14.1406 12.9859 14.0844 13.0303C14.0236 13.078 13.954 13.1134 13.8797 13.1347C13.7929 13.1593 13.703 13.1713 13.6128 13.1701C13.4727 13.1708 13.3335 13.1481 13.2009 13.1028C13.0739 13.0597 12.9569 12.9914 12.8569 12.9021L13.1064 12.6039C13.2671 12.7332 13.4417 12.7982 13.6285 12.7982C13.6759 12.801 13.7232 12.791 13.7654 12.7692C13.7801 12.7612 13.7924 12.7493 13.8008 12.7347C13.8092 12.7202 13.8134 12.7036 13.813 12.6868V12.6822C13.8132 12.6665 13.8092 12.6511 13.8014 12.6375C13.7906 12.6215 13.776 12.6084 13.759 12.5992C13.7327 12.5844 13.7049 12.5724 13.676 12.5633C13.6316 12.5491 13.5865 12.5371 13.5409 12.5273C13.4601 12.5089 13.3802 12.487 13.3013 12.4618C13.2331 12.4404 13.1684 12.4091 13.1093 12.3689C13.056 12.3325 13.0119 12.2843 12.9805 12.228C12.947 12.1636 12.9306 12.0917 12.9329 12.0191V12.0145C12.9321 11.9428 12.9468 11.8718 12.9758 11.8062C13.0043 11.7428 13.0468 11.6867 13.1 11.642C13.1582 11.5939 13.2252 11.5574 13.2972 11.5347C13.3813 11.5082 13.469 11.4952 13.5571 11.4964C13.562 11.4964 13.5668 11.4964 13.5716 11.4964ZM8.14287 11.5109H8.57332L9.2596 13.1411H8.781L8.66324 12.8516H8.04135L7.92649 13.1405H7.45659L8.14287 11.5109ZM9.41739 11.5225H9.88961L10.2742 12.1491L10.6588 11.5225H11.1311V13.1411H10.6867V12.2117L10.2742 12.8446H10.2649L9.8548 12.2164V13.1405H9.41739V11.5225ZM11.4298 11.5225H12.7264V11.9043H11.8719V12.1491H12.6458V12.5029H11.8719V12.7594H12.738V13.1411H11.4298V11.5225ZM8.35519 12.0429L8.17246 12.5029H8.53445L8.35519 12.0429ZM7.69096 15.0537H12.34L9.96734 15.8357L7.69096 15.0537Z" fill="white"/>
</svg>
