<svg width="20" height="20" viewBox="0 0 20 20" fill="none" xmlns="http://www.w3.org/2000/svg">
<path d="M15.6666 10.9586H12.7565C12.6644 10.957 12.5748 10.989 12.5045 11.0486C12.4342 11.1081 12.388 11.1912 12.3744 11.2824C12.2926 11.8529 12.0081 12.375 11.5731 12.7531C11.138 13.1312 10.5814 13.34 10.005 13.3415L10.7925 16.9423C12.1759 16.7621 13.4546 16.1096 14.4121 15.0949C15.3696 14.0803 15.9471 12.766 16.047 11.3745C16.052 11.3217 16.0459 11.2683 16.0291 11.2179C16.0122 11.1676 15.985 11.1213 15.9492 11.0821C15.9133 11.0429 15.8697 11.0117 15.821 10.9904C15.7723 10.9691 15.7197 10.9583 15.6666 10.9586ZM10.6309 10.8664L14.8308 7.26623C14.8724 7.23091 14.9059 7.18694 14.9289 7.13738C14.9518 7.08782 14.9637 7.03385 14.9637 6.97923C14.9637 6.92461 14.9518 6.87064 14.9289 6.82108C14.9059 6.77152 14.8724 6.72755 14.8308 6.69223L10.6309 3.09317C10.5764 3.04563 10.5094 3.01472 10.4379 3.0041C10.3663 2.99348 10.2933 3.0036 10.2273 3.03326C10.1614 3.06292 10.1053 3.11087 10.0658 3.17143C10.0263 3.23199 10.005 3.30261 10.0044 3.37493V10.5748C10.0039 10.6475 10.0243 10.7189 10.0632 10.7803C10.1021 10.8418 10.1578 10.8908 10.2237 10.9215C10.2896 10.9522 10.363 10.9634 10.4351 10.9536C10.5072 10.9439 10.5749 10.9136 10.6303 10.8664H10.6309ZM4.00729 11.7444C4.20151 13.1983 4.91666 14.5323 6.02 15.4989C7.12333 16.4654 8.53989 16.9988 10.0067 17V13.3426C9.69312 13.3432 9.38251 13.2819 9.09259 13.1624C8.80268 13.0429 8.53916 12.8674 8.31707 12.646C8.09498 12.4246 7.91868 12.1617 7.79823 11.8722C7.67779 11.5826 7.61556 11.2722 7.6151 10.9586L4.00729 11.7444ZM3.95129 10.9003V10.9586H7.6151C7.61548 10.6451 7.67703 10.3347 7.79737 10.0452C7.91772 9.75563 8.09391 9.49264 8.31589 9.27121C8.53787 9.04978 8.80129 8.87424 9.09111 8.75461C9.38093 8.63498 9.69148 8.57361 10.005 8.574L9.21868 4.97495C7.77445 5.16303 6.44657 5.86587 5.47894 6.95438C4.5113 8.04288 3.96887 9.44397 3.95129 10.9003Z" fill="white"/>
</svg>
