<svg width="20" height="20" viewBox="0 0 20 20" fill="none" xmlns="http://www.w3.org/2000/svg">
<path d="M9.88561 11.8235L8.28326 12.5L9.64564 13.1881L9.88561 11.8235Z" fill="white"/>
<path d="M6.42604 12.7201L4.71686 12.0802L5.11312 13.424L6.42604 12.7201Z" fill="white"/>
<path d="M7.23653 11.5174L8.28326 12.5L6.42604 12.7201L7.23653 11.5174Z" fill="white"/>
<path d="M4.92322 10.594L4.71686 12.0802L3.42493 10.7907L4.92322 10.594Z" fill="white"/>
<path d="M9.88561 11.8235L14.1037 7.94296L16 10.4556L9.88561 11.8235Z" fill="white"/>
<path d="M9.88561 11.8235L11.6873 6.11377L14.1037 7.94296L9.88561 11.8235Z" fill="white"/>
<path d="M11.6873 6.11377H16L14.1037 7.94296L11.6873 6.11377Z" fill="white"/>
<path d="M16 10.4556V6.11377L14.1037 7.94296L16 10.4556Z" fill="white"/>
</svg>
