<svg width="20" height="20" viewBox="0 0 20 20" fill="none" xmlns="http://www.w3.org/2000/svg">
<path d="M12.7723 11.4983C13.8442 12.8121 14.3378 13.8889 14.0885 14.3704C13.8974 14.7357 12.7166 15.4495 11.848 15.7229C11.1318 15.948 10.193 16.0447 9.41867 15.9697C8.49438 15.8802 7.55799 15.5487 6.75468 15.0261C6.0796 14.5857 5.92717 14.4042 5.92717 14.0437C5.92717 13.3203 6.72322 12.0524 8.08547 10.6054C8.85974 9.78519 9.93647 8.82219 10.055 8.8488C10.2825 8.89961 12.0948 10.6659 12.7723 11.4983ZM8.3855 7.27847C7.66687 6.6276 6.9797 5.9743 6.29495 5.74444C5.92717 5.62104 5.90055 5.62829 5.60052 5.94042C4.89399 6.67599 4.30603 7.86886 4.14149 8.90203C4.01083 9.72954 3.9939 9.96183 4.03987 10.3659C4.17537 11.5878 4.45846 12.4323 5.01981 13.2912C5.24968 13.6445 5.31259 13.7098 5.24484 13.5308C5.14321 13.2646 5.23758 12.6234 5.4747 11.9822C5.82071 11.0386 6.77887 9.25046 8.3855 7.27847ZM15.925 8.81493C15.5161 6.87924 14.2918 5.66217 14.12 5.66217C13.9434 5.66217 13.5344 5.81944 13.2489 5.9985C12.6852 6.34934 12.2569 6.75825 11.6931 7.27605C12.719 8.56571 14.166 10.649 14.6668 12.1709C14.8314 12.6718 14.9015 13.1654 14.8459 13.4364C14.8047 13.6421 14.8047 13.6421 14.8797 13.5477C15.0273 13.3614 15.3612 12.7904 15.4943 12.4952C15.6734 12.1032 15.8573 11.5225 15.9444 11.0748C16.0484 10.5304 16.0387 9.36176 15.925 8.81493ZM7.24102 4.8395C8.39518 4.77901 9.89534 5.67427 10.0066 5.69604C10.0236 5.69846 10.2583 5.59442 10.5293 5.46134C12.0754 4.70884 12.8037 4.83708 13.1279 4.8516C11.5818 3.90069 9.43319 3.64179 7.46846 4.5685C6.90227 4.83708 6.88776 4.85644 7.24102 4.8395Z" fill="white"/>
</svg>
