<svg width="20" height="20" viewBox="0 0 20 20" fill="none" xmlns="http://www.w3.org/2000/svg">
<path d="M16 11.1617C16 12.8736 15.2613 13.9461 13.9319 13.9461C12.7581 13.9461 12.1356 13.2973 10.99 11.3848L10.4013 10.3986C10.2456 10.1642 10.1294 9.94484 10.0038 9.74234C9.62688 10.3761 9.12063 11.2986 9.12063 11.2986C7.86438 13.4848 7.15938 13.9461 6.17875 13.9461C4.81375 13.9461 4 12.8717 4 11.2105C4 8.52922 5.49625 5.99609 7.44813 5.99609C8.38938 5.99609 9.20688 6.45922 10.1631 7.67422C10.8588 6.73484 11.6275 5.99609 12.6119 5.99609C14.47 5.99609 16 8.35297 16 11.1617ZM9.38875 8.80484C8.58438 7.64047 8.05938 7.29547 7.43125 7.29547C6.27062 7.29547 5.2975 9.28484 5.2975 11.233C5.2975 12.1423 5.64438 12.6523 6.2275 12.6523C6.79375 12.6523 7.14625 12.2961 8.1625 10.7061C8.1625 10.7061 8.62563 9.97297 9.38875 8.80484ZM13.96 12.6523C14.5638 12.6523 14.8394 12.1367 14.8394 11.248C14.8394 8.91922 13.8213 7.02172 12.5294 7.02172C11.9069 7.02172 11.3838 7.50734 10.75 8.48422C10.9263 8.74297 11.1081 9.02797 11.2994 9.33547L12.0025 10.5055C13.1031 12.2698 13.3806 12.6523 13.96 12.6523Z" fill="white"/>
</svg>
