<svg width="20" height="20" viewBox="0 0 20 20" fill="none" xmlns="http://www.w3.org/2000/svg">
<path d="M15.5787 10.7229L13.3963 11.958L11.4389 10.0129L13.4119 8.05218L15.5787 9.2784C15.7065 9.35071 15.8129 9.45568 15.8869 9.58257C15.961 9.70947 16 9.85374 16 10.0007C16 10.1476 15.961 10.2918 15.8869 10.4187C15.8129 10.5456 15.7065 10.6506 15.5787 10.7229ZM4.06213 3.83226C4.0208 3.93258 3.99961 4.04005 3.99976 4.14856V15.8522C3.99976 15.973 4.02482 16.0855 4.06881 16.1863L10.2806 10.0123L4.06213 3.83226ZM10.8598 9.4371L12.674 7.63397L5.23878 3.4263C5.07941 3.33472 4.8938 3.2996 4.71199 3.32662L10.8598 9.4371ZM10.8598 10.5881L4.73426 16.6763C4.90021 16.6964 5.07506 16.6674 5.23878 16.5744L12.6585 12.3757L10.8598 10.5881Z" fill="white"/>
</svg>
