<svg width="20" height="20" viewBox="0 0 20 20" fill="none" xmlns="http://www.w3.org/2000/svg">
<path d="M4.02053 12.841H5.01277V8.61667H4.02053V12.841ZM4.51475 8.06253C4.82559 8.06253 5.06867 7.82347 5.06867 7.52449C5.06867 7.2255 4.82559 6.98242 4.51475 6.98242C4.2039 6.98242 3.96484 7.22148 3.96484 7.52449C3.96484 7.82749 4.20793 8.06253 4.51475 8.06253ZM8.31683 6.99449C6.63897 6.99449 5.58681 8.13834 5.58681 9.9676C5.58681 11.7969 6.63897 12.9367 8.31683 12.9367C9.9947 12.9367 11.0428 11.7969 11.0428 9.9676C11.0428 8.13834 9.99068 6.99449 8.31683 6.99449ZM8.31683 7.87133C9.34104 7.87133 9.9947 8.68443 9.9947 9.9676C9.9947 11.2508 9.34104 12.0598 8.31683 12.0598C7.29262 12.0598 6.63897 11.2467 6.63897 9.9676C6.63897 8.68845 7.2886 7.87133 8.31683 7.87133ZM11.4615 11.223C11.5053 12.2832 12.3741 12.9367 13.6973 12.9367C15.0882 12.9367 15.9648 12.2513 15.9648 11.1593C15.9648 10.3024 15.4706 9.82023 14.3031 9.55321L13.6416 9.40182C12.9363 9.23454 12.6453 9.01136 12.6453 8.62874C12.6453 8.15041 13.0836 7.83173 13.7333 7.83173C14.3829 7.83173 14.8411 8.15464 14.889 8.69247H15.8693C15.8454 7.68012 15.0086 6.9947 13.7413 6.9947C12.474 6.9947 11.6012 7.68414 11.6012 8.70433C11.6012 9.52526 12.1033 10.0354 13.1635 10.2784L13.9088 10.4538C14.634 10.6251 14.929 10.8643 14.929 11.2787C14.929 11.7571 14.4468 12.0997 13.7534 12.0997C13.0599 12.0997 12.5219 11.753 12.4581 11.2228L11.4615 11.223Z" fill="white"/>
</svg>
