<svg width="20" height="20" viewBox="0 0 20 20" fill="none" xmlns="http://www.w3.org/2000/svg">
<path d="M7.7645 8.3765H7.412V8.847H7.765C7.953 8.847 8.0475 8.753 8.0475 8.6115C8.047 8.447 7.9295 8.3765 7.7645 8.3765ZM6.1645 8.5175C6.1645 8.4 6.0705 8.353 5.929 8.353H5.5765V8.706H5.906C6.0705 8.6825 6.1645 8.6355 6.1645 8.5175ZM9.2705 9.0825H9.694L9.4825 8.541L9.2705 9.0825ZM5.9765 9.0825H5.553V9.4355H5.9765C6.141 9.4355 6.2355 9.365 6.2355 9.2475C6.2355 9.13 6.141 9.0825 5.9765 9.0825ZM4 4V16H16V4H4ZM8.212 5.506H9.9295V5.9765H9.3415V7.459H8.8V5.9765H8.212V5.506ZM8.094 5.506V5.953H7.059V6.259H8V6.6825H7.059V6.9885H8.118V7.459H6.541L6.5175 5.506H8.094ZM6.7765 9.3175C6.7765 9.647 6.494 9.8585 6.047 9.8585H5.0355V7.906H6.047C6.2825 7.906 6.4705 7.9765 6.588 8.0705C6.659 8.141 6.706 8.259 6.706 8.4C6.706 8.6355 6.5885 8.753 6.4 8.847C6.6355 8.9175 6.7765 9.059 6.7765 9.3175ZM5.341 6.8235C5.435 6.941 5.529 7.0115 5.647 7.0115C5.788 7.0115 5.859 6.9175 5.859 6.729V5.4825H6.4V6.7295C6.4 6.965 6.3295 7.153 6.212 7.2705C6.0945 7.388 5.906 7.459 5.6705 7.459C5.3175 7.4825 5.1295 7.341 4.9885 7.153L5.341 6.8235ZM9.5295 14.494H5.0355V13.741H9.5295V14.494ZM9.9765 9.8825L9.8355 9.5295H9.0825L8.9415 9.8825H8.3765L8.3865 9.859H8.047L7.647 9.271H7.412V9.859H6.8705V7.906H7.788C8.094 7.906 8.282 7.9765 8.4235 8.118C8.541 8.2355 8.588 8.377 8.588 8.565C8.588 8.871 8.4235 9.059 8.188 9.177L8.4905 9.616L9.223 7.9065H9.7405L10.564 9.883L9.9765 9.8825ZM11.1765 9.859H10.6355V7.906H11.1765V9.859ZM13.153 9.859H12.6825L11.859 8.8V9.8825H11.318V7.906H11.812L12.612 8.9415V7.906H13.153V9.859ZM14.1175 9.8825C13.9519 9.89534 13.7854 9.87487 13.6278 9.82232C13.4702 9.76976 13.3248 9.68618 13.2 9.5765L13.506 9.2235C13.694 9.388 13.906 9.459 14.1415 9.459C14.2825 9.459 14.377 9.412 14.377 9.318C14.377 9.224 14.3065 9.2005 14.0475 9.13C13.624 9.036 13.318 8.918 13.318 8.518C13.318 8.165 13.6005 7.8825 14.071 7.8825C14.4005 7.8825 14.659 7.9765 14.871 8.1415L14.5885 8.518C14.4 8.4 14.212 8.3295 14.047 8.3295C13.906 8.3295 13.859 8.3765 13.859 8.447C13.859 8.541 13.9295 8.5645 14.1885 8.635C14.6355 8.729 14.918 8.8705 14.918 9.247C14.9175 9.647 14.612 9.8825 14.1175 9.8825Z" fill="white"/>
</svg>
