<svg width="20" height="20" viewBox="0 0 20 20" fill="none" xmlns="http://www.w3.org/2000/svg">
<path d="M11.088 16H12.925C14.613 16 16 14.613 16 12.925V7.075C16 5.3875 14.613 4 12.925 4H11.05C11.013 4 10.975 4.037 10.975 4.075V15.925C10.9745 15.963 11.0125 16 11.088 16ZM13.375 9.4005C14.0505 9.4005 14.5745 9.963 14.5745 10.5995C14.5745 11.2755 14.012 11.7995 13.375 11.7995C12.7 11.7995 12.175 11.275 12.175 10.5995C12.1375 9.925 12.7 9.4005 13.375 9.4005ZM9.7 4H7.075C5.3875 4 4 5.3875 4 7.075V12.925C4 14.613 5.3875 16 7.075 16H9.7C9.737 16 9.775 15.963 9.775 15.9255V4.075C9.7755 4.037 9.7375 4 9.7 4ZM8.838 15.0255H7.075C5.912 15.0255 4.9745 14.088 4.9745 12.925V7.075C4.9745 5.912 5.912 4.9745 7.075 4.9745H8.8L8.838 15.0255ZM5.875 7.5995C5.875 8.237 6.3625 8.7245 7 8.7245C7.6375 8.7245 8.125 8.237 8.125 7.5995C8.125 6.963 7.6375 6.4745 7 6.4745C6.3625 6.4745 5.875 6.963 5.875 7.5995Z" fill="white"/>
</svg>
