<svg width="20" height="20" viewBox="0 0 20 20" fill="none" xmlns="http://www.w3.org/2000/svg">
<path fill-rule="evenodd" clip-rule="evenodd" d="M9.99996 7.10344C7.98823 7.10344 6.69101 7.38011 5.87215 7.68746C5.0142 8.00948 4.62065 9.00189 4.62065 10.3171V10.9163C4.62065 12.025 5.49274 12.8965 6.53535 12.8965H7.5756C7.86045 12.8965 8.13694 12.7806 8.34332 12.5689C9.2564 11.6322 10.7435 11.6322 11.6566 12.5689C11.863 12.7806 12.1395 12.8965 12.4243 12.8965H13.4646C14.5072 12.8965 15.3793 12.025 15.3793 10.9163V10.3171C15.3793 9.00189 14.9857 8.00948 14.1278 7.68746C13.3089 7.38011 12.0117 7.10344 9.99996 7.10344ZM5.43593 6.52525C6.42709 6.15323 7.87887 5.86206 9.99996 5.86206C12.121 5.86206 13.5728 6.15323 14.564 6.52525C16.2054 7.14131 16.6207 8.90222 16.6207 10.3171V10.9163C16.6207 12.6805 15.2225 14.1379 13.4646 14.1379H12.4243C11.7999 14.1379 11.2043 13.8833 10.7677 13.4354C10.3418 12.9985 9.6581 12.9985 9.23224 13.4354C8.79564 13.8833 8.20006 14.1379 7.5756 14.1379H6.53535C4.77745 14.1379 3.37927 12.6805 3.37927 10.9163V10.3171C3.37927 8.90222 3.79457 7.14131 5.43593 6.52525Z" fill="white"/>
</svg>
