<svg width="20" height="20" viewBox="0 0 20 20" fill="none" xmlns="http://www.w3.org/2000/svg">
<path d="M11.8157 10.9657C11.8157 11.4473 11.6244 11.9091 11.2839 12.2497C10.9434 12.5902 10.4816 12.7815 9.99999 12.7815C9.51842 12.7815 9.05658 12.5902 8.71606 12.2497C8.37554 11.9091 8.18424 11.4473 8.18424 10.9657C8.18424 10.4842 8.37554 10.0223 8.71606 9.68179C9.05658 9.34127 9.51842 9.14997 9.99999 9.14997C10.4816 9.14997 10.9434 9.34127 11.2839 9.68179C11.6244 10.0223 11.8157 10.4842 11.8157 10.9657ZM9.99999 4.00021C13.1696 4.02505 16.7733 6.25955 17.0974 10.4707H12.8058C12.8058 10.4707 12.2528 8.1445 9.99999 8.15988C7.74716 8.17526 7.19415 10.4707 7.19415 10.4707H2.90259C3.11137 6.33408 6.65475 3.97419 9.99999 4.00021ZM10.0296 15.9996C7.66613 16.0061 5.45824 14.2222 4.55333 11.4608H7.19415C7.19415 11.4608 7.76372 13.7609 10.0171 13.7455C12.2706 13.7302 12.8064 11.4608 12.8064 11.4608H15.4472C14.8588 14.3825 12.3924 15.9936 10.0296 15.9996Z" fill="white"/>
</svg>
