<svg width="20" height="20" viewBox="0 0 20 20" fill="none" xmlns="http://www.w3.org/2000/svg">
<path d="M6.999 4.80344L4 9.99994L6.999 15.1964H13.001L16 9.99994L13.001 4.80344H6.999ZM8.9825 7.55994L10.33 8.94994L11.129 9.74744L11.13 9.74644L12.335 10.9279C12.235 10.9979 12.142 11.0539 12.0535 11.0999C11.9736 11.142 11.8907 11.1783 11.8055 11.2084C11.7363 11.2327 11.6652 11.2512 11.593 11.2639C11.5275 11.2754 11.468 11.2809 11.414 11.2809C11.349 11.2809 11.293 11.2739 11.245 11.2639C11.2039 11.2558 11.1638 11.2437 11.125 11.2279C11.0895 11.2132 11.0559 11.1942 11.025 11.1714L10.494 10.6254L8.9745 9.10494L8.4245 9.63144L6.8895 11.1674C6.85846 11.1898 6.8249 11.2084 6.7895 11.2229C6.75128 11.2389 6.71159 11.2512 6.671 11.2594C6.623 11.2694 6.5665 11.2759 6.502 11.2759C6.448 11.2759 6.3885 11.2714 6.323 11.2604C6.25073 11.2472 6.17966 11.2282 6.1105 11.2034C6.02533 11.1733 5.94244 11.137 5.8625 11.0949C5.76515 11.0437 5.67113 10.9865 5.581 10.9234L8.9825 7.55994ZM11.3425 7.95244L13.632 10.2514L14.323 10.9279C14.2327 10.9911 14.1385 11.0486 14.041 11.0999C13.9614 11.142 13.8788 11.1783 13.794 11.2084C13.7246 11.2327 13.6534 11.2513 13.581 11.2639C13.516 11.2754 13.4555 11.2809 13.401 11.2809C13.3365 11.2809 13.2805 11.2739 13.2325 11.2639C13.1648 11.2501 13.0998 11.2255 13.04 11.1909C13.0235 11.1809 13.015 11.1729 13.0135 11.1709L12.3975 10.5619L11.342 9.50644L11.175 9.67344L10.395 8.89994L11.343 7.95144L11.3425 7.95244ZM8.3595 10.0124V11.2769C8.29978 11.2761 8.24024 11.2703 8.1815 11.2594C8.10974 11.2457 8.03919 11.2263 7.9705 11.2014C7.88671 11.1717 7.80516 11.1359 7.7265 11.0944C7.63055 11.0436 7.53787 10.9868 7.449 10.9244L8.359 10.0119L8.3595 10.0124Z" fill="white"/>
</svg>
