<svg width="20" height="20" viewBox="0 0 20 20" fill="none" xmlns="http://www.w3.org/2000/svg">
<path d="M11.7619 15.9141C11.7619 15.9094 12.0561 15.3786 12.4158 14.7345C12.7754 14.0904 13.077 13.5499 13.0859 13.5333C13.0982 13.5106 14.395 15.7812 14.437 15.8992C14.4421 15.9135 13.9278 15.9226 13.1036 15.9226C12.3657 15.9226 11.7619 15.9187 11.7619 15.9141ZM9.82562 15.7187C9.80514 15.6867 8.3155 13.1159 6.51534 10.0059C4.71518 6.89592 3.20454 4.28679 3.15838 4.20767L3.07446 4.06399L7.73902 4.07673L9.96489 7.92029C11.1891 10.0342 12.1862 11.7812 12.1806 11.8024C12.1726 11.8327 9.89887 15.7363 9.87035 15.7687C9.86628 15.7734 9.84619 15.7509 9.8257 15.7188L9.82562 15.7187ZM11.9372 8.65902C11.3243 7.58896 10.8255 6.70439 10.8286 6.69331C10.8318 6.68222 11.1698 6.09209 11.5798 5.38188L12.3253 4.09062L13.3018 4.08992C13.8389 4.08953 14.8614 4.08178 15.5739 4.07269L16.8694 4.05615L14.9732 7.33064C13.9302 9.13163 13.0712 10.605 13.0642 10.6048C13.0571 10.6047 12.55 9.72906 11.9371 8.659L11.9372 8.65902Z" fill="white"/>
</svg>
