<svg width="20" height="20" viewBox="0 0 20 20" fill="none" xmlns="http://www.w3.org/2000/svg">
<path d="M9.26074 14.2678L9.27832 14.3029C9.29423 14.3351 9.30982 14.3671 9.3252 14.3986C9.40631 14.5648 9.51588 14.756 9.73828 14.8683L9.74219 14.8703C9.90826 14.949 10.0723 14.9713 10.2383 14.9465C10.2973 15.067 10.3926 15.171 10.5215 15.2365C10.8363 15.3963 11.2209 15.2711 11.3809 14.9562L12.5654 12.6242L13.1367 13.7463L10.0117 16.799L7.34277 14.2014V10.5119L9.26074 14.2678ZM9.61523 5.49921C9.85945 5.26306 10.2089 5.24799 10.4805 5.44745C10.5012 5.46487 10.5189 5.48415 10.5361 5.50311H10.5352C10.6046 5.57888 10.6505 5.66544 10.6904 5.76385L12.1699 8.67108C12.1965 8.72062 12.1963 8.72138 12.1963 8.74139H12.2148L12.2217 8.71893L12.5049 8.16522V8.16425L13.377 6.46405L13.7432 5.75214C13.7802 5.67767 13.8209 5.61172 13.876 5.54901L13.8916 5.53046C14.0017 5.40707 14.1667 5.36003 14.3252 5.34296C14.4892 5.33686 14.6565 5.4004 14.7793 5.50702C14.8966 5.61941 14.9737 5.76203 14.9775 5.92694V5.95233L14.9785 5.97577C14.9805 6.12637 14.9032 6.25951 14.835 6.38885L12.9268 10.0617C12.9096 10.1066 12.9208 10.1426 12.9395 10.1857L14.7715 13.7629L14.7812 13.7844C14.8429 13.9137 14.8505 14.0796 14.8076 14.216C14.7399 14.387 14.6267 14.5166 14.458 14.592C14.2865 14.6567 14.1005 14.6635 13.9316 14.5881C13.8521 14.5502 13.7875 14.5014 13.7285 14.4357L13.7109 14.4172C13.6547 14.3513 13.6192 14.2788 13.582 14.2014L12.1963 11.4826L10.6924 14.3996C10.6208 14.5506 10.5154 14.6579 10.3594 14.7219C10.248 14.7613 10.1426 14.7721 10.0371 14.759C10.0172 14.7569 9.99742 14.7542 9.97754 14.7502C9.96481 14.7474 9.95221 14.7441 9.93945 14.7404C9.9011 14.7301 9.86212 14.7178 9.82324 14.6994C9.75558 14.6652 9.70323 14.6191 9.65723 14.5676C9.59164 14.4949 9.54086 14.4093 9.49512 14.3156C9.47944 14.2835 9.4641 14.251 9.44824 14.2189L9.42969 14.1818L6.62207 8.68671C6.61899 10.6584 6.61328 12.6301 6.61328 14.6017H5.35742L5.35645 11.1379L5.35449 7.6994V6.13104C5.35347 5.92306 5.40413 5.75633 5.54785 5.60175C5.68769 5.46687 5.862 5.43336 6.0498 5.43573C6.20522 5.44064 6.34538 5.51502 6.45605 5.62225C6.51661 5.68721 6.55221 5.75749 6.58691 5.83807C6.61888 5.91217 6.65423 5.98474 6.69043 6.05682L6.69922 6.07343L9.37988 11.3312L9.44629 11.4641V10.1125L9.44922 6.00507C9.44839 5.81061 9.47789 5.64773 9.61523 5.49921ZM17 9.97675L14.6475 12.2726L13.7393 10.4963L14.9863 8.0246L17 9.97675ZM5.16699 12.0851L3 9.97675L5.16504 7.883L5.16699 12.0851ZM10.7227 11.6105L11.5039 10.1183L10.7227 8.57831V11.6105ZM13.2344 6.32635L12.3994 7.95526L11.2627 5.716C11.1592 5.51231 10.94 5.40768 10.7256 5.43768C10.6908 5.39093 10.6515 5.34392 10.6016 5.30194L10.5977 5.29803L10.5918 5.29413L10.5762 5.28339C10.2357 5.04399 9.79305 5.0643 9.48438 5.36249L9.47656 5.3703C9.29232 5.56932 9.25893 5.789 9.25977 6.00507L9.25684 9.73944L7.27441 5.84491L10.0117 3.20135L13.2344 6.32635Z" fill="white"/>
</svg>
