<svg width="20" height="20" viewBox="0 0 20 20" fill="none" xmlns="http://www.w3.org/2000/svg">
<path d="M9.9998 3C7.7213 3 5.65601 3.93036 4.16296 5.42334L5.15189 6.41227C6.39311 5.17105 8.10881 4.40589 9.99968 4.40589C11.8906 4.40589 13.6066 5.17134 14.8475 6.41227L15.8364 5.42334C14.3431 3.93036 12.2784 3 9.9998 3ZM9.9998 5.52017C8.41949 5.52017 6.98484 6.16989 5.94721 7.20752L6.93613 8.19645C7.7213 7.41128 8.80741 6.92612 9.9998 6.92612C11.1918 6.92612 12.2779 7.41129 13.0635 8.19645L14.0524 7.20752C13.0151 6.17024 11.5802 5.52017 9.9998 5.52017ZM5.49151 7.71112C4.71596 8.69065 4.25991 9.9223 4.25991 11.2601C4.25991 14.4211 6.83918 17 9.9998 17C13.1605 17 15.7397 14.4211 15.7397 11.2601C15.7397 9.9223 15.274 8.69065 14.5081 7.71112L13.5089 8.71031C14.0324 9.42769 14.3429 10.3102 14.3429 11.2601C14.3429 13.6549 12.3946 15.6044 9.9998 15.6044C7.6051 15.6044 5.65554 13.6549 5.65554 11.2601C5.65554 10.3102 5.96572 9.42769 6.48953 8.71031L5.49151 7.71112ZM9.9998 8.04152C9.11733 8.04152 8.31233 8.40105 7.72118 8.98261L8.71011 9.97154C9.42288 9.26016 10.5771 9.26016 11.2895 9.97154L12.2785 8.98261C11.6745 8.37822 10.8541 8.03901 9.9998 8.04152ZM9.9998 10.3099C9.47497 10.3099 9.04961 10.7352 9.04961 11.2601C9.04961 11.7847 9.47498 12.2103 9.9998 12.2103C10.5247 12.2103 10.95 11.7846 10.95 11.2601C10.9489 10.7356 10.5243 10.3106 9.9998 10.3099Z" fill="white"/>
</svg>
