<svg width="20" height="20" viewBox="0 0 20 20" fill="none" xmlns="http://www.w3.org/2000/svg">
<path d="M10 4C6.686 4 4 6.686 4 10C4 13.314 6.686 16 10 16C13.314 16 16 13.314 16 10C16 6.686 13.314 4 10 4ZM10 4.667C10.412 4.667 10.818 4.7625 11.1865 4.947C11.2306 4.96894 11.2677 5.00273 11.2937 5.0446C11.3197 5.08646 11.3334 5.13474 11.3335 5.184V5.9435C10.4508 5.79413 9.54923 5.79413 8.6665 5.9435V5.184C8.6665 5.084 8.7235 4.992 8.8135 4.947C9.18189 4.7628 9.58812 4.66693 10 4.667ZM12.5715 6.9645C12.6285 6.986 12.6665 7.0405 12.6665 7.1015V8.1625C11.8191 7.76516 10.9223 7.48316 10 7.324C9.0245 7.496 8.103 7.7955 7.3335 8.1625V7.1015C7.3335 7.0405 7.3715 6.986 7.4285 6.9645C8.23424 6.66222 9.08695 6.5043 9.9475 6.498C10.9105 6.486 11.81 6.683 12.5715 6.9645ZM10 8C10 8 11.876 8.3125 13.2055 9.241C13.278 9.2915 13.2955 9.3905 13.2475 9.465C12.6955 10.335 12.2625 11.426 11.9495 12.384C12.5755 11.744 13.0695 11.3415 13.9995 11.3335C14.4495 11.3335 14.7985 11.4345 15.092 11.5915C14.21 14.309 11.7515 15.36 10 15.3335C7.8315 15.3435 5.84 13.9825 5.043 11.972C5.443 11.6175 5.913 11.3335 6.6665 11.3335C7.1265 11.3335 7.4795 11.4395 7.7765 11.602C7.4995 10.8645 7.1585 10.105 6.7525 9.465C6.72935 9.42943 6.72079 9.3863 6.72861 9.34458C6.73644 9.30287 6.76003 9.26577 6.7945 9.241C8.124 8.3125 10 8 10 8ZM10 8.6665C9.3335 9.6665 10 12.6665 10 12.6665C10 12.6665 10.6665 9.6665 10 8.6665Z" fill="white"/>
</svg>
