<svg width="20" height="20" viewBox="0 0 20 20" fill="none" xmlns="http://www.w3.org/2000/svg">
<path d="M10.5419 5.50477L12.7584 6.78397C12.838 6.82888 12.8409 6.95342 12.7584 6.99834L10.1246 8.51944C10.0871 8.54149 10.0443 8.55312 10.0008 8.55312C9.95722 8.55312 9.91447 8.54149 9.87692 8.51944L7.24323 6.99834C7.16215 6.95488 7.16069 6.82742 7.24323 6.78397L9.45826 5.50472V3L3.80261 6.26532V12.7959L5.97127 11.5443V8.98593C5.96981 8.89464 6.07703 8.82948 6.15677 8.87872L8.7904 10.3998C8.82816 10.4215 8.85956 10.4527 8.88143 10.4903C8.9033 10.528 8.91488 10.5707 8.915 10.6143V13.655C8.91646 13.7463 8.80925 13.8114 8.72956 13.7622L6.51313 12.483L4.34441 13.7347L10.0001 17L15.6557 13.7347L13.487 12.483L11.2706 13.7622C11.1923 13.81 11.0822 13.7477 11.0851 13.655V10.6143C11.0851 10.523 11.1359 10.4418 11.2097 10.3998L13.8434 8.87872C13.9216 8.83088 14.0317 8.89178 14.0289 8.98593V11.5443L16.1975 12.7959V6.26532L10.5419 3V5.50477Z" fill="white"/>
</svg>
