<svg width="20" height="20" viewBox="0 0 20 20" fill="none" xmlns="http://www.w3.org/2000/svg">
<path d="M5.45541 5.68515C5.31133 5.68515 5.14916 5.69682 4.96541 5.73649C4.77117 5.77732 4.21876 5.90157 3.76726 6.33556C2.76511 7.22922 3.02061 8.64962 3.05211 8.8637C3.09002 9.12386 3.20552 9.84777 3.75793 10.4783C4.77817 11.7272 6.9738 11.6987 6.9738 11.6987C6.9738 11.6987 7.2433 12.3421 7.65513 12.9347C8.21221 13.6715 8.78445 14.246 9.34094 14.3155C10.7444 14.3155 13.5479 14.3131 13.5479 14.3131C13.5479 14.3131 13.815 14.3155 14.1779 14.0833C14.49 13.8943 14.7688 13.5624 14.7688 13.5624C14.7688 13.5624 15.0558 13.255 15.4571 12.5532C15.5796 12.3374 15.6817 12.128 15.7709 11.9302C15.7709 11.9302 17 9.32219 17 6.78356C16.9755 6.01473 16.7859 5.8794 16.7416 5.83449C16.6506 5.74349 16.5281 5.74524 16.5281 5.74524C16.5281 5.74524 13.9177 5.89223 12.5661 5.92373C12.2698 5.93015 11.9758 5.93715 11.6842 5.93948V8.54928L11.3143 8.3737C11.3143 7.56288 11.312 5.94123 11.312 5.94123C10.6663 5.95057 9.32577 5.89223 9.32577 5.89223C9.32577 5.89223 6.1764 5.73474 5.8334 5.70324C5.72432 5.69682 5.59949 5.68515 5.45541 5.68515ZM5.66191 6.75381H5.72665C5.72665 6.75381 5.88474 8.07737 6.07665 8.85203C6.23706 9.50244 6.62848 10.5833 6.62848 10.5833C6.62848 10.5833 6.04748 10.5139 5.67124 10.3803C5.09375 10.1913 4.84933 9.96385 4.84933 9.96385C4.84933 9.96385 4.4235 9.66577 4.21001 9.07719C3.84251 8.09254 4.17909 7.49171 4.17909 7.49171C4.17909 7.49171 4.36576 6.99064 5.03658 6.82381C5.26699 6.76197 5.53999 6.75381 5.66191 6.75381ZM10.521 8.24362C10.6727 8.24537 10.8179 8.3177 10.8179 8.3177L11.3242 8.56387L11.0157 9.19094C10.9425 9.18978 10.8705 9.20868 10.8073 9.24561C10.7442 9.28253 10.6924 9.33605 10.6575 9.40036C10.6202 9.46981 10.6043 9.54874 10.6118 9.62721C10.6193 9.70568 10.6498 9.78018 10.6995 9.84135L10.1518 10.9637C10.0626 10.965 9.97642 10.9959 9.90674 11.0516C9.83706 11.1072 9.78782 11.1844 9.76677 11.2711C9.74667 11.3572 9.75562 11.4476 9.79223 11.5281C9.82885 11.6086 9.89106 11.6747 9.96918 11.7162C10.054 11.7596 10.1515 11.7714 10.2442 11.7494C10.3369 11.7274 10.4187 11.673 10.4749 11.596C10.5298 11.5192 10.5558 11.4255 10.5485 11.3314C10.5411 11.2373 10.5008 11.1488 10.4347 11.0815L10.969 9.98835C11.0154 9.99277 11.0622 9.98882 11.1073 9.97668C11.1655 9.96275 11.2196 9.93538 11.2653 9.89677C11.4691 9.98347 11.6671 10.0832 11.858 10.1954C11.9273 10.2343 11.9849 10.2911 12.0248 10.3599C12.0674 10.4824 11.9822 10.6918 11.9822 10.6918C11.9315 10.861 11.5727 11.596 11.5727 11.596C11.4858 11.5937 11.4005 11.6196 11.3294 11.6697C11.2584 11.7198 11.2054 11.7916 11.1784 11.8742C11.1577 11.9406 11.1548 12.0112 11.1699 12.079C11.1851 12.1469 11.2177 12.2096 11.2647 12.2608C11.3116 12.3121 11.3712 12.3501 11.4374 12.3711C11.5037 12.3922 11.5743 12.3955 11.6422 12.3807C11.7101 12.3659 11.7729 12.3335 11.8244 12.2869C11.8759 12.2402 11.9143 12.1808 11.9356 12.1147C11.957 12.0485 11.9607 11.9779 11.9462 11.91C11.9318 11.842 11.8997 11.779 11.8533 11.7272C11.8959 11.645 11.9356 11.5627 11.9782 11.4758C12.089 11.2442 12.2786 10.7992 12.2786 10.7992C12.299 10.7607 12.4057 10.5693 12.3387 10.3243C12.2832 10.0706 12.0587 9.95218 12.0587 9.95218C11.7862 9.7766 11.4077 9.61385 11.4077 9.61385C11.4077 9.61385 11.4077 9.52285 11.3832 9.45635C11.3644 9.40402 11.335 9.35615 11.2968 9.31577L11.5978 8.69628L13.2836 9.51352C13.2836 9.51352 13.5636 9.64069 13.6237 9.8746C13.6663 10.0391 13.6126 10.1861 13.5835 10.2578C13.4435 10.6003 12.3585 12.7761 12.3585 12.7761C12.3585 12.7761 12.2232 13.0992 11.9222 13.1191C11.8448 13.1247 11.767 13.1158 11.6929 13.0928L11.5751 13.0461L9.06094 11.8212C9.06094 11.8212 8.8177 11.694 8.77511 11.4735C8.7267 11.2927 8.83578 11.0704 8.83578 11.0704L10.045 8.57845C10.045 8.57845 10.1518 8.36262 10.3168 8.28854C10.381 8.25931 10.4505 8.244 10.521 8.24362Z" fill="white"/>
</svg>
