<svg width="20" height="20" viewBox="0 0 20 20" fill="none" xmlns="http://www.w3.org/2000/svg">
<path d="M11.1725 9.31114C11.1852 9.32611 11.1818 9.33213 11.1623 9.32918C10.6247 9.24884 10.0864 9.24589 9.5474 9.32033C9.53537 9.32192 9.52629 9.31749 9.52016 9.30705C9.18996 8.73447 9.42451 8.24495 9.72237 7.73603C9.86353 7.49479 9.9467 7.33718 9.97189 7.2632C10.1578 6.71377 9.91368 6.39718 9.54059 6.00638C9.53423 5.99957 9.53526 5.99821 9.54365 6.0023C10.0202 6.22561 10.492 6.63139 10.618 7.13894C10.7092 7.50693 10.6292 7.91611 10.6902 8.3001C10.748 8.66276 10.9088 8.99977 11.1725 9.31114ZM11.9984 8.34742C12.5046 7.87765 13.1643 7.61791 13.0377 6.81964C13.0135 6.66645 12.9318 6.48977 12.8671 6.33386C12.859 6.3148 12.8619 6.31287 12.876 6.32808C13.3005 6.78968 13.6188 7.46847 13.3747 8.09109C13.2937 8.29761 13.2171 8.50571 13.1449 8.71541C12.9897 9.16612 13.0045 9.61127 13.1895 10.0509C13.1901 10.0524 13.1902 10.054 13.1897 10.0556C13.1893 10.0571 13.1885 10.0585 13.1872 10.0596C13.186 10.0606 13.1845 10.0613 13.1829 10.0614C13.1813 10.0615 13.1797 10.0612 13.1783 10.0604C12.6992 9.7724 12.1885 9.56009 11.6461 9.42347C11.6399 9.42185 11.6344 9.41845 11.6302 9.41373C11.6261 9.409 11.6234 9.40315 11.6226 9.39692C11.5711 8.97753 11.6963 8.62769 11.9984 8.34742ZM7.15189 8.38691C7.25266 7.89501 7.18355 7.45996 6.76552 7.14541C6.70674 7.10116 6.5573 7.02967 6.3172 6.93095C6.29337 6.92097 6.29439 6.91677 6.32026 6.91836C6.64774 6.93833 6.95502 7.02014 7.2421 7.1638C7.76192 7.42353 7.88719 7.80888 8.10506 8.3481C8.29864 8.82763 8.62918 9.17531 9.09669 9.39113C9.11257 9.3984 9.112 9.40396 9.09498 9.40781C8.55645 9.53059 8.04877 9.73075 7.57197 10.0083C7.56672 10.0113 7.5607 10.0127 7.55469 10.0123C7.54868 10.0119 7.54296 10.0096 7.53827 10.0059C7.14883 9.70125 7.02662 9.26722 7.09981 8.77907C7.11955 8.64699 7.125 8.51899 7.15189 8.38691ZM15.3093 9.07897C15.7746 8.80187 15.8471 8.39542 15.8117 7.88684C15.8117 7.88513 15.8123 7.88348 15.8134 7.88216C15.8145 7.88084 15.816 7.87993 15.8176 7.87957C15.8193 7.87921 15.821 7.87944 15.8226 7.8802C15.8241 7.88096 15.8253 7.88222 15.826 7.88377C15.9809 8.30078 16.0602 8.84443 15.9074 9.26926C15.7344 9.74959 15.2477 10.0389 14.9913 10.4716C14.816 10.7674 14.7203 11.0932 14.7425 11.4398C14.7427 11.4426 14.7421 11.4455 14.7405 11.448C14.739 11.4504 14.7367 11.4523 14.734 11.4533C14.7313 11.4544 14.7284 11.4545 14.7256 11.4537C14.7228 11.4529 14.7204 11.4513 14.7186 11.4489C14.38 11.0066 13.9852 10.6222 13.534 10.2956C13.5291 10.292 13.5254 10.287 13.5235 10.2813C13.5215 10.2756 13.5214 10.2694 13.5231 10.2636C13.7331 9.5256 14.3394 9.39284 15.0189 9.20731C15.111 9.18212 15.2078 9.13934 15.3093 9.07897ZM7.20262 10.2425C6.73557 10.5734 6.37472 10.9431 5.99925 11.3717C5.99153 11.3805 5.98211 11.3832 5.97099 11.3798C5.2551 11.1671 5.10327 10.5135 4.9763 9.8364C4.96041 9.75175 4.91457 9.64122 4.83877 9.50483C4.58822 9.0548 4.21956 8.99455 3.73548 8.96527C3.73324 8.9651 3.73112 8.96414 3.72952 8.96256C3.72791 8.96098 3.72692 8.95888 3.72671 8.95663C3.72651 8.95439 3.72711 8.95214 3.7284 8.9503C3.7297 8.94845 3.7316 8.94712 3.73378 8.94655C4.21751 8.84034 4.7009 8.76171 5.15774 8.9891C5.55603 9.18722 5.82291 9.62636 6.16503 9.87759C6.46618 10.0984 6.81125 10.2172 7.20023 10.234C7.20118 10.2341 7.20207 10.2345 7.20279 10.2351C7.20351 10.2357 7.20404 10.2365 7.20429 10.2375C7.20455 10.2384 7.20453 10.2393 7.20423 10.2402C7.20393 10.2411 7.20337 10.2419 7.20262 10.2425ZM17.9883 10.3926C17.9886 10.3911 17.9895 10.3897 17.9908 10.3888C17.992 10.3879 17.9936 10.3876 17.9951 10.3879C17.9967 10.3881 17.998 10.389 17.9989 10.3903C17.9998 10.3916 18.0002 10.3931 17.9999 10.3947C17.9897 10.7689 17.9015 11.125 17.7354 11.4629C17.4587 12.0249 16.7635 12.1134 16.2842 12.4664C15.9903 12.6832 15.7789 12.969 15.65 13.324C15.6496 13.3251 15.6488 13.326 15.6478 13.3267C15.6468 13.3273 15.6456 13.3277 15.6445 13.3276C15.6433 13.3276 15.6421 13.3272 15.6412 13.3265C15.6402 13.3257 15.6395 13.3247 15.6391 13.3236C15.4914 12.7939 15.2728 12.2953 14.9835 11.8278C14.9757 11.8152 14.9718 11.8005 14.9721 11.7857C14.9725 11.7708 14.9771 11.7564 14.9855 11.7441C15.2919 11.2924 15.8018 11.21 16.3125 11.2747C16.3983 11.2855 16.496 11.277 16.5875 11.293C17.3501 11.4265 17.7552 11.0949 17.9883 10.3926ZM5.0471 13.2382C5.04503 13.2455 5.04071 13.252 5.03475 13.2568C5.02878 13.2616 5.02145 13.2645 5.01374 13.2651C4.26347 13.3168 3.91386 12.796 3.54111 12.2251C3.29022 11.8404 2.84904 11.6205 2.37416 11.7465C2.3138 11.7624 2.19408 11.8033 2.01503 11.8694C1.99687 11.8759 1.99517 11.8731 2.00992 11.8608C2.33876 11.5878 2.80683 11.3472 3.23541 11.3356C3.6143 11.3254 3.90876 11.4969 4.33359 11.6883C4.78703 11.8925 5.2484 11.9122 5.71772 11.7475C5.71938 11.7469 5.72117 11.7469 5.72285 11.7474C5.72452 11.7479 5.726 11.7489 5.72708 11.7503C5.72816 11.7517 5.72878 11.7534 5.72888 11.7551C5.72897 11.7569 5.72852 11.7586 5.7276 11.7601C5.42848 12.219 5.20165 12.7117 5.0471 13.2382Z" fill="white"/>
</svg>
