<svg width="20" height="20" viewBox="0 0 20 20" fill="none" xmlns="http://www.w3.org/2000/svg">
<path d="M9.7855 9.7565H4C4.0002 10.0996 4.06806 10.4393 4.1997 10.7561C4.33134 11.0729 4.52417 11.3607 4.76716 11.6029C5.01015 11.8451 5.29853 12.037 5.61578 12.1676C5.93303 12.2982 6.27292 12.3649 6.616 12.364H7.681V13.3925C7.681 14.0839 7.95558 14.747 8.44437 15.2359C8.93315 15.7249 9.59612 15.9997 10.2875 16V10.259C10.2875 10.1257 10.2346 9.99792 10.1403 9.90368C10.0461 9.80944 9.91827 9.7565 9.785 9.7565H9.7855ZM12.647 6.8785H6.868C6.86813 7.56997 7.14291 8.23307 7.6319 8.72196C8.12088 9.21085 8.78404 9.4855 9.4755 9.4855H10.54V10.5145C10.5405 11.2058 10.8154 11.8687 11.3043 12.3575C11.7932 12.8463 12.4562 13.1211 13.1475 13.1215V7.379C13.1475 7.24626 13.0948 7.11896 13.0009 7.02509C12.907 6.93123 12.7797 6.8785 12.647 6.8785ZM15.5065 4H9.7275C9.7275 4.69155 10.0022 5.35478 10.4912 5.84378C10.9802 6.33278 11.6435 6.6075 12.335 6.6075H13.3995V7.636C13.4 8.326 13.674 8.98765 14.1615 9.47602C14.6489 9.96439 15.31 10.2396 16 10.2415V4.5025C16.0005 4.37062 15.949 4.24385 15.8566 4.14976C15.7642 4.05566 15.6384 4.00184 15.5065 4Z" fill="white"/>
</svg>
