<svg width="20" height="20" viewBox="0 0 20 20" fill="none" xmlns="http://www.w3.org/2000/svg">
<path d="M5.11909 16.6436C5.19247 16.9593 5.66777 17.1195 5.88764 16.8955C5.94259 16.8405 6.73068 15.4023 7.63276 13.7031C8.53108 12.011 9.27514 10.6144 9.29487 10.5937C9.30861 10.5754 16.5759 9.35712 16.6904 9.35254C16.7049 9.35177 16.7821 9.29698 16.8593 9.2334C17.0242 9.096 17.0428 8.93061 16.9238 8.67871C16.8275 8.468 16.4422 8.05562 16.1035 7.79004L15.8339 7.58008L12.7021 8.6748C10.9804 9.27477 9.55086 9.76014 9.52338 9.75098C9.49993 9.7343 12.0213 7.47278 13.4111 6.26562L13.5439 6.15039L12.6005 5.69238C12.0833 5.43602 11.639 5.23047 11.6162 5.23047C11.5843 5.23705 10.9406 6.146 10.1787 7.25488C9.07978 8.85312 8.77766 9.26054 8.7685 9.16894C8.75944 9.0813 9.30833 5.14292 9.4228 4.46973L9.44624 4.32324L8.46186 3.99414C7.91695 3.81552 7.45869 3.67346 7.44038 3.68262C7.42288 3.69942 7.51378 4.82315 7.64155 6.19238C7.77433 7.56623 7.88953 8.78913 7.90327 8.9082C7.91697 9.08192 7.91187 9.11862 7.86616 9.06836C7.83868 9.0363 7.15608 7.67568 6.35932 6.0498L4.90327 3.08691L4.66499 3.05957C4.22113 3.00928 3.61752 3.03197 3.38374 3.11426C3.09525 3.21502 2.96655 3.37587 3.00776 3.5957C3.03236 3.70776 3.69245 4.65634 5.19233 6.72363L7.34858 9.69141L7.03706 10.6572C6.86764 11.1839 6.35981 12.7229 5.91108 14.0693C5.31122 15.8601 5.10077 16.552 5.11909 16.6436Z" fill="white"/>
</svg>
