<svg width="20" height="20" viewBox="0 0 20 20" fill="none" xmlns="http://www.w3.org/2000/svg">
<path d="M8.13835 11.703L11.7029 5.26489C11.7517 5.17663 11.801 5.08872 11.8451 4.99749C11.885 4.91465 11.919 4.83101 11.9411 4.74065C11.9879 4.55054 11.9754 4.35238 11.9026 4.17091C11.8304 3.99036 11.7033 3.83969 11.5409 3.74186C11.3798 3.64438 11.1903 3.60478 11.0036 3.62963C10.8165 3.65471 10.6457 3.74251 10.5111 3.87976C10.4473 3.94498 10.3947 4.01749 10.3459 4.09501C10.2922 4.18036 10.2438 4.26879 10.1948 4.35705L9.96943 4.76416L9.74397 4.35705C9.69515 4.26867 9.64673 4.1803 9.59306 4.09501C9.54424 4.01749 9.49162 3.94498 9.42769 3.87976C9.29323 3.74251 9.12243 3.65477 8.93536 3.62951C8.74871 3.60473 8.55918 3.64436 8.39811 3.74186C8.23571 3.83969 8.10854 3.99036 8.03627 4.17091C7.96358 4.35232 7.95104 4.55054 7.99777 4.74065C8.01993 4.83106 8.05388 4.91471 8.0939 4.99749C8.13782 5.08872 8.18712 5.17657 8.23606 5.26489L8.96406 6.5799L6.1276 11.703H4.18387C4.08611 11.703 3.9884 11.7026 3.89069 11.7084C3.80191 11.7136 3.71546 11.725 3.62936 11.75C3.44806 11.8029 3.28974 11.9133 3.17535 12.0697C3.0616 12.2252 3 12.4156 3 12.611C3 12.8065 3.06166 12.9967 3.17535 13.1521C3.28968 13.3086 3.44806 13.419 3.6293 13.4718C3.71546 13.4969 3.80197 13.5081 3.89069 13.5135C3.9884 13.5193 4.08611 13.5188 4.18387 13.5188H11.824C11.834 13.4979 11.8584 13.4433 11.8824 13.3614C12.1244 12.536 11.5233 11.703 10.6954 11.703H8.13835ZM4.81592 13.8161L4.3538 14.6916C4.30608 14.7821 4.2579 14.8724 4.21473 14.966C4.17565 15.0511 4.1424 15.1369 4.12076 15.2297C4.07497 15.4249 4.08716 15.6283 4.15838 15.8147C4.22908 15.9999 4.35357 16.1548 4.51247 16.2551C4.67154 16.3554 4.85611 16.396 5.03822 16.3703C5.22133 16.3446 5.38852 16.2544 5.52023 16.1135C5.58277 16.0465 5.63422 15.9721 5.68193 15.8926C5.73455 15.8049 5.78192 15.7141 5.82981 15.6235L6.5 14.3538C6.44773 14.2669 5.94741 13.4961 4.81592 13.8161ZM16.8245 12.0628C16.712 11.9104 16.5522 11.7995 16.3701 11.7474C16.284 11.7226 16.1973 11.7115 16.1085 11.7063C16.0107 11.7005 15.913 11.701 15.8151 11.701H13.878L11.3177 7.14106C10.9295 7.54969 10.7558 8.00731 10.6893 8.423C10.5927 9.02575 10.7107 9.64415 11.0078 10.1732L14.0843 15.6527C14.1333 15.7398 14.1817 15.8271 14.2355 15.9114C14.2843 15.9878 14.3369 16.0594 14.4009 16.1237C14.5356 16.2592 14.7064 16.3459 14.8938 16.3706C15.08 16.3953 15.2688 16.3563 15.4314 16.2598C15.5938 16.1634 15.7212 16.0146 15.7937 15.8365C15.8663 15.6573 15.8788 15.4617 15.832 15.2741C15.8098 15.1849 15.7759 15.1023 15.7358 15.0206C15.6919 14.9305 15.6426 14.8438 15.5936 14.7567L14.8842 13.493H15.8152C15.9131 13.493 16.0107 13.4936 16.1086 13.4878C16.1974 13.4825 16.284 13.4715 16.3701 13.4467C16.5523 13.3946 16.712 13.2837 16.8245 13.1313C16.9387 12.9766 17.0002 12.7893 17 12.597C17.0002 12.4048 16.9387 12.2175 16.8245 12.0628Z" fill="white"/>
</svg>
