<svg width="20" height="20" viewBox="0 0 20 20" fill="none" xmlns="http://www.w3.org/2000/svg">
<path d="M9.9996 16.2227C9.77721 16.2226 9.55336 16.1613 9.35897 16.04L6.63241 14.3359C6.63241 14.3359 6.83439 14.4873 7.36483 14.4873C7.84768 14.4872 8.22264 14.1713 8.59432 13.9326L8.59628 13.9316L9.9996 13.0547V16.2227ZM12.1842 6.75488C12.5505 6.75488 13.1586 6.94205 13.4674 7.08594L16.7252 10.752C17.1755 11.2606 17.0583 12.0298 16.4742 12.3945L10.6402 16.0391C10.4458 16.1603 10.2237 16.2217 10.0006 16.2217V13.0537L13.3951 10.9316L10.4195 7.58301L10.5045 7.4873C10.9322 6.99973 11.4649 6.75498 12.1842 6.75488ZM10.0006 3.77832C10.3293 3.77853 10.6588 3.91018 10.8912 4.17285L12.8971 6.43555C12.5883 6.29244 12.2427 6.20898 11.8756 6.20898C11.1564 6.20905 10.5133 6.51938 10.0855 7.00684L10.0006 7.10254L6.60604 10.9326L9.37948 12.6416L7.97616 13.5186L7.97421 13.5195C7.60243 13.7583 7.15349 13.8984 6.67049 13.8984C6.14012 13.8984 5.63825 13.6892 5.33651 13.501C4.63247 13.0609 3.55238 12.4104 3.52596 12.3945C2.94187 12.0298 2.82373 11.2606 3.27401 10.752L9.10799 4.17188C9.34131 3.9092 9.67093 3.77832 10.0006 3.77832Z" fill="white"/>
</svg>
