<svg width="20" height="20" viewBox="0 0 20 20" fill="none" xmlns="http://www.w3.org/2000/svg">
<path d="M9.40733 11.071C9.33013 11.071 9.25608 11.0404 9.20142 10.9858L8.76683 10.5524C8.73894 10.5255 8.71668 10.4934 8.70134 10.4578C8.68601 10.4223 8.67791 10.384 8.67752 10.3453C8.67713 10.3066 8.68446 10.2681 8.69907 10.2323C8.71369 10.1964 8.7353 10.1638 8.76264 10.1364C8.78999 10.109 8.82252 10.0873 8.85834 10.0726C8.89417 10.0578 8.93256 10.0504 8.97129 10.0507C9.01001 10.051 9.0483 10.059 9.0839 10.0742C9.11951 10.0894 9.15172 10.1116 9.17867 10.1394L9.40733 10.3675L10.0962 9.67917C10.1509 9.6244 10.2251 9.5936 10.3025 9.59355C10.3799 9.59349 10.4542 9.62418 10.509 9.67887C10.5637 9.73356 10.5945 9.80777 10.5946 9.88517C10.5946 9.96257 10.5639 10.0368 10.5092 10.0916L9.61383 10.9858C9.55889 11.0403 9.48469 11.0709 9.40733 11.071ZM14.8632 10.9852L15.7581 10.0916C15.8112 10.0366 15.8406 9.9629 15.8399 9.88642C15.8393 9.80995 15.8086 9.7368 15.7545 9.68272C15.7005 9.62864 15.6273 9.59797 15.5508 9.5973C15.4744 9.59664 15.4007 9.62604 15.3457 9.67917L14.6567 10.3675L14.4281 10.1394C14.4011 10.1116 14.3689 10.0894 14.3333 10.0742C14.2977 10.059 14.2594 10.051 14.2207 10.0507C14.182 10.0504 14.1436 10.0578 14.1078 10.0726C14.0719 10.0873 14.0394 10.109 14.0121 10.1364C13.9847 10.1638 13.9631 10.1964 13.9485 10.2323C13.9339 10.2681 13.9265 10.3066 13.9269 10.3453C13.9273 10.384 13.9354 10.4223 13.9508 10.4578C13.9661 10.4934 13.9884 10.5255 14.0162 10.5524L14.4514 10.9858C14.4784 11.013 14.5105 11.0345 14.5459 11.0492C14.5812 11.0639 14.6192 11.0714 14.6575 11.0714C14.6957 11.0713 14.7336 11.0637 14.769 11.0489C14.8043 11.0341 14.8363 11.0125 14.8632 10.9852ZM5.64075 7.347L7.13233 6.42242C7.21655 6.37031 7.28611 6.29762 7.33446 6.21119C7.38282 6.12477 7.40837 6.02746 7.40872 5.92843C7.40907 5.8294 7.38421 5.73191 7.33646 5.64515C7.28872 5.55838 7.21968 5.4852 7.13583 5.4325L5.64425 4.49333C5.556 4.43774 5.45446 4.40683 5.35021 4.40381C5.24596 4.40079 5.1428 4.42578 5.05149 4.47618C4.96017 4.52657 4.88404 4.60052 4.83101 4.69034C4.77799 4.78015 4.75001 4.88254 4.75 4.98683V6.85117C4.75017 6.95505 4.77806 7.05701 4.83078 7.14653C4.8835 7.23604 4.95914 7.30987 5.04992 7.3604C5.14069 7.41092 5.24329 7.43632 5.34715 7.43397C5.45101 7.43161 5.55236 7.40159 5.64075 7.347ZM6.82492 5.926L5.33333 6.85117V4.98683L6.82492 5.926ZM17 10.2917C17 11.4175 16.0842 12.3333 14.9583 12.3333C14.4679 12.3324 13.9942 12.1551 13.6236 11.8338C13.2531 11.5125 13.0104 11.0687 12.94 10.5833H11.7267C11.6562 11.0687 11.4136 11.5125 11.0431 11.8338C10.6725 12.1551 10.1988 12.3324 9.70833 12.3333C9.21786 12.3325 8.74406 12.1553 8.37348 11.834C8.00291 11.5126 7.76031 11.0687 7.69 10.5833H7.3645C6.7975 10.5833 6.28533 10.3506 5.91667 9.9755V12.9167C5.91667 13.8815 6.70183 14.6667 7.66667 14.6667H7.69C7.83233 13.6791 8.68167 12.9167 9.70833 12.9167C10.8342 12.9167 11.75 13.8325 11.75 14.9583C11.75 16.0842 10.8342 17 9.70833 17C9.21786 16.9992 8.74406 16.8219 8.37348 16.5006C8.00291 16.1793 7.76031 15.7354 7.69 15.25H7.66667C6.37983 15.25 5.33333 14.2035 5.33333 12.9167V8.77442C4.67504 8.63915 4.08351 8.28105 3.65847 7.76048C3.23343 7.23991 3.00087 6.58871 3 5.91667C3 4.30842 4.30842 3 5.91667 3C7.52492 3 8.83333 4.30842 8.83333 5.91667C8.8323 6.68495 8.52848 7.42187 7.98773 7.96764C7.44699 8.51341 6.71291 8.82403 5.94467 8.83217C6.00951 9.16112 6.1865 9.45737 6.44545 9.67035C6.70439 9.88333 7.02922 9.99985 7.3645 10H7.69C7.83233 9.01242 8.68167 8.25 9.70833 8.25C10.1988 8.25082 10.6726 8.42807 11.0432 8.74938C11.4138 9.07068 11.6564 9.51459 11.7267 10H12.94C13.0104 9.51464 13.2531 9.0708 13.6236 8.74952C13.9942 8.42823 14.4679 8.25094 14.9583 8.25C16.0842 8.25 17 9.16583 17 10.2917ZM8.25 14.9583C8.25 15.7622 8.9045 16.4167 9.70833 16.4167C10.5122 16.4167 11.1667 15.7622 11.1667 14.9583C11.1667 14.1545 10.5122 13.5 9.70833 13.5C8.9045 13.5 8.25 14.1545 8.25 14.9583ZM5.91667 8.25C7.2035 8.25 8.25 7.2035 8.25 5.91667C8.25 4.62983 7.2035 3.58333 5.91667 3.58333C4.62983 3.58333 3.58333 4.62983 3.58333 5.91667C3.58333 7.2035 4.62983 8.25 5.91667 8.25ZM11.1667 10.2917C11.1667 9.48783 10.5122 8.83333 9.70833 8.83333C8.9045 8.83333 8.25 9.48783 8.25 10.2917C8.25 11.0955 8.9045 11.75 9.70833 11.75C10.5122 11.75 11.1667 11.0955 11.1667 10.2917ZM16.4167 10.2917C16.4167 9.48783 15.7622 8.83333 14.9583 8.83333C14.1545 8.83333 13.5 9.48783 13.5 10.2917C13.5 11.0955 14.1545 11.75 14.9583 11.75C15.7622 11.75 16.4167 11.0955 16.4167 10.2917ZM8.83333 14.9583C8.83333 15.0357 8.86406 15.1099 8.91876 15.1646C8.97346 15.2193 9.04764 15.25 9.125 15.25C9.20235 15.25 9.27654 15.2193 9.33124 15.1646C9.38594 15.1099 9.41667 15.0357 9.41667 14.9583C9.41667 14.881 9.38594 14.8068 9.33124 14.7521C9.27654 14.6974 9.20235 14.6667 9.125 14.6667C9.04764 14.6667 8.97346 14.6974 8.91876 14.7521C8.86406 14.8068 8.83333 14.881 8.83333 14.9583ZM10 14.9583C10 15.0357 10.0307 15.1099 10.0854 15.1646C10.1401 15.2193 10.2143 15.25 10.2917 15.25C10.369 15.25 10.4432 15.2193 10.4979 15.1646C10.5526 15.1099 10.5833 15.0357 10.5833 14.9583C10.5833 14.881 10.5526 14.8068 10.4979 14.7521C10.4432 14.6974 10.369 14.6667 10.2917 14.6667C10.2143 14.6667 10.1401 14.6974 10.0854 14.7521C10.0307 14.8068 10 14.881 10 14.9583ZM17 14.9583C17 16.0842 16.0842 17 14.9583 17C14.4677 16.999 13.9938 16.8216 13.6233 16.5C13.2527 16.1785 13.0102 15.7344 12.94 15.2488C12.9359 15.2494 12.9324 15.2517 12.9277 15.2517L12.6326 15.2617H12.6227C12.5474 15.2597 12.4759 15.2288 12.4229 15.1753C12.37 15.1219 12.3398 15.05 12.3385 14.9748C12.3373 14.8995 12.3653 14.8267 12.4165 14.7716C12.4677 14.7165 12.5382 14.6833 12.6133 14.6789L12.9085 14.669C12.919 14.6678 12.9289 14.6725 12.9388 14.6731C13.0079 14.1864 13.2501 13.7408 13.621 13.4182C13.9919 13.0956 14.4667 12.9175 14.9583 12.9167C16.0842 12.9167 17 13.8325 17 14.9583ZM16.4167 14.9583C16.4167 14.1545 15.7622 13.5 14.9583 13.5C14.1545 13.5 13.5 14.1545 13.5 14.9583C13.5 15.7622 14.1545 16.4167 14.9583 16.4167C15.7622 16.4167 16.4167 15.7622 16.4167 14.9583Z" fill="white"/>
</svg>
