<svg width="20" height="20" viewBox="0 0 20 20" fill="none" xmlns="http://www.w3.org/2000/svg">
<path d="M7.15161 11.2221C7.08343 12.5858 5.95427 13.6694 4.57544 13.6694H1.99927V11.2221H7.15161ZM12.5676 13.6694H10.1135V8.51019H12.5676V13.6694ZM17.9768 11.2221C17.9129 12.5007 16.917 13.5328 15.6565 13.6567L15.4094 13.6694C14.0306 13.6694 12.9014 12.5858 12.8333 11.2221H17.9768ZM9.85571 13.6616C8.49225 13.5933 7.40864 12.465 7.40845 11.0864V8.51019H9.85571V13.6616ZM4.57544 8.51019C5.95427 8.51019 7.08343 9.59378 7.15161 10.9575H1.99927V8.51019H4.57544ZM15.3938 8.51019C16.7726 8.51019 17.9018 9.59378 17.97 10.9575H12.8254C12.8894 9.67912 13.8855 8.64705 15.1458 8.52289L15.3938 8.51019ZM4.62134 5.91156C4.7727 5.91164 4.92432 5.94965 4.93188 5.94965V6.22211C4.93188 6.22211 4.81052 6.1841 4.68188 6.18402C4.55309 6.18402 4.48462 6.21471 4.48462 6.29047C4.48469 6.36604 4.57513 6.39639 4.62817 6.41156L4.71899 6.44183V6.44965C4.92355 6.51783 5.02271 6.49497 5.02271 6.82074C5.02268 7.14632 4.74234 7.25228 4.49243 7.25238C4.31894 7.25238 4.16013 7.21462 4.1438 7.21429V6.91937C4.17446 6.92709 4.28791 6.96428 4.44653 6.96429C4.60563 6.96429 4.68188 6.91138 4.68188 6.8432C4.68175 6.77515 4.6206 6.737 4.53735 6.71429C4.52211 6.70667 4.49158 6.69183 4.46899 6.69183C4.29489 6.63125 4.1438 6.5552 4.1438 6.31293C4.14389 6.0706 4.32595 5.91156 4.62134 5.91156ZM2.65845 5.91156C2.80997 5.91156 2.92404 5.94988 2.95435 5.95746V6.30511C2.93919 6.29754 2.89304 6.23773 2.68091 6.23773C2.46904 6.23795 2.32544 6.38929 2.32544 6.57855C2.32559 6.76767 2.46915 6.91915 2.68091 6.91937C2.83243 6.91937 2.93919 6.85101 2.95435 6.85101V7.19965C2.90889 7.20722 3.02209 7.24457 2.65845 7.24457C2.29497 7.24448 1.97696 6.99497 1.97681 6.57855C1.97681 6.19224 2.2646 5.91165 2.65845 5.91156ZM6.02271 5.91156C6.17387 5.91161 6.28716 5.94982 6.31763 5.95746V6.30511C6.30212 6.29679 6.25561 6.23774 6.04517 6.23773C5.83304 6.23773 5.68872 6.38915 5.68872 6.57855C5.68887 6.76782 5.83315 6.91937 6.04517 6.91937C6.1959 6.91936 6.30164 6.8517 6.31763 6.85101V7.19965C6.27287 7.20732 6.3853 7.24455 6.02271 7.24457C5.65914 7.24457 5.34024 6.99506 5.34009 6.57855C5.34009 6.19218 5.62875 5.91156 6.02271 5.91156ZM7.32544 5.91156C7.71937 5.91158 7.99927 6.20734 7.99927 6.57855C7.99912 6.94962 7.71926 7.24455 7.32544 7.24457C6.93159 7.24457 6.65176 6.94964 6.65161 6.57855C6.65161 6.20733 6.93149 5.91156 7.32544 5.91156ZM3.71899 7.22211H3.3938V5.93402H3.71899V7.22211ZM7.32544 6.23773C7.13604 6.23773 6.99243 6.38915 6.99243 6.57855C6.99258 6.76782 7.13614 6.91937 7.32544 6.91937C7.51472 6.91935 7.6583 6.7678 7.65845 6.57855C7.65845 6.38917 7.51482 6.23776 7.32544 6.23773Z" fill="white"/>
</svg>
