<svg width="20" height="20" viewBox="0 0 20 20" fill="none" xmlns="http://www.w3.org/2000/svg">
<path d="M8.83205 3.85449C8.78071 3.85449 8.72932 3.87753 8.69193 3.91493L3.05906 9.54208C2.97966 9.61681 2.97966 9.74299 3.05906 9.82238L8.39798 15.1511C8.43532 15.1931 8.48677 15.2126 8.5381 15.2126C8.58949 15.2126 8.63978 15.1884 8.67711 15.1511L9.47583 14.3433C9.55516 14.2686 9.55516 14.1424 9.47583 14.063L5.29209 9.87821C5.26657 9.85282 5.24631 9.82265 5.23249 9.78941C5.21867 9.75617 5.21155 9.72053 5.21155 9.68454C5.21155 9.64854 5.21867 9.6129 5.23249 9.57966C5.24631 9.54642 5.26657 9.51625 5.29209 9.49087L10.5878 4.19516C10.6579 4.12516 10.6533 4.03603 10.63 3.97524C10.6066 3.91924 10.5457 3.85449 10.4477 3.85449H8.83205ZM11.4753 4.78306C11.424 4.78306 11.3726 4.80727 11.3352 4.8446L10.5229 5.65696C10.4435 5.73163 10.4435 5.85787 10.5229 5.93726L14.7065 10.1266C14.7579 10.1779 14.7863 10.2479 14.7863 10.318C14.7863 10.388 14.7579 10.458 14.7065 10.5094L9.41084 15.8051C9.34084 15.8751 9.34533 15.9642 9.36872 16.025C9.39206 16.081 9.4529 16.1458 9.55102 16.1458V16.1411H11.1666C11.2179 16.1411 11.2694 16.1227 11.3067 16.0853L16.9396 10.4536C16.9816 10.4162 17 10.3648 17 10.3134C17 10.2621 16.977 10.2107 16.9396 10.1733L11.6155 4.8446C11.5781 4.8026 11.5267 4.78306 11.4753 4.78306ZM9.6695 6.62432C9.60387 6.62724 9.54326 6.68306 9.54641 6.76333C9.63053 8.05695 8.00493 8.3754 8.00493 10.4069V10.4206C8.00493 11.6582 8.93979 12.6617 10.0933 12.6617C11.2469 12.6617 12.1806 11.6582 12.1806 10.4206V10.4069C12.1806 9.83247 11.966 9.28547 11.7465 8.87451C11.7045 8.79517 11.5776 8.82375 11.5916 8.89842C11.9838 10.6451 10.9991 11.728 10.9991 10.383C10.9991 8.08991 10.1858 7.04853 9.75606 6.65623C9.73256 6.63456 9.70144 6.62309 9.6695 6.62432Z" fill="white"/>
</svg>
