<svg width="20" height="20" viewBox="0 0 20 20" fill="none" xmlns="http://www.w3.org/2000/svg">
<path d="M14.2352 7.85913H13.1206L11.5595 12.142H12.6745L14.2352 7.85913ZM9.99993 17.0001C9.93056 17.0001 9.86119 16.9985 9.79182 16.997L11.2223 13.0651H13.1911C13.5369 13.0651 13.9162 12.7998 14.0342 12.4752L15.5862 8.21215C15.8404 7.51387 15.4404 6.94319 14.698 6.94319H11.9667L9.67491 13.2403H9.67392L8.37508 16.8102C5.29272 16.0769 3 13.3066 3 10.0001C3 6.78919 5.16224 4.08308 8.11024 3.25824L6.76938 6.94319L4.54025 13.0651H6.02391L7.91926 7.86273H9.03429L7.13895 13.0651L8.6221 13.0656L10.3883 8.21205C10.642 7.51378 10.2425 6.9431 9.50065 6.9431H8.25345L9.68547 3.0075C9.78979 3.00247 9.8946 2.99994 9.99993 2.99994C13.8661 2.99994 17 6.13383 17 10C17 13.8662 13.8661 17.0001 9.99993 17.0001Z" fill="white"/>
</svg>
