<svg width="20" height="20" viewBox="0 0 20 20" fill="none" xmlns="http://www.w3.org/2000/svg">
<path d="M8.43658 10.5979C8.43658 10.673 8.40677 10.7449 8.35371 10.798C8.30066 10.851 8.22869 10.8808 8.15366 10.8808C8.07863 10.8808 8.00667 10.851 7.95361 10.798C7.90055 10.7449 7.87074 10.673 7.87074 10.5979C7.87074 10.3377 7.77333 10.1557 7.63391 10.1557C7.49449 10.1557 7.39766 10.3377 7.39766 10.5979C7.39766 10.673 7.36785 10.7449 7.3148 10.798C7.26174 10.851 7.18978 10.8808 7.11474 10.8808C7.03971 10.8808 6.96775 10.851 6.91469 10.798C6.86163 10.7449 6.83183 10.673 6.83183 10.5979C6.83183 9.9055 7.24774 9.58992 7.63391 9.58992C8.02008 9.58992 8.43658 9.9055 8.43658 10.5979ZM11.9465 10.8808C11.9836 10.8808 12.0204 10.8735 12.0548 10.8593C12.0891 10.8451 12.1203 10.8242 12.1465 10.798C12.1728 10.7717 12.1937 10.7405 12.2079 10.7062C12.2221 10.6719 12.2294 10.6351 12.2294 10.5979C12.2294 10.3377 12.3268 10.1557 12.4657 10.1557C12.6045 10.1557 12.7019 10.3377 12.7019 10.5979C12.7019 10.673 12.7317 10.7449 12.7848 10.798C12.8378 10.851 12.9098 10.8808 12.9848 10.8808C13.0599 10.8808 13.1318 10.851 13.1849 10.798C13.2379 10.7449 13.2677 10.673 13.2677 10.5979C13.2677 9.9055 12.8518 9.58992 12.4657 9.58992C12.0795 9.58992 11.6636 9.9055 11.6636 10.5979C11.6636 10.7542 11.7902 10.8808 11.9465 10.8808ZM16.5939 8.28267L16.4825 9.71708C16.4778 9.7902 16.456 9.86119 16.4188 9.92432C16.3816 9.98745 16.3301 10.041 16.2684 10.0805C16.188 10.1309 16.0949 10.1572 16.0001 10.1563C15.9271 10.1557 15.8549 10.1423 15.7866 10.1167C15.6285 10.0577 15.4692 10.0047 15.31 9.95042C15.3201 10.2653 15.3017 10.5804 15.2552 10.8919C15.2318 11.0331 15.2015 11.1667 15.1747 11.3043C15.1732 11.3291 15.1685 11.3537 15.1607 11.3772C15.0246 12.0777 14.8229 12.7639 14.5581 13.4265L14.5773 13.4148L15.1006 13.1016C15.2132 13.0217 15.45 13.0304 15.576 13.1599C15.6189 13.2036 15.6506 13.257 15.6682 13.3157C15.6857 13.3744 15.6887 13.4364 15.6769 13.4965C15.6701 13.5285 15.6598 13.5596 15.646 13.5892C15.6104 13.668 15.4599 14.0011 15.1408 14.7011C14.7471 15.5662 13.9392 15.7336 13.9036 15.7406C13.9042 15.7412 13.3745 15.8654 12.8075 15.9972C12.0171 16.6611 11.0907 17 10.0507 17C8.97733 17 8.03933 16.6617 7.25824 16.0007L6.13591 15.7382C6.11199 15.7336 5.30349 15.5667 4.90916 14.7011L4.40166 13.5846C4.39874 13.5735 4.37249 13.4924 4.37074 13.4813C4.36549 13.1167 4.73299 12.9482 4.96749 13.1127L5.46799 13.4113C5.47149 13.4131 5.51116 13.4364 5.56774 13.4609C5.3184 12.8093 5.12672 12.1371 4.99491 11.4519C4.95816 11.267 4.91966 11.0844 4.88816 10.8919C4.83915 10.5638 4.82157 10.2317 4.83566 9.90025C4.62741 9.96908 4.41974 10.0402 4.21383 10.1172C4.04349 10.1808 3.86791 10.168 3.73141 10.0811C3.67002 10.0416 3.61874 9.9882 3.58167 9.9253C3.5446 9.86239 3.52276 9.79169 3.51791 9.71883L3.40533 8.28208C3.38433 8.005 3.58324 7.71683 3.86849 7.61008L4.04349 7.54183C4.17474 7.48992 4.33808 7.42633 4.53174 7.35633C5.12908 4.82233 7.41341 3 10.0238 3C12.6582 3 14.946 4.84217 15.527 7.40358C15.8023 7.49283 16.0187 7.5675 16.1313 7.61067C16.4183 7.71742 16.6172 8.00558 16.5939 8.28267ZM13.9036 13.5169C14.1188 13.0415 14.2991 12.5206 14.4461 11.9594L13.8645 12.3753C13.7533 12.4532 13.6173 12.4877 13.4824 12.4722L10.8767 12.198C10.7653 12.1858 10.6601 12.1405 10.5747 12.068C10.4893 11.9954 10.4277 11.8988 10.3977 11.7908L10.0722 10.6691C10.0248 10.6667 9.97733 10.6667 9.92991 10.6691L9.60324 11.7949C9.57302 11.9023 9.51127 11.9981 9.42599 12.0699C9.34071 12.1418 9.23583 12.1864 9.12491 12.198L6.51683 12.4727C6.3847 12.4871 6.25181 12.4536 6.14233 12.3782L5.72058 12.0848C5.85533 12.6034 6.01574 13.0812 6.20124 13.5146C6.55649 13.4982 6.90533 13.4743 6.90649 13.4743C6.90708 13.4743 7.15966 13.4516 7.36616 13.2807L7.98508 12.7644C8.07141 12.6682 8.36541 12.4932 8.76091 12.6063C8.87524 12.6384 9.04966 12.6915 9.23633 12.7481C9.27249 12.7592 9.30633 12.7772 9.33549 12.8017C9.64583 13.0613 10.4042 13.0613 10.7151 12.8029C10.7439 12.7788 10.7772 12.7608 10.8131 12.7498C11.0097 12.6898 11.1812 12.6378 11.2932 12.6057C11.6898 12.4932 11.9827 12.6687 12.0947 12.7889L12.6873 13.2807C12.8932 13.4522 13.1452 13.4743 13.1476 13.4743C13.147 13.4749 13.5314 13.5006 13.9036 13.5169ZM10.0507 16.4342C10.4368 16.4323 10.8203 16.3707 11.1876 16.2516C10.6439 16.1297 10.2805 15.6572 10.2612 15.6321L10.0244 15.3159L9.78699 15.6327C9.76891 15.6577 9.41308 16.1238 8.87816 16.251C9.24566 16.3653 9.63358 16.4342 10.0507 16.4342ZM14.0996 14.0915C13.7686 14.0786 13.4378 14.0613 13.1073 14.0396C12.8209 14.0107 12.5493 13.8983 12.3262 13.7164L11.705 13.1984C11.6729 13.1687 11.5959 13.1097 11.4472 13.15C11.3445 13.1792 11.1928 13.2258 11.0289 13.276C10.5167 13.6581 9.53149 13.6581 9.02049 13.2743C8.88298 13.2319 8.74512 13.1906 8.60691 13.1506C8.45641 13.1062 8.38174 13.1681 8.36716 13.1809L7.72724 13.7164C7.50369 13.8982 7.2317 14.0104 6.94499 14.039C6.94499 14.039 6.43633 14.0734 6.01516 14.0886H6.01399L5.95216 14.0909C5.67746 14.1021 5.40549 14.0326 5.16991 13.8908L5.15941 13.885L5.42366 14.466C5.69374 15.0592 6.23391 15.1806 6.25608 15.1847C6.26424 15.187 7.86258 15.5615 8.48558 15.7032C8.94116 15.8047 9.32966 15.2972 9.33374 15.292L9.79749 14.6731C9.90424 14.5302 10.144 14.5302 10.2502 14.6731L10.7145 15.292C10.7186 15.2972 11.1123 15.8059 11.5632 15.7032C12.1857 15.5615 13.784 15.1864 13.784 15.1864C13.9693 15.137 14.1411 15.0465 14.2867 14.9217C14.4323 14.7969 14.548 14.641 14.6252 14.4654L14.8888 13.8862L14.8737 13.8949C14.642 14.0386 14.3717 14.1072 14.0996 14.0915ZM14.7389 9.76783C11.6972 8.85553 8.45686 8.84034 5.40674 9.72408C5.37832 10.0831 5.39144 10.4443 5.44583 10.8003C5.47208 10.9607 5.50416 11.1124 5.53449 11.267L6.46258 11.9133L9.06483 11.6357L9.43933 10.3272C9.45459 10.2753 9.48439 10.2287 9.5252 10.193C9.56602 10.1574 9.61616 10.1341 9.66974 10.126C9.88932 10.0939 10.1124 10.0945 10.3318 10.1277C10.3854 10.1355 10.4356 10.1586 10.4763 10.1942C10.5171 10.2298 10.5467 10.2764 10.5617 10.3284L10.942 11.638L13.5448 11.911L14.6322 11.1317C14.6532 11.0208 14.6782 10.9135 14.6969 10.8003C14.7496 10.4588 14.7637 10.1125 14.7389 9.76783ZM16.0304 8.23775C16.0275 8.21792 15.9878 8.16017 15.9342 8.14033L15.9318 8.13975C15.8035 8.09133 15.5352 7.99858 15.1992 7.893L15.1951 7.89008C14.638 7.71567 13.5787 7.41 12.706 7.31258C12.6314 7.30423 12.5632 7.26659 12.5164 7.20796C12.4696 7.14932 12.448 7.07449 12.4563 6.99992C12.4647 6.92535 12.5023 6.85715 12.561 6.81033C12.6196 6.76351 12.6944 6.7419 12.769 6.75025C13.4643 6.82842 14.2442 7.02208 14.8906 7.20933C14.2571 5.072 12.2825 3.56583 10.0238 3.56583C7.78849 3.56583 5.81974 5.05275 5.17166 7.16208C5.79507 6.97263 6.43307 6.83508 7.07916 6.75083C7.11601 6.7462 7.15341 6.74887 7.18922 6.75869C7.22504 6.7685 7.25857 6.78528 7.2879 6.80806C7.31723 6.83084 7.34179 6.85917 7.36017 6.89144C7.37855 6.9237 7.3904 6.95928 7.39504 6.99612C7.39967 7.03297 7.397 7.07037 7.38718 7.10619C7.37736 7.142 7.36059 7.17553 7.33781 7.20486C7.31503 7.2342 7.2867 7.25875 7.25443 7.27714C7.22216 7.29552 7.18659 7.30737 7.14974 7.312C6.37346 7.40686 5.60922 7.58262 4.86949 7.83642L4.86658 7.83875C4.61458 7.92567 4.40866 8.00675 4.25058 8.06858L4.06683 8.14033C4.01199 8.16075 3.97233 8.21908 3.96941 8.24242L4.07266 9.56308C5.97086 8.86231 7.97823 8.50346 10.0017 8.50317C12.0095 8.50317 14.0156 8.85725 15.9266 9.56483L16.0304 8.23775ZM11.0522 4.74592H8.98783C8.91279 4.74592 8.84083 4.77572 8.78778 4.82878C8.73472 4.88184 8.70491 4.9538 8.70491 5.02883V5.50192C8.70491 5.57695 8.73472 5.64891 8.78778 5.70197C8.84083 5.75503 8.91279 5.78483 8.98783 5.78483C9.06286 5.78483 9.13482 5.75503 9.18788 5.70197C9.24094 5.64891 9.27074 5.57695 9.27074 5.50192V5.31175H9.70591V7.24142H9.40199C9.36484 7.24142 9.32805 7.24873 9.29373 7.26295C9.2594 7.27717 9.22821 7.29801 9.20194 7.32428C9.17567 7.35055 9.15483 7.38174 9.14061 7.41607C9.1264 7.45039 9.11908 7.48718 9.11908 7.52433C9.11908 7.56149 9.1264 7.59828 9.14061 7.6326C9.15483 7.66693 9.17567 7.69811 9.20194 7.72439C9.22821 7.75066 9.2594 7.7715 9.29373 7.78571C9.32805 7.79993 9.36484 7.80725 9.40199 7.80725H10.6042C10.6414 7.80725 10.6782 7.79993 10.7125 7.78571C10.7468 7.7715 10.778 7.75066 10.8043 7.72439C10.8306 7.69811 10.8514 7.66693 10.8656 7.6326C10.8798 7.59828 10.8872 7.56149 10.8872 7.52433C10.8872 7.48718 10.8798 7.45039 10.8656 7.41607C10.8514 7.38174 10.8306 7.35055 10.8043 7.32428C10.778 7.29801 10.7468 7.27717 10.7125 7.26295C10.6782 7.24873 10.6414 7.24142 10.6042 7.24142H10.2717V5.31175H10.7693V5.50192C10.7693 5.57695 10.7991 5.64891 10.8522 5.70197C10.9052 5.75503 10.9772 5.78483 11.0522 5.78483C11.1273 5.78483 11.1992 5.75503 11.2523 5.70197C11.3054 5.64891 11.3352 5.57695 11.3352 5.50192V5.02883C11.3352 4.9538 11.3054 4.88184 11.2523 4.82878C11.1992 4.77572 11.1273 4.74592 11.0522 4.74592Z" fill="white"/>
</svg>
