<svg width="20" height="20" viewBox="0 0 20 20" fill="none" xmlns="http://www.w3.org/2000/svg">
<path d="M10 4C6.6855 4 4 6.6855 4 10C4 13.3145 6.6855 16 10 16C13.3145 16 16 13.3145 16 10C16 6.6855 13.3145 4 10 4ZM10 14.8385C9.36456 14.8386 8.73532 14.7136 8.14823 14.4705C7.56114 14.2273 7.02769 13.871 6.57837 13.4216C6.12905 12.9723 5.77265 12.4389 5.52954 11.8518C5.28643 11.2647 5.16137 10.6354 5.1615 10C5.16137 9.36456 5.28643 8.73532 5.52954 8.14823C5.77265 7.56114 6.12905 7.02769 6.57837 6.57837C7.02769 6.12905 7.56114 5.77265 8.14823 5.52954C8.73532 5.28643 9.36456 5.16137 10 5.1615C10.6354 5.16137 11.2647 5.28643 11.8518 5.52954C12.4389 5.77265 12.9723 6.12905 13.4216 6.57837C13.871 7.02769 14.2273 7.56114 14.4705 8.14823C14.7136 8.73532 14.8386 9.36456 14.8385 10C14.8386 10.6354 14.7136 11.2647 14.4705 11.8518C14.2273 12.4389 13.871 12.9723 13.4216 13.4216C12.9723 13.871 12.4389 14.2273 11.8518 14.4705C11.2647 14.7136 10.6354 14.8386 10 14.8385Z" fill="white"/>
</svg>
