<svg width="20" height="20" viewBox="0 0 20 20" fill="none" xmlns="http://www.w3.org/2000/svg">
<path d="M9.9987 16.0423V13.1257M9.9987 16.0423C8.06869 16.0423 6.49926 14.4985 6.45787 12.5785M9.9987 16.0423C11.9287 16.0423 13.4981 14.4985 13.5395 12.5785M3.95703 6.45898V7.56439C3.95703 8.182 4.29857 8.74898 4.84454 9.03771L6.5684 9.94937M16.0404 6.45898V7.56439C16.0404 8.182 15.6988 8.74898 15.1529 9.03771L13.429 9.94937M3.95703 16.0423V14.6713C3.95703 13.9765 4.38799 13.3547 5.03849 13.1107L6.45787 12.5785M16.0404 16.0423V14.6713C16.0404 13.9765 15.6094 13.3547 14.9589 13.1107L13.5395 12.5785M8.1237 6.04232V5.62565C8.1237 4.70518 8.86989 3.95898 9.79036 3.95898H10.207C11.1275 3.95898 11.8737 4.70518 11.8737 5.62565V6.04232M8.1237 6.04232V7.70898M8.1237 6.04232L7.37834 5.66964C6.8137 5.38732 6.45703 4.81021 6.45703 4.17893V3.95898M11.8737 7.70898V6.04232M11.8737 6.04232L12.6191 5.66964C13.1837 5.38732 13.5404 4.81021 13.5404 4.17893V3.95898M6.45787 12.5785C6.45731 12.5526 6.45703 12.5267 6.45703 12.5007V10.834C6.45703 10.5285 6.4957 10.2321 6.5684 9.94937M6.5684 9.94937C6.96129 8.42142 8.34813 7.29232 9.9987 7.29232C11.6493 7.29232 13.0361 8.42142 13.429 9.94937M13.429 9.94937C13.5017 10.2321 13.5404 10.5285 13.5404 10.834V12.5007C13.5404 12.5267 13.5401 12.5526 13.5395 12.5785" stroke="white" stroke-width="1.33809" stroke-linecap="round" stroke-linejoin="round"/>
</svg>
