<svg width="20" height="20" viewBox="0 0 20 20" fill="none" xmlns="http://www.w3.org/2000/svg">
<path fill-rule="evenodd" clip-rule="evenodd" d="M6.45811 3.28906C6.82761 3.28906 7.12715 3.5886 7.12715 3.95811V4.17805C7.12715 4.50266 7.2847 4.80333 7.54337 4.98877C7.82031 4.00789 8.72193 3.28906 9.79144 3.28906H10.2081C11.2776 3.28906 12.1792 4.00789 12.4562 4.98877C12.7149 4.80333 12.8724 4.50266 12.8724 4.17805V3.95811C12.8724 3.5886 13.1719 3.28906 13.5414 3.28906C13.9109 3.28906 14.2105 3.5886 14.2105 3.95811V4.17805C14.2105 5.06275 13.7106 5.87152 12.9193 6.26718L12.5438 6.45493V7.47757C13.0708 7.87778 13.5005 8.3993 13.7916 9.00046L14.8412 8.4454C15.168 8.27258 15.3724 7.9332 15.3724 7.56351V6.45811C15.3724 6.0886 15.6719 5.78906 16.0414 5.78906C16.4109 5.78906 16.7105 6.0886 16.7105 6.45811V7.56351C16.7105 8.42905 16.2318 9.22363 15.4667 9.62827L14.1782 10.3097C14.1995 10.4814 14.2105 10.6561 14.2105 10.8331V12.1143L15.1949 12.4834C16.1065 12.8253 16.7105 13.6968 16.7105 14.6704V16.0414C16.7105 16.4109 16.4109 16.7105 16.0414 16.7105C15.6719 16.7105 15.3724 16.4109 15.3724 16.0414V14.6704C15.3724 14.2545 15.1144 13.8823 14.7251 13.7363L14.0913 13.4986C13.6428 15.3421 11.9811 16.7105 9.99977 16.7105C8.01841 16.7105 6.35678 15.3421 5.90828 13.4986L5.27449 13.7363C4.88511 13.8823 4.62715 14.2545 4.62715 14.6704V16.0414C4.62715 16.4109 4.32761 16.7105 3.95811 16.7105C3.5886 16.7105 3.28906 16.4109 3.28906 16.0414V14.6704C3.28906 13.6968 3.89301 12.8253 4.80465 12.4834L5.78906 12.1143V10.8331C5.78906 10.6561 5.80002 10.4814 5.82135 10.3097L4.53284 9.62827C3.7677 9.22363 3.28906 8.42905 3.28906 7.56351V6.45811C3.28906 6.0886 3.5886 5.78906 3.95811 5.78906C4.32761 5.78906 4.62715 6.0886 4.62715 6.45811V7.56351C4.62715 7.9332 4.83159 8.27258 5.15839 8.4454L6.20795 9.00046C6.49902 8.3993 6.92877 7.87778 7.45573 7.47757V6.45493L7.08021 6.26718C6.28891 5.87152 5.78906 5.06275 5.78906 4.17805V3.95811C5.78906 3.5886 6.0886 3.28906 6.45811 3.28906ZM8.79382 6.7976C9.17581 6.68362 9.58061 6.6224 9.99977 6.6224C10.4189 6.6224 10.8237 6.68362 11.2057 6.7976V5.62477C11.2057 5.0738 10.7591 4.62715 10.2081 4.62715H9.79144C9.24047 4.62715 8.79382 5.0738 8.79382 5.62477V6.7976ZM9.99977 7.96049C8.66193 7.96049 7.53615 8.87566 7.21745 10.1151C7.15862 10.3439 7.12715 10.5843 7.12715 10.8331V12.4998C7.12715 12.521 7.12738 12.5421 7.12784 12.5632C7.15646 13.8911 8.08661 14.9973 9.33073 15.2941V13.1248C9.33073 12.7553 9.63027 12.4557 9.99977 12.4557C10.3693 12.4557 10.6688 12.7553 10.6688 13.1248V15.2941C11.9129 14.9973 12.8431 13.8911 12.8717 12.5632C12.8722 12.5421 12.8724 12.521 12.8724 12.4998V10.8331C12.8724 10.5843 12.8409 10.3439 12.7821 10.1151C12.4634 8.87566 11.3376 7.96049 9.99977 7.96049Z" fill="white"/>
</svg>
