<svg width="20" height="20" viewBox="0 0 20 20" fill="none" xmlns="http://www.w3.org/2000/svg">
<path fill-rule="evenodd" clip-rule="evenodd" d="M3.21094 5.62565C3.21094 4.29096 4.29292 3.20898 5.6276 3.20898H14.3776C15.7123 3.20898 16.7943 4.29096 16.7943 5.62565V14.3757C16.7943 15.7103 15.7123 16.7923 14.3776 16.7923H5.6276C4.29292 16.7923 3.21094 15.7103 3.21094 14.3757V5.62565ZM5.6276 4.70898C5.12134 4.70898 4.71094 5.11939 4.71094 5.62565V14.3757C4.71094 14.8819 5.12134 15.2923 5.6276 15.2923H14.3776C14.8839 15.2923 15.2943 14.8819 15.2943 14.3757V5.62565C15.2943 5.11939 14.8839 4.70898 14.3776 4.70898H5.6276ZM10.002 6.75C10.4162 6.75 10.752 7.08579 10.752 7.5V12.7083C10.752 13.1225 10.4162 13.4583 10.002 13.4583C9.58774 13.4583 9.25195 13.1225 9.25195 12.7083V7.5C9.25195 7.08579 9.58774 6.75 10.002 6.75ZM7.29297 9.90205C7.70718 9.90205 8.04297 10.2378 8.04297 10.6521V12.7083C8.04297 13.1225 7.70718 13.4583 7.29297 13.4583C6.87876 13.4583 6.54297 13.1225 6.54297 12.7083V10.6521C6.54297 10.2378 6.87876 9.90205 7.29297 9.90205ZM12.7109 9.90207C13.1252 9.90207 13.4609 10.2379 13.4609 10.6521V12.7083C13.4609 13.1225 13.1252 13.4583 12.7109 13.4583C12.2967 13.4583 11.9609 13.1225 11.9609 12.7083V10.6521C11.9609 10.2379 12.2967 9.90207 12.7109 9.90207Z" fill="white"/>
</svg>
