<svg width="20" height="20" viewBox="0 0 20 20" fill="none" xmlns="http://www.w3.org/2000/svg">
<path fill-rule="evenodd" clip-rule="evenodd" d="M7.21967 11.9697C7.51256 11.6768 7.98744 11.6768 8.28033 11.9697L10 13.6893L11.7197 11.9697C12.0126 11.6768 12.4874 11.6768 12.7803 11.9697C13.0732 12.2626 13.0732 12.7374 12.7803 13.0303L10.5303 15.2803C10.2374 15.5732 9.76256 15.5732 9.46967 15.2803L7.21967 13.0303C6.92678 12.7374 6.92678 12.2626 7.21967 11.9697Z" fill="white"/>
<path fill-rule="evenodd" clip-rule="evenodd" d="M12.7803 7.53033C12.4874 7.82322 12.0126 7.82322 11.7197 7.53033L10 5.81066L8.28033 7.53033C7.98744 7.82322 7.51256 7.82322 7.21967 7.53033C6.92678 7.23744 6.92678 6.76256 7.21967 6.46967L9.46967 4.21967C9.76256 3.92678 10.2374 3.92678 10.5303 4.21967L12.7803 6.46967C13.0732 6.76256 13.0732 7.23744 12.7803 7.53033Z" fill="white"/>
</svg>
