<svg width="20" height="20" viewBox="0 0 20 20" fill="none" xmlns="http://www.w3.org/2000/svg">
<path fill-rule="evenodd" clip-rule="evenodd" d="M3.20703 5.62565C3.20703 4.29096 4.28901 3.20898 5.6237 3.20898H14.3737C15.7084 3.20898 16.7904 4.29096 16.7904 5.62565V14.3757C16.7904 15.7103 15.7084 16.7923 14.3737 16.7923H5.6237C4.28901 16.7923 3.20703 15.7103 3.20703 14.3757V5.62565ZM5.6237 4.70898C5.11744 4.70898 4.70703 5.11939 4.70703 5.62565V14.3757C4.70703 14.8819 5.11744 15.2923 5.6237 15.2923H14.3737C14.88 15.2923 15.2904 14.8819 15.2904 14.3757V5.62565C15.2904 5.11939 14.88 4.70898 14.3737 4.70898H5.6237Z" fill="white"/>
<path fill-rule="evenodd" clip-rule="evenodd" d="M6.73289 8.45726C7.00999 8.14938 7.48421 8.12442 7.79209 8.40151L9.87542 10.2765C10.0335 10.4187 10.1237 10.6214 10.1237 10.834C10.1237 11.0466 10.0335 11.2492 9.87542 11.3915L7.79209 13.2665C7.48421 13.5435 7.00999 13.5186 6.73289 13.2107C6.4558 12.9028 6.48076 12.4286 6.78864 12.1515L8.25256 10.834L6.78864 9.51645C6.48076 9.23936 6.4558 8.76514 6.73289 8.45726Z" fill="white"/>
</svg>
