<svg width="20" height="20" viewBox="0 0 20 20" fill="none" xmlns="http://www.w3.org/2000/svg">
<path fill-rule="evenodd" clip-rule="evenodd" d="M12.0041 4.22547C12.6225 3.60714 13.625 3.60714 14.2433 4.22547L15.7731 5.75529L15.2658 6.26256L15.7731 5.75529C16.3915 6.37362 16.3915 7.37613 15.7731 7.99446L15.2428 7.46413L15.7731 7.99446L8.02904 15.7385C7.93042 15.8372 7.80626 15.9063 7.67049 15.9383L4.12883 16.7716C3.87599 16.8311 3.61038 16.7555 3.42672 16.5719C3.24305 16.3882 3.16749 16.1226 3.22698 15.8698L4.06032 12.3281C4.09226 12.1923 4.16143 12.0682 4.26005 11.9695L12.0041 4.22547ZM13.1826 5.28613C13.1501 5.25358 13.0973 5.25358 13.0648 5.28613L12.5345 4.7558L13.0648 5.28613L5.47158 12.8793L4.9646 15.034L7.11925 14.527L14.7125 6.9338C14.745 6.90126 14.745 6.84849 14.7125 6.81595L13.1826 5.28613ZM10.707 16.0417C10.707 15.6275 11.0428 15.2917 11.457 15.2917H16.0404C16.4546 15.2917 16.7904 15.6275 16.7904 16.0417C16.7904 16.4559 16.4546 16.7917 16.0404 16.7917H11.457C11.0428 16.7917 10.707 16.4559 10.707 16.0417Z" fill="white"/>
</svg>
