<svg width="20" height="20" viewBox="0 0 20 20" fill="none" xmlns="http://www.w3.org/2000/svg">
<path fill-rule="evenodd" clip-rule="evenodd" d="M4.70843 9.97859C4.70705 9.9941 4.70703 10.0007 4.70703 10.0007C4.70703 10.0007 4.7071 10.0102 4.70926 10.0314C4.71135 10.052 4.71498 10.0794 4.72088 10.1139C4.73272 10.1831 4.75223 10.2723 4.78142 10.3788C4.83982 10.5921 4.93272 10.8596 5.06638 11.156C5.33466 11.7509 5.75415 12.4336 6.356 13.0212C6.65236 13.3106 6.65803 13.7855 6.36865 14.0818C6.07927 14.3782 5.60443 14.3838 5.30806 14.0945C4.54499 13.3494 4.02699 12.4999 3.69899 11.7726C3.38349 11.073 3.20703 10.4028 3.20703 10.0007C3.20703 9.65226 3.3381 9.11881 3.55897 8.55972C3.78975 7.97555 4.14902 7.28552 4.66849 6.62175C5.71733 5.28156 7.43062 4.04232 9.9987 4.04232C11.6621 4.04232 12.9799 4.56407 13.9911 5.31176C14.3241 5.55803 14.3945 6.02766 14.1482 6.36071C13.9019 6.69376 13.4323 6.76411 13.0992 6.51784C12.3344 5.95227 11.3265 5.54232 9.9987 5.54232C7.98344 5.54232 6.6759 6.49057 5.84974 7.54622C5.43171 8.08037 5.13994 8.64033 4.95405 9.11086C4.86131 9.34562 4.79718 9.55241 4.75712 9.716C4.7371 9.79772 4.72395 9.86519 4.71605 9.91727C4.71213 9.94313 4.70976 9.9635 4.70843 9.97859ZM15.1895 7.66037C15.5615 7.47825 16.0107 7.63219 16.1929 8.00422C16.3947 8.41661 16.5406 8.80541 16.6372 9.13612C16.7291 9.45072 16.7904 9.75989 16.7904 10.0007C16.7904 10.349 16.6593 10.8825 16.4384 11.4416C16.2076 12.0257 15.8484 12.7158 15.3289 13.3795C14.2801 14.7197 12.5668 15.959 9.9987 15.959C9.32498 15.959 8.70474 15.8734 8.13607 15.7194C7.73625 15.6112 7.49986 15.1994 7.60808 14.7995C7.71631 14.3997 8.12816 14.1633 8.52799 14.2715C8.96513 14.3899 9.45339 14.459 9.9987 14.459C12.014 14.459 13.3215 13.5107 14.1477 12.4551C14.5657 11.9209 14.8575 11.361 15.0433 10.8904C15.1361 10.6557 15.2002 10.4489 15.2403 10.2853C15.2603 10.2036 15.2734 10.1361 15.2813 10.084C15.2853 10.0582 15.2876 10.0378 15.289 10.0227C15.2902 10.0083 15.2904 10.0007 15.2904 10.0007C15.2904 10.0007 15.2903 9.99735 15.29 9.99158C15.2895 9.98495 15.2888 9.97565 15.2875 9.96354C15.2848 9.93905 15.2802 9.90661 15.2727 9.8661C15.2579 9.78476 15.2335 9.68043 15.1974 9.55666C15.125 9.30906 15.0103 9.00016 14.8456 8.66375C14.6635 8.29172 14.8175 7.8425 15.1895 7.66037Z" fill="white"/>
<path fill-rule="evenodd" clip-rule="evenodd" d="M16.5707 3.42865C16.8636 3.72155 16.8636 4.19642 16.5707 4.48931L4.48736 16.5726C4.19447 16.8655 3.71959 16.8655 3.4267 16.5726C3.13381 16.2798 3.13381 15.8049 3.4267 15.512L15.51 3.42865C15.8029 3.13576 16.2778 3.13576 16.5707 3.42865Z" fill="white"/>
<path fill-rule="evenodd" clip-rule="evenodd" d="M10.7942 9.20516C10.3549 8.76582 9.64254 8.76582 9.2032 9.20516C8.76386 9.6445 8.76386 10.3568 9.2032 10.7961C9.4961 11.089 9.4961 11.5639 9.2032 11.8568C8.91031 12.1497 8.43544 12.1497 8.14254 11.8568C7.11742 10.8317 7.11742 9.16962 8.14254 8.1445C9.16767 7.11937 10.8297 7.11937 11.8549 8.1445C12.1477 8.43739 12.1477 8.91226 11.8549 9.20516C11.562 9.49805 11.0871 9.49805 10.7942 9.20516Z" fill="white"/>
</svg>
