<svg width="20" height="20" viewBox="0 0 20 20" fill="none" xmlns="http://www.w3.org/2000/svg">
<path fill-rule="evenodd" clip-rule="evenodd" d="M4.70843 9.97729C4.70705 9.99279 4.70703 9.99975 4.70703 9.99935C4.70703 9.99895 4.70705 10.0059 4.70843 10.0214C4.70976 10.0365 4.71213 10.0569 4.71605 10.0827C4.72395 10.1348 4.7371 10.2023 4.75712 10.284C4.79718 10.4476 4.86131 10.6544 4.95405 10.8891C5.13994 11.3597 5.43171 11.9196 5.84974 12.4538C6.6759 13.5094 7.98344 14.4577 9.9987 14.4577C12.014 14.4577 13.3215 13.5094 14.1477 12.4538C14.5657 11.9196 14.8575 11.3597 15.0433 10.8891C15.1361 10.6544 15.2002 10.4476 15.2403 10.284C15.2603 10.2023 15.2734 10.1348 15.2813 10.0827C15.2853 10.0569 15.2876 10.0365 15.289 10.0214C15.2903 10.0059 15.2904 9.99895 15.2904 9.99935C15.2904 9.99878 15.2902 9.99174 15.289 9.97729C15.2876 9.9622 15.2853 9.94183 15.2813 9.91597C15.2734 9.86389 15.2603 9.79642 15.2403 9.7147C15.2002 9.55111 15.1361 9.34431 15.0433 9.10955C14.8575 8.63903 14.5657 8.07907 14.1477 7.54491C13.3215 6.48927 12.014 5.54102 9.9987 5.54102C7.98344 5.54102 6.6759 6.48927 5.84974 7.54491C5.43171 8.07907 5.13994 8.63903 4.95405 9.10955C4.86131 9.34431 4.79718 9.55111 4.75712 9.7147C4.7371 9.79642 4.72395 9.86389 4.71605 9.91597C4.71213 9.94183 4.70976 9.9622 4.70843 9.97729ZM4.66849 6.62045C5.71733 5.28026 7.43062 4.04102 9.9987 4.04102C12.5668 4.04102 14.2801 5.28026 15.3289 6.62045C15.8484 7.28421 16.2076 7.97425 16.4384 8.55841C16.6593 9.11751 16.7904 9.65096 16.7904 9.99935C16.7904 10.3477 16.6593 10.8812 16.4384 11.4403C16.2076 12.0244 15.8484 12.7145 15.3289 13.3782C14.2801 14.7184 12.5668 15.9577 9.9987 15.9577C7.43062 15.9577 5.71733 14.7184 4.66849 13.3782C4.14902 12.7145 3.78975 12.0244 3.55897 11.4403C3.3381 10.8812 3.20703 10.3477 3.20703 9.99935C3.20703 9.65096 3.3381 9.11751 3.55897 8.55841C3.78975 7.97425 4.14902 7.28421 4.66849 6.62045Z" fill="white"/>
<path fill-rule="evenodd" clip-rule="evenodd" d="M9.9987 8.87435C9.37738 8.87435 8.8737 9.37803 8.8737 9.99935C8.8737 10.6207 9.37738 11.1243 9.9987 11.1243C10.62 11.1243 11.1237 10.6207 11.1237 9.99935C11.1237 9.37803 10.62 8.87435 9.9987 8.87435ZM7.3737 9.99935C7.3737 8.5496 8.54895 7.37435 9.9987 7.37435C11.4484 7.37435 12.6237 8.5496 12.6237 9.99935C12.6237 11.4491 11.4484 12.6243 9.9987 12.6243C8.54895 12.6243 7.3737 11.4491 7.3737 9.99935Z" fill="white"/>
</svg>
