<svg width="20" height="20" viewBox="0 0 20 20" fill="none" xmlns="http://www.w3.org/2000/svg">
<path fill-rule="evenodd" clip-rule="evenodd" d="M4.04245 5.6237C4.04245 4.28901 5.12443 3.20703 6.45911 3.20703H14.3758C15.7105 3.20703 16.7924 4.28901 16.7924 5.6237V6.04036C16.7924 6.45458 16.4567 6.79036 16.0424 6.79036C15.6282 6.79036 15.2924 6.45458 15.2924 6.04036V5.6237C15.2924 5.11744 14.882 4.70703 14.3758 4.70703H6.45911C5.95285 4.70703 5.54245 5.11744 5.54245 5.6237V11.957H8.54252C8.95674 11.957 9.29252 12.2928 9.29252 12.707C9.29252 13.1212 8.95674 13.457 8.54252 13.457H4.74515C4.80733 14.0195 5.28421 14.457 5.86328 14.457H8.54252C8.95674 14.457 9.29252 14.7928 9.29252 15.207C9.29252 15.6212 8.95674 15.957 8.54252 15.957H5.86328C4.41353 15.957 3.23828 14.7818 3.23828 13.332C3.23828 12.7763 3.56798 12.2976 4.04245 12.0808V5.6237ZM9.87585 9.79036C9.87585 8.45568 10.9578 7.3737 12.2925 7.3737H14.3759C15.7105 7.3737 16.7925 8.45568 16.7925 9.79036V14.3737C16.7925 15.7084 15.7105 16.7904 14.3759 16.7904H12.2925C10.9578 16.7904 9.87585 15.7084 9.87585 14.3737V9.79036ZM12.2925 8.8737C11.7863 8.8737 11.3759 9.2841 11.3759 9.79036V14.3737C11.3759 14.88 11.7863 15.2904 12.2925 15.2904H14.3759C14.8821 15.2904 15.2925 14.88 15.2925 14.3737V9.79036C15.2925 9.2841 14.8821 8.8737 14.3759 8.8737H12.2925ZM12.5842 14.1654C12.5842 13.7512 12.92 13.4154 13.3342 13.4154H13.3425C13.7567 13.4154 14.0925 13.7512 14.0925 14.1654C14.0925 14.5796 13.7567 14.9154 13.3425 14.9154H13.3342C12.92 14.9154 12.5842 14.5796 12.5842 14.1654Z" fill="white"/>
</svg>
