<svg width="20" height="20" viewBox="0 0 20 20" fill="none" xmlns="http://www.w3.org/2000/svg">
<path d="M16.0424 6.04036V5.6237C16.0424 4.70322 15.2963 3.95703 14.3758 3.95703H6.45911C5.53864 3.95703 4.79245 4.70322 4.79245 5.6237V12.707M4.79245 12.707H4.61328C4.2681 12.707 3.98828 12.9869 3.98828 13.332C3.98828 14.3676 4.82775 15.207 5.86328 15.207H8.54252M4.79245 12.707H8.54252M13.3342 14.1654H13.3425M12.2925 16.0404H14.3759C15.2963 16.0404 16.0425 15.2942 16.0425 14.3737V9.79036C16.0425 8.86989 15.2963 8.1237 14.3759 8.1237H12.2925C11.372 8.1237 10.6259 8.86989 10.6259 9.79036V14.3737C10.6259 15.2942 11.372 16.0404 12.2925 16.0404Z" stroke="white" stroke-width="1.5" stroke-linecap="round" stroke-linejoin="round"/>
</svg>
