<svg width="20" height="20" viewBox="0 0 20 20" fill="none" xmlns="http://www.w3.org/2000/svg">
<path fill-rule="evenodd" clip-rule="evenodd" d="M9.6141 3.1636C9.85707 3.04231 10.1429 3.04231 10.3859 3.1636L16.3859 6.1588C16.6789 6.30506 16.864 6.60438 16.864 6.93184V13.652C16.864 13.9693 16.6901 14.261 16.411 14.4119L10.411 17.6568C10.1545 17.7954 9.84545 17.7954 9.589 17.6568L3.58899 14.4119C3.3099 14.261 3.13599 13.9693 3.13599 13.652V6.93184C3.13599 6.60438 3.32111 6.30506 3.61409 6.1588L9.6141 3.1636ZM8.90296 5.44995L12.9921 7.57628L14.127 6.96251L10 4.90231L8.90296 5.44995ZM15.136 8.38135L10.864 10.6916V15.4473L15.136 13.137V8.38135ZM9.136 15.4473V10.6916L4.86399 8.38134V13.137L9.136 15.4473ZM5.873 6.96251L10 9.19439L11.156 8.56921L6.99199 6.40391L5.873 6.96251Z" fill="white"/>
</svg>
