<svg width="16" height="16" viewBox="0 0 16 16" fill="none" xmlns="http://www.w3.org/2000/svg">
<path fill-rule="evenodd" clip-rule="evenodd" d="M3.05025 3.05025C0.316583 5.78392 0.316583 10.2161 3.05025 12.9497C5.78393 15.6834 10.2161 15.6834 12.9497 12.9497C15.6834 10.2161 15.6834 5.78393 12.9497 3.05025C10.2161 0.316586 5.78393 0.316579 3.05025 3.05025ZM5.17157 7.25C4.75736 7.25 4.42157 7.58579 4.42157 8C4.42157 8.41421 4.75736 8.75 5.17157 8.75L7.25 8.75V10.8284C7.25 11.2426 7.58576 11.5784 7.99998 11.5784C8.41419 11.5784 8.74998 11.2426 8.74998 10.8284L8.75 8.75L10.8284 8.74998C11.2426 8.74999 11.5784 8.41422 11.5784 8C11.5784 7.58578 11.2426 7.25002 10.8284 7.25002L8.75 7.25L8.74998 5.1716C8.74998 4.75738 8.41419 4.42159 7.99998 4.42159C7.58576 4.4216 7.25 4.75736 7.25 5.17157V7.25L5.17157 7.25Z" fill="white"/>
</svg>
