<svg width="21" height="21" viewBox="0 0 21 21" fill="none" xmlns="http://www.w3.org/2000/svg">
<g clip-path="url(#clip0_5006_75023)">
<path d="M13.618 11.7346L14.5209 10.5737L14.5209 10.5737C14.6813 10.3675 14.7615 10.2644 14.8361 10.1612C15.6867 8.98523 16.168 7.58265 16.2185 6.13218C16.223 6.00488 16.223 5.87428 16.223 5.61308C16.223 5.55344 16.223 5.52362 16.2209 5.49848C16.1963 5.20185 15.9609 4.96646 15.6642 4.94184C15.6391 4.93976 15.6093 4.93976 15.5496 4.93976C15.2884 4.93976 15.1578 4.93976 15.0305 4.94419C13.5801 4.99476 12.1775 5.476 11.0015 6.32658C10.8983 6.40123 10.7952 6.48141 10.589 6.64178L9.42811 7.54471C9.23103 7.698 9.13249 7.77464 9.02729 7.84048C8.93383 7.89898 8.8365 7.95107 8.73598 7.99639C8.62284 8.0474 8.50441 8.08687 8.26755 8.16583L5.30429 9.15358C5.16082 9.20141 5.09852 9.36979 5.17634 9.49948C6.77348 12.1614 9.00132 14.3892 11.6632 15.9864C11.7929 16.0642 11.9613 16.0019 12.0091 15.8584L12.9969 12.8952L12.9969 12.8951C13.0758 12.6583 13.1153 12.5399 13.1663 12.4267C13.2116 12.3262 13.2637 12.2289 13.3222 12.1354C13.3881 12.0302 13.4647 11.9317 13.618 11.7346L13.618 11.7346Z" stroke="white" stroke-width="1.5" stroke-linecap="round"/>
<path d="M5.45312 13.123L5.07463 13.5015C4.4759 14.1003 4.04352 14.8447 3.8201 15.6614L3.30491 17.5447C3.25387 17.7313 3.42501 17.9027 3.61169 17.8519L5.49504 17.3395C6.31427 17.1166 7.06105 16.6835 7.66139 16.0832L8.03734 15.7073" stroke="white" stroke-width="1.5" stroke-linecap="round"/>
<circle cx="12.7773" cy="8.38477" r="1" fill="white"/>
</g>
<defs>
<clipPath id="clip0_5006_75023">
<rect width="20" height="20" fill="white" transform="translate(0.191406 0.96875)"/>
</clipPath>
</defs>
</svg>
