<svg width="20" height="20" viewBox="0 0 20 20" fill="none" xmlns="http://www.w3.org/2000/svg">
<path fill-rule="evenodd" clip-rule="evenodd" d="M15.2767 4.71878C15.0637 4.71884 14.9604 4.71927 14.8604 4.72276C13.5588 4.76814 12.3001 5.19999 11.2448 5.9633C11.1547 6.02852 11.0635 6.09931 10.8533 6.26281L9.69235 7.16575C9.68367 7.1725 9.6751 7.17916 9.66664 7.18574C9.49424 7.31988 9.36717 7.41875 9.22899 7.50524C9.10675 7.58175 8.97946 7.64987 8.848 7.70914C8.6994 7.77613 8.54665 7.82702 8.33942 7.89606C8.32925 7.89945 8.31894 7.90288 8.3085 7.90636L5.9637 8.68796C7.35055 10.8242 9.17132 12.645 11.3076 14.0318L12.0892 11.687C12.0926 11.6766 12.0961 11.6663 12.0995 11.6561C12.1685 11.4489 12.2194 11.2961 12.2864 11.1475C12.3456 11.016 12.4138 10.8888 12.4903 10.7665C12.5768 10.6283 12.6756 10.5013 12.8098 10.3289C12.8163 10.3204 12.823 10.3118 12.8298 10.3032L13.7327 9.14225C13.8962 8.93204 13.967 8.84085 14.0322 8.75067C14.7955 7.69536 15.2274 6.43671 15.2728 5.13507C15.2762 5.03515 15.2767 4.93183 15.2767 4.71878ZM15.5301 3.22343C16.1919 3.27837 16.7171 3.80359 16.7721 4.46546C16.7769 4.52337 16.7768 4.58473 16.7767 4.62892C16.7767 4.63351 16.7767 4.63791 16.7767 4.6421V4.65757C16.7767 4.90412 16.7767 5.04687 16.7718 5.18734C16.7161 6.78663 16.1855 8.33313 15.2476 9.62977C15.1652 9.74365 15.0776 9.85633 14.9262 10.0509L14.0138 11.2241C13.8516 11.4326 13.8027 11.4969 13.7617 11.5624C13.7213 11.627 13.6852 11.6944 13.6538 11.764C13.6221 11.8344 13.5957 11.9108 13.5122 12.1614L12.5244 15.1246C12.3249 15.7233 11.6223 15.9832 11.0811 15.6585C8.31367 13.998 5.99748 11.6818 4.337 8.91437C4.01232 8.37325 4.27223 7.67064 4.8709 7.47109L7.83416 6.48333C8.08474 6.39981 8.16114 6.37341 8.23152 6.34168C8.3011 6.31031 8.36846 6.27426 8.43316 6.23377C8.4986 6.19281 8.56294 6.14388 8.77144 5.98172L9.9446 5.06925C10.1392 4.9179 10.2519 4.83027 10.3657 4.7479C11.6624 3.81004 13.2089 3.27943 14.8082 3.22367C14.9486 3.21877 15.0914 3.21877 15.3379 3.21878L15.3534 3.21878C15.3576 3.21878 15.362 3.21877 15.3666 3.21876C15.4108 3.21871 15.4721 3.21863 15.5301 3.22343Z" fill="white"/>
<path fill-rule="evenodd" clip-rule="evenodd" d="M5.79007 11.6231C6.08297 11.916 6.08297 12.3908 5.79007 12.6837L5.41158 13.0622C4.905 13.5688 4.53917 14.1986 4.35014 14.8896L4.06587 15.9288L5.10476 15.6462C5.7979 15.4576 6.42973 15.0912 6.93767 14.5832L7.31362 14.2073C7.60652 13.9144 8.08139 13.9144 8.37428 14.2073C8.66718 14.5002 8.66718 14.975 8.37428 15.2679L7.99833 15.6439C7.30559 16.3366 6.44387 16.8363 5.49855 17.0935L3.6152 17.606C2.86851 17.8091 2.18393 17.1236 2.38811 16.3772L2.9033 14.4939C3.1611 13.5514 3.66004 12.6924 4.35092 12.0015L4.72941 11.6231C5.02231 11.3302 5.49718 11.3302 5.79007 11.6231Z" fill="white"/>
<path d="M13.581 7.41407C13.581 7.96635 13.1333 8.41407 12.581 8.41407C12.0287 8.41407 11.581 7.96635 11.581 7.41407C11.581 6.86178 12.0287 6.41407 12.581 6.41407C13.1333 6.41407 13.581 6.86178 13.581 7.41407Z" fill="white"/>
</svg>
