<svg width="20" height="20" viewBox="0 0 20 20" fill="none" xmlns="http://www.w3.org/2000/svg">
<path fill-rule="evenodd" clip-rule="evenodd" d="M9.16536 4.70898C6.7031 4.70898 4.70703 6.70505 4.70703 9.16732C4.70703 11.6296 6.7031 13.6257 9.16536 13.6257C11.6276 13.6257 13.6237 11.6296 13.6237 9.16732C13.6237 6.70505 11.6276 4.70898 9.16536 4.70898ZM3.20703 9.16732C3.20703 5.87662 5.87467 3.20898 9.16536 3.20898C12.4561 3.20898 15.1237 5.87662 15.1237 9.16732C15.1237 10.5423 14.6579 11.8086 13.8756 12.8169L16.5707 15.512C16.8636 15.8049 16.8636 16.2798 16.5707 16.5726C16.2778 16.8655 15.8029 16.8655 15.51 16.5726L12.8149 13.8775C11.8066 14.6599 10.5404 15.1257 9.16536 15.1257C5.87467 15.1257 3.20703 12.458 3.20703 9.16732Z" fill="white"/>
</svg>
