<svg width="20" height="20" viewBox="0 0 20 20" fill="none" xmlns="http://www.w3.org/2000/svg">
<path d="M4.68301 12.4696L5.60034 12.6132C6.27752 12.7193 6.76112 13.3395 6.71125 14.0382L6.64366 14.9854C6.62398 15.2612 6.77096 15.521 7.0144 15.6412L7.69289 15.9754C7.93633 16.0956 8.22702 16.0506 8.42584 15.8633L9.10761 15.2189C9.61024 14.7437 10.3858 14.7437 10.8891 15.2189L11.5709 15.8633C11.7697 16.0513 12.0597 16.0956 12.3038 15.9754L12.9836 15.6405C13.2264 15.521 13.3728 15.2619 13.3531 14.9867L13.2855 14.0382C13.2356 13.3395 13.7192 12.7193 14.3964 12.6132L15.3137 12.4696C15.5808 12.428 15.796 12.2232 15.8564 11.9534L16.0237 11.203C16.0841 10.9331 15.9771 10.6532 15.754 10.4975L14.9883 9.96117C14.4233 9.56514 14.2507 8.79188 14.5919 8.18441L15.0545 7.36147C15.1891 7.12184 15.1667 6.8218 14.9981 6.60566L14.5289 6.00357C14.3603 5.78743 14.0795 5.69816 13.8209 5.77937L12.9338 6.05727C12.2783 6.26266 11.5794 5.91832 11.3275 5.26655L10.9876 4.38522C10.8878 4.12747 10.6444 3.95832 10.3734 3.95899L9.6214 3.961C9.35039 3.96167 9.10761 4.13216 9.00918 4.39059L8.67781 5.26185C8.42847 5.91765 7.72636 6.26468 7.06887 6.05794L6.14497 5.76796C5.88578 5.68607 5.60362 5.77602 5.43499 5.9935L4.9691 6.59627C4.80046 6.81442 4.78012 7.11513 4.91726 7.35476L5.39037 8.17971C5.7388 8.78785 5.56819 9.5685 4.99994 9.96654L4.24337 10.4968C4.02027 10.6532 3.91331 10.9331 3.97368 11.2023L4.141 11.9527C4.20072 12.2232 4.41594 12.428 4.68301 12.4696Z" stroke="white" stroke-width="1.5" stroke-linecap="round" stroke-linejoin="round"/>
<path d="M11.3259 8.67411C12.058 9.40626 12.058 10.5937 11.3259 11.3259C10.5937 12.058 9.40626 12.058 8.67411 11.3259C7.94196 10.5937 7.94196 9.40626 8.67411 8.67411C9.40626 7.94196 10.5937 7.94196 11.3259 8.67411Z" stroke="white" stroke-width="1.5" stroke-linecap="round" stroke-linejoin="round"/>
</svg>
