<svg width="20" height="20" viewBox="0 0 20 20" fill="none" xmlns="http://www.w3.org/2000/svg">
<path fill-rule="evenodd" clip-rule="evenodd" d="M10.3714 3.20899C10.9616 3.20753 11.4783 3.57557 11.6869 4.11456L12.0269 4.99611C12.1405 5.29005 12.442 5.42536 12.7094 5.34158L13.596 5.06385C14.1586 4.88737 14.763 5.08449 15.1201 5.54221L15.5893 6.1443C15.9444 6.59974 15.9901 7.22669 15.7084 7.7286L15.2457 8.5517C15.0904 8.8282 15.1739 9.17527 15.4184 9.34685M15.4184 9.34685L16.1832 9.88249C16.6607 10.2161 16.8806 10.8063 16.7556 11.3662L16.5883 12.1166C16.4627 12.6779 16.0102 13.1198 15.4296 13.2105L14.5123 13.3542C14.2335 13.3979 14.0104 13.6614 14.0334 13.9849L14.101 14.9332C14.1418 15.5046 13.8385 16.0556 13.3147 16.3134L12.6352 16.6482C12.108 16.9077 11.4805 16.8101 11.0555 16.4084L10.3741 15.7643C10.1596 15.5618 9.83605 15.5622 9.62274 15.7639L8.93994 16.4093C8.51661 16.808 7.88953 16.9087 7.36129 16.6482L6.6828 16.3139C6.15965 16.0557 5.85455 15.5048 5.89542 14.932L5.96301 13.9849C5.98609 13.6614 5.76302 13.3979 5.48417 13.3542L4.56739 13.2106C3.98691 13.1199 3.53336 12.6784 3.40869 12.1153L3.24172 11.3664C3.11625 10.8059 3.33674 10.2163 3.81271 9.88268L4.56933 9.35237C4.8148 9.18043 4.89818 8.82956 4.73947 8.55256L4.26652 7.72788C3.9794 7.22618 4.02064 6.59676 4.37555 6.13761L4.84215 5.53392C5.19913 5.07355 5.80546 4.87455 6.37001 5.05257L7.29332 5.34235C7.5616 5.42671 7.86453 5.29014 7.97663 4.9953L8.30803 4.12397C8.51381 3.58369 9.02897 3.21253 9.61924 3.211L10.3714 3.20899M10.3085 4.70916L9.68966 4.71082L9.37871 5.5284C8.99214 6.54499 7.89069 7.10238 6.84413 6.77352L5.98764 6.5047L5.58957 7.01973L6.04083 7.80659C6.57894 8.7458 6.32115 9.95653 5.43026 10.5807L4.71512 11.0819L4.86149 11.7384L5.71623 11.8722C6.79172 12.0407 7.53586 13.0176 7.45921 14.0916L7.39491 14.9926L7.96034 15.2712L8.5922 14.674C9.38414 13.9252 10.6118 13.9257 11.4039 14.6736L12.0361 15.2712L12.6015 14.9926L12.5372 14.0916C12.4606 13.0176 13.2047 12.0407 14.2802 11.8722L15.1358 11.7383L15.282 11.0826L14.5579 10.5755C13.6726 9.95494 13.4108 8.75545 13.9379 7.81711L14.3793 7.0319L13.9775 6.51623L13.1579 6.77296C12.1143 7.09992 11.0181 6.54657 10.6278 5.53699L10.3085 4.70916ZM10.7954 9.20444C10.3562 8.76519 9.64355 8.76519 9.2043 9.20444C8.76504 9.64369 8.76504 10.3563 9.2043 10.7956C9.64355 11.2348 10.3562 11.2348 10.7954 10.7956C11.2347 10.3563 11.2347 9.64369 10.7954 9.20444ZM8.14364 8.14378C9.16868 7.11874 10.831 7.11874 11.8561 8.14378C12.8811 9.16882 12.8811 10.8312 11.8561 11.8562C10.831 12.8813 9.16868 12.8813 8.14364 11.8562C7.1186 10.8312 7.1186 9.16882 8.14364 8.14378Z" fill="white"/>
</svg>
