<svg width="20" height="20" viewBox="0 0 20 20" fill="none" xmlns="http://www.w3.org/2000/svg">
<path fill-rule="evenodd" clip-rule="evenodd" d="M3.20703 6.45768C3.20703 5.12299 4.28901 4.04102 5.6237 4.04102H14.3737C15.7084 4.04102 16.7904 5.12299 16.7904 6.45768V13.541C16.7904 14.8757 15.7084 15.9577 14.3737 15.9577H13.957C13.5428 15.9577 13.207 15.6219 13.207 15.2077C13.207 14.7935 13.5428 14.4577 13.957 14.4577H14.3737C14.88 14.4577 15.2904 14.0473 15.2904 13.541V6.45768C15.2904 5.95142 14.88 5.54102 14.3737 5.54102H5.6237C5.11744 5.54102 4.70703 5.95142 4.70703 6.45768V13.541C4.70703 14.0473 5.11744 14.4577 5.6237 14.4577H6.04036C6.45458 14.4577 6.79036 14.7935 6.79036 15.2077C6.79036 15.6219 6.45458 15.9577 6.04036 15.9577H5.6237C4.28901 15.9577 3.20703 14.8757 3.20703 13.541V6.45768ZM13.1512 11.8468C11.4101 10.1057 8.58727 10.1057 6.84618 11.8468C6.55329 12.1397 6.07841 12.1397 5.78552 11.8468C5.49263 11.5539 5.49263 11.0791 5.78552 10.7862C8.11239 8.4593 11.885 8.4593 14.2119 10.7862C14.5048 11.0791 14.5048 11.5539 14.2119 11.8468C13.919 12.1397 13.4441 12.1397 13.1512 11.8468ZM11.3834 13.6146C10.6187 12.8498 9.37872 12.8498 8.61395 13.6146C8.32105 13.9075 7.84618 13.9075 7.55329 13.6146C7.26039 13.3217 7.26039 12.8468 7.55329 12.5539C8.90385 11.2034 11.0935 11.2034 12.4441 12.5539C12.737 12.8468 12.737 13.3217 12.4441 13.6146C12.1512 13.9075 11.6763 13.9075 11.3834 13.6146ZM9.9987 14.2493C10.4129 14.2493 10.7487 14.5851 10.7487 14.9993V15.0077C10.7487 15.4219 10.4129 15.7577 9.9987 15.7577C9.58448 15.7577 9.2487 15.4219 9.2487 15.0077V14.9993C9.2487 14.5851 9.58448 14.2493 9.9987 14.2493Z" fill="white"/>
</svg>
