<svg width="20" height="20" viewBox="0 0 20 20" fill="none" xmlns="http://www.w3.org/2000/svg">
<path fill-rule="evenodd" clip-rule="evenodd" d="M8.95964 4.70898C8.45337 4.70898 8.04297 5.11939 8.04297 5.62565V5.70898H11.1263V5.62565C11.1263 5.11939 10.7159 4.70898 10.2096 4.70898H8.95964ZM12.6263 5.70898V5.62565C12.6263 4.29096 11.5443 3.20898 10.2096 3.20898H8.95964C7.62495 3.20898 6.54297 4.29096 6.54297 5.62565V5.70898H3.95703C3.54282 5.70898 3.20703 6.04477 3.20703 6.45898C3.20703 6.8732 3.54282 7.20898 3.95703 7.20898H4.10536L4.74675 14.585C4.85534 15.8338 5.90079 16.7923 7.15433 16.7923H12.0149C13.2685 16.7923 14.3139 15.8338 14.4225 14.585L15.0639 7.20898H15.207C15.6212 7.20898 15.957 6.8732 15.957 6.45898C15.957 6.04477 15.6212 5.70898 15.207 5.70898H12.6263ZM13.5583 7.20898H5.61102L6.24111 14.4551C6.2823 14.9288 6.67885 15.2923 7.15433 15.2923H12.0149C12.4904 15.2923 12.887 14.9288 12.9282 14.4551L13.5583 7.20898ZM8.1263 8.20898C8.54052 8.20898 8.8763 8.54477 8.8763 8.95898V13.5423C8.8763 13.9565 8.54052 14.2923 8.1263 14.2923C7.71209 14.2923 7.3763 13.9565 7.3763 13.5423V8.95898C7.3763 8.54477 7.71209 8.20898 8.1263 8.20898ZM11.043 8.20898C11.4572 8.20898 11.793 8.54477 11.793 8.95898V13.5423C11.793 13.9565 11.4572 14.2923 11.043 14.2923C10.6288 14.2923 10.293 13.9565 10.293 13.5423V8.95898C10.293 8.54477 10.6288 8.20898 11.043 8.20898Z" fill="white"/>
</svg>
