<svg width="20" height="20" viewBox="0 0 20 20" fill="none" xmlns="http://www.w3.org/2000/svg">
<path fill-rule="evenodd" clip-rule="evenodd" d="M9.9987 3.20898C10.2072 3.20898 10.4064 3.29582 10.5483 3.44865L13.2566 6.36531C13.5385 6.66885 13.5209 7.14339 13.2174 7.42525C12.9138 7.7071 12.4393 7.68952 12.1574 7.38599L10.7487 5.86889V11.8757C10.7487 12.2899 10.4129 12.6257 9.9987 12.6257C9.58448 12.6257 9.2487 12.2899 9.2487 11.8757V5.86889L7.83996 7.38599C7.55811 7.68952 7.08356 7.7071 6.78003 7.42525C6.47649 7.14339 6.45892 6.66885 6.74077 6.36531L9.4491 3.44865C9.59101 3.29582 9.79015 3.20898 9.9987 3.20898ZM3.95703 11.5423C4.37124 11.5423 4.70703 11.8781 4.70703 12.2923V13.5423C4.70703 14.5088 5.49053 15.2923 6.45703 15.2923H13.5404C14.5069 15.2923 15.2904 14.5088 15.2904 13.5423V12.2923C15.2904 11.8781 15.6262 11.5423 16.0404 11.5423C16.4546 11.5423 16.7904 11.8781 16.7904 12.2923V13.5423C16.7904 15.3372 15.3353 16.7923 13.5404 16.7923H6.45703C4.66211 16.7923 3.20703 15.3372 3.20703 13.5423V12.2923C3.20703 11.8781 3.54282 11.5423 3.95703 11.5423Z" fill="white"/>
</svg>
