<svg width="20" height="20" viewBox="0 0 20 20" fill="none" xmlns="http://www.w3.org/2000/svg">
<path fill-rule="evenodd" clip-rule="evenodd" d="M5.96967 5.96967C6.26256 5.67678 6.73744 5.67678 7.03033 5.96967L10 8.93934L12.9697 5.96967C13.2626 5.67678 13.7374 5.67678 14.0303 5.96967C14.3232 6.26256 14.3232 6.73744 14.0303 7.03033L11.0607 10L14.0303 12.9697C14.3232 13.2626 14.3232 13.7374 14.0303 14.0303C13.7374 14.3232 13.2626 14.3232 12.9697 14.0303L10 11.0607L7.03033 14.0303C6.73744 14.3232 6.26256 14.3232 5.96967 14.0303C5.67678 13.7374 5.67678 13.2626 5.96967 12.9697L8.93934 10L5.96967 7.03033C5.67678 6.73744 5.67678 6.26256 5.96967 5.96967Z" fill="white"/>
</svg>
